<svg xmlns="http://www.w3.org/2000/svg" xmlns:xlink="http://www.w3.org/1999/xlink" width="580pt" height="245pt" viewBox="0 0 580 245"><g id="graph0" class="graph" transform="scale(1 1) rotate(0) translate(4 241)"><title>oneDegreeRelationshipsDiagram</title><polygon fill="#fff" stroke="none" points="-4 4 -4 -241 576 -241 576 4 -4 4"/><text x="74.5" y="-7.2" font-family="Helvetica,sans-Serif" font-size="11" text-anchor="middle">Generated by SchemaSpy</text><g id="node1" class="node"><title>address_coin_balances</title><g id="a_node1"><a target="_top" xlink:href="../../tables/address_coin_balances.html" xlink:title="address_coin_balances"><polygon fill="#fff" stroke="none" points="295 -37 295 -213 564 -213 564 -37 295 -37"/><polygon fill="#f5f5f5" stroke="none" points="297.5 -189 297.5 -211 562.5 -211 562.5 -189 297.5 -189"/><polygon fill="none" stroke="#000" points="297.5 -189 297.5 -211 562.5 -211 562.5 -189 297.5 -189"/><text x="302.5" y="-198.2" font-family="Helvetica,sans-Serif" font-size="11" font-weight="bold" text-anchor="start">address_coin_balances</text><text x="523.5" y="-197.2" font-family="Helvetica,sans-Serif" font-size="11" text-anchor="start">[table]</text><polygon fill="#fff" stroke="none" points="297.5 -167 297.5 -189 452.5 -189 452.5 -167 297.5 -167"/><polygon fill="none" stroke="#000" points="297.5 -167 297.5 -189 452.5 -189 452.5 -167 297.5 -167"/><image width="11" height="12" x="302.5" y="-184" preserveAspectRatio="xMinYMin meet" xlink:href="../../images/foreignKeys.png"/><text x="317.5" y="-175.2" font-family="Helvetica,sans-Serif" font-size="11" text-anchor="start">address_hash</text><polygon fill="none" stroke="#000" points="452.5 -167 452.5 -189 562.5 -189 562.5 -167 452.5 -167"/><text x="455.5" y="-175.2" font-family="Helvetica,sans-Serif" font-size="11" text-anchor="start">bytea[2147483647]</text><polygon fill="#fff" stroke="none" points="297.5 -145 297.5 -167 452.5 -167 452.5 -145 297.5 -145"/><polygon fill="none" stroke="#000" points="297.5 -145 297.5 -167 452.5 -167 452.5 -145 297.5 -145"/><text x="317.5" y="-153.2" font-family="Helvetica,sans-Serif" font-size="11" text-anchor="start">block_number</text><polygon fill="none" stroke="#000" points="452.5 -145 452.5 -167 562.5 -167 562.5 -145 452.5 -145"/><text x="455.5" y="-153.2" font-family="Helvetica,sans-Serif" font-size="11" text-anchor="start">int8[19]</text><polygon fill="none" stroke="#000" points="297.5 -123 297.5 -145 452.5 -145 452.5 -123 297.5 -123"/><text x="317.5" y="-131.2" font-family="Helvetica,sans-Serif" font-size="11" text-anchor="start">value</text><polygon fill="none" stroke="#000" points="452.5 -123 452.5 -145 562.5 -145 562.5 -123 452.5 -123"/><text x="455.5" y="-131.2" font-family="Helvetica,sans-Serif" font-size="11" text-anchor="start">numeric[100]</text><polygon fill="#fff" stroke="none" points="297.5 -101 297.5 -123 452.5 -123 452.5 -101 297.5 -101"/><polygon fill="none" stroke="#000" points="297.5 -101 297.5 -123 452.5 -123 452.5 -101 297.5 -101"/><text x="317.5" y="-109.2" font-family="Helvetica,sans-Serif" font-size="11" text-anchor="start">value_fetched_at</text><polygon fill="none" stroke="#000" points="452.5 -101 452.5 -123 562.5 -123 562.5 -101 452.5 -101"/><text x="455.5" y="-109.2" font-family="Helvetica,sans-Serif" font-size="11" text-anchor="start">timestamp[29,6]</text><polygon fill="none" stroke="#000" points="297.5 -79 297.5 -101 452.5 -101 452.5 -79 297.5 -79"/><text x="317.5" y="-87.2" font-family="Helvetica,sans-Serif" font-size="11" text-anchor="start">inserted_at</text><polygon fill="none" stroke="#000" points="452.5 -79 452.5 -101 562.5 -101 562.5 -79 452.5 -79"/><text x="455.5" y="-87.2" font-family="Helvetica,sans-Serif" font-size="11" text-anchor="start">timestamp[29,6]</text><polygon fill="none" stroke="#000" points="297.5 -57 297.5 -79 452.5 -79 452.5 -57 297.5 -57"/><text x="317.5" y="-65.2" font-family="Helvetica,sans-Serif" font-size="11" text-anchor="start">updated_at</text><polygon fill="none" stroke="#000" points="452.5 -57 452.5 -79 562.5 -79 562.5 -57 452.5 -57"/><text x="455.5" y="-65.2" font-family="Helvetica,sans-Serif" font-size="11" text-anchor="start">timestamp[29,6]</text><polygon fill="#fff" stroke="none" points="297.5 -39 297.5 -57 365.5 -57 365.5 -39 297.5 -39"/><polygon fill="none" stroke="#000" points="297.5 -39 297.5 -57 365.5 -57 365.5 -39 297.5 -39"/><text x="300.5" y="-45.2" font-family="Helvetica,sans-Serif" font-size="11" text-anchor="start">&lt; 1</text><polygon fill="#fff" stroke="none" points="365.5 -39 365.5 -57 452.5 -57 452.5 -39 365.5 -39"/><polygon fill="none" stroke="#000" points="365.5 -39 365.5 -57 452.5 -57 452.5 -39 365.5 -39"/><text x="413.5" y="-45.2" font-family="Helvetica,sans-Serif" font-size="11" text-anchor="start">3 rows</text><polygon fill="#fff" stroke="none" points="452.5 -39 452.5 -57 562.5 -57 562.5 -39 452.5 -39"/><polygon fill="none" stroke="#000" points="452.5 -39 452.5 -57 562.5 -57 562.5 -39 452.5 -39"/><text x="542.5" y="-45.2" font-family="Helvetica,sans-Serif" font-size="11" text-anchor="start">0 &gt;</text><polygon fill="none" stroke="#000" stroke-width="2" points="296 -38 296 -212 563 -212 563 -38 296 -38"/></a></g></g><g id="node2" class="node"><title>addresses</title><g id="a_node2"><a target="_top" xlink:href="../../tables/addresses.html" xlink:title="addresses"><polygon fill="#fff" stroke="none" points="8 -109 8 -233 246 -233 246 -109 8 -109"/><polygon fill="#f5f5f5" stroke="none" points="8 -211 8 -233 246 -233 246 -211 8 -211"/><polygon fill="none" stroke="#000" points="8 -211 8 -233 246 -233 246 -211 8 -211"/><text x="13" y="-220.2" font-family="Helvetica,sans-Serif" font-size="11" font-weight="bold" text-anchor="start">addresses</text><text x="207" y="-219.2" font-family="Helvetica,sans-Serif" font-size="11" text-anchor="start">[table]</text><polygon fill="#fff" stroke="none" points="8 -189 8 -211 246 -211 246 -189 8 -189"/><polygon fill="none" stroke="#000" points="8 -189 8 -211 246 -211 246 -189 8 -189"/><text x="28" y="-197.2" font-family="Helvetica,sans-Serif" font-size="11" text-anchor="start">fetched_coin_balance</text><polygon fill="none" stroke="#000" points="8 -167 8 -189 246 -189 246 -167 8 -167"/><image width="11" height="12" x="13" y="-184" preserveAspectRatio="xMinYMin meet" xlink:href="../../images/primaryKeys.png"/><text x="28" y="-175.2" font-family="Helvetica,sans-Serif" font-size="11" text-anchor="start">hash</text><polygon fill="#fff" stroke="none" points="8 -145 8 -167 246 -167 246 -145 8 -145"/><polygon fill="none" stroke="#000" points="8 -145 8 -167 246 -167 246 -145 8 -145"/><text x="28" y="-153.2" font-family="Helvetica,sans-Serif" font-size="11" text-anchor="start">inserted_at</text><polygon fill="none" stroke="#000" points="8 -127 8 -145 246 -145 246 -127 8 -127"/><text x="11" y="-133.2" font-family="Helvetica,sans-Serif" font-size="11" text-anchor="start">...</text><polygon fill="#fff" stroke="none" points="8 -109 8 -127 97 -127 97 -109 8 -109"/><polygon fill="none" stroke="#000" points="8 -109 8 -127 97 -127 97 -109 8 -109"/><polygon fill="#fff" stroke="none" points="97 -109 97 -127 177 -127 177 -109 97 -109"/><polygon fill="none" stroke="#000" points="97 -109 97 -127 177 -127 177 -109 97 -109"/><text x="138" y="-115.2" font-family="Helvetica,sans-Serif" font-size="11" text-anchor="start">2 rows</text><polygon fill="#fff" stroke="none" points="177 -109 177 -127 246 -127 246 -109 177 -109"/><polygon fill="none" stroke="#000" points="177 -109 177 -127 246 -127 246 -109 177 -109"/><text x="219" y="-115.2" font-family="Helvetica,sans-Serif" font-size="11" text-anchor="start">19 &gt;</text></a></g></g><g id="edge1" class="edge"><title>address_coin_balances:address_hash:w-&gt;addresses:hash:e</title><path fill="none" stroke="#000" d="M281.843,-178C270.414,-178 263.156,-178 247,-178"/><polygon fill="#000" stroke="#000" points="288.5 -178 296.5 -181.6 292.5 -178 296.5 -178 296.5 -178 296.5 -178 292.5 -178 296.5 -174.4 288.5 -178 288.5 -178"/><ellipse cx="285.3" cy="-178" fill="none" stroke="#000" rx="3.2" ry="3.2"/></g></g></svg>