<svg xmlns="http://www.w3.org/2000/svg" xmlns:xlink="http://www.w3.org/1999/xlink" width="1496" height="991pt" viewBox="0 0 1122 990.78"><g id="graph0" class="graph" transform="scale(1 1) rotate(0) translate(4 986.785)"><title>twoDegreesRelationshipsDiagram</title><polygon fill="#fff" stroke="none" points="-4 4 -4 -986.785 1118 -986.785 1118 4 -4 4"/><text x="74.5" y="-7.2" font-family="Helvetica,sans-Serif" font-size="11" text-anchor="middle">Generated by SchemaSpy</text><g id="node1" class="node"><title>address_coin_balances</title><g id="a_node1"><a target="_top" xlink:href="../../tables/address_coin_balances.html" xlink:title="address_coin_balances"><polygon fill="#fff" stroke="none" points="313.5 -812.785 313.5 -870.785 489.5 -870.785 489.5 -812.785 313.5 -812.785"/><polygon fill="#f5f5f5" stroke="none" points="313.5 -848.785 313.5 -870.785 489.5 -870.785 489.5 -848.785 313.5 -848.785"/><polygon fill="none" stroke="#000" points="313.5 -848.785 313.5 -870.785 489.5 -870.785 489.5 -848.785 313.5 -848.785"/><text x="318.5" y="-857.985" font-family="Helvetica,sans-Serif" font-size="11" font-weight="bold" text-anchor="start">address_coin_balances</text><text x="450.5" y="-856.985" font-family="Helvetica,sans-Serif" font-size="11" text-anchor="start">[table]</text><polygon fill="none" stroke="#000" points="313.5 -830.785 313.5 -848.785 489.5 -848.785 489.5 -830.785 313.5 -830.785"/><text x="316.5" y="-836.985" font-family="Helvetica,sans-Serif" font-size="11" text-anchor="start">...</text><polygon fill="#fff" stroke="none" points="313.5 -812.785 313.5 -830.785 385.5 -830.785 385.5 -812.785 313.5 -812.785"/><polygon fill="none" stroke="#000" points="313.5 -812.785 313.5 -830.785 385.5 -830.785 385.5 -812.785 313.5 -812.785"/><text x="316.5" y="-818.985" font-family="Helvetica,sans-Serif" font-size="11" text-anchor="start">&lt; 1</text><polygon fill="#fff" stroke="none" points="385.5 -812.785 385.5 -830.785 451.5 -830.785 451.5 -812.785 385.5 -812.785"/><polygon fill="none" stroke="#000" points="385.5 -812.785 385.5 -830.785 451.5 -830.785 451.5 -812.785 385.5 -812.785"/><text x="412.5" y="-818.985" font-family="Helvetica,sans-Serif" font-size="11" text-anchor="start">3 rows</text><polygon fill="#fff" stroke="none" points="451.5 -812.785 451.5 -830.785 489.5 -830.785 489.5 -812.785 451.5 -812.785"/><polygon fill="none" stroke="#000" points="451.5 -812.785 451.5 -830.785 489.5 -830.785 489.5 -812.785 451.5 -812.785"/></a></g></g><g id="node2" class="node"><title>addresses</title><g id="a_node2"><a target="_top" xlink:href="../../tables/addresses.html" xlink:title="addresses"><polygon fill="#fff" stroke="none" points="8 -335.785 8 -459.785 246 -459.785 246 -335.785 8 -335.785"/><polygon fill="#f5f5f5" stroke="none" points="8 -437.785 8 -459.785 246 -459.785 246 -437.785 8 -437.785"/><polygon fill="none" stroke="#000" points="8 -437.785 8 -459.785 246 -459.785 246 -437.785 8 -437.785"/><text x="13" y="-446.985" font-family="Helvetica,sans-Serif" font-size="11" font-weight="bold" text-anchor="start">addresses</text><text x="207" y="-445.985" font-family="Helvetica,sans-Serif" font-size="11" text-anchor="start">[table]</text><polygon fill="#fff" stroke="none" points="8 -415.785 8 -437.785 246 -437.785 246 -415.785 8 -415.785"/><polygon fill="none" stroke="#000" points="8 -415.785 8 -437.785 246 -437.785 246 -415.785 8 -415.785"/><text x="28" y="-423.985" font-family="Helvetica,sans-Serif" font-size="11" text-anchor="start">fetched_coin_balance</text><polygon fill="none" stroke="#000" points="8 -393.785 8 -415.785 246 -415.785 246 -393.785 8 -393.785"/><image width="11" height="12" x="13" y="-410.785" preserveAspectRatio="xMinYMin meet" xlink:href="../../images/primaryKeys.png"/><text x="28" y="-401.985" font-family="Helvetica,sans-Serif" font-size="11" text-anchor="start">hash</text><polygon fill="#fff" stroke="none" points="8 -371.785 8 -393.785 246 -393.785 246 -371.785 8 -371.785"/><polygon fill="none" stroke="#000" points="8 -371.785 8 -393.785 246 -393.785 246 -371.785 8 -371.785"/><text x="28" y="-379.985" font-family="Helvetica,sans-Serif" font-size="11" text-anchor="start">inserted_at</text><polygon fill="none" stroke="#000" points="8 -353.785 8 -371.785 246 -371.785 246 -353.785 8 -353.785"/><text x="11" y="-359.985" font-family="Helvetica,sans-Serif" font-size="11" text-anchor="start">...</text><polygon fill="#fff" stroke="none" points="8 -335.785 8 -353.785 97 -353.785 97 -335.785 8 -335.785"/><polygon fill="none" stroke="#000" points="8 -335.785 8 -353.785 97 -353.785 97 -335.785 8 -335.785"/><polygon fill="#fff" stroke="none" points="97 -335.785 97 -353.785 177 -353.785 177 -335.785 97 -335.785"/><polygon fill="none" stroke="#000" points="97 -335.785 97 -353.785 177 -353.785 177 -335.785 97 -335.785"/><text x="138" y="-341.985" font-family="Helvetica,sans-Serif" font-size="11" text-anchor="start">2 rows</text><polygon fill="#fff" stroke="none" points="177 -335.785 177 -353.785 246 -353.785 246 -335.785 177 -335.785"/><polygon fill="none" stroke="#000" points="177 -335.785 177 -353.785 246 -353.785 246 -335.785 177 -335.785"/><text x="219" y="-341.985" font-family="Helvetica,sans-Serif" font-size="11" text-anchor="start">19 &gt;</text></a></g></g><g id="edge1" class="edge"><title>address_coin_balances:elipses:w-&gt;addresses:hash:e</title><path fill="none" stroke="#000" d="M298.431,-836.024C228.283,-793.507 339.41,-404.785 247,-404.785"/><polygon fill="#000" stroke="#000" points="304.771 -837.719 311.57 -843.263 308.636 -838.752 312.5 -839.785 312.5 -839.785 312.5 -839.785 308.636 -838.752 313.43 -836.307 304.771 -837.719 304.771 -837.719"/><ellipse cx="301.68" cy="-836.892" fill="none" stroke="#000" rx="3.2" ry="3.2"/></g><g id="node3" class="node"><title>address_coin_balances_daily</title><g id="a_node3"><a target="_top" xlink:href="../../tables/address_coin_balances_daily.html" xlink:title="address_coin_balances_daily"><polygon fill="#fff" stroke="none" points="297 -733.785 297 -791.785 506 -791.785 506 -733.785 297 -733.785"/><polygon fill="#f5f5f5" stroke="none" points="297.5 -769.785 297.5 -791.785 506.5 -791.785 506.5 -769.785 297.5 -769.785"/><polygon fill="none" stroke="#000" points="297.5 -769.785 297.5 -791.785 506.5 -791.785 506.5 -769.785 297.5 -769.785"/><text x="302.5" y="-778.985" font-family="Helvetica,sans-Serif" font-size="11" font-weight="bold" text-anchor="start">address_coin_balances_daily</text><text x="467.5" y="-777.985" font-family="Helvetica,sans-Serif" font-size="11" text-anchor="start">[table]</text><polygon fill="none" stroke="#000" points="297.5 -751.785 297.5 -769.785 506.5 -769.785 506.5 -751.785 297.5 -751.785"/><text x="300.5" y="-757.985" font-family="Helvetica,sans-Serif" font-size="11" text-anchor="start">...</text><polygon fill="#fff" stroke="none" points="297.5 -733.785 297.5 -751.785 385.5 -751.785 385.5 -733.785 297.5 -733.785"/><polygon fill="none" stroke="#000" points="297.5 -733.785 297.5 -751.785 385.5 -751.785 385.5 -733.785 297.5 -733.785"/><text x="300.5" y="-739.985" font-family="Helvetica,sans-Serif" font-size="11" text-anchor="start">&lt; 1</text><polygon fill="#fff" stroke="none" points="385.5 -733.785 385.5 -751.785 460.5 -751.785 460.5 -733.785 385.5 -733.785"/><polygon fill="none" stroke="#000" points="385.5 -733.785 385.5 -751.785 460.5 -751.785 460.5 -733.785 385.5 -733.785"/><text x="421.5" y="-739.985" font-family="Helvetica,sans-Serif" font-size="11" text-anchor="start">3 rows</text><polygon fill="#fff" stroke="none" points="460.5 -733.785 460.5 -751.785 506.5 -751.785 506.5 -733.785 460.5 -733.785"/><polygon fill="none" stroke="#000" points="460.5 -733.785 460.5 -751.785 506.5 -751.785 506.5 -733.785 460.5 -733.785"/></a></g></g><g id="edge2" class="edge"><title>address_coin_balances_daily:elipses:w-&gt;addresses:hash:e</title><path fill="none" stroke="#000" d="M282.664,-756.021C230.812,-713.776 321.412,-404.785 247,-404.785"/><polygon fill="#000" stroke="#000" points="288.936 -758.18 295.328 -764.189 292.718 -759.483 296.5 -760.785 296.5 -760.785 296.5 -760.785 292.718 -759.483 297.672 -757.381 288.936 -758.18 288.936 -758.18"/><ellipse cx="285.91" cy="-757.139" fill="none" stroke="#000" rx="3.2" ry="3.2"/></g><g id="node4" class="node"><title>address_current_token_balances</title><g id="a_node4"><a target="_top" xlink:href="../../tables/address_current_token_balances.html" xlink:title="address_current_token_balances"><polygon fill="#fff" stroke="none" points="557 -692.785 557 -978.785 886 -978.785 886 -692.785 557 -692.785"/><polygon fill="#f5f5f5" stroke="none" points="559.5 -954.785 559.5 -976.785 884.5 -976.785 884.5 -954.785 559.5 -954.785"/><polygon fill="none" stroke="#000" points="559.5 -954.785 559.5 -976.785 884.5 -976.785 884.5 -954.785 559.5 -954.785"/><text x="564.5" y="-963.985" font-family="Helvetica,sans-Serif" font-size="11" font-weight="bold" text-anchor="start">address_current_token_balances</text><text x="845.5" y="-962.985" font-family="Helvetica,sans-Serif" font-size="11" text-anchor="start">[table]</text><polygon fill="none" stroke="#000" points="559.5 -932.785 559.5 -954.785 774.5 -954.785 774.5 -932.785 559.5 -932.785"/><image width="11" height="12" x="564.5" y="-949.785" preserveAspectRatio="xMinYMin meet" xlink:href="../../images/primaryKeys.png"/><text x="579.5" y="-940.985" font-family="Helvetica,sans-Serif" font-size="11" text-anchor="start">id</text><polygon fill="none" stroke="#000" points="774.5 -932.785 774.5 -954.785 884.5 -954.785 884.5 -932.785 774.5 -932.785"/><text x="777.5" y="-940.985" font-family="Helvetica,sans-Serif" font-size="11" text-anchor="start">bigserial[19]</text><polygon fill="#fff" stroke="none" points="559.5 -910.785 559.5 -932.785 774.5 -932.785 774.5 -910.785 559.5 -910.785"/><polygon fill="none" stroke="#000" points="559.5 -910.785 559.5 -932.785 774.5 -932.785 774.5 -910.785 559.5 -910.785"/><image width="11" height="12" x="564.5" y="-927.785" preserveAspectRatio="xMinYMin meet" xlink:href="../../images/foreignKeys.png"/><text x="579.5" y="-918.985" font-family="Helvetica,sans-Serif" font-size="11" text-anchor="start">address_hash</text><polygon fill="none" stroke="#000" points="774.5 -910.785 774.5 -932.785 884.5 -932.785 884.5 -910.785 774.5 -910.785"/><text x="777.5" y="-918.985" font-family="Helvetica,sans-Serif" font-size="11" text-anchor="start">bytea[2147483647]</text><polygon fill="#fff" stroke="none" points="559.5 -888.785 559.5 -910.785 774.5 -910.785 774.5 -888.785 559.5 -888.785"/><polygon fill="none" stroke="#000" points="559.5 -888.785 559.5 -910.785 774.5 -910.785 774.5 -888.785 559.5 -888.785"/><text x="579.5" y="-896.985" font-family="Helvetica,sans-Serif" font-size="11" text-anchor="start">block_number</text><polygon fill="none" stroke="#000" points="774.5 -888.785 774.5 -910.785 884.5 -910.785 884.5 -888.785 774.5 -888.785"/><text x="777.5" y="-896.985" font-family="Helvetica,sans-Serif" font-size="11" text-anchor="start">int8[19]</text><polygon fill="#fff" stroke="none" points="559.5 -866.785 559.5 -888.785 774.5 -888.785 774.5 -866.785 559.5 -866.785"/><polygon fill="none" stroke="#000" points="559.5 -866.785 559.5 -888.785 774.5 -888.785 774.5 -866.785 559.5 -866.785"/><image width="11" height="12" x="564.5" y="-883.785" preserveAspectRatio="xMinYMin meet" xlink:href="../../images/foreignKeys.png"/><text x="579.5" y="-874.985" font-family="Helvetica,sans-Serif" font-size="11" text-anchor="start">token_contract_address_hash</text><polygon fill="none" stroke="#000" points="774.5 -866.785 774.5 -888.785 884.5 -888.785 884.5 -866.785 774.5 -866.785"/><text x="777.5" y="-874.985" font-family="Helvetica,sans-Serif" font-size="11" text-anchor="start">bytea[2147483647]</text><polygon fill="#fff" stroke="none" points="559.5 -844.785 559.5 -866.785 774.5 -866.785 774.5 -844.785 559.5 -844.785"/><polygon fill="none" stroke="#000" points="559.5 -844.785 559.5 -866.785 774.5 -866.785 774.5 -844.785 559.5 -844.785"/><text x="579.5" y="-852.985" font-family="Helvetica,sans-Serif" font-size="11" text-anchor="start">value</text><polygon fill="none" stroke="#000" points="774.5 -844.785 774.5 -866.785 884.5 -866.785 884.5 -844.785 774.5 -844.785"/><text x="777.5" y="-852.985" font-family="Helvetica,sans-Serif" font-size="11" text-anchor="start">numeric[131089]</text><polygon fill="none" stroke="#000" points="559.5 -822.785 559.5 -844.785 774.5 -844.785 774.5 -822.785 559.5 -822.785"/><text x="579.5" y="-830.985" font-family="Helvetica,sans-Serif" font-size="11" text-anchor="start">value_fetched_at</text><polygon fill="none" stroke="#000" points="774.5 -822.785 774.5 -844.785 884.5 -844.785 884.5 -822.785 774.5 -822.785"/><text x="777.5" y="-830.985" font-family="Helvetica,sans-Serif" font-size="11" text-anchor="start">timestamp[29,6]</text><polygon fill="none" stroke="#000" points="559.5 -800.785 559.5 -822.785 774.5 -822.785 774.5 -800.785 559.5 -800.785"/><text x="579.5" y="-808.985" font-family="Helvetica,sans-Serif" font-size="11" text-anchor="start">inserted_at</text><polygon fill="none" stroke="#000" points="774.5 -800.785 774.5 -822.785 884.5 -822.785 884.5 -800.785 774.5 -800.785"/><text x="777.5" y="-808.985" font-family="Helvetica,sans-Serif" font-size="11" text-anchor="start">timestamp[29,6]</text><polygon fill="none" stroke="#000" points="559.5 -778.785 559.5 -800.785 774.5 -800.785 774.5 -778.785 559.5 -778.785"/><text x="579.5" y="-786.985" font-family="Helvetica,sans-Serif" font-size="11" text-anchor="start">updated_at</text><polygon fill="none" stroke="#000" points="774.5 -778.785 774.5 -800.785 884.5 -800.785 884.5 -778.785 774.5 -778.785"/><text x="777.5" y="-786.985" font-family="Helvetica,sans-Serif" font-size="11" text-anchor="start">timestamp[29,6]</text><polygon fill="none" stroke="#000" points="559.5 -756.785 559.5 -778.785 774.5 -778.785 774.5 -756.785 559.5 -756.785"/><text x="579.5" y="-764.985" font-family="Helvetica,sans-Serif" font-size="11" text-anchor="start">old_value</text><polygon fill="none" stroke="#000" points="774.5 -756.785 774.5 -778.785 884.5 -778.785 884.5 -756.785 774.5 -756.785"/><text x="777.5" y="-764.985" font-family="Helvetica,sans-Serif" font-size="11" text-anchor="start">numeric[131089]</text><polygon fill="#fff" stroke="none" points="559.5 -734.785 559.5 -756.785 774.5 -756.785 774.5 -734.785 559.5 -734.785"/><polygon fill="none" stroke="#000" points="559.5 -734.785 559.5 -756.785 774.5 -756.785 774.5 -734.785 559.5 -734.785"/><text x="579.5" y="-742.985" font-family="Helvetica,sans-Serif" font-size="11" text-anchor="start">token_id</text><polygon fill="none" stroke="#000" points="774.5 -734.785 774.5 -756.785 884.5 -756.785 884.5 -734.785 774.5 -734.785"/><text x="777.5" y="-742.985" font-family="Helvetica,sans-Serif" font-size="11" text-anchor="start">numeric[78]</text><polygon fill="none" stroke="#000" points="559.5 -712.785 559.5 -734.785 774.5 -734.785 774.5 -712.785 559.5 -712.785"/><text x="579.5" y="-720.985" font-family="Helvetica,sans-Serif" font-size="11" text-anchor="start">token_type</text><polygon fill="none" stroke="#000" points="774.5 -712.785 774.5 -734.785 884.5 -734.785 884.5 -712.785 774.5 -712.785"/><text x="777.5" y="-720.985" font-family="Helvetica,sans-Serif" font-size="11" text-anchor="start">varchar[255]</text><polygon fill="#fff" stroke="none" points="559.5 -694.785 559.5 -712.785 657.5 -712.785 657.5 -694.785 559.5 -694.785"/><polygon fill="none" stroke="#000" points="559.5 -694.785 559.5 -712.785 657.5 -712.785 657.5 -694.785 559.5 -694.785"/><text x="562.5" y="-700.985" font-family="Helvetica,sans-Serif" font-size="11" text-anchor="start">&lt; 2</text><polygon fill="#fff" stroke="none" points="657.5 -694.785 657.5 -712.785 774.5 -712.785 774.5 -694.785 657.5 -694.785"/><polygon fill="none" stroke="#000" points="657.5 -694.785 657.5 -712.785 774.5 -712.785 774.5 -694.785 657.5 -694.785"/><text x="735.5" y="-700.985" font-family="Helvetica,sans-Serif" font-size="11" text-anchor="start">0 rows</text><polygon fill="#fff" stroke="none" points="774.5 -694.785 774.5 -712.785 884.5 -712.785 884.5 -694.785 774.5 -694.785"/><polygon fill="none" stroke="#000" points="774.5 -694.785 774.5 -712.785 884.5 -712.785 884.5 -694.785 774.5 -694.785"/><text x="864.5" y="-700.985" font-family="Helvetica,sans-Serif" font-size="11" text-anchor="start">0 &gt;</text><polygon fill="none" stroke="#000" stroke-width="2" points="558 -693.785 558 -977.785 885 -977.785 885 -693.785 558 -693.785"/></a></g></g><g id="edge3" class="edge"><title>address_current_token_balances:address_hash:w-&gt;addresses:hash:e</title><path fill="none" stroke="#000" d="M543.922,-920.227C482.049,-904.907 578.405,-780.578 516,-723.785 440.206,-654.806 360.143,-768.567 287,-696.785 240.255,-650.91 312.495,-404.785 247,-404.785"/><polygon fill="#000" stroke="#000" points="550.545 -920.934 558.117 -925.364 554.523 -921.36 558.5 -921.785 558.5 -921.785 558.5 -921.785 554.523 -921.36 558.883 -918.205 550.545 -920.934 550.545 -920.934"/><ellipse cx="547.363" cy="-920.594" fill="none" stroke="#000" rx="3.2" ry="3.2"/></g><g id="node5" class="node"><title>tokens</title><g id="a_node5"><a target="_top" xlink:href="../../tables/tokens.html" xlink:title="tokens"><polygon fill="#fff" stroke="none" points="323 -561.785 323 -685.785 480 -685.785 480 -561.785 323 -561.785"/><polygon fill="#f5f5f5" stroke="none" points="323.5 -663.785 323.5 -685.785 480.5 -685.785 480.5 -663.785 323.5 -663.785"/><polygon fill="none" stroke="#000" points="323.5 -663.785 323.5 -685.785 480.5 -685.785 480.5 -663.785 323.5 -663.785"/><text x="328.5" y="-672.985" font-family="Helvetica,sans-Serif" font-size="11" font-weight="bold" text-anchor="start">tokens</text><text x="441.5" y="-671.985" font-family="Helvetica,sans-Serif" font-size="11" text-anchor="start">[table]</text><polygon fill="#fff" stroke="none" points="323.5 -641.785 323.5 -663.785 480.5 -663.785 480.5 -641.785 323.5 -641.785"/><polygon fill="none" stroke="#000" points="323.5 -641.785 323.5 -663.785 480.5 -663.785 480.5 -641.785 323.5 -641.785"/><text x="343.5" y="-649.985" font-family="Helvetica,sans-Serif" font-size="11" text-anchor="start">symbol</text><polygon fill="#fff" stroke="none" points="323.5 -619.785 323.5 -641.785 480.5 -641.785 480.5 -619.785 323.5 -619.785"/><polygon fill="none" stroke="#000" points="323.5 -619.785 323.5 -641.785 480.5 -641.785 480.5 -619.785 323.5 -619.785"/><text x="343.5" y="-627.985" font-family="Helvetica,sans-Serif" font-size="11" text-anchor="start">type</text><polygon fill="none" stroke="#000" points="323.5 -597.785 323.5 -619.785 480.5 -619.785 480.5 -597.785 323.5 -597.785"/><image width="11" height="12" x="328.5" y="-614.785" preserveAspectRatio="xMinYMin meet" xlink:href="../../images/primaryKeys.png"/><text x="343.5" y="-605.985" font-family="Helvetica,sans-Serif" font-size="11" text-anchor="start">contract_address_hash</text><polygon fill="none" stroke="#000" points="323.5 -579.785 323.5 -597.785 480.5 -597.785 480.5 -579.785 323.5 -579.785"/><text x="326.5" y="-585.985" font-family="Helvetica,sans-Serif" font-size="11" text-anchor="start">...</text><polygon fill="#fff" stroke="none" points="323.5 -561.785 323.5 -579.785 380.5 -579.785 380.5 -561.785 323.5 -561.785"/><polygon fill="none" stroke="#000" points="323.5 -561.785 323.5 -579.785 380.5 -579.785 380.5 -561.785 323.5 -561.785"/><text x="326.5" y="-567.985" font-family="Helvetica,sans-Serif" font-size="11" text-anchor="start">&lt; 1</text><polygon fill="#fff" stroke="none" points="380.5 -561.785 380.5 -579.785 439.5 -579.785 439.5 -561.785 380.5 -561.785"/><polygon fill="none" stroke="#000" points="380.5 -561.785 380.5 -579.785 439.5 -579.785 439.5 -561.785 380.5 -561.785"/><text x="400.5" y="-567.985" font-family="Helvetica,sans-Serif" font-size="11" text-anchor="start">0 rows</text><polygon fill="#fff" stroke="none" points="439.5 -561.785 439.5 -579.785 480.5 -579.785 480.5 -561.785 439.5 -561.785"/><polygon fill="none" stroke="#000" points="439.5 -561.785 439.5 -579.785 480.5 -579.785 480.5 -561.785 439.5 -561.785"/><text x="460.5" y="-567.985" font-family="Helvetica,sans-Serif" font-size="11" text-anchor="start">3 &gt;</text></a></g></g><g id="edge4" class="edge"><title>address_current_token_balances:token_contract_address_hash:w-&gt;tokens:contract_address_hash:e</title><path fill="none" stroke="#000" d="M545.022,-872.411C503.503,-834.498 538.457,-608.785 481.5,-608.785"/><polygon fill="#000" stroke="#000" points="551.069 -874.822 557.167 -881.129 554.784 -876.303 558.5 -877.785 558.5 -877.785 558.5 -877.785 554.784 -876.303 559.833 -874.441 551.069 -874.822 551.069 -874.822"/><ellipse cx="548.096" cy="-873.637" fill="none" stroke="#000" rx="3.2" ry="3.2"/></g><g id="edge26" class="edge"><title>tokens:contract_address_hash:w-&gt;addresses:hash:e</title><path fill="none" stroke="#000" d="M312.208,-607.26C292.878,-600.56 297.638,-572.953 287,-547.785 261.306,-486.997 312.995,-404.785 247,-404.785"/><polygon fill="#000" stroke="#000" points="322.295 -604.711 321.122 -612.624 319.54 -612.39 320.712 -604.476 322.295 -604.711"/><polyline fill="none" stroke="#000" points="322.5 -608.785 318.543 -608.198"/><ellipse cx="315.378" cy="-607.729" fill="none" stroke="#000" rx="3.2" ry="3.2"/></g><g id="node6" class="node"><title>address_token_balances</title><g id="a_node6"><a target="_top" xlink:href="../../tables/address_token_balances.html" xlink:title="address_token_balances"><polygon fill="#fff" stroke="none" points="629 -534.785 629 -592.785 814 -592.785 814 -534.785 629 -534.785"/><polygon fill="#f5f5f5" stroke="none" points="629.5 -570.785 629.5 -592.785 814.5 -592.785 814.5 -570.785 629.5 -570.785"/><polygon fill="none" stroke="#000" points="629.5 -570.785 629.5 -592.785 814.5 -592.785 814.5 -570.785 629.5 -570.785"/><text x="634.5" y="-579.985" font-family="Helvetica,sans-Serif" font-size="11" font-weight="bold" text-anchor="start">address_token_balances</text><text x="775.5" y="-578.985" font-family="Helvetica,sans-Serif" font-size="11" text-anchor="start">[table]</text><polygon fill="none" stroke="#000" points="629.5 -552.785 629.5 -570.785 814.5 -570.785 814.5 -552.785 629.5 -552.785"/><text x="632.5" y="-558.985" font-family="Helvetica,sans-Serif" font-size="11" text-anchor="start">...</text><polygon fill="#fff" stroke="none" points="629.5 -534.785 629.5 -552.785 705.5 -552.785 705.5 -534.785 629.5 -534.785"/><polygon fill="none" stroke="#000" points="629.5 -534.785 629.5 -552.785 705.5 -552.785 705.5 -534.785 629.5 -534.785"/><text x="632.5" y="-540.985" font-family="Helvetica,sans-Serif" font-size="11" text-anchor="start">&lt; 2</text><polygon fill="#fff" stroke="none" points="705.5 -534.785 705.5 -552.785 774.5 -552.785 774.5 -534.785 705.5 -534.785"/><polygon fill="none" stroke="#000" points="705.5 -534.785 705.5 -552.785 774.5 -552.785 774.5 -534.785 705.5 -534.785"/><text x="735.5" y="-540.985" font-family="Helvetica,sans-Serif" font-size="11" text-anchor="start">0 rows</text><polygon fill="#fff" stroke="none" points="774.5 -534.785 774.5 -552.785 814.5 -552.785 814.5 -534.785 774.5 -534.785"/><polygon fill="none" stroke="#000" points="774.5 -534.785 774.5 -552.785 814.5 -552.785 814.5 -534.785 774.5 -534.785"/></a></g></g><g id="edge5" class="edge"><title>address_token_balances:elipses:w-&gt;addresses:hash:e</title><path fill="none" stroke="#000" d="M614.047,-560.53C549.493,-554.227 293.592,-526.106 287,-520.785 244.565,-486.531 301.535,-404.785 247,-404.785"/><polygon fill="#000" stroke="#000" points="620.53 -561.093 628.189 -565.371 624.515 -561.439 628.5 -561.785 628.5 -561.785 628.5 -561.785 624.515 -561.439 628.811 -558.198 620.53 -561.093 620.53 -561.093"/><ellipse cx="617.342" cy="-560.816" fill="none" stroke="#000" rx="3.2" ry="3.2"/></g><g id="edge6" class="edge"><title>address_token_balances:elipses:w-&gt;tokens:contract_address_hash:e</title><path fill="none" stroke="#000" d="M613.797,-562.561C558.072,-568.672 544.867,-608.785 481.5,-608.785"/><polygon fill="#000" stroke="#000" points="620.511 -562.207 628.69 -565.38 624.506 -561.996 628.5 -561.785 628.5 -561.785 628.5 -561.785 624.506 -561.996 628.31 -558.19 620.511 -562.207 620.511 -562.207"/><ellipse cx="617.316" cy="-562.375" fill="none" stroke="#000" rx="3.2" ry="3.2"/></g><g id="node7" class="node"><title>block_rewards</title><g id="a_node7"><a target="_top" xlink:href="../../tables/block_rewards.html" xlink:title="block_rewards"><polygon fill="#fff" stroke="none" points="656.5 -404.785 656.5 -462.785 786.5 -462.785 786.5 -404.785 656.5 -404.785"/><polygon fill="#f5f5f5" stroke="none" points="656.5 -440.785 656.5 -462.785 786.5 -462.785 786.5 -440.785 656.5 -440.785"/><polygon fill="none" stroke="#000" points="656.5 -440.785 656.5 -462.785 786.5 -462.785 786.5 -440.785 656.5 -440.785"/><text x="661.5" y="-449.985" font-family="Helvetica,sans-Serif" font-size="11" font-weight="bold" text-anchor="start">block_rewards</text><text x="747.5" y="-448.985" font-family="Helvetica,sans-Serif" font-size="11" text-anchor="start">[table]</text><polygon fill="none" stroke="#000" points="656.5 -422.785 656.5 -440.785 786.5 -440.785 786.5 -422.785 656.5 -422.785"/><text x="659.5" y="-428.985" font-family="Helvetica,sans-Serif" font-size="11" text-anchor="start">...</text><polygon fill="#fff" stroke="none" points="656.5 -404.785 656.5 -422.785 705.5 -422.785 705.5 -404.785 656.5 -404.785"/><polygon fill="none" stroke="#000" points="656.5 -404.785 656.5 -422.785 705.5 -422.785 705.5 -404.785 656.5 -404.785"/><text x="659.5" y="-410.985" font-family="Helvetica,sans-Serif" font-size="11" text-anchor="start">&lt; 2</text><polygon fill="#fff" stroke="none" points="705.5 -404.785 705.5 -422.785 760.5 -422.785 760.5 -404.785 705.5 -404.785"/><polygon fill="none" stroke="#000" points="705.5 -404.785 705.5 -422.785 760.5 -422.785 760.5 -404.785 705.5 -404.785"/><text x="721.5" y="-410.985" font-family="Helvetica,sans-Serif" font-size="11" text-anchor="start">0 rows</text><polygon fill="#fff" stroke="none" points="760.5 -404.785 760.5 -422.785 786.5 -422.785 786.5 -404.785 760.5 -404.785"/><polygon fill="none" stroke="#000" points="760.5 -404.785 760.5 -422.785 786.5 -422.785 786.5 -404.785 760.5 -404.785"/></a></g></g><g id="edge7" class="edge"><title>block_rewards:elipses:w-&gt;addresses:hash:e</title><path fill="none" stroke="#000" d="M640.91,-431.997C488.233,-436.47 433.099,-509.399 287,-446.785 263.306,-436.63 272.778,-404.785 247,-404.785"/><polygon fill="#000" stroke="#000" points="647.501 -431.901 655.552 -435.384 651.5 -431.843 655.5 -431.785 655.5 -431.785 655.5 -431.785 651.5 -431.843 655.448 -428.185 647.501 -431.901 647.501 -431.901"/><ellipse cx="644.301" cy="-431.948" fill="none" stroke="#000" rx="3.2" ry="3.2"/></g><g id="node8" class="node"><title>blocks</title><g id="a_node8"><a target="_top" xlink:href="../../tables/blocks.html" xlink:title="blocks"><polygon fill="#fff" stroke="none" points="357.5 -298.785 357.5 -356.785 445.5 -356.785 445.5 -298.785 357.5 -298.785"/><polygon fill="#f5f5f5" stroke="none" points="357.5 -334.785 357.5 -356.785 445.5 -356.785 445.5 -334.785 357.5 -334.785"/><polygon fill="none" stroke="#000" points="357.5 -334.785 357.5 -356.785 445.5 -356.785 445.5 -334.785 357.5 -334.785"/><text x="362.5" y="-343.985" font-family="Helvetica,sans-Serif" font-size="11" font-weight="bold" text-anchor="start">blocks</text><text x="406.5" y="-342.985" font-family="Helvetica,sans-Serif" font-size="11" text-anchor="start">[table]</text><polygon fill="none" stroke="#000" points="357.5 -316.785 357.5 -334.785 445.5 -334.785 445.5 -316.785 357.5 -316.785"/><text x="360.5" y="-322.985" font-family="Helvetica,sans-Serif" font-size="11" text-anchor="start">...</text><polygon fill="#fff" stroke="none" points="357.5 -298.785 357.5 -316.785 380.5 -316.785 380.5 -298.785 357.5 -298.785"/><polygon fill="none" stroke="#000" points="357.5 -298.785 357.5 -316.785 380.5 -316.785 380.5 -298.785 357.5 -298.785"/><text x="360.5" y="-304.985" font-family="Helvetica,sans-Serif" font-size="11" text-anchor="start">&lt; 1</text><polygon fill="#fff" stroke="none" points="380.5 -298.785 380.5 -316.785 422.5 -316.785 422.5 -298.785 380.5 -298.785"/><polygon fill="none" stroke="#000" points="380.5 -298.785 380.5 -316.785 422.5 -316.785 422.5 -298.785 380.5 -298.785"/><text x="383.5" y="-304.985" font-family="Helvetica,sans-Serif" font-size="11" text-anchor="start">3 rows</text><polygon fill="#fff" stroke="none" points="422.5 -298.785 422.5 -316.785 445.5 -316.785 445.5 -298.785 422.5 -298.785"/><polygon fill="none" stroke="#000" points="422.5 -298.785 422.5 -316.785 445.5 -316.785 445.5 -298.785 422.5 -298.785"/><text x="425.5" y="-304.985" font-family="Helvetica,sans-Serif" font-size="11" text-anchor="start">8 &gt;</text></a></g></g><g id="edge8" class="edge"><title>block_rewards:elipses:w-&gt;blocks:elipses:e</title><path fill="none" stroke="#000" d="M640.811,-431.325C584.891,-427.636 568.845,-402.116 516,-367.785 485.735,-348.123 482.591,-325.785 446.5,-325.785"/><polygon fill="#000" stroke="#000" points="647.504 -431.534 655.387 -435.383 651.502 -431.659 655.5 -431.785 655.5 -431.785 655.5 -431.785 651.502 -431.659 655.613 -428.186 647.504 -431.534 647.504 -431.534"/><ellipse cx="644.305" cy="-431.434" fill="none" stroke="#000" rx="3.2" ry="3.2"/></g><g id="edge9" class="edge"><title>blocks:elipses:w-&gt;addresses:hash:e</title><path fill="none" stroke="#000" d="M342.003,-327.131C318.453,-332.003 311.446,-349.392 287,-367.785 267.648,-382.344 271.217,-404.785 247,-404.785"/><polygon fill="#000" stroke="#000" points="348.534 -326.525 356.833 -329.369 352.517 -326.155 356.5 -325.785 356.5 -325.785 356.5 -325.785 352.517 -326.155 356.167 -322.2 348.534 -326.525 348.534 -326.525"/><ellipse cx="345.348" cy="-326.821" fill="none" stroke="#000" rx="3.2" ry="3.2"/></g><g id="node9" class="node"><title>decompiled_smart_contracts</title><g id="a_node9"><a target="_top" xlink:href="../../tables/decompiled_smart_contracts.html" xlink:title="decompiled_smart_contracts"><polygon fill="#fff" stroke="none" points="295 -377.785 295 -435.785 508 -435.785 508 -377.785 295 -377.785"/><polygon fill="#f5f5f5" stroke="none" points="295.5 -413.785 295.5 -435.785 508.5 -435.785 508.5 -413.785 295.5 -413.785"/><polygon fill="none" stroke="#000" points="295.5 -413.785 295.5 -435.785 508.5 -435.785 508.5 -413.785 295.5 -413.785"/><text x="300.5" y="-422.985" font-family="Helvetica,sans-Serif" font-size="11" font-weight="bold" text-anchor="start">decompiled_smart_contracts</text><text x="469.5" y="-421.985" font-family="Helvetica,sans-Serif" font-size="11" text-anchor="start">[table]</text><polygon fill="none" stroke="#000" points="295.5 -395.785 295.5 -413.785 508.5 -413.785 508.5 -395.785 295.5 -395.785"/><text x="298.5" y="-401.985" font-family="Helvetica,sans-Serif" font-size="11" text-anchor="start">...</text><polygon fill="#fff" stroke="none" points="295.5 -377.785 295.5 -395.785 385.5 -395.785 385.5 -377.785 295.5 -377.785"/><polygon fill="none" stroke="#000" points="295.5 -377.785 295.5 -395.785 385.5 -395.785 385.5 -377.785 295.5 -377.785"/><text x="298.5" y="-383.985" font-family="Helvetica,sans-Serif" font-size="11" text-anchor="start">&lt; 1</text><polygon fill="#fff" stroke="none" points="385.5 -377.785 385.5 -395.785 461.5 -395.785 461.5 -377.785 385.5 -377.785"/><polygon fill="none" stroke="#000" points="385.5 -377.785 385.5 -395.785 461.5 -395.785 461.5 -377.785 385.5 -377.785"/><text x="422.5" y="-383.985" font-family="Helvetica,sans-Serif" font-size="11" text-anchor="start">0 rows</text><polygon fill="#fff" stroke="none" points="461.5 -377.785 461.5 -395.785 508.5 -395.785 508.5 -377.785 461.5 -377.785"/><polygon fill="none" stroke="#000" points="461.5 -377.785 461.5 -395.785 508.5 -395.785 508.5 -377.785 461.5 -377.785"/></a></g></g><g id="edge10" class="edge"><title>decompiled_smart_contracts:elipses:w-&gt;addresses:hash:e</title><path fill="none" stroke="#000" d="M280.086,-404.785C269.319,-404.785 262.339,-404.785 247,-404.785"/><polygon fill="#000" stroke="#000" points="286.5 -404.785 294.5 -408.385 290.5 -404.785 294.5 -404.785 294.5 -404.785 294.5 -404.785 290.5 -404.785 294.5 -401.185 286.5 -404.785 286.5 -404.785"/><ellipse cx="283.3" cy="-404.785" fill="none" stroke="#000" rx="3.2" ry="3.2"/></g><g id="node10" class="node"><title>internal_transactions</title><g id="a_node10"><a target="_top" xlink:href="../../tables/internal_transactions.html" xlink:title="internal_transactions"><polygon fill="#fff" stroke="none" points="935 -471.785 935 -529.785 1106 -529.785 1106 -471.785 935 -471.785"/><polygon fill="#f5f5f5" stroke="none" points="935.5 -507.785 935.5 -529.785 1106.5 -529.785 1106.5 -507.785 935.5 -507.785"/><polygon fill="none" stroke="#000" points="935.5 -507.785 935.5 -529.785 1106.5 -529.785 1106.5 -507.785 935.5 -507.785"/><text x="940.5" y="-516.985" font-family="Helvetica,sans-Serif" font-size="11" font-weight="bold" text-anchor="start">internal_transactions</text><text x="1067.5" y="-515.985" font-family="Helvetica,sans-Serif" font-size="11" text-anchor="start">[table]</text><polygon fill="none" stroke="#000" points="935.5 -489.785 935.5 -507.785 1106.5 -507.785 1106.5 -489.785 935.5 -489.785"/><text x="938.5" y="-495.985" font-family="Helvetica,sans-Serif" font-size="11" text-anchor="start">...</text><polygon fill="#fff" stroke="none" points="935.5 -471.785 935.5 -489.785 1007.5 -489.785 1007.5 -471.785 935.5 -471.785"/><polygon fill="none" stroke="#000" points="935.5 -471.785 935.5 -489.785 1007.5 -489.785 1007.5 -471.785 935.5 -471.785"/><text x="938.5" y="-477.985" font-family="Helvetica,sans-Serif" font-size="11" text-anchor="start">&lt; 5</text><polygon fill="#fff" stroke="none" points="1007.5 -471.785 1007.5 -489.785 1068.5 -489.785 1068.5 -471.785 1007.5 -471.785"/><polygon fill="none" stroke="#000" points="1007.5 -471.785 1007.5 -489.785 1068.5 -489.785 1068.5 -471.785 1007.5 -471.785"/><text x="1034.5" y="-477.985" font-family="Helvetica,sans-Serif" font-size="11" text-anchor="start">1 row</text><polygon fill="#fff" stroke="none" points="1068.5 -471.785 1068.5 -489.785 1106.5 -489.785 1106.5 -471.785 1068.5 -471.785"/><polygon fill="none" stroke="#000" points="1068.5 -471.785 1068.5 -489.785 1106.5 -489.785 1106.5 -471.785 1068.5 -471.785"/></a></g></g><g id="edge12" class="edge"><title>internal_transactions:elipses:w-&gt;addresses:hash:e</title><path fill="none" stroke="#000" d="M919.858,-498.912C766.286,-501.418 407.329,-539.166 287,-468.785 258.046,-451.849 280.543,-404.785 247,-404.785"/><polygon fill="#000" stroke="#000" points="926.5 -498.855 934.531 -502.384 930.5 -498.82 934.5 -498.785 934.5 -498.785 934.5 -498.785 930.5 -498.82 934.469 -495.185 926.5 -498.855 926.5 -498.855"/><ellipse cx="923.3" cy="-498.882" fill="none" stroke="#000" rx="3.2" ry="3.2"/></g><g id="edge13" class="edge"><title>internal_transactions:elipses:w-&gt;addresses:hash:e</title><path fill="none" stroke="#000" d="M919.857,-498.334C766.299,-495.076 408.176,-527.784 287,-458.785 259.149,-442.926 279.049,-398.785 247,-404.785"/><polygon fill="#000" stroke="#000" points="926.504 -498.539 934.389 -502.383 930.502 -498.662 934.5 -498.785 934.5 -498.785 934.5 -498.785 930.502 -498.662 934.611 -495.186 926.504 -498.539 926.504 -498.539"/><ellipse cx="923.305" cy="-498.44" fill="none" stroke="#000" rx="3.2" ry="3.2"/></g><g id="edge14" class="edge"><title>internal_transactions:elipses:w-&gt;addresses:hash:e</title><path fill="none" stroke="#000" d="M919.857,-499.551C766.299,-508.076 408.176,-540.784 287,-471.785 259.149,-455.926 279.049,-411.785 247,-404.785"/><polygon fill="#000" stroke="#000" points="926.511 -499.203 934.688 -502.38 930.505 -498.994 934.5 -498.785 934.5 -498.785 934.5 -498.785 930.505 -498.994 934.312 -495.19 926.511 -499.203 926.511 -499.203"/><ellipse cx="923.315" cy="-499.37" fill="none" stroke="#000" rx="3.2" ry="3.2"/></g><g id="edge11" class="edge"><title>internal_transactions:elipses:w-&gt;blocks:elipses:e</title><path fill="none" stroke="#000" d="M920.132,-495.555C895.638,-481.016 928.432,-421.209 894,-394.785 832.812,-347.826 624.567,-372.236 549,-356.785 502.371,-347.25 494.093,-325.785 446.5,-325.785"/><polygon fill="#000" stroke="#000" points="926.695 -497.03 933.71 -502.297 930.597 -497.907 934.5 -498.785 934.5 -498.785 934.5 -498.785 930.597 -497.907 935.29 -495.272 926.695 -497.03 926.695 -497.03"/><ellipse cx="923.573" cy="-496.328" fill="none" stroke="#000" rx="3.2" ry="3.2"/></g><g id="node11" class="node"><title>transactions</title><g id="a_node11"><a target="_top" xlink:href="../../tables/transactions.html" xlink:title="transactions"><polygon fill="#fff" stroke="none" points="661.5 -243.785 661.5 -301.785 781.5 -301.785 781.5 -243.785 661.5 -243.785"/><polygon fill="#f5f5f5" stroke="none" points="661.5 -279.785 661.5 -301.785 781.5 -301.785 781.5 -279.785 661.5 -279.785"/><polygon fill="none" stroke="#000" points="661.5 -279.785 661.5 -301.785 781.5 -301.785 781.5 -279.785 661.5 -279.785"/><text x="666.5" y="-288.985" font-family="Helvetica,sans-Serif" font-size="11" font-weight="bold" text-anchor="start">transactions</text><text x="742.5" y="-287.985" font-family="Helvetica,sans-Serif" font-size="11" text-anchor="start">[table]</text><polygon fill="none" stroke="#000" points="661.5 -261.785 661.5 -279.785 781.5 -279.785 781.5 -261.785 661.5 -261.785"/><text x="664.5" y="-267.985" font-family="Helvetica,sans-Serif" font-size="11" text-anchor="start">...</text><polygon fill="#fff" stroke="none" points="661.5 -243.785 661.5 -261.785 702.5 -261.785 702.5 -243.785 661.5 -243.785"/><polygon fill="none" stroke="#000" points="661.5 -243.785 661.5 -261.785 702.5 -261.785 702.5 -243.785 661.5 -243.785"/><text x="664.5" y="-249.985" font-family="Helvetica,sans-Serif" font-size="11" text-anchor="start">&lt; 4</text><polygon fill="#fff" stroke="none" points="702.5 -243.785 702.5 -261.785 748.5 -261.785 748.5 -243.785 702.5 -243.785"/><polygon fill="none" stroke="#000" points="702.5 -243.785 702.5 -261.785 748.5 -261.785 748.5 -243.785 702.5 -243.785"/><text x="714.5" y="-249.985" font-family="Helvetica,sans-Serif" font-size="11" text-anchor="start">1 row</text><polygon fill="#fff" stroke="none" points="748.5 -243.785 748.5 -261.785 781.5 -261.785 781.5 -243.785 748.5 -243.785"/><polygon fill="none" stroke="#000" points="748.5 -243.785 748.5 -261.785 781.5 -261.785 781.5 -243.785 748.5 -243.785"/><text x="761.5" y="-249.985" font-family="Helvetica,sans-Serif" font-size="11" text-anchor="start">4 &gt;</text></a></g></g><g id="edge15" class="edge"><title>internal_transactions:elipses:w-&gt;transactions:elipses:e</title><path fill="none" stroke="#000" d="M920.018,-496.655C884.094,-483.841 923.194,-416.024 894,-370.785 857.906,-314.853 849.066,-270.785 782.5,-270.785"/><polygon fill="#000" stroke="#000" points="926.585 -497.621 933.976 -502.346 930.543 -498.203 934.5 -498.785 934.5 -498.785 934.5 -498.785 930.543 -498.203 935.024 -495.223 926.585 -497.621 926.585 -497.621"/><ellipse cx="923.419" cy="-497.155" fill="none" stroke="#000" rx="3.2" ry="3.2"/></g><g id="edge28" class="edge"><title>transactions:elipses:w-&gt;addresses:hash:e</title><path fill="none" stroke="#000" d="M645.655,-270.567C489.752,-266.004 415.934,-192.095 287,-288.785 243.371,-321.503 301.535,-404.785 247,-404.785"/><polygon fill="#000" stroke="#000" points="652.501 -270.667 660.447 -274.384 656.5 -270.726 660.5 -270.785 660.5 -270.785 660.5 -270.785 656.5 -270.726 660.553 -267.185 652.501 -270.667 652.501 -270.667"/><ellipse cx="649.301" cy="-270.621" fill="none" stroke="#000" rx="3.2" ry="3.2"/></g><g id="edge29" class="edge"><title>transactions:elipses:w-&gt;addresses:hash:e</title><path fill="none" stroke="#000" d="M645.647,-270.049C489.668,-260.24 416.022,-190.058 287,-286.785 244.708,-318.491 299.857,-398.785 247,-404.785"/><polygon fill="#000" stroke="#000" points="652.51 -270.389 660.322 -274.38 656.505 -270.587 660.5 -270.785 660.5 -270.785 660.5 -270.785 656.505 -270.587 660.678 -267.189 652.51 -270.389 652.51 -270.389"/><ellipse cx="649.314" cy="-270.231" fill="none" stroke="#000" rx="3.2" ry="3.2"/></g><g id="edge30" class="edge"><title>transactions:elipses:w-&gt;addresses:hash:e</title><path fill="none" stroke="#000" d="M645.647,-271.195C489.668,-273.24 416.022,-203.058 287,-299.785 244.708,-331.491 299.857,-411.785 247,-404.785"/><polygon fill="#000" stroke="#000" points="652.503 -271.005 660.599 -274.383 656.502 -270.895 660.5 -270.785 660.5 -270.785 660.5 -270.785 656.502 -270.895 660.401 -267.186 652.503 -271.005 652.503 -271.005"/><ellipse cx="649.304" cy="-271.094" fill="none" stroke="#000" rx="3.2" ry="3.2"/></g><g id="edge27" class="edge"><title>transactions:elipses:w-&gt;blocks:elipses:e</title><path fill="none" stroke="#000" d="M645.877,-271.211C560.261,-276.331 539.619,-325.785 446.5,-325.785"/><polygon fill="#000" stroke="#000" points="652.503 -271.018 660.605 -274.383 656.502 -270.901 660.5 -270.785 660.5 -270.785 660.5 -270.785 656.502 -270.901 660.395 -267.186 652.503 -271.018 652.503 -271.018"/><ellipse cx="649.305" cy="-271.111" fill="none" stroke="#000" rx="3.2" ry="3.2"/></g><g id="node12" class="node"><title>logs</title><g id="a_node12"><a target="_top" xlink:href="../../tables/logs.html" xlink:title="logs"><polygon fill="#fff" stroke="none" points="981.5 -243.785 981.5 -301.785 1059.5 -301.785 1059.5 -243.785 981.5 -243.785"/><polygon fill="#f5f5f5" stroke="none" points="981.5 -279.785 981.5 -301.785 1059.5 -301.785 1059.5 -279.785 981.5 -279.785"/><polygon fill="none" stroke="#000" points="981.5 -279.785 981.5 -301.785 1059.5 -301.785 1059.5 -279.785 981.5 -279.785"/><text x="986.5" y="-288.985" font-family="Helvetica,sans-Serif" font-size="11" font-weight="bold" text-anchor="start">logs</text><text x="1020.5" y="-287.985" font-family="Helvetica,sans-Serif" font-size="11" text-anchor="start">[table]</text><polygon fill="none" stroke="#000" points="981.5 -261.785 981.5 -279.785 1059.5 -279.785 1059.5 -261.785 981.5 -261.785"/><text x="984.5" y="-267.985" font-family="Helvetica,sans-Serif" font-size="11" text-anchor="start">...</text><polygon fill="#fff" stroke="none" points="981.5 -243.785 981.5 -261.785 1004.5 -261.785 1004.5 -243.785 981.5 -243.785"/><polygon fill="none" stroke="#000" points="981.5 -243.785 981.5 -261.785 1004.5 -261.785 1004.5 -243.785 981.5 -243.785"/><text x="984.5" y="-249.985" font-family="Helvetica,sans-Serif" font-size="11" text-anchor="start">&lt; 3</text><polygon fill="#fff" stroke="none" points="1004.5 -243.785 1004.5 -261.785 1046.5 -261.785 1046.5 -243.785 1004.5 -243.785"/><polygon fill="none" stroke="#000" points="1004.5 -243.785 1004.5 -261.785 1046.5 -261.785 1046.5 -243.785 1004.5 -243.785"/><text x="1007.5" y="-249.985" font-family="Helvetica,sans-Serif" font-size="11" text-anchor="start">0 rows</text><polygon fill="#fff" stroke="none" points="1046.5 -243.785 1046.5 -261.785 1059.5 -261.785 1059.5 -243.785 1046.5 -243.785"/><polygon fill="none" stroke="#000" points="1046.5 -243.785 1046.5 -261.785 1059.5 -261.785 1059.5 -243.785 1046.5 -243.785"/></a></g></g><g id="edge16" class="edge"><title>logs:elipses:w-&gt;addresses:hash:e</title><path fill="none" stroke="#000" d="M966.067,-269.463C937.107,-263.745 929.682,-241.096 894,-233.785 827.926,-220.246 339.584,-196.547 287,-238.785 227.834,-286.309 322.889,-404.785 247,-404.785"/><polygon fill="#000" stroke="#000" points="972.533 -270.055 980.172 -274.37 976.517 -270.42 980.5 -270.785 980.5 -270.785 980.5 -270.785 976.517 -270.42 980.828 -267.2 972.533 -270.055 972.533 -270.055"/><ellipse cx="969.347" cy="-269.763" fill="none" stroke="#000" rx="3.2" ry="3.2"/></g><g id="edge17" class="edge"><title>logs:elipses:w-&gt;blocks:elipses:e</title><path fill="none" stroke="#000" d="M966.129,-272.578C933.365,-281.618 934.447,-322.282 894,-335.785 748.558,-384.34 702.152,-343.238 549,-335.785 503.282,-333.56 492.272,-325.785 446.5,-325.785"/><polygon fill="#000" stroke="#000" points="972.562 -271.775 980.946 -274.357 976.531 -271.28 980.5 -270.785 980.5 -270.785 980.5 -270.785 976.531 -271.28 980.054 -267.212 972.562 -271.775 972.562 -271.775"/><ellipse cx="969.386" cy="-272.172" fill="none" stroke="#000" rx="3.2" ry="3.2"/></g><g id="edge18" class="edge"><title>logs:elipses:w-&gt;transactions:elipses:e</title><path fill="none" stroke="#000" d="M965.684,-270.785C889.695,-270.785 865.344,-270.785 782.5,-270.785"/><polygon fill="#000" stroke="#000" points="972.5 -270.785 980.5 -274.385 976.5 -270.785 980.5 -270.785 980.5 -270.785 980.5 -270.785 976.5 -270.785 980.5 -267.185 972.5 -270.785 972.5 -270.785"/><ellipse cx="969.3" cy="-270.785" fill="none" stroke="#000" rx="3.2" ry="3.2"/></g><g id="node13" class="node"><title>smart_contracts</title><g id="a_node13"><a target="_top" xlink:href="../../tables/smart_contracts.html" xlink:title="smart_contracts"><polygon fill="#fff" stroke="none" points="331 -141.785 331 -199.785 472 -199.785 472 -141.785 331 -141.785"/><polygon fill="#f5f5f5" stroke="none" points="331.5 -177.785 331.5 -199.785 472.5 -199.785 472.5 -177.785 331.5 -177.785"/><polygon fill="none" stroke="#000" points="331.5 -177.785 331.5 -199.785 472.5 -199.785 472.5 -177.785 331.5 -177.785"/><text x="336.5" y="-186.985" font-family="Helvetica,sans-Serif" font-size="11" font-weight="bold" text-anchor="start">smart_contracts</text><text x="433.5" y="-185.985" font-family="Helvetica,sans-Serif" font-size="11" text-anchor="start">[table]</text><polygon fill="none" stroke="#000" points="331.5 -159.785 331.5 -177.785 472.5 -177.785 472.5 -159.785 331.5 -159.785"/><text x="334.5" y="-165.985" font-family="Helvetica,sans-Serif" font-size="11" text-anchor="start">...</text><polygon fill="#fff" stroke="none" points="331.5 -141.785 331.5 -159.785 380.5 -159.785 380.5 -141.785 331.5 -141.785"/><polygon fill="none" stroke="#000" points="331.5 -141.785 331.5 -159.785 380.5 -159.785 380.5 -141.785 331.5 -141.785"/><text x="334.5" y="-147.985" font-family="Helvetica,sans-Serif" font-size="11" text-anchor="start">&lt; 1</text><polygon fill="#fff" stroke="none" points="380.5 -141.785 380.5 -159.785 435.5 -159.785 435.5 -141.785 380.5 -141.785"/><polygon fill="none" stroke="#000" points="380.5 -141.785 380.5 -159.785 435.5 -159.785 435.5 -141.785 380.5 -141.785"/><text x="396.5" y="-147.985" font-family="Helvetica,sans-Serif" font-size="11" text-anchor="start">0 rows</text><polygon fill="#fff" stroke="none" points="435.5 -141.785 435.5 -159.785 472.5 -159.785 472.5 -141.785 435.5 -141.785"/><polygon fill="none" stroke="#000" points="435.5 -141.785 435.5 -159.785 472.5 -159.785 472.5 -141.785 435.5 -141.785"/><text x="452.5" y="-147.985" font-family="Helvetica,sans-Serif" font-size="11" text-anchor="start">1 &gt;</text></a></g></g><g id="edge19" class="edge"><title>smart_contracts:elipses:w-&gt;addresses:hash:e</title><path fill="none" stroke="#000" d="M320.159,-169.951C301.731,-174.611 298.196,-192.664 287,-213.785 266.689,-252.099 290.365,-404.785 247,-404.785"/><polygon fill="#000" stroke="#000" points="329.257 -164.899 330.153 -172.849 328.563 -173.028 327.667 -165.079 329.257 -164.899"/><polyline fill="none" stroke="#000" points="330.5 -168.785 326.525 -169.233"/><ellipse cx="323.345" cy="-169.592" fill="none" stroke="#000" rx="3.2" ry="3.2"/></g><g id="node14" class="node"><title>token_instances</title><g id="a_node14"><a target="_top" xlink:href="../../tables/token_instances.html" xlink:title="token_instances"><polygon fill="#fff" stroke="none" points="651.5 -613.785 651.5 -671.785 791.5 -671.785 791.5 -613.785 651.5 -613.785"/><polygon fill="#f5f5f5" stroke="none" points="651.5 -649.785 651.5 -671.785 791.5 -671.785 791.5 -649.785 651.5 -649.785"/><polygon fill="none" stroke="#000" points="651.5 -649.785 651.5 -671.785 791.5 -671.785 791.5 -649.785 651.5 -649.785"/><text x="656.5" y="-658.985" font-family="Helvetica,sans-Serif" font-size="11" font-weight="bold" text-anchor="start">token_instances</text><text x="752.5" y="-657.985" font-family="Helvetica,sans-Serif" font-size="11" text-anchor="start">[table]</text><polygon fill="none" stroke="#000" points="651.5 -631.785 651.5 -649.785 791.5 -649.785 791.5 -631.785 651.5 -631.785"/><text x="654.5" y="-637.985" font-family="Helvetica,sans-Serif" font-size="11" text-anchor="start">...</text><polygon fill="#fff" stroke="none" points="651.5 -613.785 651.5 -631.785 705.5 -631.785 705.5 -613.785 651.5 -613.785"/><polygon fill="none" stroke="#000" points="651.5 -613.785 651.5 -631.785 705.5 -631.785 705.5 -613.785 651.5 -613.785"/><text x="654.5" y="-619.985" font-family="Helvetica,sans-Serif" font-size="11" text-anchor="start">&lt; 1</text><polygon fill="#fff" stroke="none" points="705.5 -613.785 705.5 -631.785 762.5 -631.785 762.5 -613.785 705.5 -613.785"/><polygon fill="none" stroke="#000" points="705.5 -613.785 705.5 -631.785 762.5 -631.785 762.5 -613.785 705.5 -613.785"/><text x="723.5" y="-619.985" font-family="Helvetica,sans-Serif" font-size="11" text-anchor="start">0 rows</text><polygon fill="#fff" stroke="none" points="762.5 -613.785 762.5 -631.785 791.5 -631.785 791.5 -613.785 762.5 -613.785"/><polygon fill="none" stroke="#000" points="762.5 -613.785 762.5 -631.785 791.5 -631.785 791.5 -613.785 762.5 -613.785"/></a></g></g><g id="edge20" class="edge"><title>token_instances:elipses:w-&gt;tokens:contract_address_hash:e</title><path fill="none" stroke="#000" d="M636.033,-640.38C571.649,-636.676 552.869,-608.785 481.5,-608.785"/><polygon fill="#000" stroke="#000" points="642.503 -640.561 650.399 -644.383 646.502 -640.673 650.5 -640.785 650.5 -640.785 650.5 -640.785 646.502 -640.673 650.601 -637.186 642.503 -640.561 642.503 -640.561"/><ellipse cx="639.304" cy="-640.471" fill="none" stroke="#000" rx="3.2" ry="3.2"/></g><g id="node15" class="node"><title>token_transfers</title><g id="a_node15"><a target="_top" xlink:href="../../tables/token_transfers.html" xlink:title="token_transfers"><polygon fill="#fff" stroke="none" points="951.5 -78.785 951.5 -136.785 1089.5 -136.785 1089.5 -78.785 951.5 -78.785"/><polygon fill="#f5f5f5" stroke="none" points="951.5 -114.785 951.5 -136.785 1089.5 -136.785 1089.5 -114.785 951.5 -114.785"/><polygon fill="none" stroke="#000" points="951.5 -114.785 951.5 -136.785 1089.5 -136.785 1089.5 -114.785 951.5 -114.785"/><text x="956.5" y="-123.985" font-family="Helvetica,sans-Serif" font-size="11" font-weight="bold" text-anchor="start">token_transfers</text><text x="1050.5" y="-122.985" font-family="Helvetica,sans-Serif" font-size="11" text-anchor="start">[table]</text><polygon fill="none" stroke="#000" points="951.5 -96.785 951.5 -114.785 1089.5 -114.785 1089.5 -96.785 951.5 -96.785"/><text x="954.5" y="-102.985" font-family="Helvetica,sans-Serif" font-size="11" text-anchor="start">...</text><polygon fill="#fff" stroke="none" points="951.5 -78.785 951.5 -96.785 1004.5 -96.785 1004.5 -78.785 951.5 -78.785"/><polygon fill="none" stroke="#000" points="951.5 -78.785 951.5 -96.785 1004.5 -96.785 1004.5 -78.785 951.5 -78.785"/><text x="954.5" y="-84.985" font-family="Helvetica,sans-Serif" font-size="11" text-anchor="start">&lt; 5</text><polygon fill="#fff" stroke="none" points="1004.5 -78.785 1004.5 -96.785 1061.5 -96.785 1061.5 -78.785 1004.5 -78.785"/><polygon fill="none" stroke="#000" points="1004.5 -78.785 1004.5 -96.785 1061.5 -96.785 1061.5 -78.785 1004.5 -78.785"/><text x="1022.5" y="-84.985" font-family="Helvetica,sans-Serif" font-size="11" text-anchor="start">0 rows</text><polygon fill="#fff" stroke="none" points="1061.5 -78.785 1061.5 -96.785 1089.5 -96.785 1089.5 -78.785 1061.5 -78.785"/><polygon fill="none" stroke="#000" points="1061.5 -78.785 1061.5 -96.785 1089.5 -96.785 1089.5 -78.785 1061.5 -78.785"/></a></g></g><g id="edge22" class="edge"><title>token_transfers:elipses:w-&gt;addresses:hash:e</title><path fill="none" stroke="#000" d="M935.923,-105.645C650.44,-100.17 502.91,63.118 287,-130.785 241.218,-171.9 308.534,-404.785 247,-404.785"/><polygon fill="#000" stroke="#000" points="942.5 -105.708 950.465 -109.384 946.5 -105.746 950.5 -105.785 950.5 -105.785 950.5 -105.785 946.5 -105.746 950.535 -102.185 942.5 -105.708 942.5 -105.708"/><ellipse cx="939.301" cy="-105.677" fill="none" stroke="#000" rx="3.2" ry="3.2"/></g><g id="edge23" class="edge"><title>token_transfers:elipses:w-&gt;addresses:hash:e</title><path fill="none" stroke="#000" d="M935.919,-105.354C650.359,-94.2858 502.584,65.5865 287,-128.785 241.951,-169.4 307.655,-398.785 247,-404.785"/><polygon fill="#000" stroke="#000" points="942.503 -105.548 950.394 -109.383 946.502 -105.666 950.5 -105.785 950.5 -105.785 950.5 -105.785 946.502 -105.666 950.606 -102.186 942.503 -105.548 942.503 -105.548"/><ellipse cx="939.305" cy="-105.454" fill="none" stroke="#000" rx="3.2" ry="3.2"/></g><g id="edge24" class="edge"><title>token_transfers:elipses:w-&gt;addresses:hash:e</title><path fill="none" stroke="#000" d="M935.919,-105.99C650.359,-107.286 502.584,52.5865 287,-141.785 241.951,-182.4 307.655,-411.785 247,-404.785"/><polygon fill="#000" stroke="#000" points="942.501 -105.898 950.551 -109.384 946.5 -105.841 950.5 -105.785 950.5 -105.785 950.5 -105.785 946.5 -105.841 950.449 -102.185 942.501 -105.898 942.501 -105.898"/><ellipse cx="939.301" cy="-105.943" fill="none" stroke="#000" rx="3.2" ry="3.2"/></g><g id="edge21" class="edge"><title>token_transfers:elipses:w-&gt;blocks:elipses:e</title><path fill="none" stroke="#000" d="M935.811,-107.262C867.824,-122.826 964.554,-257.267 894,-312.785 854.908,-343.545 496.243,-325.785 446.5,-325.785"/><polygon fill="#000" stroke="#000" points="942.54 -106.585 950.86 -109.367 946.52 -106.185 950.5 -105.785 950.5 -105.785 950.5 -105.785 946.52 -106.185 950.14 -102.203 942.54 -106.585 942.54 -106.585"/><ellipse cx="939.356" cy="-106.905" fill="none" stroke="#000" rx="3.2" ry="3.2"/></g><g id="edge25" class="edge"><title>token_transfers:elipses:w-&gt;transactions:elipses:e</title><path fill="none" stroke="#000" d="M935.913,-106.972C849.597,-121.811 881.944,-270.785 782.5,-270.785"/><polygon fill="#000" stroke="#000" points="942.526 -106.434 950.792 -109.373 946.513 -106.109 950.5 -105.785 950.5 -105.785 950.5 -105.785 946.513 -106.109 950.208 -102.196 942.526 -106.434 942.526 -106.434"/><ellipse cx="939.337" cy="-106.693" fill="none" stroke="#000" rx="3.2" ry="3.2"/></g></g></svg>