<svg xmlns="http://www.w3.org/2000/svg" xmlns:xlink="http://www.w3.org/1999/xlink" width="1472" height="961pt" viewBox="0 0 1104 961.46"><g id="graph0" class="graph" transform="scale(1 1) rotate(0) translate(4 957.458)"><title>twoDegreesRelationshipsDiagram</title><polygon fill="#fff" stroke="none" points="-4 4 -4 -957.458 1100 -957.458 1100 4 -4 4"/><text x="74.5" y="-7.2" font-family="Helvetica,sans-Serif" font-size="11" text-anchor="middle">Generated by SchemaSpy</text><g id="node1" class="node"><title>address_coin_balances</title><g id="a_node1"><a target="_top" xlink:href="../../tables/address_coin_balances.html" xlink:title="address_coin_balances"><polygon fill="#fff" stroke="none" points="313.5 -870.458 313.5 -928.458 489.5 -928.458 489.5 -870.458 313.5 -870.458"/><polygon fill="#f5f5f5" stroke="none" points="313.5 -906.458 313.5 -928.458 489.5 -928.458 489.5 -906.458 313.5 -906.458"/><polygon fill="none" stroke="#000" points="313.5 -906.458 313.5 -928.458 489.5 -928.458 489.5 -906.458 313.5 -906.458"/><text x="318.5" y="-915.658" font-family="Helvetica,sans-Serif" font-size="11" font-weight="bold" text-anchor="start">address_coin_balances</text><text x="450.5" y="-914.658" font-family="Helvetica,sans-Serif" font-size="11" text-anchor="start">[table]</text><polygon fill="none" stroke="#000" points="313.5 -888.458 313.5 -906.458 489.5 -906.458 489.5 -888.458 313.5 -888.458"/><text x="316.5" y="-894.658" font-family="Helvetica,sans-Serif" font-size="11" text-anchor="start">...</text><polygon fill="#fff" stroke="none" points="313.5 -870.458 313.5 -888.458 385.5 -888.458 385.5 -870.458 313.5 -870.458"/><polygon fill="none" stroke="#000" points="313.5 -870.458 313.5 -888.458 385.5 -888.458 385.5 -870.458 313.5 -870.458"/><text x="316.5" y="-876.658" font-family="Helvetica,sans-Serif" font-size="11" text-anchor="start">&lt; 1</text><polygon fill="#fff" stroke="none" points="385.5 -870.458 385.5 -888.458 451.5 -888.458 451.5 -870.458 385.5 -870.458"/><polygon fill="none" stroke="#000" points="385.5 -870.458 385.5 -888.458 451.5 -888.458 451.5 -870.458 385.5 -870.458"/><text x="412.5" y="-876.658" font-family="Helvetica,sans-Serif" font-size="11" text-anchor="start">3 rows</text><polygon fill="#fff" stroke="none" points="451.5 -870.458 451.5 -888.458 489.5 -888.458 489.5 -870.458 451.5 -870.458"/><polygon fill="none" stroke="#000" points="451.5 -870.458 451.5 -888.458 489.5 -888.458 489.5 -870.458 451.5 -870.458"/></a></g></g><g id="node2" class="node"><title>addresses</title><g id="a_node2"><a target="_top" xlink:href="../../tables/addresses.html" xlink:title="addresses"><polygon fill="#fff" stroke="none" points="8 -333.458 8 -457.458 246 -457.458 246 -333.458 8 -333.458"/><polygon fill="#f5f5f5" stroke="none" points="8 -435.458 8 -457.458 246 -457.458 246 -435.458 8 -435.458"/><polygon fill="none" stroke="#000" points="8 -435.458 8 -457.458 246 -457.458 246 -435.458 8 -435.458"/><text x="13" y="-444.658" font-family="Helvetica,sans-Serif" font-size="11" font-weight="bold" text-anchor="start">addresses</text><text x="207" y="-443.658" font-family="Helvetica,sans-Serif" font-size="11" text-anchor="start">[table]</text><polygon fill="#fff" stroke="none" points="8 -413.458 8 -435.458 246 -435.458 246 -413.458 8 -413.458"/><polygon fill="none" stroke="#000" points="8 -413.458 8 -435.458 246 -435.458 246 -413.458 8 -413.458"/><text x="28" y="-421.658" font-family="Helvetica,sans-Serif" font-size="11" text-anchor="start">fetched_coin_balance</text><polygon fill="none" stroke="#000" points="8 -391.458 8 -413.458 246 -413.458 246 -391.458 8 -391.458"/><image width="11" height="12" x="13" y="-408.458" preserveAspectRatio="xMinYMin meet" xlink:href="../../images/primaryKeys.png"/><text x="28" y="-399.658" font-family="Helvetica,sans-Serif" font-size="11" text-anchor="start">hash</text><polygon fill="#fff" stroke="none" points="8 -369.458 8 -391.458 246 -391.458 246 -369.458 8 -369.458"/><polygon fill="none" stroke="#000" points="8 -369.458 8 -391.458 246 -391.458 246 -369.458 8 -369.458"/><text x="28" y="-377.658" font-family="Helvetica,sans-Serif" font-size="11" text-anchor="start">inserted_at</text><polygon fill="none" stroke="#000" points="8 -351.458 8 -369.458 246 -369.458 246 -351.458 8 -351.458"/><text x="11" y="-357.658" font-family="Helvetica,sans-Serif" font-size="11" text-anchor="start">...</text><polygon fill="#fff" stroke="none" points="8 -333.458 8 -351.458 97 -351.458 97 -333.458 8 -333.458"/><polygon fill="none" stroke="#000" points="8 -333.458 8 -351.458 97 -351.458 97 -333.458 8 -333.458"/><polygon fill="#fff" stroke="none" points="97 -333.458 97 -351.458 177 -351.458 177 -333.458 97 -333.458"/><polygon fill="none" stroke="#000" points="97 -333.458 97 -351.458 177 -351.458 177 -333.458 97 -333.458"/><text x="138" y="-339.658" font-family="Helvetica,sans-Serif" font-size="11" text-anchor="start">2 rows</text><polygon fill="#fff" stroke="none" points="177 -333.458 177 -351.458 246 -351.458 246 -333.458 177 -333.458"/><polygon fill="none" stroke="#000" points="177 -333.458 177 -351.458 246 -351.458 246 -333.458 177 -333.458"/><text x="219" y="-339.658" font-family="Helvetica,sans-Serif" font-size="11" text-anchor="start">19 &gt;</text></a></g></g><g id="edge1" class="edge"><title>address_coin_balances:elipses:w-&gt;addresses:hash:e</title><path fill="none" stroke="#000" d="M298.658,-892.199C292.476,-885.446 291.542,-873.084 287,-860.458 269.711,-812.39 298.083,-402.458 247,-402.458"/><polygon fill="#000" stroke="#000" points="305.021 -894.617 311.222 -900.823 308.761 -896.037 312.5 -897.458 312.5 -897.458 312.5 -897.458 308.761 -896.037 313.778 -894.092 305.021 -894.617 305.021 -894.617"/><ellipse cx="302.03" cy="-893.48" fill="none" stroke="#000" rx="3.2" ry="3.2"/></g><g id="node3" class="node"><title>address_coin_balances_daily</title><g id="a_node3"><a target="_top" xlink:href="../../tables/address_coin_balances_daily.html" xlink:title="address_coin_balances_daily"><polygon fill="#fff" stroke="none" points="297 -791.458 297 -849.458 506 -849.458 506 -791.458 297 -791.458"/><polygon fill="#f5f5f5" stroke="none" points="297.5 -827.458 297.5 -849.458 506.5 -849.458 506.5 -827.458 297.5 -827.458"/><polygon fill="none" stroke="#000" points="297.5 -827.458 297.5 -849.458 506.5 -849.458 506.5 -827.458 297.5 -827.458"/><text x="302.5" y="-836.658" font-family="Helvetica,sans-Serif" font-size="11" font-weight="bold" text-anchor="start">address_coin_balances_daily</text><text x="467.5" y="-835.658" font-family="Helvetica,sans-Serif" font-size="11" text-anchor="start">[table]</text><polygon fill="none" stroke="#000" points="297.5 -809.458 297.5 -827.458 506.5 -827.458 506.5 -809.458 297.5 -809.458"/><text x="300.5" y="-815.658" font-family="Helvetica,sans-Serif" font-size="11" text-anchor="start">...</text><polygon fill="#fff" stroke="none" points="297.5 -791.458 297.5 -809.458 385.5 -809.458 385.5 -791.458 297.5 -791.458"/><polygon fill="none" stroke="#000" points="297.5 -791.458 297.5 -809.458 385.5 -809.458 385.5 -791.458 297.5 -791.458"/><text x="300.5" y="-797.658" font-family="Helvetica,sans-Serif" font-size="11" text-anchor="start">&lt; 1</text><polygon fill="#fff" stroke="none" points="385.5 -791.458 385.5 -809.458 460.5 -809.458 460.5 -791.458 385.5 -791.458"/><polygon fill="none" stroke="#000" points="385.5 -791.458 385.5 -809.458 460.5 -809.458 460.5 -791.458 385.5 -791.458"/><text x="421.5" y="-797.658" font-family="Helvetica,sans-Serif" font-size="11" text-anchor="start">3 rows</text><polygon fill="#fff" stroke="none" points="460.5 -791.458 460.5 -809.458 506.5 -809.458 506.5 -791.458 460.5 -791.458"/><polygon fill="none" stroke="#000" points="460.5 -791.458 460.5 -809.458 506.5 -809.458 506.5 -791.458 460.5 -791.458"/></a></g></g><g id="edge2" class="edge"><title>address_coin_balances_daily:elipses:w-&gt;addresses:hash:e</title><path fill="none" stroke="#000" d="M282.41,-814.34C218.633,-771.136 334.642,-402.458 247,-402.458"/><polygon fill="#000" stroke="#000" points="288.821 -816.214 295.49 -821.913 292.661 -817.336 296.5 -818.458 296.5 -818.458 296.5 -818.458 292.661 -817.336 297.51 -815.002 288.821 -816.214 288.821 -816.214"/><ellipse cx="285.75" cy="-815.316" fill="none" stroke="#000" rx="3.2" ry="3.2"/></g><g id="node4" class="node"><title>address_current_token_balances</title><g id="a_node4"><a target="_top" xlink:href="../../tables/address_current_token_balances.html" xlink:title="address_current_token_balances"><polygon fill="#fff" stroke="none" points="596 -891.458 596 -949.458 829 -949.458 829 -891.458 596 -891.458"/><polygon fill="#f5f5f5" stroke="none" points="596.5 -927.458 596.5 -949.458 829.5 -949.458 829.5 -927.458 596.5 -927.458"/><polygon fill="none" stroke="#000" points="596.5 -927.458 596.5 -949.458 829.5 -949.458 829.5 -927.458 596.5 -927.458"/><text x="601.5" y="-936.658" font-family="Helvetica,sans-Serif" font-size="11" font-weight="bold" text-anchor="start">address_current_token_balances</text><text x="790.5" y="-935.658" font-family="Helvetica,sans-Serif" font-size="11" text-anchor="start">[table]</text><polygon fill="none" stroke="#000" points="596.5 -909.458 596.5 -927.458 829.5 -927.458 829.5 -909.458 596.5 -909.458"/><text x="599.5" y="-915.658" font-family="Helvetica,sans-Serif" font-size="11" text-anchor="start">...</text><polygon fill="#fff" stroke="none" points="596.5 -891.458 596.5 -909.458 696.5 -909.458 696.5 -891.458 596.5 -891.458"/><polygon fill="none" stroke="#000" points="596.5 -891.458 596.5 -909.458 696.5 -909.458 696.5 -891.458 596.5 -891.458"/><text x="599.5" y="-897.658" font-family="Helvetica,sans-Serif" font-size="11" text-anchor="start">&lt; 2</text><polygon fill="#fff" stroke="none" points="696.5 -891.458 696.5 -909.458 777.5 -909.458 777.5 -891.458 696.5 -891.458"/><polygon fill="none" stroke="#000" points="696.5 -891.458 696.5 -909.458 777.5 -909.458 777.5 -891.458 696.5 -891.458"/><text x="738.5" y="-897.658" font-family="Helvetica,sans-Serif" font-size="11" text-anchor="start">0 rows</text><polygon fill="#fff" stroke="none" points="777.5 -891.458 777.5 -909.458 829.5 -909.458 829.5 -891.458 777.5 -891.458"/><polygon fill="none" stroke="#000" points="777.5 -891.458 777.5 -909.458 829.5 -909.458 829.5 -891.458 777.5 -891.458"/></a></g></g><g id="edge3" class="edge"><title>address_current_token_balances:elipses:w-&gt;addresses:hash:e</title><path fill="none" stroke="#000" d="M580.913,-916.351C566.423,-911.446 560.798,-898.385 549,-881.458 522.238,-843.062 552.253,-811.057 516,-781.458 436.616,-716.643 359.314,-827.076 287,-754.458 231.45,-698.673 325.726,-402.458 247,-402.458"/><polygon fill="#000" stroke="#000" points="587.582 -917.314 594.985 -922.021 591.541 -917.886 595.5 -918.458 595.5 -918.458 595.5 -918.458 591.541 -917.886 596.015 -914.894 587.582 -917.314 587.582 -917.314"/><ellipse cx="584.415" cy="-916.856" fill="none" stroke="#000" rx="3.2" ry="3.2"/></g><g id="node5" class="node"><title>tokens</title><g id="a_node5"><a target="_top" xlink:href="../../tables/tokens.html" xlink:title="tokens"><polygon fill="#fff" stroke="none" points="323 -619.458 323 -743.458 480 -743.458 480 -619.458 323 -619.458"/><polygon fill="#f5f5f5" stroke="none" points="323.5 -721.458 323.5 -743.458 480.5 -743.458 480.5 -721.458 323.5 -721.458"/><polygon fill="none" stroke="#000" points="323.5 -721.458 323.5 -743.458 480.5 -743.458 480.5 -721.458 323.5 -721.458"/><text x="328.5" y="-730.658" font-family="Helvetica,sans-Serif" font-size="11" font-weight="bold" text-anchor="start">tokens</text><text x="441.5" y="-729.658" font-family="Helvetica,sans-Serif" font-size="11" text-anchor="start">[table]</text><polygon fill="#fff" stroke="none" points="323.5 -699.458 323.5 -721.458 480.5 -721.458 480.5 -699.458 323.5 -699.458"/><polygon fill="none" stroke="#000" points="323.5 -699.458 323.5 -721.458 480.5 -721.458 480.5 -699.458 323.5 -699.458"/><text x="343.5" y="-707.658" font-family="Helvetica,sans-Serif" font-size="11" text-anchor="start">symbol</text><polygon fill="#fff" stroke="none" points="323.5 -677.458 323.5 -699.458 480.5 -699.458 480.5 -677.458 323.5 -677.458"/><polygon fill="none" stroke="#000" points="323.5 -677.458 323.5 -699.458 480.5 -699.458 480.5 -677.458 323.5 -677.458"/><text x="343.5" y="-685.658" font-family="Helvetica,sans-Serif" font-size="11" text-anchor="start">type</text><polygon fill="none" stroke="#000" points="323.5 -655.458 323.5 -677.458 480.5 -677.458 480.5 -655.458 323.5 -655.458"/><image width="11" height="12" x="328.5" y="-672.458" preserveAspectRatio="xMinYMin meet" xlink:href="../../images/primaryKeys.png"/><text x="343.5" y="-663.658" font-family="Helvetica,sans-Serif" font-size="11" text-anchor="start">contract_address_hash</text><polygon fill="none" stroke="#000" points="323.5 -637.458 323.5 -655.458 480.5 -655.458 480.5 -637.458 323.5 -637.458"/><text x="326.5" y="-643.658" font-family="Helvetica,sans-Serif" font-size="11" text-anchor="start">...</text><polygon fill="#fff" stroke="none" points="323.5 -619.458 323.5 -637.458 380.5 -637.458 380.5 -619.458 323.5 -619.458"/><polygon fill="none" stroke="#000" points="323.5 -619.458 323.5 -637.458 380.5 -637.458 380.5 -619.458 323.5 -619.458"/><text x="326.5" y="-625.658" font-family="Helvetica,sans-Serif" font-size="11" text-anchor="start">&lt; 1</text><polygon fill="#fff" stroke="none" points="380.5 -619.458 380.5 -637.458 439.5 -637.458 439.5 -619.458 380.5 -619.458"/><polygon fill="none" stroke="#000" points="380.5 -619.458 380.5 -637.458 439.5 -637.458 439.5 -619.458 380.5 -619.458"/><text x="400.5" y="-625.658" font-family="Helvetica,sans-Serif" font-size="11" text-anchor="start">0 rows</text><polygon fill="#fff" stroke="none" points="439.5 -619.458 439.5 -637.458 480.5 -637.458 480.5 -619.458 439.5 -619.458"/><polygon fill="none" stroke="#000" points="439.5 -619.458 439.5 -637.458 480.5 -637.458 480.5 -619.458 439.5 -619.458"/><text x="460.5" y="-625.658" font-family="Helvetica,sans-Serif" font-size="11" text-anchor="start">3 &gt;</text></a></g></g><g id="edge4" class="edge"><title>address_current_token_balances:elipses:w-&gt;tokens:contract_address_hash:e</title><path fill="none" stroke="#000" d="M581.025,-917.102C483.434,-897.267 599.145,-666.458 481.5,-666.458"/><polygon fill="#000" stroke="#000" points="587.535 -917.711 595.164 -922.042 591.517 -918.084 595.5 -918.458 595.5 -918.458 595.5 -918.458 591.517 -918.084 595.836 -914.873 587.535 -917.711 587.535 -917.711"/><ellipse cx="584.349" cy="-917.413" fill="none" stroke="#000" rx="3.2" ry="3.2"/></g><g id="edge26" class="edge"><title>tokens:contract_address_hash:w-&gt;addresses:hash:e</title><path fill="none" stroke="#000" d="M312.147,-665.16C286.144,-657.662 297.911,-619.043 287,-585.458 274.138,-545.868 288.627,-402.458 247,-402.458"/><polygon fill="#000" stroke="#000" points="322.204 -662.389 321.209 -670.327 319.621 -670.128 320.616 -662.19 322.204 -662.389"/><polyline fill="none" stroke="#000" points="322.5 -666.458 318.531 -665.96"/><ellipse cx="315.356" cy="-665.562" fill="none" stroke="#000" rx="3.2" ry="3.2"/></g><g id="node6" class="node"><title>address_token_balances</title><g id="a_node6"><a target="_top" xlink:href="../../tables/address_token_balances.html" xlink:title="address_token_balances"><polygon fill="#fff" stroke="none" points="557 -527.458 557 -791.458 868 -791.458 868 -527.458 557 -527.458"/><polygon fill="#f5f5f5" stroke="none" points="559.5 -767.458 559.5 -789.458 866.5 -789.458 866.5 -767.458 559.5 -767.458"/><polygon fill="none" stroke="#000" points="559.5 -767.458 559.5 -789.458 866.5 -789.458 866.5 -767.458 559.5 -767.458"/><text x="564.5" y="-776.658" font-family="Helvetica,sans-Serif" font-size="11" font-weight="bold" text-anchor="start">address_token_balances</text><text x="827.5" y="-775.658" font-family="Helvetica,sans-Serif" font-size="11" text-anchor="start">[table]</text><polygon fill="none" stroke="#000" points="559.5 -745.458 559.5 -767.458 756.5 -767.458 756.5 -745.458 559.5 -745.458"/><image width="11" height="12" x="564.5" y="-762.458" preserveAspectRatio="xMinYMin meet" xlink:href="../../images/primaryKeys.png"/><text x="579.5" y="-753.658" font-family="Helvetica,sans-Serif" font-size="11" text-anchor="start">id</text><polygon fill="none" stroke="#000" points="756.5 -745.458 756.5 -767.458 866.5 -767.458 866.5 -745.458 756.5 -745.458"/><text x="759.5" y="-753.658" font-family="Helvetica,sans-Serif" font-size="11" text-anchor="start">bigserial[19]</text><polygon fill="#fff" stroke="none" points="559.5 -723.458 559.5 -745.458 756.5 -745.458 756.5 -723.458 559.5 -723.458"/><polygon fill="none" stroke="#000" points="559.5 -723.458 559.5 -745.458 756.5 -745.458 756.5 -723.458 559.5 -723.458"/><image width="11" height="12" x="564.5" y="-740.458" preserveAspectRatio="xMinYMin meet" xlink:href="../../images/foreignKeys.png"/><text x="579.5" y="-731.658" font-family="Helvetica,sans-Serif" font-size="11" text-anchor="start">address_hash</text><polygon fill="none" stroke="#000" points="756.5 -723.458 756.5 -745.458 866.5 -745.458 866.5 -723.458 756.5 -723.458"/><text x="759.5" y="-731.658" font-family="Helvetica,sans-Serif" font-size="11" text-anchor="start">bytea[2147483647]</text><polygon fill="#fff" stroke="none" points="559.5 -701.458 559.5 -723.458 756.5 -723.458 756.5 -701.458 559.5 -701.458"/><polygon fill="none" stroke="#000" points="559.5 -701.458 559.5 -723.458 756.5 -723.458 756.5 -701.458 559.5 -701.458"/><text x="579.5" y="-709.658" font-family="Helvetica,sans-Serif" font-size="11" text-anchor="start">block_number</text><polygon fill="none" stroke="#000" points="756.5 -701.458 756.5 -723.458 866.5 -723.458 866.5 -701.458 756.5 -701.458"/><text x="759.5" y="-709.658" font-family="Helvetica,sans-Serif" font-size="11" text-anchor="start">int8[19]</text><polygon fill="#fff" stroke="none" points="559.5 -679.458 559.5 -701.458 756.5 -701.458 756.5 -679.458 559.5 -679.458"/><polygon fill="none" stroke="#000" points="559.5 -679.458 559.5 -701.458 756.5 -701.458 756.5 -679.458 559.5 -679.458"/><image width="11" height="12" x="564.5" y="-696.458" preserveAspectRatio="xMinYMin meet" xlink:href="../../images/foreignKeys.png"/><text x="579.5" y="-687.658" font-family="Helvetica,sans-Serif" font-size="11" text-anchor="start">token_contract_address_hash</text><polygon fill="none" stroke="#000" points="756.5 -679.458 756.5 -701.458 866.5 -701.458 866.5 -679.458 756.5 -679.458"/><text x="759.5" y="-687.658" font-family="Helvetica,sans-Serif" font-size="11" text-anchor="start">bytea[2147483647]</text><polygon fill="none" stroke="#000" points="559.5 -657.458 559.5 -679.458 756.5 -679.458 756.5 -657.458 559.5 -657.458"/><text x="579.5" y="-665.658" font-family="Helvetica,sans-Serif" font-size="11" text-anchor="start">value</text><polygon fill="none" stroke="#000" points="756.5 -657.458 756.5 -679.458 866.5 -679.458 866.5 -657.458 756.5 -657.458"/><text x="759.5" y="-665.658" font-family="Helvetica,sans-Serif" font-size="11" text-anchor="start">numeric[131089]</text><polygon fill="none" stroke="#000" points="559.5 -635.458 559.5 -657.458 756.5 -657.458 756.5 -635.458 559.5 -635.458"/><text x="579.5" y="-643.658" font-family="Helvetica,sans-Serif" font-size="11" text-anchor="start">value_fetched_at</text><polygon fill="none" stroke="#000" points="756.5 -635.458 756.5 -657.458 866.5 -657.458 866.5 -635.458 756.5 -635.458"/><text x="759.5" y="-643.658" font-family="Helvetica,sans-Serif" font-size="11" text-anchor="start">timestamp[29,6]</text><polygon fill="none" stroke="#000" points="559.5 -613.458 559.5 -635.458 756.5 -635.458 756.5 -613.458 559.5 -613.458"/><text x="579.5" y="-621.658" font-family="Helvetica,sans-Serif" font-size="11" text-anchor="start">inserted_at</text><polygon fill="none" stroke="#000" points="756.5 -613.458 756.5 -635.458 866.5 -635.458 866.5 -613.458 756.5 -613.458"/><text x="759.5" y="-621.658" font-family="Helvetica,sans-Serif" font-size="11" text-anchor="start">timestamp[29,6]</text><polygon fill="none" stroke="#000" points="559.5 -591.458 559.5 -613.458 756.5 -613.458 756.5 -591.458 559.5 -591.458"/><text x="579.5" y="-599.658" font-family="Helvetica,sans-Serif" font-size="11" text-anchor="start">updated_at</text><polygon fill="none" stroke="#000" points="756.5 -591.458 756.5 -613.458 866.5 -613.458 866.5 -591.458 756.5 -591.458"/><text x="759.5" y="-599.658" font-family="Helvetica,sans-Serif" font-size="11" text-anchor="start">timestamp[29,6]</text><polygon fill="#fff" stroke="none" points="559.5 -569.458 559.5 -591.458 756.5 -591.458 756.5 -569.458 559.5 -569.458"/><polygon fill="none" stroke="#000" points="559.5 -569.458 559.5 -591.458 756.5 -591.458 756.5 -569.458 559.5 -569.458"/><text x="579.5" y="-577.658" font-family="Helvetica,sans-Serif" font-size="11" text-anchor="start">token_id</text><polygon fill="none" stroke="#000" points="756.5 -569.458 756.5 -591.458 866.5 -591.458 866.5 -569.458 756.5 -569.458"/><text x="759.5" y="-577.658" font-family="Helvetica,sans-Serif" font-size="11" text-anchor="start">numeric[78]</text><polygon fill="none" stroke="#000" points="559.5 -547.458 559.5 -569.458 756.5 -569.458 756.5 -547.458 559.5 -547.458"/><text x="579.5" y="-555.658" font-family="Helvetica,sans-Serif" font-size="11" text-anchor="start">token_type</text><polygon fill="none" stroke="#000" points="756.5 -547.458 756.5 -569.458 866.5 -569.458 866.5 -547.458 756.5 -547.458"/><text x="759.5" y="-555.658" font-family="Helvetica,sans-Serif" font-size="11" text-anchor="start">varchar[255]</text><polygon fill="#fff" stroke="none" points="559.5 -529.458 559.5 -547.458 648.5 -547.458 648.5 -529.458 559.5 -529.458"/><polygon fill="none" stroke="#000" points="559.5 -529.458 559.5 -547.458 648.5 -547.458 648.5 -529.458 559.5 -529.458"/><text x="562.5" y="-535.658" font-family="Helvetica,sans-Serif" font-size="11" text-anchor="start">&lt; 2</text><polygon fill="#fff" stroke="none" points="648.5 -529.458 648.5 -547.458 756.5 -547.458 756.5 -529.458 648.5 -529.458"/><polygon fill="none" stroke="#000" points="648.5 -529.458 648.5 -547.458 756.5 -547.458 756.5 -529.458 648.5 -529.458"/><text x="717.5" y="-535.658" font-family="Helvetica,sans-Serif" font-size="11" text-anchor="start">0 rows</text><polygon fill="#fff" stroke="none" points="756.5 -529.458 756.5 -547.458 866.5 -547.458 866.5 -529.458 756.5 -529.458"/><polygon fill="none" stroke="#000" points="756.5 -529.458 756.5 -547.458 866.5 -547.458 866.5 -529.458 756.5 -529.458"/><text x="846.5" y="-535.658" font-family="Helvetica,sans-Serif" font-size="11" text-anchor="start">0 &gt;</text><polygon fill="none" stroke="#000" stroke-width="2" points="558 -528.458 558 -790.458 867 -790.458 867 -528.458 558 -528.458"/></a></g></g><g id="edge5" class="edge"><title>address_token_balances:address_hash:w-&gt;addresses:hash:e</title><path fill="none" stroke="#000" d="M543.966,-732.034C510.319,-718.117 552.325,-647.665 516,-609.458 440.538,-530.085 362.633,-597.667 287,-518.458 249.339,-479.016 301.535,-402.458 247,-402.458"/><polygon fill="#000" stroke="#000" points="550.609 -733.141 557.908 -738.008 554.554 -733.799 558.5 -734.458 558.5 -734.458 558.5 -734.458 554.554 -733.799 559.092 -730.907 550.609 -733.141 550.609 -733.141"/><ellipse cx="547.453" cy="-732.615" fill="none" stroke="#000" rx="3.2" ry="3.2"/></g><g id="edge6" class="edge"><title>address_token_balances:token_contract_address_hash:w-&gt;tokens:contract_address_hash:e</title><path fill="none" stroke="#000" d="M544.028,-688.956C520.328,-683.702 511.885,-666.458 481.5,-666.458"/><polygon fill="#000" stroke="#000" points="550.543 -689.632 558.129 -694.038 554.521 -690.045 558.5 -690.458 558.5 -690.458 558.5 -690.458 554.521 -690.045 558.871 -686.877 550.543 -689.632 550.543 -689.632"/><ellipse cx="547.36" cy="-689.302" fill="none" stroke="#000" rx="3.2" ry="3.2"/></g><g id="node7" class="node"><title>block_rewards</title><g id="a_node7"><a target="_top" xlink:href="../../tables/block_rewards.html" xlink:title="block_rewards"><polygon fill="#fff" stroke="none" points="647.5 -397.458 647.5 -455.458 777.5 -455.458 777.5 -397.458 647.5 -397.458"/><polygon fill="#f5f5f5" stroke="none" points="647.5 -433.458 647.5 -455.458 777.5 -455.458 777.5 -433.458 647.5 -433.458"/><polygon fill="none" stroke="#000" points="647.5 -433.458 647.5 -455.458 777.5 -455.458 777.5 -433.458 647.5 -433.458"/><text x="652.5" y="-442.658" font-family="Helvetica,sans-Serif" font-size="11" font-weight="bold" text-anchor="start">block_rewards</text><text x="738.5" y="-441.658" font-family="Helvetica,sans-Serif" font-size="11" text-anchor="start">[table]</text><polygon fill="none" stroke="#000" points="647.5 -415.458 647.5 -433.458 777.5 -433.458 777.5 -415.458 647.5 -415.458"/><text x="650.5" y="-421.658" font-family="Helvetica,sans-Serif" font-size="11" text-anchor="start">...</text><polygon fill="#fff" stroke="none" points="647.5 -397.458 647.5 -415.458 696.5 -415.458 696.5 -397.458 647.5 -397.458"/><polygon fill="none" stroke="#000" points="647.5 -397.458 647.5 -415.458 696.5 -415.458 696.5 -397.458 647.5 -397.458"/><text x="650.5" y="-403.658" font-family="Helvetica,sans-Serif" font-size="11" text-anchor="start">&lt; 2</text><polygon fill="#fff" stroke="none" points="696.5 -397.458 696.5 -415.458 751.5 -415.458 751.5 -397.458 696.5 -397.458"/><polygon fill="none" stroke="#000" points="696.5 -397.458 696.5 -415.458 751.5 -415.458 751.5 -397.458 696.5 -397.458"/><text x="712.5" y="-403.658" font-family="Helvetica,sans-Serif" font-size="11" text-anchor="start">0 rows</text><polygon fill="#fff" stroke="none" points="751.5 -397.458 751.5 -415.458 777.5 -415.458 777.5 -397.458 751.5 -397.458"/><polygon fill="none" stroke="#000" points="751.5 -397.458 751.5 -415.458 777.5 -415.458 777.5 -397.458 751.5 -397.458"/></a></g></g><g id="edge7" class="edge"><title>block_rewards:elipses:w-&gt;addresses:hash:e</title><path fill="none" stroke="#000" d="M632.018,-424.8C585.133,-427.104 569.365,-440.392 516,-444.458 414.516,-452.189 380.549,-484.55 287,-444.458 263.306,-434.303 272.778,-402.458 247,-402.458"/><polygon fill="#000" stroke="#000" points="638.502 -424.646 646.585 -428.057 642.501 -424.552 646.5 -424.458 646.5 -424.458 646.5 -424.458 642.501 -424.552 646.415 -420.859 638.502 -424.646 638.502 -424.646"/><ellipse cx="635.303" cy="-424.722" fill="none" stroke="#000" rx="3.2" ry="3.2"/></g><g id="node8" class="node"><title>blocks</title><g id="a_node8"><a target="_top" xlink:href="../../tables/blocks.html" xlink:title="blocks"><polygon fill="#fff" stroke="none" points="357.5 -296.458 357.5 -354.458 445.5 -354.458 445.5 -296.458 357.5 -296.458"/><polygon fill="#f5f5f5" stroke="none" points="357.5 -332.458 357.5 -354.458 445.5 -354.458 445.5 -332.458 357.5 -332.458"/><polygon fill="none" stroke="#000" points="357.5 -332.458 357.5 -354.458 445.5 -354.458 445.5 -332.458 357.5 -332.458"/><text x="362.5" y="-341.658" font-family="Helvetica,sans-Serif" font-size="11" font-weight="bold" text-anchor="start">blocks</text><text x="406.5" y="-340.658" font-family="Helvetica,sans-Serif" font-size="11" text-anchor="start">[table]</text><polygon fill="none" stroke="#000" points="357.5 -314.458 357.5 -332.458 445.5 -332.458 445.5 -314.458 357.5 -314.458"/><text x="360.5" y="-320.658" font-family="Helvetica,sans-Serif" font-size="11" text-anchor="start">...</text><polygon fill="#fff" stroke="none" points="357.5 -296.458 357.5 -314.458 380.5 -314.458 380.5 -296.458 357.5 -296.458"/><polygon fill="none" stroke="#000" points="357.5 -296.458 357.5 -314.458 380.5 -314.458 380.5 -296.458 357.5 -296.458"/><text x="360.5" y="-302.658" font-family="Helvetica,sans-Serif" font-size="11" text-anchor="start">&lt; 1</text><polygon fill="#fff" stroke="none" points="380.5 -296.458 380.5 -314.458 422.5 -314.458 422.5 -296.458 380.5 -296.458"/><polygon fill="none" stroke="#000" points="380.5 -296.458 380.5 -314.458 422.5 -314.458 422.5 -296.458 380.5 -296.458"/><text x="383.5" y="-302.658" font-family="Helvetica,sans-Serif" font-size="11" text-anchor="start">3 rows</text><polygon fill="#fff" stroke="none" points="422.5 -296.458 422.5 -314.458 445.5 -314.458 445.5 -296.458 422.5 -296.458"/><polygon fill="none" stroke="#000" points="422.5 -296.458 422.5 -314.458 445.5 -314.458 445.5 -296.458 422.5 -296.458"/><text x="425.5" y="-302.658" font-family="Helvetica,sans-Serif" font-size="11" text-anchor="start">8 &gt;</text></a></g></g><g id="edge8" class="edge"><title>block_rewards:elipses:w-&gt;blocks:elipses:e</title><path fill="none" stroke="#000" d="M631.904,-423.716C597.146,-419.92 586.28,-402.106 549,-383.458 501.791,-359.842 499.287,-323.458 446.5,-323.458"/><polygon fill="#000" stroke="#000" points="638.51 -424.052 646.317 -428.053 642.505 -424.255 646.5 -424.458 646.5 -424.458 646.5 -424.458 642.505 -424.255 646.683 -420.862 638.51 -424.052 638.51 -424.052"/><ellipse cx="635.314" cy="-423.889" fill="none" stroke="#000" rx="3.2" ry="3.2"/></g><g id="edge9" class="edge"><title>blocks:elipses:w-&gt;addresses:hash:e</title><path fill="none" stroke="#000" d="M342.003,-324.804C318.453,-329.676 311.446,-347.065 287,-365.458 267.648,-380.017 271.217,-402.458 247,-402.458"/><polygon fill="#000" stroke="#000" points="348.534 -324.197 356.833 -327.042 352.517 -323.828 356.5 -323.458 356.5 -323.458 356.5 -323.458 352.517 -323.828 356.167 -319.873 348.534 -324.197 348.534 -324.197"/><ellipse cx="345.348" cy="-324.493" fill="none" stroke="#000" rx="3.2" ry="3.2"/></g><g id="node9" class="node"><title>decompiled_smart_contracts</title><g id="a_node9"><a target="_top" xlink:href="../../tables/decompiled_smart_contracts.html" xlink:title="decompiled_smart_contracts"><polygon fill="#fff" stroke="none" points="295 -375.458 295 -433.458 508 -433.458 508 -375.458 295 -375.458"/><polygon fill="#f5f5f5" stroke="none" points="295.5 -411.458 295.5 -433.458 508.5 -433.458 508.5 -411.458 295.5 -411.458"/><polygon fill="none" stroke="#000" points="295.5 -411.458 295.5 -433.458 508.5 -433.458 508.5 -411.458 295.5 -411.458"/><text x="300.5" y="-420.658" font-family="Helvetica,sans-Serif" font-size="11" font-weight="bold" text-anchor="start">decompiled_smart_contracts</text><text x="469.5" y="-419.658" font-family="Helvetica,sans-Serif" font-size="11" text-anchor="start">[table]</text><polygon fill="none" stroke="#000" points="295.5 -393.458 295.5 -411.458 508.5 -411.458 508.5 -393.458 295.5 -393.458"/><text x="298.5" y="-399.658" font-family="Helvetica,sans-Serif" font-size="11" text-anchor="start">...</text><polygon fill="#fff" stroke="none" points="295.5 -375.458 295.5 -393.458 385.5 -393.458 385.5 -375.458 295.5 -375.458"/><polygon fill="none" stroke="#000" points="295.5 -375.458 295.5 -393.458 385.5 -393.458 385.5 -375.458 295.5 -375.458"/><text x="298.5" y="-381.658" font-family="Helvetica,sans-Serif" font-size="11" text-anchor="start">&lt; 1</text><polygon fill="#fff" stroke="none" points="385.5 -375.458 385.5 -393.458 461.5 -393.458 461.5 -375.458 385.5 -375.458"/><polygon fill="none" stroke="#000" points="385.5 -375.458 385.5 -393.458 461.5 -393.458 461.5 -375.458 385.5 -375.458"/><text x="422.5" y="-381.658" font-family="Helvetica,sans-Serif" font-size="11" text-anchor="start">0 rows</text><polygon fill="#fff" stroke="none" points="461.5 -375.458 461.5 -393.458 508.5 -393.458 508.5 -375.458 461.5 -375.458"/><polygon fill="none" stroke="#000" points="461.5 -375.458 461.5 -393.458 508.5 -393.458 508.5 -375.458 461.5 -375.458"/></a></g></g><g id="edge10" class="edge"><title>decompiled_smart_contracts:elipses:w-&gt;addresses:hash:e</title><path fill="none" stroke="#000" d="M280.086,-402.458C269.319,-402.458 262.339,-402.458 247,-402.458"/><polygon fill="#000" stroke="#000" points="286.5 -402.458 294.5 -406.058 290.5 -402.458 294.5 -402.458 294.5 -402.458 294.5 -402.458 290.5 -402.458 294.5 -398.858 286.5 -402.458 286.5 -402.458"/><ellipse cx="283.3" cy="-402.458" fill="none" stroke="#000" rx="3.2" ry="3.2"/></g><g id="node10" class="node"><title>internal_transactions</title><g id="a_node10"><a target="_top" xlink:href="../../tables/internal_transactions.html" xlink:title="internal_transactions"><polygon fill="#fff" stroke="none" points="917 -464.458 917 -522.458 1088 -522.458 1088 -464.458 917 -464.458"/><polygon fill="#f5f5f5" stroke="none" points="917.5 -500.458 917.5 -522.458 1088.5 -522.458 1088.5 -500.458 917.5 -500.458"/><polygon fill="none" stroke="#000" points="917.5 -500.458 917.5 -522.458 1088.5 -522.458 1088.5 -500.458 917.5 -500.458"/><text x="922.5" y="-509.658" font-family="Helvetica,sans-Serif" font-size="11" font-weight="bold" text-anchor="start">internal_transactions</text><text x="1049.5" y="-508.658" font-family="Helvetica,sans-Serif" font-size="11" text-anchor="start">[table]</text><polygon fill="none" stroke="#000" points="917.5 -482.458 917.5 -500.458 1088.5 -500.458 1088.5 -482.458 917.5 -482.458"/><text x="920.5" y="-488.658" font-family="Helvetica,sans-Serif" font-size="11" text-anchor="start">...</text><polygon fill="#fff" stroke="none" points="917.5 -464.458 917.5 -482.458 989.5 -482.458 989.5 -464.458 917.5 -464.458"/><polygon fill="none" stroke="#000" points="917.5 -464.458 917.5 -482.458 989.5 -482.458 989.5 -464.458 917.5 -464.458"/><text x="920.5" y="-470.658" font-family="Helvetica,sans-Serif" font-size="11" text-anchor="start">&lt; 5</text><polygon fill="#fff" stroke="none" points="989.5 -464.458 989.5 -482.458 1050.5 -482.458 1050.5 -464.458 989.5 -464.458"/><polygon fill="none" stroke="#000" points="989.5 -464.458 989.5 -482.458 1050.5 -482.458 1050.5 -464.458 989.5 -464.458"/><text x="1016.5" y="-470.658" font-family="Helvetica,sans-Serif" font-size="11" text-anchor="start">1 row</text><polygon fill="#fff" stroke="none" points="1050.5 -464.458 1050.5 -482.458 1088.5 -482.458 1088.5 -464.458 1050.5 -464.458"/><polygon fill="none" stroke="#000" points="1050.5 -464.458 1050.5 -482.458 1088.5 -482.458 1088.5 -464.458 1050.5 -464.458"/></a></g></g><g id="edge12" class="edge"><title>internal_transactions:elipses:w-&gt;addresses:hash:e</title><path fill="none" stroke="#000" d="M901.816,-491.588C752.321,-494.076 404.656,-530.421 287,-463.458 258.824,-447.421 279.42,-402.458 247,-402.458"/><polygon fill="#000" stroke="#000" points="908.5 -491.529 916.532 -495.057 912.5 -491.493 916.5 -491.458 916.5 -491.458 916.5 -491.458 912.5 -491.493 916.468 -487.858 908.5 -491.529 908.5 -491.529"/><ellipse cx="905.3" cy="-491.557" fill="none" stroke="#000" rx="3.2" ry="3.2"/></g><g id="edge13" class="edge"><title>internal_transactions:elipses:w-&gt;addresses:hash:e</title><path fill="none" stroke="#000" d="M901.815,-490.993C752.34,-487.717 405.525,-518.955 287,-453.458 259.912,-438.489 277.949,-396.458 247,-402.458"/><polygon fill="#000" stroke="#000" points="908.504 -491.204 916.386 -495.056 912.502 -491.331 916.5 -491.458 916.5 -491.458 916.5 -491.458 912.502 -491.331 916.614 -487.859 908.504 -491.204 908.504 -491.204"/><ellipse cx="905.306" cy="-491.103" fill="none" stroke="#000" rx="3.2" ry="3.2"/></g><g id="edge14" class="edge"><title>internal_transactions:elipses:w-&gt;addresses:hash:e</title><path fill="none" stroke="#000" d="M901.815,-492.245C752.34,-500.717 405.525,-531.955 287,-466.458 259.912,-451.489 277.949,-409.458 247,-402.458"/><polygon fill="#000" stroke="#000" points="908.511 -491.886 916.693 -495.052 912.506 -491.672 916.5 -491.458 916.5 -491.458 916.5 -491.458 912.506 -491.672 916.307 -487.863 908.511 -491.886 908.511 -491.886"/><ellipse cx="905.316" cy="-492.057" fill="none" stroke="#000" rx="3.2" ry="3.2"/></g><g id="edge11" class="edge"><title>internal_transactions:elipses:w-&gt;blocks:elipses:e</title><path fill="none" stroke="#000" d="M902.132,-488.227C877.638,-473.688 910.433,-413.881 876,-387.458 818.003,-342.951 620.815,-365.132 549,-351.458 502.609,-342.624 493.725,-323.458 446.5,-323.458"/><polygon fill="#000" stroke="#000" points="908.695 -489.703 915.71 -494.97 912.597 -490.58 916.5 -491.458 916.5 -491.458 916.5 -491.458 912.597 -490.58 917.29 -487.945 908.695 -489.703 908.695 -489.703"/><ellipse cx="905.573" cy="-489.001" fill="none" stroke="#000" rx="3.2" ry="3.2"/></g><g id="node11" class="node"><title>transactions</title><g id="a_node11"><a target="_top" xlink:href="../../tables/transactions.html" xlink:title="transactions"><polygon fill="#fff" stroke="none" points="652.5 -237.458 652.5 -295.458 772.5 -295.458 772.5 -237.458 652.5 -237.458"/><polygon fill="#f5f5f5" stroke="none" points="652.5 -273.458 652.5 -295.458 772.5 -295.458 772.5 -273.458 652.5 -273.458"/><polygon fill="none" stroke="#000" points="652.5 -273.458 652.5 -295.458 772.5 -295.458 772.5 -273.458 652.5 -273.458"/><text x="657.5" y="-282.658" font-family="Helvetica,sans-Serif" font-size="11" font-weight="bold" text-anchor="start">transactions</text><text x="733.5" y="-281.658" font-family="Helvetica,sans-Serif" font-size="11" text-anchor="start">[table]</text><polygon fill="none" stroke="#000" points="652.5 -255.458 652.5 -273.458 772.5 -273.458 772.5 -255.458 652.5 -255.458"/><text x="655.5" y="-261.658" font-family="Helvetica,sans-Serif" font-size="11" text-anchor="start">...</text><polygon fill="#fff" stroke="none" points="652.5 -237.458 652.5 -255.458 693.5 -255.458 693.5 -237.458 652.5 -237.458"/><polygon fill="none" stroke="#000" points="652.5 -237.458 652.5 -255.458 693.5 -255.458 693.5 -237.458 652.5 -237.458"/><text x="655.5" y="-243.658" font-family="Helvetica,sans-Serif" font-size="11" text-anchor="start">&lt; 4</text><polygon fill="#fff" stroke="none" points="693.5 -237.458 693.5 -255.458 739.5 -255.458 739.5 -237.458 693.5 -237.458"/><polygon fill="none" stroke="#000" points="693.5 -237.458 693.5 -255.458 739.5 -255.458 739.5 -237.458 693.5 -237.458"/><text x="705.5" y="-243.658" font-family="Helvetica,sans-Serif" font-size="11" text-anchor="start">1 row</text><polygon fill="#fff" stroke="none" points="739.5 -237.458 739.5 -255.458 772.5 -255.458 772.5 -237.458 739.5 -237.458"/><polygon fill="none" stroke="#000" points="739.5 -237.458 739.5 -255.458 772.5 -255.458 772.5 -237.458 739.5 -237.458"/><text x="752.5" y="-243.658" font-family="Helvetica,sans-Serif" font-size="11" text-anchor="start">4 &gt;</text></a></g></g><g id="edge15" class="edge"><title>internal_transactions:elipses:w-&gt;transactions:elipses:e</title><path fill="none" stroke="#000" d="M901.994,-489.343C865.93,-476.618 904.353,-409.229 876,-363.458 842.647,-309.616 836.835,-264.458 773.5,-264.458"/><polygon fill="#000" stroke="#000" points="908.584 -490.304 915.981 -495.02 912.542 -490.881 916.5 -491.458 916.5 -491.458 916.5 -491.458 912.542 -490.881 917.019 -487.895 908.584 -490.304 908.584 -490.304"/><ellipse cx="905.417" cy="-489.842" fill="none" stroke="#000" rx="3.2" ry="3.2"/></g><g id="edge28" class="edge"><title>transactions:elipses:w-&gt;addresses:hash:e</title><path fill="none" stroke="#000" d="M637.002,-264.255C484.736,-260.006 412.336,-191.274 287,-286.458 243.57,-319.44 301.535,-402.458 247,-402.458"/><polygon fill="#000" stroke="#000" points="643.501 -264.346 651.45 -268.057 647.5 -264.402 651.5 -264.458 651.5 -264.458 651.5 -264.458 647.5 -264.402 651.55 -260.858 643.501 -264.346 643.501 -264.346"/><ellipse cx="640.301" cy="-264.301" fill="none" stroke="#000" rx="3.2" ry="3.2"/></g><g id="edge29" class="edge"><title>transactions:elipses:w-&gt;addresses:hash:e</title><path fill="none" stroke="#000" d="M636.992,-263.737C484.632,-254.241 412.428,-189.208 287,-284.458 244.905,-316.425 299.857,-396.458 247,-402.458"/><polygon fill="#000" stroke="#000" points="643.51 -264.061 651.321 -268.053 647.505 -264.259 651.5 -264.458 651.5 -264.458 651.5 -264.458 647.505 -264.259 651.679 -260.862 643.51 -264.061 643.51 -264.061"/><ellipse cx="640.314" cy="-263.902" fill="none" stroke="#000" rx="3.2" ry="3.2"/></g><g id="edge30" class="edge"><title>transactions:elipses:w-&gt;addresses:hash:e</title><path fill="none" stroke="#000" d="M636.992,-264.882C484.632,-267.241 412.428,-202.208 287,-297.458 244.905,-329.425 299.857,-409.458 247,-402.458"/><polygon fill="#000" stroke="#000" points="643.503 -264.692 651.605 -268.056 647.502 -264.575 651.5 -264.458 651.5 -264.458 651.5 -264.458 647.502 -264.575 651.395 -260.859 643.503 -264.692 643.503 -264.692"/><ellipse cx="640.305" cy="-264.785" fill="none" stroke="#000" rx="3.2" ry="3.2"/></g><g id="edge27" class="edge"><title>transactions:elipses:w-&gt;blocks:elipses:e</title><path fill="none" stroke="#000" d="M636.886,-264.95C554.809,-270.625 536.217,-323.458 446.5,-323.458"/><polygon fill="#000" stroke="#000" points="643.505 -264.727 651.621 -268.055 647.502 -264.592 651.5 -264.458 651.5 -264.458 651.5 -264.458 647.502 -264.592 651.379 -260.86 643.505 -264.727 643.505 -264.727"/><ellipse cx="640.306" cy="-264.835" fill="none" stroke="#000" rx="3.2" ry="3.2"/></g><g id="node12" class="node"><title>logs</title><g id="a_node12"><a target="_top" xlink:href="../../tables/logs.html" xlink:title="logs"><polygon fill="#fff" stroke="none" points="963.5 -237.458 963.5 -295.458 1041.5 -295.458 1041.5 -237.458 963.5 -237.458"/><polygon fill="#f5f5f5" stroke="none" points="963.5 -273.458 963.5 -295.458 1041.5 -295.458 1041.5 -273.458 963.5 -273.458"/><polygon fill="none" stroke="#000" points="963.5 -273.458 963.5 -295.458 1041.5 -295.458 1041.5 -273.458 963.5 -273.458"/><text x="968.5" y="-282.658" font-family="Helvetica,sans-Serif" font-size="11" font-weight="bold" text-anchor="start">logs</text><text x="1002.5" y="-281.658" font-family="Helvetica,sans-Serif" font-size="11" text-anchor="start">[table]</text><polygon fill="none" stroke="#000" points="963.5 -255.458 963.5 -273.458 1041.5 -273.458 1041.5 -255.458 963.5 -255.458"/><text x="966.5" y="-261.658" font-family="Helvetica,sans-Serif" font-size="11" text-anchor="start">...</text><polygon fill="#fff" stroke="none" points="963.5 -237.458 963.5 -255.458 986.5 -255.458 986.5 -237.458 963.5 -237.458"/><polygon fill="none" stroke="#000" points="963.5 -237.458 963.5 -255.458 986.5 -255.458 986.5 -237.458 963.5 -237.458"/><text x="966.5" y="-243.658" font-family="Helvetica,sans-Serif" font-size="11" text-anchor="start">&lt; 3</text><polygon fill="#fff" stroke="none" points="986.5 -237.458 986.5 -255.458 1028.5 -255.458 1028.5 -237.458 986.5 -237.458"/><polygon fill="none" stroke="#000" points="986.5 -237.458 986.5 -255.458 1028.5 -255.458 1028.5 -237.458 986.5 -237.458"/><text x="989.5" y="-243.658" font-family="Helvetica,sans-Serif" font-size="11" text-anchor="start">0 rows</text><polygon fill="#fff" stroke="none" points="1028.5 -237.458 1028.5 -255.458 1041.5 -255.458 1041.5 -237.458 1028.5 -237.458"/><polygon fill="none" stroke="#000" points="1028.5 -237.458 1028.5 -255.458 1041.5 -255.458 1041.5 -237.458 1028.5 -237.458"/></a></g></g><g id="edge16" class="edge"><title>logs:elipses:w-&gt;addresses:hash:e</title><path fill="none" stroke="#000" d="M948.067,-263.136C919.107,-257.418 911.682,-234.769 876,-227.458 811.882,-214.32 337.764,-194.144 287,-235.458 227.804,-283.633 323.322,-402.458 247,-402.458"/><polygon fill="#000" stroke="#000" points="954.533 -263.728 962.172 -268.043 958.517 -264.093 962.5 -264.458 962.5 -264.458 962.5 -264.458 958.517 -264.093 962.828 -260.873 954.533 -263.728 954.533 -263.728"/><ellipse cx="951.347" cy="-263.436" fill="none" stroke="#000" rx="3.2" ry="3.2"/></g><g id="edge17" class="edge"><title>logs:elipses:w-&gt;blocks:elipses:e</title><path fill="none" stroke="#000" d="M948.129,-266.251C915.365,-275.291 916.447,-315.954 876,-329.458 694.917,-389.911 637.408,-323.458 446.5,-323.458"/><polygon fill="#000" stroke="#000" points="954.562 -265.448 962.946 -268.03 958.531 -264.953 962.5 -264.458 962.5 -264.458 962.5 -264.458 958.531 -264.953 962.054 -260.885 954.562 -265.448 954.562 -265.448"/><ellipse cx="951.386" cy="-265.845" fill="none" stroke="#000" rx="3.2" ry="3.2"/></g><g id="edge18" class="edge"><title>logs:elipses:w-&gt;transactions:elipses:e</title><path fill="none" stroke="#000" d="M947.907,-264.458C875.726,-264.458 852.414,-264.458 773.5,-264.458"/><polygon fill="#000" stroke="#000" points="954.5 -264.458 962.5 -268.058 958.5 -264.458 962.5 -264.458 962.5 -264.458 962.5 -264.458 958.5 -264.458 962.5 -260.858 954.5 -264.458 954.5 -264.458"/><ellipse cx="951.3" cy="-264.458" fill="none" stroke="#000" rx="3.2" ry="3.2"/></g><g id="node13" class="node"><title>smart_contracts</title><g id="a_node13"><a target="_top" xlink:href="../../tables/smart_contracts.html" xlink:title="smart_contracts"><polygon fill="#fff" stroke="none" points="331 -139.458 331 -197.458 472 -197.458 472 -139.458 331 -139.458"/><polygon fill="#f5f5f5" stroke="none" points="331.5 -175.458 331.5 -197.458 472.5 -197.458 472.5 -175.458 331.5 -175.458"/><polygon fill="none" stroke="#000" points="331.5 -175.458 331.5 -197.458 472.5 -197.458 472.5 -175.458 331.5 -175.458"/><text x="336.5" y="-184.658" font-family="Helvetica,sans-Serif" font-size="11" font-weight="bold" text-anchor="start">smart_contracts</text><text x="433.5" y="-183.658" font-family="Helvetica,sans-Serif" font-size="11" text-anchor="start">[table]</text><polygon fill="none" stroke="#000" points="331.5 -157.458 331.5 -175.458 472.5 -175.458 472.5 -157.458 331.5 -157.458"/><text x="334.5" y="-163.658" font-family="Helvetica,sans-Serif" font-size="11" text-anchor="start">...</text><polygon fill="#fff" stroke="none" points="331.5 -139.458 331.5 -157.458 380.5 -157.458 380.5 -139.458 331.5 -139.458"/><polygon fill="none" stroke="#000" points="331.5 -139.458 331.5 -157.458 380.5 -157.458 380.5 -139.458 331.5 -139.458"/><text x="334.5" y="-145.658" font-family="Helvetica,sans-Serif" font-size="11" text-anchor="start">&lt; 1</text><polygon fill="#fff" stroke="none" points="380.5 -139.458 380.5 -157.458 435.5 -157.458 435.5 -139.458 380.5 -139.458"/><polygon fill="none" stroke="#000" points="380.5 -139.458 380.5 -157.458 435.5 -157.458 435.5 -139.458 380.5 -139.458"/><text x="396.5" y="-145.658" font-family="Helvetica,sans-Serif" font-size="11" text-anchor="start">0 rows</text><polygon fill="#fff" stroke="none" points="435.5 -139.458 435.5 -157.458 472.5 -157.458 472.5 -139.458 435.5 -139.458"/><polygon fill="none" stroke="#000" points="435.5 -139.458 435.5 -157.458 472.5 -157.458 472.5 -139.458 435.5 -139.458"/><text x="452.5" y="-145.658" font-family="Helvetica,sans-Serif" font-size="11" text-anchor="start">1 &gt;</text></a></g></g><g id="edge19" class="edge"><title>smart_contracts:elipses:w-&gt;addresses:hash:e</title><path fill="none" stroke="#000" d="M320.159,-167.624C301.731,-172.284 298.196,-190.337 287,-211.458 266.689,-249.772 290.365,-402.458 247,-402.458"/><polygon fill="#000" stroke="#000" points="329.257 -162.572 330.153 -170.522 328.563 -170.701 327.667 -162.752 329.257 -162.572"/><polyline fill="none" stroke="#000" points="330.5 -166.458 326.525 -166.906"/><ellipse cx="323.345" cy="-167.265" fill="none" stroke="#000" rx="3.2" ry="3.2"/></g><g id="node14" class="node"><title>token_instances</title><g id="a_node14"><a target="_top" xlink:href="../../tables/token_instances.html" xlink:title="token_instances"><polygon fill="#fff" stroke="none" points="642.5 -812.458 642.5 -870.458 782.5 -870.458 782.5 -812.458 642.5 -812.458"/><polygon fill="#f5f5f5" stroke="none" points="642.5 -848.458 642.5 -870.458 782.5 -870.458 782.5 -848.458 642.5 -848.458"/><polygon fill="none" stroke="#000" points="642.5 -848.458 642.5 -870.458 782.5 -870.458 782.5 -848.458 642.5 -848.458"/><text x="647.5" y="-857.658" font-family="Helvetica,sans-Serif" font-size="11" font-weight="bold" text-anchor="start">token_instances</text><text x="743.5" y="-856.658" font-family="Helvetica,sans-Serif" font-size="11" text-anchor="start">[table]</text><polygon fill="none" stroke="#000" points="642.5 -830.458 642.5 -848.458 782.5 -848.458 782.5 -830.458 642.5 -830.458"/><text x="645.5" y="-836.658" font-family="Helvetica,sans-Serif" font-size="11" text-anchor="start">...</text><polygon fill="#fff" stroke="none" points="642.5 -812.458 642.5 -830.458 696.5 -830.458 696.5 -812.458 642.5 -812.458"/><polygon fill="none" stroke="#000" points="642.5 -812.458 642.5 -830.458 696.5 -830.458 696.5 -812.458 642.5 -812.458"/><text x="645.5" y="-818.658" font-family="Helvetica,sans-Serif" font-size="11" text-anchor="start">&lt; 1</text><polygon fill="#fff" stroke="none" points="696.5 -812.458 696.5 -830.458 753.5 -830.458 753.5 -812.458 696.5 -812.458"/><polygon fill="none" stroke="#000" points="696.5 -812.458 696.5 -830.458 753.5 -830.458 753.5 -812.458 696.5 -812.458"/><text x="714.5" y="-818.658" font-family="Helvetica,sans-Serif" font-size="11" text-anchor="start">0 rows</text><polygon fill="#fff" stroke="none" points="753.5 -812.458 753.5 -830.458 782.5 -830.458 782.5 -812.458 753.5 -812.458"/><polygon fill="none" stroke="#000" points="753.5 -812.458 753.5 -830.458 782.5 -830.458 782.5 -812.458 753.5 -812.458"/></a></g></g><g id="edge20" class="edge"><title>token_instances:elipses:w-&gt;tokens:contract_address_hash:e</title><path fill="none" stroke="#000" d="M627.038,-839.144C593.315,-837.507 577.726,-828.968 549,-802.458 499.41,-756.693 548.98,-666.458 481.5,-666.458"/><polygon fill="#000" stroke="#000" points="633.502 -839.284 641.422 -843.057 637.501 -839.371 641.5 -839.458 641.5 -839.458 641.5 -839.458 637.501 -839.371 641.578 -835.858 633.502 -839.284 633.502 -839.284"/><ellipse cx="630.303" cy="-839.215" fill="none" stroke="#000" rx="3.2" ry="3.2"/></g><g id="node15" class="node"><title>token_transfers</title><g id="a_node15"><a target="_top" xlink:href="../../tables/token_transfers.html" xlink:title="token_transfers"><polygon fill="#fff" stroke="none" points="933.5 -76.457 933.5 -134.458 1071.5 -134.458 1071.5 -76.457 933.5 -76.457"/><polygon fill="#f5f5f5" stroke="none" points="933.5 -112.458 933.5 -134.458 1071.5 -134.458 1071.5 -112.458 933.5 -112.458"/><polygon fill="none" stroke="#000" points="933.5 -112.458 933.5 -134.458 1071.5 -134.458 1071.5 -112.458 933.5 -112.458"/><text x="938.5" y="-121.658" font-family="Helvetica,sans-Serif" font-size="11" font-weight="bold" text-anchor="start">token_transfers</text><text x="1032.5" y="-120.658" font-family="Helvetica,sans-Serif" font-size="11" text-anchor="start">[table]</text><polygon fill="none" stroke="#000" points="933.5 -94.457 933.5 -112.458 1071.5 -112.458 1071.5 -94.457 933.5 -94.457"/><text x="936.5" y="-100.658" font-family="Helvetica,sans-Serif" font-size="11" text-anchor="start">...</text><polygon fill="#fff" stroke="none" points="933.5 -76.457 933.5 -94.457 986.5 -94.457 986.5 -76.457 933.5 -76.457"/><polygon fill="none" stroke="#000" points="933.5 -76.457 933.5 -94.457 986.5 -94.457 986.5 -76.457 933.5 -76.457"/><text x="936.5" y="-82.657" font-family="Helvetica,sans-Serif" font-size="11" text-anchor="start">&lt; 5</text><polygon fill="#fff" stroke="none" points="986.5 -76.457 986.5 -94.457 1043.5 -94.457 1043.5 -76.457 986.5 -76.457"/><polygon fill="none" stroke="#000" points="986.5 -76.457 986.5 -94.457 1043.5 -94.457 1043.5 -76.457 986.5 -76.457"/><text x="1004.5" y="-82.657" font-family="Helvetica,sans-Serif" font-size="11" text-anchor="start">0 rows</text><polygon fill="#fff" stroke="none" points="1043.5 -76.457 1043.5 -94.457 1071.5 -94.457 1071.5 -76.457 1043.5 -76.457"/><polygon fill="none" stroke="#000" points="1043.5 -76.457 1043.5 -94.457 1071.5 -94.457 1071.5 -76.457 1043.5 -76.457"/></a></g></g><g id="edge22" class="edge"><title>token_transfers:elipses:w-&gt;addresses:hash:e</title><path fill="none" stroke="#000" d="M917.904,-103.314C640.424,-97.8561 496.858,60.2088 287,-128.458 241.24,-169.597 308.534,-402.458 247,-402.458"/><polygon fill="#000" stroke="#000" points="924.5 -103.379 932.465 -107.057 928.5 -103.418 932.5 -103.458 932.5 -103.458 932.5 -103.458 928.5 -103.418 932.535 -99.858 924.5 -103.379 924.5 -103.379"/><ellipse cx="921.301" cy="-103.347" fill="none" stroke="#000" rx="3.2" ry="3.2"/></g><g id="edge23" class="edge"><title>token_transfers:elipses:w-&gt;addresses:hash:e</title><path fill="none" stroke="#000" d="M917.9,-103.015C640.341,-91.9754 496.528,62.6843 287,-126.458 241.976,-167.101 307.655,-396.458 247,-402.458"/><polygon fill="#000" stroke="#000" points="924.504 -103.215 932.391 -107.056 928.502 -103.336 932.5 -103.458 932.5 -103.458 932.5 -103.458 928.502 -103.336 932.609 -99.859 924.504 -103.215 924.504 -103.215"/><ellipse cx="921.305" cy="-103.118" fill="none" stroke="#000" rx="3.2" ry="3.2"/></g><g id="edge24" class="edge"><title>token_transfers:elipses:w-&gt;addresses:hash:e</title><path fill="none" stroke="#000" d="M917.9,-103.67C640.341,-104.975 496.528,49.6843 287,-139.458 241.976,-180.101 307.655,-409.458 247,-402.458"/><polygon fill="#000" stroke="#000" points="924.501 -103.574 932.552 -107.057 928.5 -103.516 932.5 -103.458 932.5 -103.458 932.5 -103.458 928.5 -103.516 932.448 -99.858 924.501 -103.574 924.501 -103.574"/><ellipse cx="921.301" cy="-103.62" fill="none" stroke="#000" rx="3.2" ry="3.2"/></g><g id="edge21" class="edge"><title>token_transfers:elipses:w-&gt;blocks:elipses:e</title><path fill="none" stroke="#000" d="M918.063,-104.903C851.176,-120.138 945.135,-251.747 876,-306.458 838.549,-336.095 494.26,-323.458 446.5,-323.458"/><polygon fill="#000" stroke="#000" points="924.54 -104.255 932.859 -107.04 928.52 -103.856 932.5 -103.458 932.5 -103.458 932.5 -103.458 928.52 -103.856 932.141 -99.875 924.54 -104.255 924.54 -104.255"/><ellipse cx="921.356" cy="-104.574" fill="none" stroke="#000" rx="3.2" ry="3.2"/></g><g id="edge25" class="edge"><title>token_transfers:elipses:w-&gt;transactions:elipses:e</title><path fill="none" stroke="#000" d="M917.992,-104.707C835.911,-119.692 868.863,-264.458 773.5,-264.458"/><polygon fill="#000" stroke="#000" points="924.529 -104.144 932.809 -107.044 928.515 -103.801 932.5 -103.458 932.5 -103.458 932.5 -103.458 928.515 -103.801 932.191 -99.871 924.529 -104.144 924.529 -104.144"/><ellipse cx="921.341" cy="-104.418" fill="none" stroke="#000" rx="3.2" ry="3.2"/></g></g></svg>