<svg xmlns="http://www.w3.org/2000/svg" xmlns:xlink="http://www.w3.org/1999/xlink" width="1128" height="335pt" viewBox="0 0 846 335"><g id="graph0" class="graph" transform="scale(1 1) rotate(0) translate(4 331)"><title>oneDegreeRelationshipsDiagram</title><polygon fill="#fff" stroke="none" points="-4 4 -4 -331 842 -331 842 4 -4 4"/><text x="74.5" y="-7.2" font-family="Helvetica,sans-Serif" font-size="11" text-anchor="middle">Generated by SchemaSpy</text><g id="node1" class="node"><title>address_current_token_balances</title><g id="a_node1"><a target="_top" xlink:href="../../tables/address_current_token_balances.html" xlink:title="address_current_token_balances"><polygon fill="#fff" stroke="none" points="501 -37 501 -323 830 -323 830 -37 501 -37"/><polygon fill="#f5f5f5" stroke="none" points="503.5 -299 503.5 -321 828.5 -321 828.5 -299 503.5 -299"/><polygon fill="none" stroke="#000" points="503.5 -299 503.5 -321 828.5 -321 828.5 -299 503.5 -299"/><text x="508.5" y="-308.2" font-family="Helvetica,sans-Serif" font-size="11" font-weight="bold" text-anchor="start">address_current_token_balances</text><text x="789.5" y="-307.2" font-family="Helvetica,sans-Serif" font-size="11" text-anchor="start">[table]</text><polygon fill="none" stroke="#000" points="503.5 -277 503.5 -299 718.5 -299 718.5 -277 503.5 -277"/><image width="11" height="12" x="508.5" y="-294" preserveAspectRatio="xMinYMin meet" xlink:href="../../images/primaryKeys.png"/><text x="523.5" y="-285.2" font-family="Helvetica,sans-Serif" font-size="11" text-anchor="start">id</text><polygon fill="none" stroke="#000" points="718.5 -277 718.5 -299 828.5 -299 828.5 -277 718.5 -277"/><text x="721.5" y="-285.2" font-family="Helvetica,sans-Serif" font-size="11" text-anchor="start">bigserial[19]</text><polygon fill="#fff" stroke="none" points="503.5 -255 503.5 -277 718.5 -277 718.5 -255 503.5 -255"/><polygon fill="none" stroke="#000" points="503.5 -255 503.5 -277 718.5 -277 718.5 -255 503.5 -255"/><image width="11" height="12" x="508.5" y="-272" preserveAspectRatio="xMinYMin meet" xlink:href="../../images/foreignKeys.png"/><text x="523.5" y="-263.2" font-family="Helvetica,sans-Serif" font-size="11" text-anchor="start">address_hash</text><polygon fill="none" stroke="#000" points="718.5 -255 718.5 -277 828.5 -277 828.5 -255 718.5 -255"/><text x="721.5" y="-263.2" font-family="Helvetica,sans-Serif" font-size="11" text-anchor="start">bytea[2147483647]</text><polygon fill="#fff" stroke="none" points="503.5 -233 503.5 -255 718.5 -255 718.5 -233 503.5 -233"/><polygon fill="none" stroke="#000" points="503.5 -233 503.5 -255 718.5 -255 718.5 -233 503.5 -233"/><text x="523.5" y="-241.2" font-family="Helvetica,sans-Serif" font-size="11" text-anchor="start">block_number</text><polygon fill="none" stroke="#000" points="718.5 -233 718.5 -255 828.5 -255 828.5 -233 718.5 -233"/><text x="721.5" y="-241.2" font-family="Helvetica,sans-Serif" font-size="11" text-anchor="start">int8[19]</text><polygon fill="#fff" stroke="none" points="503.5 -211 503.5 -233 718.5 -233 718.5 -211 503.5 -211"/><polygon fill="none" stroke="#000" points="503.5 -211 503.5 -233 718.5 -233 718.5 -211 503.5 -211"/><image width="11" height="12" x="508.5" y="-228" preserveAspectRatio="xMinYMin meet" xlink:href="../../images/foreignKeys.png"/><text x="523.5" y="-219.2" font-family="Helvetica,sans-Serif" font-size="11" text-anchor="start">token_contract_address_hash</text><polygon fill="none" stroke="#000" points="718.5 -211 718.5 -233 828.5 -233 828.5 -211 718.5 -211"/><text x="721.5" y="-219.2" font-family="Helvetica,sans-Serif" font-size="11" text-anchor="start">bytea[2147483647]</text><polygon fill="#fff" stroke="none" points="503.5 -189 503.5 -211 718.5 -211 718.5 -189 503.5 -189"/><polygon fill="none" stroke="#000" points="503.5 -189 503.5 -211 718.5 -211 718.5 -189 503.5 -189"/><text x="523.5" y="-197.2" font-family="Helvetica,sans-Serif" font-size="11" text-anchor="start">value</text><polygon fill="none" stroke="#000" points="718.5 -189 718.5 -211 828.5 -211 828.5 -189 718.5 -189"/><text x="721.5" y="-197.2" font-family="Helvetica,sans-Serif" font-size="11" text-anchor="start">numeric[131089]</text><polygon fill="none" stroke="#000" points="503.5 -167 503.5 -189 718.5 -189 718.5 -167 503.5 -167"/><text x="523.5" y="-175.2" font-family="Helvetica,sans-Serif" font-size="11" text-anchor="start">value_fetched_at</text><polygon fill="none" stroke="#000" points="718.5 -167 718.5 -189 828.5 -189 828.5 -167 718.5 -167"/><text x="721.5" y="-175.2" font-family="Helvetica,sans-Serif" font-size="11" text-anchor="start">timestamp[29,6]</text><polygon fill="none" stroke="#000" points="503.5 -145 503.5 -167 718.5 -167 718.5 -145 503.5 -145"/><text x="523.5" y="-153.2" font-family="Helvetica,sans-Serif" font-size="11" text-anchor="start">inserted_at</text><polygon fill="none" stroke="#000" points="718.5 -145 718.5 -167 828.5 -167 828.5 -145 718.5 -145"/><text x="721.5" y="-153.2" font-family="Helvetica,sans-Serif" font-size="11" text-anchor="start">timestamp[29,6]</text><polygon fill="none" stroke="#000" points="503.5 -123 503.5 -145 718.5 -145 718.5 -123 503.5 -123"/><text x="523.5" y="-131.2" font-family="Helvetica,sans-Serif" font-size="11" text-anchor="start">updated_at</text><polygon fill="none" stroke="#000" points="718.5 -123 718.5 -145 828.5 -145 828.5 -123 718.5 -123"/><text x="721.5" y="-131.2" font-family="Helvetica,sans-Serif" font-size="11" text-anchor="start">timestamp[29,6]</text><polygon fill="none" stroke="#000" points="503.5 -101 503.5 -123 718.5 -123 718.5 -101 503.5 -101"/><text x="523.5" y="-109.2" font-family="Helvetica,sans-Serif" font-size="11" text-anchor="start">old_value</text><polygon fill="none" stroke="#000" points="718.5 -101 718.5 -123 828.5 -123 828.5 -101 718.5 -101"/><text x="721.5" y="-109.2" font-family="Helvetica,sans-Serif" font-size="11" text-anchor="start">numeric[131089]</text><polygon fill="#fff" stroke="none" points="503.5 -79 503.5 -101 718.5 -101 718.5 -79 503.5 -79"/><polygon fill="none" stroke="#000" points="503.5 -79 503.5 -101 718.5 -101 718.5 -79 503.5 -79"/><text x="523.5" y="-87.2" font-family="Helvetica,sans-Serif" font-size="11" text-anchor="start">token_id</text><polygon fill="none" stroke="#000" points="718.5 -79 718.5 -101 828.5 -101 828.5 -79 718.5 -79"/><text x="721.5" y="-87.2" font-family="Helvetica,sans-Serif" font-size="11" text-anchor="start">numeric[78]</text><polygon fill="none" stroke="#000" points="503.5 -57 503.5 -79 718.5 -79 718.5 -57 503.5 -57"/><text x="523.5" y="-65.2" font-family="Helvetica,sans-Serif" font-size="11" text-anchor="start">token_type</text><polygon fill="none" stroke="#000" points="718.5 -57 718.5 -79 828.5 -79 828.5 -57 718.5 -57"/><text x="721.5" y="-65.2" font-family="Helvetica,sans-Serif" font-size="11" text-anchor="start">varchar[255]</text><polygon fill="#fff" stroke="none" points="503.5 -39 503.5 -57 601.5 -57 601.5 -39 503.5 -39"/><polygon fill="none" stroke="#000" points="503.5 -39 503.5 -57 601.5 -57 601.5 -39 503.5 -39"/><text x="506.5" y="-45.2" font-family="Helvetica,sans-Serif" font-size="11" text-anchor="start">&lt; 2</text><polygon fill="#fff" stroke="none" points="601.5 -39 601.5 -57 718.5 -57 718.5 -39 601.5 -39"/><polygon fill="none" stroke="#000" points="601.5 -39 601.5 -57 718.5 -57 718.5 -39 601.5 -39"/><text x="679.5" y="-45.2" font-family="Helvetica,sans-Serif" font-size="11" text-anchor="start">0 rows</text><polygon fill="#fff" stroke="none" points="718.5 -39 718.5 -57 828.5 -57 828.5 -39 718.5 -39"/><polygon fill="none" stroke="#000" points="718.5 -39 718.5 -57 828.5 -57 828.5 -39 718.5 -39"/><text x="808.5" y="-45.2" font-family="Helvetica,sans-Serif" font-size="11" text-anchor="start">0 &gt;</text><polygon fill="none" stroke="#000" stroke-width="2" points="502 -38 502 -322 829 -322 829 -38 502 -38"/></a></g></g><g id="node2" class="node"><title>addresses</title><g id="a_node2"><a target="_top" xlink:href="../../tables/addresses.html" xlink:title="addresses"><polygon fill="#fff" stroke="none" points="8 -174 8 -298 246 -298 246 -174 8 -174"/><polygon fill="#f5f5f5" stroke="none" points="8 -276 8 -298 246 -298 246 -276 8 -276"/><polygon fill="none" stroke="#000" points="8 -276 8 -298 246 -298 246 -276 8 -276"/><text x="13" y="-285.2" font-family="Helvetica,sans-Serif" font-size="11" font-weight="bold" text-anchor="start">addresses</text><text x="207" y="-284.2" font-family="Helvetica,sans-Serif" font-size="11" text-anchor="start">[table]</text><polygon fill="#fff" stroke="none" points="8 -254 8 -276 246 -276 246 -254 8 -254"/><polygon fill="none" stroke="#000" points="8 -254 8 -276 246 -276 246 -254 8 -254"/><text x="28" y="-262.2" font-family="Helvetica,sans-Serif" font-size="11" text-anchor="start">fetched_coin_balance</text><polygon fill="none" stroke="#000" points="8 -232 8 -254 246 -254 246 -232 8 -232"/><image width="11" height="12" x="13" y="-249" preserveAspectRatio="xMinYMin meet" xlink:href="../../images/primaryKeys.png"/><text x="28" y="-240.2" font-family="Helvetica,sans-Serif" font-size="11" text-anchor="start">hash</text><polygon fill="#fff" stroke="none" points="8 -210 8 -232 246 -232 246 -210 8 -210"/><polygon fill="none" stroke="#000" points="8 -210 8 -232 246 -232 246 -210 8 -210"/><text x="28" y="-218.2" font-family="Helvetica,sans-Serif" font-size="11" text-anchor="start">inserted_at</text><polygon fill="none" stroke="#000" points="8 -192 8 -210 246 -210 246 -192 8 -192"/><text x="11" y="-198.2" font-family="Helvetica,sans-Serif" font-size="11" text-anchor="start">...</text><polygon fill="#fff" stroke="none" points="8 -174 8 -192 97 -192 97 -174 8 -174"/><polygon fill="none" stroke="#000" points="8 -174 8 -192 97 -192 97 -174 8 -174"/><polygon fill="#fff" stroke="none" points="97 -174 97 -192 177 -192 177 -174 97 -174"/><polygon fill="none" stroke="#000" points="97 -174 97 -192 177 -192 177 -174 97 -174"/><text x="138" y="-180.2" font-family="Helvetica,sans-Serif" font-size="11" text-anchor="start">2 rows</text><polygon fill="#fff" stroke="none" points="177 -174 177 -192 246 -192 246 -174 177 -174"/><polygon fill="none" stroke="#000" points="177 -174 177 -192 246 -192 246 -174 177 -174"/><text x="219" y="-180.2" font-family="Helvetica,sans-Serif" font-size="11" text-anchor="start">19 &gt;</text></a></g></g><g id="edge1" class="edge"><title>address_current_token_balances:address_hash:w-&gt;addresses:hash:e</title><path fill="none" stroke="#000" d="M488.039,-268.674C479.228,-272.315 473.728,-278.649 460,-281 384.215,-293.981 358.407,-309.511 287,-281 264.227,-271.907 271.521,-243 247,-243"/><polygon fill="#000" stroke="#000" points="494.633 -267.455 503.155 -269.54 498.567 -266.727 502.5 -266 502.5 -266 502.5 -266 498.567 -266.727 501.845 -262.46 494.633 -267.455 494.633 -267.455"/><ellipse cx="491.487" cy="-268.037" fill="none" stroke="#000" rx="3.2" ry="3.2"/></g><g id="node3" class="node"><title>tokens</title><g id="a_node3"><a target="_top" xlink:href="../../tables/tokens.html" xlink:title="tokens"><polygon fill="#fff" stroke="none" points="295 -146 295 -270 452 -270 452 -146 295 -146"/><polygon fill="#f5f5f5" stroke="none" points="295.5 -248 295.5 -270 452.5 -270 452.5 -248 295.5 -248"/><polygon fill="none" stroke="#000" points="295.5 -248 295.5 -270 452.5 -270 452.5 -248 295.5 -248"/><text x="300.5" y="-257.2" font-family="Helvetica,sans-Serif" font-size="11" font-weight="bold" text-anchor="start">tokens</text><text x="413.5" y="-256.2" font-family="Helvetica,sans-Serif" font-size="11" text-anchor="start">[table]</text><polygon fill="#fff" stroke="none" points="295.5 -226 295.5 -248 452.5 -248 452.5 -226 295.5 -226"/><polygon fill="none" stroke="#000" points="295.5 -226 295.5 -248 452.5 -248 452.5 -226 295.5 -226"/><text x="315.5" y="-234.2" font-family="Helvetica,sans-Serif" font-size="11" text-anchor="start">symbol</text><polygon fill="#fff" stroke="none" points="295.5 -204 295.5 -226 452.5 -226 452.5 -204 295.5 -204"/><polygon fill="none" stroke="#000" points="295.5 -204 295.5 -226 452.5 -226 452.5 -204 295.5 -204"/><text x="315.5" y="-212.2" font-family="Helvetica,sans-Serif" font-size="11" text-anchor="start">type</text><polygon fill="none" stroke="#000" points="295.5 -182 295.5 -204 452.5 -204 452.5 -182 295.5 -182"/><image width="11" height="12" x="300.5" y="-199" preserveAspectRatio="xMinYMin meet" xlink:href="../../images/primaryKeys.png"/><text x="315.5" y="-190.2" font-family="Helvetica,sans-Serif" font-size="11" text-anchor="start">contract_address_hash</text><polygon fill="none" stroke="#000" points="295.5 -164 295.5 -182 452.5 -182 452.5 -164 295.5 -164"/><text x="298.5" y="-170.2" font-family="Helvetica,sans-Serif" font-size="11" text-anchor="start">...</text><polygon fill="#fff" stroke="none" points="295.5 -146 295.5 -164 352.5 -164 352.5 -146 295.5 -146"/><polygon fill="none" stroke="#000" points="295.5 -146 295.5 -164 352.5 -164 352.5 -146 295.5 -146"/><text x="298.5" y="-152.2" font-family="Helvetica,sans-Serif" font-size="11" text-anchor="start">&lt; 1</text><polygon fill="#fff" stroke="none" points="352.5 -146 352.5 -164 411.5 -164 411.5 -146 352.5 -146"/><polygon fill="none" stroke="#000" points="352.5 -146 352.5 -164 411.5 -164 411.5 -146 352.5 -146"/><text x="372.5" y="-152.2" font-family="Helvetica,sans-Serif" font-size="11" text-anchor="start">0 rows</text><polygon fill="#fff" stroke="none" points="411.5 -146 411.5 -164 452.5 -164 452.5 -146 411.5 -146"/><polygon fill="none" stroke="#000" points="411.5 -146 411.5 -164 452.5 -164 452.5 -146 411.5 -146"/><text x="432.5" y="-152.2" font-family="Helvetica,sans-Serif" font-size="11" text-anchor="start">3 &gt;</text></a></g></g><g id="edge2" class="edge"><title>address_current_token_balances:token_contract_address_hash:w-&gt;tokens:contract_address_hash:e</title><path fill="none" stroke="#000" d="M488.45,-217.968C476.471,-209.999 472.875,-193 453.5,-193"/><polygon fill="#000" stroke="#000" points="494.81 -219.793 501.507 -225.46 498.655 -220.897 502.5 -222 502.5 -222 502.5 -222 498.655 -220.897 503.493 -218.54 494.81 -219.793 494.81 -219.793"/><ellipse cx="491.735" cy="-218.91" fill="none" stroke="#000" rx="3.2" ry="3.2"/></g><g id="edge3" class="edge"><title>tokens:contract_address_hash:w-&gt;addresses:hash:e</title><path fill="none" stroke="#000" d="M283.959,-195.688C266.852,-206.074 273.341,-243 247,-243"/><polygon fill="#000" stroke="#000" points="292.736 -189.322 294.713 -197.074 293.163 -197.469 291.186 -189.717 292.736 -189.322"/><polyline fill="none" stroke="#000" points="294.5 -193 290.624 -193.988"/><ellipse cx="287.523" cy="-194.779" fill="none" stroke="#000" rx="3.2" ry="3.2"/></g></g></svg>