<svg xmlns="http://www.w3.org/2000/svg" xmlns:xlink="http://www.w3.org/1999/xlink" width="1082pt" height="1240" viewBox="0 0 1082 929.65"><g id="graph0" class="graph" transform="scale(1 1) rotate(0) translate(4 925.653)"><title>twoDegreesRelationshipsDiagram</title><polygon fill="#fff" stroke="none" points="-4 4 -4 -925.653 1078 -925.653 1078 4 -4 4"/><text x="74.5" y="-7.2" font-family="Helvetica,sans-Serif" font-size="11" text-anchor="middle">Generated by SchemaSpy</text><g id="node1" class="node"><title>address_coin_balances</title><g id="a_node1"><a target="_top" xlink:href="../../tables/address_coin_balances.html" xlink:title="address_coin_balances"><polygon fill="#fff" stroke="none" points="295 -741.653 295 -917.653 564 -917.653 564 -741.653 295 -741.653"/><polygon fill="#f5f5f5" stroke="none" points="297.5 -893.653 297.5 -915.653 562.5 -915.653 562.5 -893.653 297.5 -893.653"/><polygon fill="none" stroke="#000" points="297.5 -893.653 297.5 -915.653 562.5 -915.653 562.5 -893.653 297.5 -893.653"/><text x="302.5" y="-902.853" font-family="Helvetica,sans-Serif" font-size="11" font-weight="bold" text-anchor="start">address_coin_balances</text><text x="523.5" y="-901.853" font-family="Helvetica,sans-Serif" font-size="11" text-anchor="start">[table]</text><polygon fill="#fff" stroke="none" points="297.5 -871.653 297.5 -893.653 452.5 -893.653 452.5 -871.653 297.5 -871.653"/><polygon fill="none" stroke="#000" points="297.5 -871.653 297.5 -893.653 452.5 -893.653 452.5 -871.653 297.5 -871.653"/><image width="11" height="12" x="302.5" y="-888.653" preserveAspectRatio="xMinYMin meet" xlink:href="../../images/foreignKeys.png"/><text x="317.5" y="-879.853" font-family="Helvetica,sans-Serif" font-size="11" text-anchor="start">address_hash</text><polygon fill="none" stroke="#000" points="452.5 -871.653 452.5 -893.653 562.5 -893.653 562.5 -871.653 452.5 -871.653"/><text x="455.5" y="-879.853" font-family="Helvetica,sans-Serif" font-size="11" text-anchor="start">bytea[2147483647]</text><polygon fill="#fff" stroke="none" points="297.5 -849.653 297.5 -871.653 452.5 -871.653 452.5 -849.653 297.5 -849.653"/><polygon fill="none" stroke="#000" points="297.5 -849.653 297.5 -871.653 452.5 -871.653 452.5 -849.653 297.5 -849.653"/><text x="317.5" y="-857.853" font-family="Helvetica,sans-Serif" font-size="11" text-anchor="start">block_number</text><polygon fill="none" stroke="#000" points="452.5 -849.653 452.5 -871.653 562.5 -871.653 562.5 -849.653 452.5 -849.653"/><text x="455.5" y="-857.853" font-family="Helvetica,sans-Serif" font-size="11" text-anchor="start">int8[19]</text><polygon fill="none" stroke="#000" points="297.5 -827.653 297.5 -849.653 452.5 -849.653 452.5 -827.653 297.5 -827.653"/><text x="317.5" y="-835.853" font-family="Helvetica,sans-Serif" font-size="11" text-anchor="start">value</text><polygon fill="none" stroke="#000" points="452.5 -827.653 452.5 -849.653 562.5 -849.653 562.5 -827.653 452.5 -827.653"/><text x="455.5" y="-835.853" font-family="Helvetica,sans-Serif" font-size="11" text-anchor="start">numeric[100]</text><polygon fill="#fff" stroke="none" points="297.5 -805.653 297.5 -827.653 452.5 -827.653 452.5 -805.653 297.5 -805.653"/><polygon fill="none" stroke="#000" points="297.5 -805.653 297.5 -827.653 452.5 -827.653 452.5 -805.653 297.5 -805.653"/><text x="317.5" y="-813.853" font-family="Helvetica,sans-Serif" font-size="11" text-anchor="start">value_fetched_at</text><polygon fill="none" stroke="#000" points="452.5 -805.653 452.5 -827.653 562.5 -827.653 562.5 -805.653 452.5 -805.653"/><text x="455.5" y="-813.853" font-family="Helvetica,sans-Serif" font-size="11" text-anchor="start">timestamp[29,6]</text><polygon fill="none" stroke="#000" points="297.5 -783.653 297.5 -805.653 452.5 -805.653 452.5 -783.653 297.5 -783.653"/><text x="317.5" y="-791.853" font-family="Helvetica,sans-Serif" font-size="11" text-anchor="start">inserted_at</text><polygon fill="none" stroke="#000" points="452.5 -783.653 452.5 -805.653 562.5 -805.653 562.5 -783.653 452.5 -783.653"/><text x="455.5" y="-791.853" font-family="Helvetica,sans-Serif" font-size="11" text-anchor="start">timestamp[29,6]</text><polygon fill="none" stroke="#000" points="297.5 -761.653 297.5 -783.653 452.5 -783.653 452.5 -761.653 297.5 -761.653"/><text x="317.5" y="-769.853" font-family="Helvetica,sans-Serif" font-size="11" text-anchor="start">updated_at</text><polygon fill="none" stroke="#000" points="452.5 -761.653 452.5 -783.653 562.5 -783.653 562.5 -761.653 452.5 -761.653"/><text x="455.5" y="-769.853" font-family="Helvetica,sans-Serif" font-size="11" text-anchor="start">timestamp[29,6]</text><polygon fill="#fff" stroke="none" points="297.5 -743.653 297.5 -761.653 365.5 -761.653 365.5 -743.653 297.5 -743.653"/><polygon fill="none" stroke="#000" points="297.5 -743.653 297.5 -761.653 365.5 -761.653 365.5 -743.653 297.5 -743.653"/><text x="300.5" y="-749.853" font-family="Helvetica,sans-Serif" font-size="11" text-anchor="start">&lt; 1</text><polygon fill="#fff" stroke="none" points="365.5 -743.653 365.5 -761.653 452.5 -761.653 452.5 -743.653 365.5 -743.653"/><polygon fill="none" stroke="#000" points="365.5 -743.653 365.5 -761.653 452.5 -761.653 452.5 -743.653 365.5 -743.653"/><text x="413.5" y="-749.853" font-family="Helvetica,sans-Serif" font-size="11" text-anchor="start">3 rows</text><polygon fill="#fff" stroke="none" points="452.5 -743.653 452.5 -761.653 562.5 -761.653 562.5 -743.653 452.5 -743.653"/><polygon fill="none" stroke="#000" points="452.5 -743.653 452.5 -761.653 562.5 -761.653 562.5 -743.653 452.5 -743.653"/><text x="542.5" y="-749.853" font-family="Helvetica,sans-Serif" font-size="11" text-anchor="start">0 &gt;</text><polygon fill="none" stroke="#000" stroke-width="2" points="296 -742.653 296 -916.653 563 -916.653 563 -742.653 296 -742.653"/></a></g></g><g id="node2" class="node"><title>addresses</title><g id="a_node2"><a target="_top" xlink:href="../../tables/addresses.html" xlink:title="addresses"><polygon fill="#fff" stroke="none" points="8 -330.653 8 -454.653 246 -454.653 246 -330.653 8 -330.653"/><polygon fill="#f5f5f5" stroke="none" points="8 -432.653 8 -454.653 246 -454.653 246 -432.653 8 -432.653"/><polygon fill="none" stroke="#000" points="8 -432.653 8 -454.653 246 -454.653 246 -432.653 8 -432.653"/><text x="13" y="-441.853" font-family="Helvetica,sans-Serif" font-size="11" font-weight="bold" text-anchor="start">addresses</text><text x="207" y="-440.853" font-family="Helvetica,sans-Serif" font-size="11" text-anchor="start">[table]</text><polygon fill="#fff" stroke="none" points="8 -410.653 8 -432.653 246 -432.653 246 -410.653 8 -410.653"/><polygon fill="none" stroke="#000" points="8 -410.653 8 -432.653 246 -432.653 246 -410.653 8 -410.653"/><text x="28" y="-418.853" font-family="Helvetica,sans-Serif" font-size="11" text-anchor="start">fetched_coin_balance</text><polygon fill="none" stroke="#000" points="8 -388.653 8 -410.653 246 -410.653 246 -388.653 8 -388.653"/><image width="11" height="12" x="13" y="-405.653" preserveAspectRatio="xMinYMin meet" xlink:href="../../images/primaryKeys.png"/><text x="28" y="-396.853" font-family="Helvetica,sans-Serif" font-size="11" text-anchor="start">hash</text><polygon fill="#fff" stroke="none" points="8 -366.653 8 -388.653 246 -388.653 246 -366.653 8 -366.653"/><polygon fill="none" stroke="#000" points="8 -366.653 8 -388.653 246 -388.653 246 -366.653 8 -366.653"/><text x="28" y="-374.853" font-family="Helvetica,sans-Serif" font-size="11" text-anchor="start">inserted_at</text><polygon fill="none" stroke="#000" points="8 -348.653 8 -366.653 246 -366.653 246 -348.653 8 -348.653"/><text x="11" y="-354.853" font-family="Helvetica,sans-Serif" font-size="11" text-anchor="start">...</text><polygon fill="#fff" stroke="none" points="8 -330.653 8 -348.653 97 -348.653 97 -330.653 8 -330.653"/><polygon fill="none" stroke="#000" points="8 -330.653 8 -348.653 97 -348.653 97 -330.653 8 -330.653"/><polygon fill="#fff" stroke="none" points="97 -330.653 97 -348.653 177 -348.653 177 -330.653 97 -330.653"/><polygon fill="none" stroke="#000" points="97 -330.653 97 -348.653 177 -348.653 177 -330.653 97 -330.653"/><text x="138" y="-336.853" font-family="Helvetica,sans-Serif" font-size="11" text-anchor="start">2 rows</text><polygon fill="#fff" stroke="none" points="177 -330.653 177 -348.653 246 -348.653 246 -330.653 177 -330.653"/><polygon fill="none" stroke="#000" points="177 -330.653 177 -348.653 246 -348.653 246 -330.653 177 -330.653"/><text x="219" y="-336.853" font-family="Helvetica,sans-Serif" font-size="11" text-anchor="start">19 &gt;</text></a></g></g><g id="edge1" class="edge"><title>address_coin_balances:address_hash:w-&gt;addresses:hash:e</title><path fill="none" stroke="#000" d="M282.112,-879.043C204.786,-834.844 349.416,-399.653 247,-399.653"/><polygon fill="#000" stroke="#000" points="288.741 -880.706 295.624 -886.145 292.62 -881.679 296.5 -882.653 296.5 -882.653 296.5 -882.653 292.62 -881.679 297.376 -879.161 288.741 -880.706 288.741 -880.706"/><ellipse cx="285.637" cy="-879.927" fill="none" stroke="#000" rx="3.2" ry="3.2"/></g><g id="node3" class="node"><title>address_coin_balances_daily</title><g id="a_node3"><a target="_top" xlink:href="../../tables/address_coin_balances_daily.html" xlink:title="address_coin_balances_daily"><polygon fill="#fff" stroke="none" points="325 -662.653 325 -720.653 534 -720.653 534 -662.653 325 -662.653"/><polygon fill="#f5f5f5" stroke="none" points="325.5 -698.653 325.5 -720.653 534.5 -720.653 534.5 -698.653 325.5 -698.653"/><polygon fill="none" stroke="#000" points="325.5 -698.653 325.5 -720.653 534.5 -720.653 534.5 -698.653 325.5 -698.653"/><text x="330.5" y="-707.853" font-family="Helvetica,sans-Serif" font-size="11" font-weight="bold" text-anchor="start">address_coin_balances_daily</text><text x="495.5" y="-706.853" font-family="Helvetica,sans-Serif" font-size="11" text-anchor="start">[table]</text><polygon fill="none" stroke="#000" points="325.5 -680.653 325.5 -698.653 534.5 -698.653 534.5 -680.653 325.5 -680.653"/><text x="328.5" y="-686.853" font-family="Helvetica,sans-Serif" font-size="11" text-anchor="start">...</text><polygon fill="#fff" stroke="none" points="325.5 -662.653 325.5 -680.653 413.5 -680.653 413.5 -662.653 325.5 -662.653"/><polygon fill="none" stroke="#000" points="325.5 -662.653 325.5 -680.653 413.5 -680.653 413.5 -662.653 325.5 -662.653"/><text x="328.5" y="-668.853" font-family="Helvetica,sans-Serif" font-size="11" text-anchor="start">&lt; 1</text><polygon fill="#fff" stroke="none" points="413.5 -662.653 413.5 -680.653 488.5 -680.653 488.5 -662.653 413.5 -662.653"/><polygon fill="none" stroke="#000" points="413.5 -662.653 413.5 -680.653 488.5 -680.653 488.5 -662.653 413.5 -662.653"/><text x="449.5" y="-668.853" font-family="Helvetica,sans-Serif" font-size="11" text-anchor="start">3 rows</text><polygon fill="#fff" stroke="none" points="488.5 -662.653 488.5 -680.653 534.5 -680.653 534.5 -662.653 488.5 -662.653"/><polygon fill="none" stroke="#000" points="488.5 -662.653 488.5 -680.653 534.5 -680.653 534.5 -662.653 488.5 -662.653"/></a></g></g><g id="edge2" class="edge"><title>address_coin_balances_daily:elipses:w-&gt;addresses:hash:e</title><path fill="none" stroke="#000" d="M310.095,-686.568C298.297,-680.36 295.141,-665.503 287,-648.653 262.62,-598.191 303.043,-399.653 247,-399.653"/><polygon fill="#000" stroke="#000" points="316.677 -687.978 323.746 -693.173 320.589 -688.815 324.5 -689.653 324.5 -689.653 324.5 -689.653 320.589 -688.815 325.254 -686.133 316.677 -687.978 316.677 -687.978"/><ellipse cx="313.548" cy="-687.308" fill="none" stroke="#000" rx="3.2" ry="3.2"/></g><g id="node4" class="node"><title>address_current_token_balances</title><g id="a_node4"><a target="_top" xlink:href="../../tables/address_current_token_balances.html" xlink:title="address_current_token_balances"><polygon fill="#fff" stroke="none" points="613 -610.653 613 -668.653 846 -668.653 846 -610.653 613 -610.653"/><polygon fill="#f5f5f5" stroke="none" points="613.5 -646.653 613.5 -668.653 846.5 -668.653 846.5 -646.653 613.5 -646.653"/><polygon fill="none" stroke="#000" points="613.5 -646.653 613.5 -668.653 846.5 -668.653 846.5 -646.653 613.5 -646.653"/><text x="618.5" y="-655.853" font-family="Helvetica,sans-Serif" font-size="11" font-weight="bold" text-anchor="start">address_current_token_balances</text><text x="807.5" y="-654.853" font-family="Helvetica,sans-Serif" font-size="11" text-anchor="start">[table]</text><polygon fill="none" stroke="#000" points="613.5 -628.653 613.5 -646.653 846.5 -646.653 846.5 -628.653 613.5 -628.653"/><text x="616.5" y="-634.853" font-family="Helvetica,sans-Serif" font-size="11" text-anchor="start">...</text><polygon fill="#fff" stroke="none" points="613.5 -610.653 613.5 -628.653 713.5 -628.653 713.5 -610.653 613.5 -610.653"/><polygon fill="none" stroke="#000" points="613.5 -610.653 613.5 -628.653 713.5 -628.653 713.5 -610.653 613.5 -610.653"/><text x="616.5" y="-616.853" font-family="Helvetica,sans-Serif" font-size="11" text-anchor="start">&lt; 2</text><polygon fill="#fff" stroke="none" points="713.5 -610.653 713.5 -628.653 794.5 -628.653 794.5 -610.653 713.5 -610.653"/><polygon fill="none" stroke="#000" points="713.5 -610.653 713.5 -628.653 794.5 -628.653 794.5 -610.653 713.5 -610.653"/><text x="755.5" y="-616.853" font-family="Helvetica,sans-Serif" font-size="11" text-anchor="start">0 rows</text><polygon fill="#fff" stroke="none" points="794.5 -610.653 794.5 -628.653 846.5 -628.653 846.5 -610.653 794.5 -610.653"/><polygon fill="none" stroke="#000" points="794.5 -610.653 794.5 -628.653 846.5 -628.653 846.5 -610.653 794.5 -610.653"/></a></g></g><g id="edge3" class="edge"><title>address_current_token_balances:elipses:w-&gt;addresses:hash:e</title><path fill="none" stroke="#000" d="M598.025,-638.017C516.606,-641.65 338.291,-670.298 287,-625.653 210.059,-558.681 349.006,-399.653 247,-399.653"/><polygon fill="#000" stroke="#000" points="604.503 -637.854 612.591 -641.252 608.501 -637.754 612.5 -637.653 612.5 -637.653 612.5 -637.653 608.501 -637.754 612.409 -634.054 604.503 -637.854 604.503 -637.854"/><ellipse cx="601.304" cy="-637.935" fill="none" stroke="#000" rx="3.2" ry="3.2"/></g><g id="node5" class="node"><title>tokens</title><g id="a_node5"><a target="_top" xlink:href="../../tables/tokens.html" xlink:title="tokens"><polygon fill="#fff" stroke="none" points="385.5 -556.653 385.5 -614.653 473.5 -614.653 473.5 -556.653 385.5 -556.653"/><polygon fill="#f5f5f5" stroke="none" points="385.5 -592.653 385.5 -614.653 473.5 -614.653 473.5 -592.653 385.5 -592.653"/><polygon fill="none" stroke="#000" points="385.5 -592.653 385.5 -614.653 473.5 -614.653 473.5 -592.653 385.5 -592.653"/><text x="390.5" y="-601.853" font-family="Helvetica,sans-Serif" font-size="11" font-weight="bold" text-anchor="start">tokens</text><text x="434.5" y="-600.853" font-family="Helvetica,sans-Serif" font-size="11" text-anchor="start">[table]</text><polygon fill="none" stroke="#000" points="385.5 -574.653 385.5 -592.653 473.5 -592.653 473.5 -574.653 385.5 -574.653"/><text x="388.5" y="-580.853" font-family="Helvetica,sans-Serif" font-size="11" text-anchor="start">...</text><polygon fill="#fff" stroke="none" points="385.5 -556.653 385.5 -574.653 408.5 -574.653 408.5 -556.653 385.5 -556.653"/><polygon fill="none" stroke="#000" points="385.5 -556.653 385.5 -574.653 408.5 -574.653 408.5 -556.653 385.5 -556.653"/><text x="388.5" y="-562.853" font-family="Helvetica,sans-Serif" font-size="11" text-anchor="start">&lt; 1</text><polygon fill="#fff" stroke="none" points="408.5 -556.653 408.5 -574.653 450.5 -574.653 450.5 -556.653 408.5 -556.653"/><polygon fill="none" stroke="#000" points="408.5 -556.653 408.5 -574.653 450.5 -574.653 450.5 -556.653 408.5 -556.653"/><text x="411.5" y="-562.853" font-family="Helvetica,sans-Serif" font-size="11" text-anchor="start">0 rows</text><polygon fill="#fff" stroke="none" points="450.5 -556.653 450.5 -574.653 473.5 -574.653 473.5 -556.653 450.5 -556.653"/><polygon fill="none" stroke="#000" points="450.5 -556.653 450.5 -574.653 473.5 -574.653 473.5 -556.653 450.5 -556.653"/><text x="453.5" y="-562.853" font-family="Helvetica,sans-Serif" font-size="11" text-anchor="start">3 &gt;</text></a></g></g><g id="edge4" class="edge"><title>address_current_token_balances:elipses:w-&gt;tokens:elipses:e</title><path fill="none" stroke="#000" d="M597.978,-635.192C561.622,-624.628 503.186,-583.653 474.5,-583.653"/><polygon fill="#000" stroke="#000" points="604.612 -636.316 611.899 -641.202 608.556 -636.985 612.5 -637.653 612.5 -637.653 612.5 -637.653 608.556 -636.985 613.101 -634.103 604.612 -636.316 604.612 -636.316"/><ellipse cx="601.457" cy="-635.782" fill="none" stroke="#000" rx="3.2" ry="3.2"/></g><g id="edge25" class="edge"><title>tokens:elipses:w-&gt;addresses:hash:e</title><path fill="none" stroke="#000" d="M373.969,-583.536C334.389,-582.575 315.664,-575.155 287,-542.653 243.348,-493.157 312.995,-399.653 247,-399.653"/><polygon fill="#000" stroke="#000" points="383.744 -579.644 383.656 -587.644 382.056 -587.626 382.144 -579.627 383.744 -579.644"/><polyline fill="none" stroke="#000" points="384.5 -583.653 380.5 -583.609"/><ellipse cx="377.3" cy="-583.573" fill="none" stroke="#000" rx="3.2" ry="3.2"/></g><g id="node6" class="node"><title>address_token_balances</title><g id="a_node6"><a target="_top" xlink:href="../../tables/address_token_balances.html" xlink:title="address_token_balances"><polygon fill="#fff" stroke="none" points="637 -530.653 637 -588.653 822 -588.653 822 -530.653 637 -530.653"/><polygon fill="#f5f5f5" stroke="none" points="637.5 -566.653 637.5 -588.653 822.5 -588.653 822.5 -566.653 637.5 -566.653"/><polygon fill="none" stroke="#000" points="637.5 -566.653 637.5 -588.653 822.5 -588.653 822.5 -566.653 637.5 -566.653"/><text x="642.5" y="-575.853" font-family="Helvetica,sans-Serif" font-size="11" font-weight="bold" text-anchor="start">address_token_balances</text><text x="783.5" y="-574.853" font-family="Helvetica,sans-Serif" font-size="11" text-anchor="start">[table]</text><polygon fill="none" stroke="#000" points="637.5 -548.653 637.5 -566.653 822.5 -566.653 822.5 -548.653 637.5 -548.653"/><text x="640.5" y="-554.853" font-family="Helvetica,sans-Serif" font-size="11" text-anchor="start">...</text><polygon fill="#fff" stroke="none" points="637.5 -530.653 637.5 -548.653 713.5 -548.653 713.5 -530.653 637.5 -530.653"/><polygon fill="none" stroke="#000" points="637.5 -530.653 637.5 -548.653 713.5 -548.653 713.5 -530.653 637.5 -530.653"/><text x="640.5" y="-536.853" font-family="Helvetica,sans-Serif" font-size="11" text-anchor="start">&lt; 2</text><polygon fill="#fff" stroke="none" points="713.5 -530.653 713.5 -548.653 782.5 -548.653 782.5 -530.653 713.5 -530.653"/><polygon fill="none" stroke="#000" points="713.5 -530.653 713.5 -548.653 782.5 -548.653 782.5 -530.653 713.5 -530.653"/><text x="743.5" y="-536.853" font-family="Helvetica,sans-Serif" font-size="11" text-anchor="start">0 rows</text><polygon fill="#fff" stroke="none" points="782.5 -530.653 782.5 -548.653 822.5 -548.653 822.5 -530.653 782.5 -530.653"/><polygon fill="none" stroke="#000" points="782.5 -530.653 782.5 -548.653 822.5 -548.653 822.5 -530.653 782.5 -530.653"/></a></g></g><g id="edge5" class="edge"><title>address_token_balances:elipses:w-&gt;addresses:hash:e</title><path fill="none" stroke="#000" d="M621.957,-556.955C604.073,-555.089 595.289,-549.902 572,-546.653 508.904,-537.849 336.794,-555.391 287,-515.653 244.375,-481.636 301.535,-399.653 247,-399.653"/><polygon fill="#000" stroke="#000" points="628.509 -557.27 636.327 -561.249 632.505 -557.461 636.5 -557.653 636.5 -557.653 636.5 -557.653 632.505 -557.461 636.673 -554.057 628.509 -557.27 628.509 -557.27"/><ellipse cx="625.313" cy="-557.116" fill="none" stroke="#000" rx="3.2" ry="3.2"/></g><g id="edge6" class="edge"><title>address_token_balances:elipses:w-&gt;tokens:elipses:e</title><path fill="none" stroke="#000" d="M621.921,-558.02C561.026,-561.181 542.294,-583.653 474.5,-583.653"/><polygon fill="#000" stroke="#000" points="628.503 -557.855 636.591 -561.252 632.501 -557.754 636.5 -557.653 636.5 -557.653 636.5 -557.653 632.501 -557.754 636.409 -554.054 628.503 -557.855 628.503 -557.855"/><ellipse cx="625.304" cy="-557.935" fill="none" stroke="#000" rx="3.2" ry="3.2"/></g><g id="node7" class="node"><title>block_rewards</title><g id="a_node7"><a target="_top" xlink:href="../../tables/block_rewards.html" xlink:title="block_rewards"><polygon fill="#fff" stroke="none" points="664.5 -399.653 664.5 -457.653 794.5 -457.653 794.5 -399.653 664.5 -399.653"/><polygon fill="#f5f5f5" stroke="none" points="664.5 -435.653 664.5 -457.653 794.5 -457.653 794.5 -435.653 664.5 -435.653"/><polygon fill="none" stroke="#000" points="664.5 -435.653 664.5 -457.653 794.5 -457.653 794.5 -435.653 664.5 -435.653"/><text x="669.5" y="-444.853" font-family="Helvetica,sans-Serif" font-size="11" font-weight="bold" text-anchor="start">block_rewards</text><text x="755.5" y="-443.853" font-family="Helvetica,sans-Serif" font-size="11" text-anchor="start">[table]</text><polygon fill="none" stroke="#000" points="664.5 -417.653 664.5 -435.653 794.5 -435.653 794.5 -417.653 664.5 -417.653"/><text x="667.5" y="-423.853" font-family="Helvetica,sans-Serif" font-size="11" text-anchor="start">...</text><polygon fill="#fff" stroke="none" points="664.5 -399.653 664.5 -417.653 713.5 -417.653 713.5 -399.653 664.5 -399.653"/><polygon fill="none" stroke="#000" points="664.5 -399.653 664.5 -417.653 713.5 -417.653 713.5 -399.653 664.5 -399.653"/><text x="667.5" y="-405.853" font-family="Helvetica,sans-Serif" font-size="11" text-anchor="start">&lt; 2</text><polygon fill="#fff" stroke="none" points="713.5 -399.653 713.5 -417.653 768.5 -417.653 768.5 -399.653 713.5 -399.653"/><polygon fill="none" stroke="#000" points="713.5 -399.653 713.5 -417.653 768.5 -417.653 768.5 -399.653 713.5 -399.653"/><text x="729.5" y="-405.853" font-family="Helvetica,sans-Serif" font-size="11" text-anchor="start">0 rows</text><polygon fill="#fff" stroke="none" points="768.5 -399.653 768.5 -417.653 794.5 -417.653 794.5 -399.653 768.5 -399.653"/><polygon fill="none" stroke="#000" points="768.5 -399.653 768.5 -417.653 794.5 -417.653 794.5 -399.653 768.5 -399.653"/></a></g></g><g id="edge7" class="edge"><title>block_rewards:elipses:w-&gt;addresses:hash:e</title><path fill="none" stroke="#000" d="M649.022,-427.191C619.385,-429.52 607.779,-438.74 572,-441.653 445.751,-451.933 403.425,-491.549 287,-441.653 263.306,-431.499 272.778,-399.653 247,-399.653"/><polygon fill="#000" stroke="#000" points="655.506 -426.95 663.634 -430.25 659.503 -426.802 663.5 -426.653 663.5 -426.653 663.5 -426.653 659.503 -426.802 663.366 -423.055 655.506 -426.95 655.506 -426.95"/><ellipse cx="652.308" cy="-427.069" fill="none" stroke="#000" rx="3.2" ry="3.2"/></g><g id="node8" class="node"><title>blocks</title><g id="a_node8"><a target="_top" xlink:href="../../tables/blocks.html" xlink:title="blocks"><polygon fill="#fff" stroke="none" points="385.5 -293.653 385.5 -351.653 473.5 -351.653 473.5 -293.653 385.5 -293.653"/><polygon fill="#f5f5f5" stroke="none" points="385.5 -329.653 385.5 -351.653 473.5 -351.653 473.5 -329.653 385.5 -329.653"/><polygon fill="none" stroke="#000" points="385.5 -329.653 385.5 -351.653 473.5 -351.653 473.5 -329.653 385.5 -329.653"/><text x="390.5" y="-338.853" font-family="Helvetica,sans-Serif" font-size="11" font-weight="bold" text-anchor="start">blocks</text><text x="434.5" y="-337.853" font-family="Helvetica,sans-Serif" font-size="11" text-anchor="start">[table]</text><polygon fill="none" stroke="#000" points="385.5 -311.653 385.5 -329.653 473.5 -329.653 473.5 -311.653 385.5 -311.653"/><text x="388.5" y="-317.853" font-family="Helvetica,sans-Serif" font-size="11" text-anchor="start">...</text><polygon fill="#fff" stroke="none" points="385.5 -293.653 385.5 -311.653 408.5 -311.653 408.5 -293.653 385.5 -293.653"/><polygon fill="none" stroke="#000" points="385.5 -293.653 385.5 -311.653 408.5 -311.653 408.5 -293.653 385.5 -293.653"/><text x="388.5" y="-299.853" font-family="Helvetica,sans-Serif" font-size="11" text-anchor="start">&lt; 1</text><polygon fill="#fff" stroke="none" points="408.5 -293.653 408.5 -311.653 450.5 -311.653 450.5 -293.653 408.5 -293.653"/><polygon fill="none" stroke="#000" points="408.5 -293.653 408.5 -311.653 450.5 -311.653 450.5 -293.653 408.5 -293.653"/><text x="411.5" y="-299.853" font-family="Helvetica,sans-Serif" font-size="11" text-anchor="start">3 rows</text><polygon fill="#fff" stroke="none" points="450.5 -293.653 450.5 -311.653 473.5 -311.653 473.5 -293.653 450.5 -293.653"/><polygon fill="none" stroke="#000" points="450.5 -293.653 450.5 -311.653 473.5 -311.653 473.5 -293.653 450.5 -293.653"/><text x="453.5" y="-299.853" font-family="Helvetica,sans-Serif" font-size="11" text-anchor="start">8 &gt;</text></a></g></g><g id="edge8" class="edge"><title>block_rewards:elipses:w-&gt;blocks:elipses:e</title><path fill="none" stroke="#000" d="M648.925,-425.296C613.659,-418.126 610.606,-384.174 572,-362.653 530.788,-339.679 521.683,-320.653 474.5,-320.653"/><polygon fill="#000" stroke="#000" points="655.534 -425.911 663.166 -430.237 659.517 -426.282 663.5 -426.653 663.5 -426.653 663.5 -426.653 659.517 -426.282 663.834 -423.068 655.534 -425.911 655.534 -425.911"/><ellipse cx="652.348" cy="-425.615" fill="none" stroke="#000" rx="3.2" ry="3.2"/></g><g id="edge9" class="edge"><title>blocks:elipses:w-&gt;addresses:hash:e</title><path fill="none" stroke="#000" d="M369.772,-321.27C334.509,-324.462 322.074,-339.844 287,-362.653 266.698,-375.856 271.217,-399.653 247,-399.653"/><polygon fill="#000" stroke="#000" points="376.507 -320.988 384.651 -324.25 380.504 -320.82 384.5 -320.653 384.5 -320.653 384.5 -320.653 380.504 -320.82 384.349 -317.056 376.507 -320.988 376.507 -320.988"/><ellipse cx="373.31" cy="-321.122" fill="none" stroke="#000" rx="3.2" ry="3.2"/></g><g id="node9" class="node"><title>decompiled_smart_contracts</title><g id="a_node9"><a target="_top" xlink:href="../../tables/decompiled_smart_contracts.html" xlink:title="decompiled_smart_contracts"><polygon fill="#fff" stroke="none" points="323 -372.653 323 -430.653 536 -430.653 536 -372.653 323 -372.653"/><polygon fill="#f5f5f5" stroke="none" points="323.5 -408.653 323.5 -430.653 536.5 -430.653 536.5 -408.653 323.5 -408.653"/><polygon fill="none" stroke="#000" points="323.5 -408.653 323.5 -430.653 536.5 -430.653 536.5 -408.653 323.5 -408.653"/><text x="328.5" y="-417.853" font-family="Helvetica,sans-Serif" font-size="11" font-weight="bold" text-anchor="start">decompiled_smart_contracts</text><text x="497.5" y="-416.853" font-family="Helvetica,sans-Serif" font-size="11" text-anchor="start">[table]</text><polygon fill="none" stroke="#000" points="323.5 -390.653 323.5 -408.653 536.5 -408.653 536.5 -390.653 323.5 -390.653"/><text x="326.5" y="-396.853" font-family="Helvetica,sans-Serif" font-size="11" text-anchor="start">...</text><polygon fill="#fff" stroke="none" points="323.5 -372.653 323.5 -390.653 413.5 -390.653 413.5 -372.653 323.5 -372.653"/><polygon fill="none" stroke="#000" points="323.5 -372.653 323.5 -390.653 413.5 -390.653 413.5 -372.653 323.5 -372.653"/><text x="326.5" y="-378.853" font-family="Helvetica,sans-Serif" font-size="11" text-anchor="start">&lt; 1</text><polygon fill="#fff" stroke="none" points="413.5 -372.653 413.5 -390.653 489.5 -390.653 489.5 -372.653 413.5 -372.653"/><polygon fill="none" stroke="#000" points="413.5 -372.653 413.5 -390.653 489.5 -390.653 489.5 -372.653 413.5 -372.653"/><text x="450.5" y="-378.853" font-family="Helvetica,sans-Serif" font-size="11" text-anchor="start">0 rows</text><polygon fill="#fff" stroke="none" points="489.5 -372.653 489.5 -390.653 536.5 -390.653 536.5 -372.653 489.5 -372.653"/><polygon fill="none" stroke="#000" points="489.5 -372.653 489.5 -390.653 536.5 -390.653 536.5 -372.653 489.5 -372.653"/></a></g></g><g id="edge10" class="edge"><title>decompiled_smart_contracts:elipses:w-&gt;addresses:hash:e</title><path fill="none" stroke="#000" d="M307.794,-399.653C285.514,-399.653 275.05,-399.653 247,-399.653"/><polygon fill="#000" stroke="#000" points="314.5 -399.653 322.5 -403.253 318.5 -399.653 322.5 -399.653 322.5 -399.653 322.5 -399.653 318.5 -399.653 322.5 -396.053 314.5 -399.653 314.5 -399.653"/><ellipse cx="311.3" cy="-399.653" fill="none" stroke="#000" rx="3.2" ry="3.2"/></g><g id="node10" class="node"><title>internal_transactions</title><g id="a_node10"><a target="_top" xlink:href="../../tables/internal_transactions.html" xlink:title="internal_transactions"><polygon fill="#fff" stroke="none" points="895 -466.653 895 -524.653 1066 -524.653 1066 -466.653 895 -466.653"/><polygon fill="#f5f5f5" stroke="none" points="895.5 -502.653 895.5 -524.653 1066.5 -524.653 1066.5 -502.653 895.5 -502.653"/><polygon fill="none" stroke="#000" points="895.5 -502.653 895.5 -524.653 1066.5 -524.653 1066.5 -502.653 895.5 -502.653"/><text x="900.5" y="-511.853" font-family="Helvetica,sans-Serif" font-size="11" font-weight="bold" text-anchor="start">internal_transactions</text><text x="1027.5" y="-510.853" font-family="Helvetica,sans-Serif" font-size="11" text-anchor="start">[table]</text><polygon fill="none" stroke="#000" points="895.5 -484.653 895.5 -502.653 1066.5 -502.653 1066.5 -484.653 895.5 -484.653"/><text x="898.5" y="-490.853" font-family="Helvetica,sans-Serif" font-size="11" text-anchor="start">...</text><polygon fill="#fff" stroke="none" points="895.5 -466.653 895.5 -484.653 967.5 -484.653 967.5 -466.653 895.5 -466.653"/><polygon fill="none" stroke="#000" points="895.5 -466.653 895.5 -484.653 967.5 -484.653 967.5 -466.653 895.5 -466.653"/><text x="898.5" y="-472.853" font-family="Helvetica,sans-Serif" font-size="11" text-anchor="start">&lt; 5</text><polygon fill="#fff" stroke="none" points="967.5 -466.653 967.5 -484.653 1028.5 -484.653 1028.5 -466.653 967.5 -466.653"/><polygon fill="none" stroke="#000" points="967.5 -466.653 967.5 -484.653 1028.5 -484.653 1028.5 -466.653 967.5 -466.653"/><text x="994.5" y="-472.853" font-family="Helvetica,sans-Serif" font-size="11" text-anchor="start">1 row</text><polygon fill="#fff" stroke="none" points="1028.5 -466.653 1028.5 -484.653 1066.5 -484.653 1066.5 -466.653 1028.5 -466.653"/><polygon fill="none" stroke="#000" points="1028.5 -466.653 1028.5 -484.653 1066.5 -484.653 1066.5 -466.653 1028.5 -466.653"/></a></g></g><g id="edge12" class="edge"><title>internal_transactions:elipses:w-&gt;addresses:hash:e</title><path fill="none" stroke="#000" d="M879.886,-493.782C735.295,-496.154 399.584,-529.734 287,-463.653 258.072,-446.673 280.543,-399.653 247,-399.653"/><polygon fill="#000" stroke="#000" points="886.5 -493.723 894.532 -497.253 890.5 -493.688 894.5 -493.653 894.5 -493.653 894.5 -493.653 890.5 -493.688 894.468 -490.053 886.5 -493.723 886.5 -493.723"/><ellipse cx="883.3" cy="-493.752" fill="none" stroke="#000" rx="3.2" ry="3.2"/></g><g id="edge13" class="edge"><title>internal_transactions:elipses:w-&gt;addresses:hash:e</title><path fill="none" stroke="#000" d="M879.884,-493.169C735.305,-489.799 400.37,-518.467 287,-453.653 259.177,-437.746 279.049,-393.653 247,-399.653"/><polygon fill="#000" stroke="#000" points="886.504 -493.388 894.381 -497.251 890.502 -493.521 894.5 -493.653 894.5 -493.653 894.5 -493.653 890.502 -493.521 894.619 -490.055 886.504 -493.388 886.504 -493.388"/><ellipse cx="883.306" cy="-493.282" fill="none" stroke="#000" rx="3.2" ry="3.2"/></g><g id="edge14" class="edge"><title>internal_transactions:elipses:w-&gt;addresses:hash:e</title><path fill="none" stroke="#000" d="M879.884,-494.457C735.305,-502.799 400.37,-531.467 287,-466.653 259.177,-450.746 279.049,-406.653 247,-399.653"/><polygon fill="#000" stroke="#000" points="886.512 -494.092 894.698 -497.247 890.506 -493.873 894.5 -493.653 894.5 -493.653 894.5 -493.653 890.506 -493.873 894.302 -490.058 886.512 -494.092 886.512 -494.092"/><ellipse cx="883.317" cy="-494.268" fill="none" stroke="#000" rx="3.2" ry="3.2"/></g><g id="edge11" class="edge"><title>internal_transactions:elipses:w-&gt;blocks:elipses:e</title><path fill="none" stroke="#000" d="M880.103,-490.459C855.485,-476.079 887.82,-416.857 854,-389.653 766.717,-319.445 714.986,-371.881 605,-350.653 546.566,-339.375 534.013,-320.653 474.5,-320.653"/><polygon fill="#000" stroke="#000" points="886.69 -491.92 893.72 -497.167 890.595 -492.787 894.5 -493.653 894.5 -493.653 894.5 -493.653 890.595 -492.787 895.28 -490.138 886.69 -491.92 886.69 -491.92"/><ellipse cx="883.566" cy="-491.227" fill="none" stroke="#000" rx="3.2" ry="3.2"/></g><g id="node11" class="node"><title>transactions</title><g id="a_node11"><a target="_top" xlink:href="../../tables/transactions.html" xlink:title="transactions"><polygon fill="#fff" stroke="none" points="669.5 -238.653 669.5 -296.653 789.5 -296.653 789.5 -238.653 669.5 -238.653"/><polygon fill="#f5f5f5" stroke="none" points="669.5 -274.653 669.5 -296.653 789.5 -296.653 789.5 -274.653 669.5 -274.653"/><polygon fill="none" stroke="#000" points="669.5 -274.653 669.5 -296.653 789.5 -296.653 789.5 -274.653 669.5 -274.653"/><text x="674.5" y="-283.853" font-family="Helvetica,sans-Serif" font-size="11" font-weight="bold" text-anchor="start">transactions</text><text x="750.5" y="-282.853" font-family="Helvetica,sans-Serif" font-size="11" text-anchor="start">[table]</text><polygon fill="none" stroke="#000" points="669.5 -256.653 669.5 -274.653 789.5 -274.653 789.5 -256.653 669.5 -256.653"/><text x="672.5" y="-262.853" font-family="Helvetica,sans-Serif" font-size="11" text-anchor="start">...</text><polygon fill="#fff" stroke="none" points="669.5 -238.653 669.5 -256.653 710.5 -256.653 710.5 -238.653 669.5 -238.653"/><polygon fill="none" stroke="#000" points="669.5 -238.653 669.5 -256.653 710.5 -256.653 710.5 -238.653 669.5 -238.653"/><text x="672.5" y="-244.853" font-family="Helvetica,sans-Serif" font-size="11" text-anchor="start">&lt; 4</text><polygon fill="#fff" stroke="none" points="710.5 -238.653 710.5 -256.653 756.5 -256.653 756.5 -238.653 710.5 -238.653"/><polygon fill="none" stroke="#000" points="710.5 -238.653 710.5 -256.653 756.5 -256.653 756.5 -238.653 710.5 -238.653"/><text x="722.5" y="-244.853" font-family="Helvetica,sans-Serif" font-size="11" text-anchor="start">1 row</text><polygon fill="#fff" stroke="none" points="756.5 -238.653 756.5 -256.653 789.5 -256.653 789.5 -238.653 756.5 -238.653"/><polygon fill="none" stroke="#000" points="756.5 -238.653 756.5 -256.653 789.5 -256.653 789.5 -238.653 756.5 -238.653"/><text x="769.5" y="-244.853" font-family="Helvetica,sans-Serif" font-size="11" text-anchor="start">4 &gt;</text></a></g></g><g id="edge15" class="edge"><title>internal_transactions:elipses:w-&gt;transactions:elipses:e</title><path fill="none" stroke="#000" d="M879.834,-491.625C842.834,-479.405 876.743,-414.455 854,-365.653 831.761,-317.932 843.148,-265.653 790.5,-265.653"/><polygon fill="#000" stroke="#000" points="886.575 -492.557 894.007 -497.219 890.538 -493.105 894.5 -493.653 894.5 -493.653 894.5 -493.653 890.538 -493.105 894.993 -490.087 886.575 -492.557 886.575 -492.557"/><ellipse cx="883.406" cy="-492.119" fill="none" stroke="#000" rx="3.2" ry="3.2"/></g><g id="edge27" class="edge"><title>transactions:elipses:w-&gt;addresses:hash:e</title><path fill="none" stroke="#000" d="M653.819,-265.444C494.257,-260.904 418.872,-184.864 287,-283.653 243.354,-316.349 301.535,-399.653 247,-399.653"/><polygon fill="#000" stroke="#000" points="660.501 -265.539 668.449 -269.253 664.5 -265.596 668.5 -265.653 668.5 -265.653 668.5 -265.653 664.5 -265.596 668.551 -262.053 660.501 -265.539 660.501 -265.539"/><ellipse cx="657.301" cy="-265.493" fill="none" stroke="#000" rx="3.2" ry="3.2"/></g><g id="edge28" class="edge"><title>transactions:elipses:w-&gt;addresses:hash:e</title><path fill="none" stroke="#000" d="M653.811,-264.942C494.175,-255.133 418.97,-182.843 287,-281.653 244.689,-313.333 299.857,-393.653 247,-399.653"/><polygon fill="#000" stroke="#000" points="660.509 -265.266 668.326 -269.249 664.505 -265.459 668.5 -265.653 668.5 -265.653 668.5 -265.653 664.505 -265.459 668.674 -262.057 660.509 -265.266 660.509 -265.266"/><ellipse cx="657.313" cy="-265.111" fill="none" stroke="#000" rx="3.2" ry="3.2"/></g><g id="edge29" class="edge"><title>transactions:elipses:w-&gt;addresses:hash:e</title><path fill="none" stroke="#000" d="M653.811,-266.051C494.175,-268.133 418.97,-195.843 287,-294.653 244.689,-326.333 299.857,-406.653 247,-399.653"/><polygon fill="#000" stroke="#000" points="660.503 -265.87 668.598 -269.252 664.501 -265.761 668.5 -265.653 668.5 -265.653 668.5 -265.653 664.501 -265.761 668.402 -262.054 660.503 -265.87 660.503 -265.87"/><ellipse cx="657.304" cy="-265.957" fill="none" stroke="#000" rx="3.2" ry="3.2"/></g><g id="edge26" class="edge"><title>transactions:elipses:w-&gt;blocks:elipses:e</title><path fill="none" stroke="#000" d="M653.965,-266.162C576.968,-271.707 559.044,-320.653 474.5,-320.653"/><polygon fill="#000" stroke="#000" points="660.505 -265.933 668.626 -269.251 664.502 -265.793 668.5 -265.653 668.5 -265.653 668.5 -265.653 664.502 -265.793 668.374 -262.055 660.505 -265.933 660.505 -265.933"/><ellipse cx="657.307" cy="-266.045" fill="none" stroke="#000" rx="3.2" ry="3.2"/></g><g id="node12" class="node"><title>logs</title><g id="a_node12"><a target="_top" xlink:href="../../tables/logs.html" xlink:title="logs"><polygon fill="#fff" stroke="none" points="941.5 -238.653 941.5 -296.653 1019.5 -296.653 1019.5 -238.653 941.5 -238.653"/><polygon fill="#f5f5f5" stroke="none" points="941.5 -274.653 941.5 -296.653 1019.5 -296.653 1019.5 -274.653 941.5 -274.653"/><polygon fill="none" stroke="#000" points="941.5 -274.653 941.5 -296.653 1019.5 -296.653 1019.5 -274.653 941.5 -274.653"/><text x="946.5" y="-283.853" font-family="Helvetica,sans-Serif" font-size="11" font-weight="bold" text-anchor="start">logs</text><text x="980.5" y="-282.853" font-family="Helvetica,sans-Serif" font-size="11" text-anchor="start">[table]</text><polygon fill="none" stroke="#000" points="941.5 -256.653 941.5 -274.653 1019.5 -274.653 1019.5 -256.653 941.5 -256.653"/><text x="944.5" y="-262.853" font-family="Helvetica,sans-Serif" font-size="11" text-anchor="start">...</text><polygon fill="#fff" stroke="none" points="941.5 -238.653 941.5 -256.653 964.5 -256.653 964.5 -238.653 941.5 -238.653"/><polygon fill="none" stroke="#000" points="941.5 -238.653 941.5 -256.653 964.5 -256.653 964.5 -238.653 941.5 -238.653"/><text x="944.5" y="-244.853" font-family="Helvetica,sans-Serif" font-size="11" text-anchor="start">&lt; 3</text><polygon fill="#fff" stroke="none" points="964.5 -238.653 964.5 -256.653 1006.5 -256.653 1006.5 -238.653 964.5 -238.653"/><polygon fill="none" stroke="#000" points="964.5 -238.653 964.5 -256.653 1006.5 -256.653 1006.5 -238.653 964.5 -238.653"/><text x="967.5" y="-244.853" font-family="Helvetica,sans-Serif" font-size="11" text-anchor="start">0 rows</text><polygon fill="#fff" stroke="none" points="1006.5 -238.653 1006.5 -256.653 1019.5 -256.653 1019.5 -238.653 1006.5 -238.653"/><polygon fill="none" stroke="#000" points="1006.5 -238.653 1006.5 -256.653 1019.5 -256.653 1019.5 -238.653 1006.5 -238.653"/></a></g></g><g id="edge16" class="edge"><title>logs:elipses:w-&gt;addresses:hash:e</title><path fill="none" stroke="#000" d="M926.067,-264.331C897.107,-258.614 889.682,-235.964 854,-228.653 805.195,-218.653 294.568,-226.606 287,-232.653 227.374,-280.295 323.322,-399.653 247,-399.653"/><polygon fill="#000" stroke="#000" points="932.533 -264.923 940.172 -269.238 936.517 -265.288 940.5 -265.653 940.5 -265.653 940.5 -265.653 936.517 -265.288 940.828 -262.068 932.533 -264.923 932.533 -264.923"/><ellipse cx="929.347" cy="-264.632" fill="none" stroke="#000" rx="3.2" ry="3.2"/></g><g id="edge17" class="edge"><title>logs:elipses:w-&gt;blocks:elipses:e</title><path fill="none" stroke="#000" d="M926.129,-267.446C893.365,-276.486 894.447,-317.15 854,-330.653 693.958,-384.082 643.225,-320.653 474.5,-320.653"/><polygon fill="#000" stroke="#000" points="932.562 -266.644 940.946 -269.225 936.531 -266.148 940.5 -265.653 940.5 -265.653 940.5 -265.653 936.531 -266.148 940.054 -262.081 932.562 -266.644 932.562 -266.644"/><ellipse cx="929.386" cy="-267.04" fill="none" stroke="#000" rx="3.2" ry="3.2"/></g><g id="edge18" class="edge"><title>logs:elipses:w-&gt;transactions:elipses:e</title><path fill="none" stroke="#000" d="M926.092,-265.653C871.004,-265.653 852.089,-265.653 790.5,-265.653"/><polygon fill="#000" stroke="#000" points="932.5 -265.653 940.5 -269.253 936.5 -265.653 940.5 -265.653 940.5 -265.653 940.5 -265.653 936.5 -265.653 940.5 -262.053 932.5 -265.653 932.5 -265.653"/><ellipse cx="929.3" cy="-265.653" fill="none" stroke="#000" rx="3.2" ry="3.2"/></g><g id="node13" class="node"><title>smart_contracts</title><g id="a_node13"><a target="_top" xlink:href="../../tables/smart_contracts.html" xlink:title="smart_contracts"><polygon fill="#fff" stroke="none" points="359 -136.653 359 -194.653 500 -194.653 500 -136.653 359 -136.653"/><polygon fill="#f5f5f5" stroke="none" points="359.5 -172.653 359.5 -194.653 500.5 -194.653 500.5 -172.653 359.5 -172.653"/><polygon fill="none" stroke="#000" points="359.5 -172.653 359.5 -194.653 500.5 -194.653 500.5 -172.653 359.5 -172.653"/><text x="364.5" y="-181.853" font-family="Helvetica,sans-Serif" font-size="11" font-weight="bold" text-anchor="start">smart_contracts</text><text x="461.5" y="-180.853" font-family="Helvetica,sans-Serif" font-size="11" text-anchor="start">[table]</text><polygon fill="none" stroke="#000" points="359.5 -154.653 359.5 -172.653 500.5 -172.653 500.5 -154.653 359.5 -154.653"/><text x="362.5" y="-160.853" font-family="Helvetica,sans-Serif" font-size="11" text-anchor="start">...</text><polygon fill="#fff" stroke="none" points="359.5 -136.653 359.5 -154.653 408.5 -154.653 408.5 -136.653 359.5 -136.653"/><polygon fill="none" stroke="#000" points="359.5 -136.653 359.5 -154.653 408.5 -154.653 408.5 -136.653 359.5 -136.653"/><text x="362.5" y="-142.853" font-family="Helvetica,sans-Serif" font-size="11" text-anchor="start">&lt; 1</text><polygon fill="#fff" stroke="none" points="408.5 -136.653 408.5 -154.653 463.5 -154.653 463.5 -136.653 408.5 -136.653"/><polygon fill="none" stroke="#000" points="408.5 -136.653 408.5 -154.653 463.5 -154.653 463.5 -136.653 408.5 -136.653"/><text x="424.5" y="-142.853" font-family="Helvetica,sans-Serif" font-size="11" text-anchor="start">0 rows</text><polygon fill="#fff" stroke="none" points="463.5 -136.653 463.5 -154.653 500.5 -154.653 500.5 -136.653 463.5 -136.653"/><polygon fill="none" stroke="#000" points="463.5 -136.653 463.5 -154.653 500.5 -154.653 500.5 -136.653 463.5 -136.653"/><text x="480.5" y="-142.853" font-family="Helvetica,sans-Serif" font-size="11" text-anchor="start">1 &gt;</text></a></g></g><g id="edge19" class="edge"><title>smart_contracts:elipses:w-&gt;addresses:hash:e</title><path fill="none" stroke="#000" d="M347.799,-164.094C318.319,-166.704 306.263,-180.959 287,-208.653 237.475,-279.853 333.73,-399.653 247,-399.653"/><polygon fill="#000" stroke="#000" points="357.536 -159.689 357.866 -167.682 356.267 -167.748 355.937 -159.755 357.536 -159.689"/><polyline fill="none" stroke="#000" points="358.5 -163.653 354.503 -163.818"/><ellipse cx="351.306" cy="-163.95" fill="none" stroke="#000" rx="3.2" ry="3.2"/></g><g id="node14" class="node"><title>token_transfers</title><g id="a_node14"><a target="_top" xlink:href="../../tables/token_transfers.html" xlink:title="token_transfers"><polygon fill="#fff" stroke="none" points="911.5 -73.653 911.5 -131.653 1049.5 -131.653 1049.5 -73.653 911.5 -73.653"/><polygon fill="#f5f5f5" stroke="none" points="911.5 -109.653 911.5 -131.653 1049.5 -131.653 1049.5 -109.653 911.5 -109.653"/><polygon fill="none" stroke="#000" points="911.5 -109.653 911.5 -131.653 1049.5 -131.653 1049.5 -109.653 911.5 -109.653"/><text x="916.5" y="-118.853" font-family="Helvetica,sans-Serif" font-size="11" font-weight="bold" text-anchor="start">token_transfers</text><text x="1010.5" y="-117.853" font-family="Helvetica,sans-Serif" font-size="11" text-anchor="start">[table]</text><polygon fill="none" stroke="#000" points="911.5 -91.653 911.5 -109.653 1049.5 -109.653 1049.5 -91.653 911.5 -91.653"/><text x="914.5" y="-97.853" font-family="Helvetica,sans-Serif" font-size="11" text-anchor="start">...</text><polygon fill="#fff" stroke="none" points="911.5 -73.653 911.5 -91.653 964.5 -91.653 964.5 -73.653 911.5 -73.653"/><polygon fill="none" stroke="#000" points="911.5 -73.653 911.5 -91.653 964.5 -91.653 964.5 -73.653 911.5 -73.653"/><text x="914.5" y="-79.853" font-family="Helvetica,sans-Serif" font-size="11" text-anchor="start">&lt; 5</text><polygon fill="#fff" stroke="none" points="964.5 -73.653 964.5 -91.653 1021.5 -91.653 1021.5 -73.653 964.5 -73.653"/><polygon fill="none" stroke="#000" points="964.5 -73.653 964.5 -91.653 1021.5 -91.653 1021.5 -73.653 964.5 -73.653"/><text x="982.5" y="-79.853" font-family="Helvetica,sans-Serif" font-size="11" text-anchor="start">0 rows</text><polygon fill="#fff" stroke="none" points="1021.5 -73.653 1021.5 -91.653 1049.5 -91.653 1049.5 -73.653 1021.5 -73.653"/><polygon fill="none" stroke="#000" points="1021.5 -73.653 1021.5 -91.653 1049.5 -91.653 1049.5 -73.653 1021.5 -73.653"/></a></g></g><g id="edge21" class="edge"><title>token_transfers:elipses:w-&gt;addresses:hash:e</title><path fill="none" stroke="#000" d="M896.001,-100.507C628.222,-95.1153 489.492,56.6407 287,-125.653 241.268,-166.824 308.534,-399.653 247,-399.653"/><polygon fill="#000" stroke="#000" points="902.5 -100.572 910.464 -104.253 906.5 -100.613 910.5 -100.653 910.5 -100.653 910.5 -100.653 906.5 -100.613 910.536 -97.053 902.5 -100.572 902.5 -100.572"/><ellipse cx="899.301" cy="-100.54" fill="none" stroke="#000" rx="3.2" ry="3.2"/></g><g id="edge22" class="edge"><title>token_transfers:elipses:w-&gt;addresses:hash:e</title><path fill="none" stroke="#000" d="M895.997,-100.199C628.136,-89.2377 489.156,59.125 287,-123.653 242.008,-164.332 307.655,-393.653 247,-399.653"/><polygon fill="#000" stroke="#000" points="902.504 -100.403 910.387 -104.251 906.502 -100.528 910.5 -100.653 910.5 -100.653 910.5 -100.653 906.502 -100.528 910.613 -97.055 902.504 -100.403 902.504 -100.403"/><ellipse cx="899.305" cy="-100.303" fill="none" stroke="#000" rx="3.2" ry="3.2"/></g><g id="edge23" class="edge"><title>token_transfers:elipses:w-&gt;addresses:hash:e</title><path fill="none" stroke="#000" d="M895.997,-100.873C628.136,-102.238 489.156,46.125 287,-136.653 242.008,-177.332 307.655,-406.653 247,-399.653"/><polygon fill="#000" stroke="#000" points="902.501 -100.774 910.555 -104.252 906.5 -100.714 910.5 -100.653 910.5 -100.653 910.5 -100.653 906.5 -100.714 910.445 -97.053 902.501 -100.774 902.501 -100.774"/><ellipse cx="899.301" cy="-100.823" fill="none" stroke="#000" rx="3.2" ry="3.2"/></g><g id="edge20" class="edge"><title>token_transfers:elipses:w-&gt;blocks:elipses:e</title><path fill="none" stroke="#000" d="M895.809,-102.128C827.807,-117.673 924.409,-251.952 854,-307.653 820.911,-333.83 516.691,-320.653 474.5,-320.653"/><polygon fill="#000" stroke="#000" points="902.54 -101.452 910.86 -104.235 906.52 -101.053 910.5 -100.653 910.5 -100.653 910.5 -100.653 906.52 -101.053 910.14 -97.071 902.54 -101.452 902.54 -101.452"/><ellipse cx="899.356" cy="-101.772" fill="none" stroke="#000" rx="3.2" ry="3.2"/></g><g id="edge24" class="edge"><title>token_transfers:elipses:w-&gt;transactions:elipses:e</title><path fill="none" stroke="#000" d="M896.065,-102.286C826.491,-119.422 875.863,-265.653 790.5,-265.653"/><polygon fill="#000" stroke="#000" points="902.551 -101.552 910.905 -104.23 906.525 -101.103 910.5 -100.653 910.5 -100.653 910.5 -100.653 906.525 -101.103 910.095 -97.076 902.551 -101.552 902.551 -101.552"/><ellipse cx="899.371" cy="-101.912" fill="none" stroke="#000" rx="3.2" ry="3.2"/></g></g></svg>