<svg xmlns="http://www.w3.org/2000/svg" xmlns:xlink="http://www.w3.org/1999/xlink" width="614pt" height="223pt" viewBox="0 0 614 223"><g id="graph0" class="graph" transform="scale(1 1) rotate(0) translate(4 219)"><title>oneDegreeRelationshipsDiagram</title><polygon fill="#fff" stroke="none" points="-4 4 -4 -219 610 -219 610 4 -4 4"/><text x="74.5" y="-7.2" font-family="Helvetica,sans-Serif" font-size="11" text-anchor="middle">Generated by SchemaSpy</text><g id="node1" class="node"><title>address_coin_balances_daily</title><g id="a_node1"><a target="_top" xlink:href="../../tables/address_coin_balances_daily.html" xlink:title="address_coin_balances_daily"><polygon fill="#fff" stroke="none" points="295 -37 295 -191 598 -191 598 -37 295 -37"/><polygon fill="#f5f5f5" stroke="none" points="297.5 -167 297.5 -189 596.5 -189 596.5 -167 297.5 -167"/><polygon fill="none" stroke="#000" points="297.5 -167 297.5 -189 596.5 -189 596.5 -167 297.5 -167"/><text x="302.5" y="-176.2" font-family="Helvetica,sans-Serif" font-size="11" font-weight="bold" text-anchor="start">address_coin_balances_daily</text><text x="557.5" y="-175.2" font-family="Helvetica,sans-Serif" font-size="11" text-anchor="start">[table]</text><polygon fill="#fff" stroke="none" points="297.5 -145 297.5 -167 486.5 -167 486.5 -145 297.5 -145"/><polygon fill="none" stroke="#000" points="297.5 -145 297.5 -167 486.5 -167 486.5 -145 297.5 -145"/><image width="11" height="12" x="302.5" y="-162" preserveAspectRatio="xMinYMin meet" xlink:href="../../images/foreignKeys.png"/><text x="317.5" y="-153.2" font-family="Helvetica,sans-Serif" font-size="11" text-anchor="start">address_hash</text><polygon fill="none" stroke="#000" points="486.5 -145 486.5 -167 596.5 -167 596.5 -145 486.5 -145"/><text x="489.5" y="-153.2" font-family="Helvetica,sans-Serif" font-size="11" text-anchor="start">bytea[2147483647]</text><polygon fill="#fff" stroke="none" points="297.5 -123 297.5 -145 486.5 -145 486.5 -123 297.5 -123"/><polygon fill="none" stroke="#000" points="297.5 -123 297.5 -145 486.5 -145 486.5 -123 297.5 -123"/><text x="317.5" y="-131.2" font-family="Helvetica,sans-Serif" font-size="11" text-anchor="start">day</text><polygon fill="none" stroke="#000" points="486.5 -123 486.5 -145 596.5 -145 596.5 -123 486.5 -123"/><text x="489.5" y="-131.2" font-family="Helvetica,sans-Serif" font-size="11" text-anchor="start">date[13]</text><polygon fill="none" stroke="#000" points="297.5 -101 297.5 -123 486.5 -123 486.5 -101 297.5 -101"/><text x="317.5" y="-109.2" font-family="Helvetica,sans-Serif" font-size="11" text-anchor="start">value</text><polygon fill="none" stroke="#000" points="486.5 -101 486.5 -123 596.5 -123 596.5 -101 486.5 -101"/><text x="489.5" y="-109.2" font-family="Helvetica,sans-Serif" font-size="11" text-anchor="start">numeric[100]</text><polygon fill="none" stroke="#000" points="297.5 -79 297.5 -101 486.5 -101 486.5 -79 297.5 -79"/><text x="317.5" y="-87.2" font-family="Helvetica,sans-Serif" font-size="11" text-anchor="start">inserted_at</text><polygon fill="none" stroke="#000" points="486.5 -79 486.5 -101 596.5 -101 596.5 -79 486.5 -79"/><text x="489.5" y="-87.2" font-family="Helvetica,sans-Serif" font-size="11" text-anchor="start">timestamp[29,6]</text><polygon fill="none" stroke="#000" points="297.5 -57 297.5 -79 486.5 -79 486.5 -57 297.5 -57"/><text x="317.5" y="-65.2" font-family="Helvetica,sans-Serif" font-size="11" text-anchor="start">updated_at</text><polygon fill="none" stroke="#000" points="486.5 -57 486.5 -79 596.5 -79 596.5 -57 486.5 -57"/><text x="489.5" y="-65.2" font-family="Helvetica,sans-Serif" font-size="11" text-anchor="start">timestamp[29,6]</text><polygon fill="#fff" stroke="none" points="297.5 -39 297.5 -57 382.5 -57 382.5 -39 297.5 -39"/><polygon fill="none" stroke="#000" points="297.5 -39 297.5 -57 382.5 -57 382.5 -39 297.5 -39"/><text x="300.5" y="-45.2" font-family="Helvetica,sans-Serif" font-size="11" text-anchor="start">&lt; 1</text><polygon fill="#fff" stroke="none" points="382.5 -39 382.5 -57 486.5 -57 486.5 -39 382.5 -39"/><polygon fill="none" stroke="#000" points="382.5 -39 382.5 -57 486.5 -57 486.5 -39 382.5 -39"/><text x="447.5" y="-45.2" font-family="Helvetica,sans-Serif" font-size="11" text-anchor="start">3 rows</text><polygon fill="#fff" stroke="none" points="486.5 -39 486.5 -57 596.5 -57 596.5 -39 486.5 -39"/><polygon fill="none" stroke="#000" points="486.5 -39 486.5 -57 596.5 -57 596.5 -39 486.5 -39"/><text x="576.5" y="-45.2" font-family="Helvetica,sans-Serif" font-size="11" text-anchor="start">0 &gt;</text><polygon fill="none" stroke="#000" stroke-width="2" points="296 -38 296 -190 597 -190 597 -38 296 -38"/></a></g></g><g id="node2" class="node"><title>addresses</title><g id="a_node2"><a target="_top" xlink:href="../../tables/addresses.html" xlink:title="addresses"><polygon fill="#fff" stroke="none" points="8 -87 8 -211 246 -211 246 -87 8 -87"/><polygon fill="#f5f5f5" stroke="none" points="8 -189 8 -211 246 -211 246 -189 8 -189"/><polygon fill="none" stroke="#000" points="8 -189 8 -211 246 -211 246 -189 8 -189"/><text x="13" y="-198.2" font-family="Helvetica,sans-Serif" font-size="11" font-weight="bold" text-anchor="start">addresses</text><text x="207" y="-197.2" font-family="Helvetica,sans-Serif" font-size="11" text-anchor="start">[table]</text><polygon fill="#fff" stroke="none" points="8 -167 8 -189 246 -189 246 -167 8 -167"/><polygon fill="none" stroke="#000" points="8 -167 8 -189 246 -189 246 -167 8 -167"/><text x="28" y="-175.2" font-family="Helvetica,sans-Serif" font-size="11" text-anchor="start">fetched_coin_balance</text><polygon fill="none" stroke="#000" points="8 -145 8 -167 246 -167 246 -145 8 -145"/><image width="11" height="12" x="13" y="-162" preserveAspectRatio="xMinYMin meet" xlink:href="../../images/primaryKeys.png"/><text x="28" y="-153.2" font-family="Helvetica,sans-Serif" font-size="11" text-anchor="start">hash</text><polygon fill="#fff" stroke="none" points="8 -123 8 -145 246 -145 246 -123 8 -123"/><polygon fill="none" stroke="#000" points="8 -123 8 -145 246 -145 246 -123 8 -123"/><text x="28" y="-131.2" font-family="Helvetica,sans-Serif" font-size="11" text-anchor="start">inserted_at</text><polygon fill="none" stroke="#000" points="8 -105 8 -123 246 -123 246 -105 8 -105"/><text x="11" y="-111.2" font-family="Helvetica,sans-Serif" font-size="11" text-anchor="start">...</text><polygon fill="#fff" stroke="none" points="8 -87 8 -105 97 -105 97 -87 8 -87"/><polygon fill="none" stroke="#000" points="8 -87 8 -105 97 -105 97 -87 8 -87"/><polygon fill="#fff" stroke="none" points="97 -87 97 -105 177 -105 177 -87 97 -87"/><polygon fill="none" stroke="#000" points="97 -87 97 -105 177 -105 177 -87 97 -87"/><text x="138" y="-93.2" font-family="Helvetica,sans-Serif" font-size="11" text-anchor="start">2 rows</text><polygon fill="#fff" stroke="none" points="177 -87 177 -105 246 -105 246 -87 177 -87"/><polygon fill="none" stroke="#000" points="177 -87 177 -105 246 -105 246 -87 177 -87"/><text x="219" y="-93.2" font-family="Helvetica,sans-Serif" font-size="11" text-anchor="start">19 &gt;</text></a></g></g><g id="edge1" class="edge"><title>address_coin_balances_daily:address_hash:w-&gt;addresses:hash:e</title><path fill="none" stroke="#000" d="M281.843,-156C270.414,-156 263.156,-156 247,-156"/><polygon fill="#000" stroke="#000" points="288.5 -156 296.5 -159.6 292.5 -156 296.5 -156 296.5 -156 296.5 -156 292.5 -156 296.5 -152.4 288.5 -156 288.5 -156"/><ellipse cx="285.3" cy="-156" fill="none" stroke="#000" rx="3.2" ry="3.2"/></g></g></svg>