<svg xmlns="http://www.w3.org/2000/svg" xmlns:xlink="http://www.w3.org/1999/xlink" width="392pt" height="203pt" viewBox="0 0 392 203"><g id="graph0" class="graph" transform="scale(1 1) rotate(0) translate(4 199)"><title>oneDegreeRelationshipsDiagram</title><polygon fill="#fff" stroke="none" points="-4 4 -4 -199 388 -199 388 4 -4 4"/><text x="74.5" y="-7.2" font-family="Helvetica,sans-Serif" font-size="11" text-anchor="middle">Generated by SchemaSpy</text><g id="node1" class="node"><title>administrators</title><g id="a_node1"><a target="_top" xlink:href="../../tables/administrators.html" xlink:title="administrators"><polygon fill="#fff" stroke="none" points="169 -37 169 -191 376 -191 376 -37 169 -37"/><polygon fill="#f5f5f5" stroke="none" points="171.5 -167 171.5 -189 374.5 -189 374.5 -167 171.5 -167"/><polygon fill="none" stroke="#000" points="171.5 -167 171.5 -189 374.5 -189 374.5 -167 171.5 -167"/><text x="176.5" y="-176.2" font-family="Helvetica,sans-Serif" font-size="11" font-weight="bold" text-anchor="start">administrators</text><text x="335.5" y="-175.2" font-family="Helvetica,sans-Serif" font-size="11" text-anchor="start">[table]</text><polygon fill="none" stroke="#000" points="171.5 -145 171.5 -167 281.5 -167 281.5 -145 171.5 -145"/><image width="11" height="12" x="176.5" y="-162" preserveAspectRatio="xMinYMin meet" xlink:href="../../images/primaryKeys.png"/><text x="191.5" y="-153.2" font-family="Helvetica,sans-Serif" font-size="11" text-anchor="start">id</text><polygon fill="none" stroke="#000" points="281.5 -145 281.5 -167 374.5 -167 374.5 -145 281.5 -145"/><text x="284.5" y="-153.2" font-family="Helvetica,sans-Serif" font-size="11" text-anchor="start">bigserial[19]</text><polygon fill="#fff" stroke="none" points="171.5 -123 171.5 -145 281.5 -145 281.5 -123 171.5 -123"/><polygon fill="none" stroke="#000" points="171.5 -123 171.5 -145 281.5 -145 281.5 -123 171.5 -123"/><text x="191.5" y="-131.2" font-family="Helvetica,sans-Serif" font-size="11" text-anchor="start">role</text><polygon fill="none" stroke="#000" points="281.5 -123 281.5 -145 374.5 -145 374.5 -123 281.5 -123"/><text x="284.5" y="-131.2" font-family="Helvetica,sans-Serif" font-size="11" text-anchor="start">varchar[255]</text><polygon fill="#fff" stroke="none" points="171.5 -101 171.5 -123 281.5 -123 281.5 -101 171.5 -101"/><polygon fill="none" stroke="#000" points="171.5 -101 171.5 -123 281.5 -123 281.5 -101 171.5 -101"/><image width="11" height="12" x="176.5" y="-118" preserveAspectRatio="xMinYMin meet" xlink:href="../../images/foreignKeys.png"/><text x="191.5" y="-109.2" font-family="Helvetica,sans-Serif" font-size="11" text-anchor="start">user_id</text><polygon fill="none" stroke="#000" points="281.5 -101 281.5 -123 374.5 -123 374.5 -101 281.5 -101"/><text x="284.5" y="-109.2" font-family="Helvetica,sans-Serif" font-size="11" text-anchor="start">int8[19]</text><polygon fill="none" stroke="#000" points="171.5 -79 171.5 -101 281.5 -101 281.5 -79 171.5 -79"/><text x="191.5" y="-87.2" font-family="Helvetica,sans-Serif" font-size="11" text-anchor="start">inserted_at</text><polygon fill="none" stroke="#000" points="281.5 -79 281.5 -101 374.5 -101 374.5 -79 281.5 -79"/><text x="284.5" y="-87.2" font-family="Helvetica,sans-Serif" font-size="11" text-anchor="start">timestamp[29,6]</text><polygon fill="none" stroke="#000" points="171.5 -57 171.5 -79 281.5 -79 281.5 -57 171.5 -57"/><text x="191.5" y="-65.2" font-family="Helvetica,sans-Serif" font-size="11" text-anchor="start">updated_at</text><polygon fill="none" stroke="#000" points="281.5 -57 281.5 -79 374.5 -79 374.5 -57 281.5 -57"/><text x="284.5" y="-65.2" font-family="Helvetica,sans-Serif" font-size="11" text-anchor="start">timestamp[29,6]</text><polygon fill="#fff" stroke="none" points="171.5 -39 171.5 -57 216.5 -57 216.5 -39 171.5 -39"/><polygon fill="none" stroke="#000" points="171.5 -39 171.5 -57 216.5 -57 216.5 -39 171.5 -39"/><text x="174.5" y="-45.2" font-family="Helvetica,sans-Serif" font-size="11" text-anchor="start">&lt; 1</text><polygon fill="#fff" stroke="none" points="216.5 -39 216.5 -57 281.5 -57 281.5 -39 216.5 -39"/><polygon fill="none" stroke="#000" points="216.5 -39 216.5 -57 281.5 -57 281.5 -39 216.5 -39"/><text x="242.5" y="-45.2" font-family="Helvetica,sans-Serif" font-size="11" text-anchor="start">0 rows</text><polygon fill="#fff" stroke="none" points="281.5 -39 281.5 -57 374.5 -57 374.5 -39 281.5 -39"/><polygon fill="none" stroke="#000" points="281.5 -39 281.5 -57 374.5 -57 374.5 -39 281.5 -39"/><text x="354.5" y="-45.2" font-family="Helvetica,sans-Serif" font-size="11" text-anchor="start">0 &gt;</text><polygon fill="none" stroke="#000" stroke-width="2" points="170 -38 170 -190 375 -190 375 -38 170 -38"/></a></g></g><g id="node2" class="node"><title>users</title><g id="a_node2"><a target="_top" xlink:href="../../tables/users.html" xlink:title="users"><polygon fill="#fff" stroke="none" points="8 -43 8 -145 120 -145 120 -43 8 -43"/><polygon fill="#f5f5f5" stroke="none" points="8 -123 8 -145 120 -145 120 -123 8 -123"/><polygon fill="none" stroke="#000" points="8 -123 8 -145 120 -145 120 -123 8 -123"/><text x="13" y="-132.2" font-family="Helvetica,sans-Serif" font-size="11" font-weight="bold" text-anchor="start">users</text><text x="81" y="-131.2" font-family="Helvetica,sans-Serif" font-size="11" text-anchor="start">[table]</text><polygon fill="none" stroke="#000" points="8 -101 8 -123 120 -123 120 -101 8 -101"/><image width="11" height="12" x="13" y="-118" preserveAspectRatio="xMinYMin meet" xlink:href="../../images/primaryKeys.png"/><text x="28" y="-109.2" font-family="Helvetica,sans-Serif" font-size="11" text-anchor="start">id</text><polygon fill="#fff" stroke="none" points="8 -79 8 -101 120 -101 120 -79 8 -79"/><polygon fill="none" stroke="#000" points="8 -79 8 -101 120 -101 120 -79 8 -79"/><text x="28" y="-87.2" font-family="Helvetica,sans-Serif" font-size="11" text-anchor="start">username</text><polygon fill="none" stroke="#000" points="8 -61 8 -79 120 -79 120 -61 8 -61"/><text x="11" y="-67.2" font-family="Helvetica,sans-Serif" font-size="11" text-anchor="start">...</text><polygon fill="#fff" stroke="none" points="8 -43 8 -61 38 -61 38 -43 8 -43"/><polygon fill="none" stroke="#000" points="8 -43 8 -61 38 -61 38 -43 8 -43"/><polygon fill="#fff" stroke="none" points="38 -43 38 -61 88 -61 88 -43 38 -43"/><polygon fill="none" stroke="#000" points="38 -43 38 -61 88 -61 88 -43 38 -43"/><text x="49" y="-49.2" font-family="Helvetica,sans-Serif" font-size="11" text-anchor="start">0 rows</text><polygon fill="#fff" stroke="none" points="88 -43 88 -61 120 -61 120 -43 88 -43"/><polygon fill="none" stroke="#000" points="88 -43 88 -61 120 -61 120 -43 88 -43"/><text x="100" y="-49.2" font-family="Helvetica,sans-Serif" font-size="11" text-anchor="start">2 &gt;</text></a></g></g><g id="edge1" class="edge"><title>administrators:user_id:w-&gt;users:id:e</title><path fill="none" stroke="#000" d="M160.047,-112C145.991,-112 139.047,-112 121,-112"/><polygon fill="#000" stroke="#000" points="169.7 -108 169.7 -116 168.1 -116 168.1 -108 169.7 -108"/><polyline fill="none" stroke="#000" points="170.5 -112 166.5 -112"/><ellipse cx="163.3" cy="-112" fill="none" stroke="#000" rx="3.2" ry="3.2"/></g></g></svg>