<svg xmlns="http://www.w3.org/2000/svg" xmlns:xlink="http://www.w3.org/1999/xlink" width="703pt" height="432" viewBox="0 0 703 324"><g id="graph0" class="graph" transform="scale(1 1) rotate(0) translate(4 320)"><title>oneDegreeRelationshipsDiagram</title><polygon fill="#fff" stroke="none" points="-4 4 -4 -320 699 -320 699 4 -4 4"/><text x="74.5" y="-7.2" font-family="Helvetica,sans-Serif" font-size="11" text-anchor="middle">Generated by SchemaSpy</text><g id="node1" class="node"><title>block_rewards</title><g id="a_node1"><a target="_top" xlink:href="../../tables/block_rewards.html" xlink:title="block_rewards"><polygon fill="#fff" stroke="none" points="466 -136 466 -312 687 -312 687 -136 466 -136"/><polygon fill="#f5f5f5" stroke="none" points="468.5 -288 468.5 -310 685.5 -310 685.5 -288 468.5 -288"/><polygon fill="none" stroke="#000" points="468.5 -288 468.5 -310 685.5 -310 685.5 -288 468.5 -288"/><text x="473.5" y="-297.2" font-family="Helvetica,sans-Serif" font-size="11" font-weight="bold" text-anchor="start">block_rewards</text><text x="646.5" y="-296.2" font-family="Helvetica,sans-Serif" font-size="11" text-anchor="start">[table]</text><polygon fill="#fff" stroke="none" points="468.5 -266 468.5 -288 575.5 -288 575.5 -266 468.5 -266"/><polygon fill="none" stroke="#000" points="468.5 -266 468.5 -288 575.5 -288 575.5 -266 468.5 -266"/><image width="11" height="12" x="473.5" y="-283" preserveAspectRatio="xMinYMin meet" xlink:href="../../images/foreignKeys.png"/><text x="488.5" y="-274.2" font-family="Helvetica,sans-Serif" font-size="11" text-anchor="start">address_hash</text><polygon fill="none" stroke="#000" points="575.5 -266 575.5 -288 685.5 -288 685.5 -266 575.5 -266"/><text x="578.5" y="-274.2" font-family="Helvetica,sans-Serif" font-size="11" text-anchor="start">bytea[2147483647]</text><polygon fill="#fff" stroke="none" points="468.5 -244 468.5 -266 575.5 -266 575.5 -244 468.5 -244"/><polygon fill="none" stroke="#000" points="468.5 -244 468.5 -266 575.5 -266 575.5 -244 468.5 -244"/><text x="488.5" y="-252.2" font-family="Helvetica,sans-Serif" font-size="11" text-anchor="start">address_type</text><polygon fill="none" stroke="#000" points="575.5 -244 575.5 -266 685.5 -266 685.5 -244 575.5 -244"/><text x="578.5" y="-252.2" font-family="Helvetica,sans-Serif" font-size="11" text-anchor="start">varchar[255]</text><polygon fill="#fff" stroke="none" points="468.5 -222 468.5 -244 575.5 -244 575.5 -222 468.5 -222"/><polygon fill="none" stroke="#000" points="468.5 -222 468.5 -244 575.5 -244 575.5 -222 468.5 -222"/><image width="11" height="12" x="473.5" y="-239" preserveAspectRatio="xMinYMin meet" xlink:href="../../images/foreignKeys.png"/><text x="488.5" y="-230.2" font-family="Helvetica,sans-Serif" font-size="11" text-anchor="start">block_hash</text><polygon fill="none" stroke="#000" points="575.5 -222 575.5 -244 685.5 -244 685.5 -222 575.5 -222"/><text x="578.5" y="-230.2" font-family="Helvetica,sans-Serif" font-size="11" text-anchor="start">bytea[2147483647]</text><polygon fill="none" stroke="#000" points="468.5 -200 468.5 -222 575.5 -222 575.5 -200 468.5 -200"/><text x="488.5" y="-208.2" font-family="Helvetica,sans-Serif" font-size="11" text-anchor="start">reward</text><polygon fill="none" stroke="#000" points="575.5 -200 575.5 -222 685.5 -222 685.5 -200 575.5 -200"/><text x="578.5" y="-208.2" font-family="Helvetica,sans-Serif" font-size="11" text-anchor="start">numeric[100]</text><polygon fill="none" stroke="#000" points="468.5 -178 468.5 -200 575.5 -200 575.5 -178 468.5 -178"/><text x="488.5" y="-186.2" font-family="Helvetica,sans-Serif" font-size="11" text-anchor="start">inserted_at</text><polygon fill="none" stroke="#000" points="575.5 -178 575.5 -200 685.5 -200 685.5 -178 575.5 -178"/><text x="578.5" y="-186.2" font-family="Helvetica,sans-Serif" font-size="11" text-anchor="start">timestamp[22]</text><polygon fill="none" stroke="#000" points="468.5 -156 468.5 -178 575.5 -178 575.5 -156 468.5 -156"/><text x="488.5" y="-164.2" font-family="Helvetica,sans-Serif" font-size="11" text-anchor="start">updated_at</text><polygon fill="none" stroke="#000" points="575.5 -156 575.5 -178 685.5 -178 685.5 -156 575.5 -156"/><text x="578.5" y="-164.2" font-family="Helvetica,sans-Serif" font-size="11" text-anchor="start">timestamp[22]</text><polygon fill="#fff" stroke="none" points="468.5 -138 468.5 -156 512.5 -156 512.5 -138 468.5 -138"/><polygon fill="none" stroke="#000" points="468.5 -138 468.5 -156 512.5 -156 512.5 -138 468.5 -138"/><text x="471.5" y="-144.2" font-family="Helvetica,sans-Serif" font-size="11" text-anchor="start">&lt; 2</text><polygon fill="#fff" stroke="none" points="512.5 -138 512.5 -156 575.5 -156 575.5 -138 512.5 -138"/><polygon fill="none" stroke="#000" points="512.5 -138 512.5 -156 575.5 -156 575.5 -138 512.5 -138"/><text x="536.5" y="-144.2" font-family="Helvetica,sans-Serif" font-size="11" text-anchor="start">0 rows</text><polygon fill="#fff" stroke="none" points="575.5 -138 575.5 -156 685.5 -156 685.5 -138 575.5 -138"/><polygon fill="none" stroke="#000" points="575.5 -138 575.5 -156 685.5 -156 685.5 -138 575.5 -138"/><text x="665.5" y="-144.2" font-family="Helvetica,sans-Serif" font-size="11" text-anchor="start">0 &gt;</text><polygon fill="none" stroke="#000" stroke-width="2" points="467 -137 467 -311 686 -311 686 -137 467 -137"/></a></g></g><g id="node2" class="node"><title>addresses</title><g id="a_node2"><a target="_top" xlink:href="../../tables/addresses.html" xlink:title="addresses"><polygon fill="#fff" stroke="none" points="8 -175 8 -299 246 -299 246 -175 8 -175"/><polygon fill="#f5f5f5" stroke="none" points="8 -277 8 -299 246 -299 246 -277 8 -277"/><polygon fill="none" stroke="#000" points="8 -277 8 -299 246 -299 246 -277 8 -277"/><text x="13" y="-286.2" font-family="Helvetica,sans-Serif" font-size="11" font-weight="bold" text-anchor="start">addresses</text><text x="207" y="-285.2" font-family="Helvetica,sans-Serif" font-size="11" text-anchor="start">[table]</text><polygon fill="#fff" stroke="none" points="8 -255 8 -277 246 -277 246 -255 8 -255"/><polygon fill="none" stroke="#000" points="8 -255 8 -277 246 -277 246 -255 8 -255"/><text x="28" y="-263.2" font-family="Helvetica,sans-Serif" font-size="11" text-anchor="start">fetched_coin_balance</text><polygon fill="none" stroke="#000" points="8 -233 8 -255 246 -255 246 -233 8 -233"/><image width="11" height="12" x="13" y="-250" preserveAspectRatio="xMinYMin meet" xlink:href="../../images/primaryKeys.png"/><text x="28" y="-241.2" font-family="Helvetica,sans-Serif" font-size="11" text-anchor="start">hash</text><polygon fill="#fff" stroke="none" points="8 -211 8 -233 246 -233 246 -211 8 -211"/><polygon fill="none" stroke="#000" points="8 -211 8 -233 246 -233 246 -211 8 -211"/><text x="28" y="-219.2" font-family="Helvetica,sans-Serif" font-size="11" text-anchor="start">inserted_at</text><polygon fill="none" stroke="#000" points="8 -193 8 -211 246 -211 246 -193 8 -193"/><text x="11" y="-199.2" font-family="Helvetica,sans-Serif" font-size="11" text-anchor="start">...</text><polygon fill="#fff" stroke="none" points="8 -175 8 -193 97 -193 97 -175 8 -175"/><polygon fill="none" stroke="#000" points="8 -175 8 -193 97 -193 97 -175 8 -175"/><polygon fill="#fff" stroke="none" points="97 -175 97 -193 177 -193 177 -175 97 -175"/><polygon fill="none" stroke="#000" points="97 -175 97 -193 177 -193 177 -175 97 -175"/><text x="138" y="-181.2" font-family="Helvetica,sans-Serif" font-size="11" text-anchor="start">2 rows</text><polygon fill="#fff" stroke="none" points="177 -175 177 -193 246 -193 246 -175 177 -175"/><polygon fill="none" stroke="#000" points="177 -175 177 -193 246 -193 246 -175 177 -175"/><text x="219" y="-181.2" font-family="Helvetica,sans-Serif" font-size="11" text-anchor="start">19 &gt;</text></a></g></g><g id="edge1" class="edge"><title>block_rewards:address_hash:w-&gt;addresses:hash:e</title><path fill="none" stroke="#000" d="M453.053,-277.749C444.264,-278.727 438.029,-280.388 425,-281 363.734,-283.877 344.111,-303.364 287,-281 264.45,-272.17 271.217,-244 247,-244"/><polygon fill="#000" stroke="#000" points="459.511 -277.414 467.686 -280.595 463.505 -277.207 467.5 -277 467.5 -277 467.5 -277 463.505 -277.207 467.314 -273.405 459.511 -277.414 459.511 -277.414"/><ellipse cx="456.315" cy="-277.58" fill="none" stroke="#000" rx="3.2" ry="3.2"/></g><g id="node3" class="node"><title>blocks</title><g id="a_node3"><a target="_top" xlink:href="../../tables/blocks.html" xlink:title="blocks"><polygon fill="#fff" stroke="none" points="295 -37 295 -271 417 -271 417 -37 295 -37"/><polygon fill="#f5f5f5" stroke="none" points="295 -249 295 -271 417 -271 417 -249 295 -249"/><polygon fill="none" stroke="#000" points="295 -249 295 -271 417 -271 417 -249 295 -249"/><text x="300" y="-258.2" font-family="Helvetica,sans-Serif" font-size="11" font-weight="bold" text-anchor="start">blocks</text><text x="378" y="-257.2" font-family="Helvetica,sans-Serif" font-size="11" text-anchor="start">[table]</text><polygon fill="#fff" stroke="none" points="295 -227 295 -249 417 -249 417 -227 295 -227"/><polygon fill="none" stroke="#000" points="295 -227 295 -249 417 -249 417 -227 295 -227"/><text x="315" y="-235.2" font-family="Helvetica,sans-Serif" font-size="11" text-anchor="start">consensus</text><polygon fill="none" stroke="#000" points="295 -205 295 -227 417 -227 417 -205 295 -205"/><image width="11" height="12" x="300" y="-222" preserveAspectRatio="xMinYMin meet" xlink:href="../../images/primaryKeys.png"/><text x="315" y="-213.2" font-family="Helvetica,sans-Serif" font-size="11" text-anchor="start">hash</text><polygon fill="#fff" stroke="none" points="295 -183 295 -205 417 -205 417 -183 295 -183"/><polygon fill="none" stroke="#000" points="295 -183 295 -205 417 -205 417 -183 295 -183"/><image width="11" height="12" x="300" y="-200" preserveAspectRatio="xMinYMin meet" xlink:href="../../images/foreignKeys.png"/><text x="315" y="-191.2" font-family="Helvetica,sans-Serif" font-size="11" text-anchor="start">miner_hash</text><polygon fill="#fff" stroke="none" points="295 -161 295 -183 417 -183 417 -161 295 -161"/><polygon fill="none" stroke="#000" points="295 -161 295 -183 417 -183 417 -161 295 -161"/><text x="315" y="-169.2" font-family="Helvetica,sans-Serif" font-size="11" text-anchor="start">number</text><polygon fill="#fff" stroke="none" points="295 -139 295 -161 417 -161 417 -139 295 -139"/><polygon fill="none" stroke="#000" points="295 -139 295 -161 417 -161 417 -139 295 -139"/><text x="315" y="-147.2" font-family="Helvetica,sans-Serif" font-size="11" text-anchor="start">parent_hash</text><polygon fill="#fff" stroke="none" points="295 -117 295 -139 417 -139 417 -117 295 -117"/><polygon fill="none" stroke="#000" points="295 -117 295 -139 417 -139 417 -117 295 -117"/><text x="315" y="-125.2" font-family="Helvetica,sans-Serif" font-size="11" text-anchor="start">timestamp</text><polygon fill="#fff" stroke="none" points="295 -95 295 -117 417 -117 417 -95 295 -95"/><polygon fill="none" stroke="#000" points="295 -95 295 -117 417 -117 417 -95 295 -95"/><text x="315" y="-103.2" font-family="Helvetica,sans-Serif" font-size="11" text-anchor="start">inserted_at</text><polygon fill="#fff" stroke="none" points="295 -73 295 -95 417 -95 417 -73 295 -73"/><polygon fill="none" stroke="#000" points="295 -73 295 -95 417 -95 417 -73 295 -73"/><text x="315" y="-81.2" font-family="Helvetica,sans-Serif" font-size="11" text-anchor="start">is_empty</text><polygon fill="none" stroke="#000" points="295 -55 295 -73 417 -73 417 -55 295 -55"/><text x="298" y="-61.2" font-family="Helvetica,sans-Serif" font-size="11" text-anchor="start">...</text><polygon fill="#fff" stroke="none" points="295 -37 295 -55 335 -55 335 -37 295 -37"/><polygon fill="none" stroke="#000" points="295 -37 295 -55 335 -55 335 -37 295 -37"/><text x="298" y="-43.2" font-family="Helvetica,sans-Serif" font-size="11" text-anchor="start">&lt; 1</text><polygon fill="#fff" stroke="none" points="335 -37 335 -55 385 -55 385 -37 335 -37"/><polygon fill="none" stroke="#000" points="335 -37 335 -55 385 -55 385 -37 335 -37"/><text x="346" y="-43.2" font-family="Helvetica,sans-Serif" font-size="11" text-anchor="start">3 rows</text><polygon fill="#fff" stroke="none" points="385 -37 385 -55 417 -55 417 -37 385 -37"/><polygon fill="none" stroke="#000" points="385 -37 385 -55 417 -55 417 -37 385 -37"/><text x="397" y="-43.2" font-family="Helvetica,sans-Serif" font-size="11" text-anchor="start">8 &gt;</text></a></g></g><g id="edge2" class="edge"><title>block_rewards:block_hash:w-&gt;blocks:hash:e</title><path fill="none" stroke="#000" d="M453.223,-230.344C441.482,-225.562 435.446,-216 418,-216"/><polygon fill="#000" stroke="#000" points="459.635 -231.537 466.841 -236.539 463.567 -232.268 467.5 -233 467.5 -233 467.5 -233 463.567 -232.268 468.159 -229.461 459.635 -231.537 459.635 -231.537"/><ellipse cx="456.489" cy="-230.951" fill="none" stroke="#000" rx="3.2" ry="3.2"/></g><g id="edge3" class="edge"><title>blocks:miner_hash:w-&gt;addresses:hash:e</title><path fill="none" stroke="#000" d="M280.177,-199.351C267.352,-212.25 271.304,-244 247,-244"/><polygon fill="#000" stroke="#000" points="286.539 -196.888 295.3 -197.357 290.27 -195.444 294 -194 294 -194 294 -194 290.27 -195.444 292.7 -190.643 286.539 -196.888 286.539 -196.888"/><ellipse cx="283.555" cy="-198.043" fill="none" stroke="#000" rx="3.2" ry="3.2"/></g></g></svg>