<svg xmlns="http://www.w3.org/2000/svg" xmlns:xlink="http://www.w3.org/1999/xlink" width="617pt" height="300" viewBox="0 0 617 225"><g id="graph0" class="graph" transform="scale(1 1) rotate(0) translate(4 221)"><title>oneDegreeRelationshipsDiagram</title><polygon fill="#fff" stroke="none" points="-4 4 -4 -221 613 -221 613 4 -4 4"/><text x="74.5" y="-7.2" font-family="Helvetica,sans-Serif" font-size="11" text-anchor="middle">Generated by SchemaSpy</text><g id="node1" class="node"><title>decompiled_smart_contracts</title><g id="a_node1"><a target="_top" xlink:href="../../tables/decompiled_smart_contracts.html" xlink:title="decompiled_smart_contracts"><polygon fill="#fff" stroke="none" points="295 -37 295 -213 601 -213 601 -37 295 -37"/><polygon fill="#f5f5f5" stroke="none" points="297 -189 297 -211 599 -211 599 -189 297 -189"/><polygon fill="none" stroke="#000" points="297 -189 297 -211 599 -211 599 -189 297 -189"/><text x="302" y="-198.2" font-family="Helvetica,sans-Serif" font-size="11" font-weight="bold" text-anchor="start">decompiled_smart_contracts</text><text x="560" y="-197.2" font-family="Helvetica,sans-Serif" font-size="11" text-anchor="start">[table]</text><polygon fill="none" stroke="#000" points="297 -167 297 -189 489 -189 489 -167 297 -167"/><image width="11" height="12" x="302" y="-184" preserveAspectRatio="xMinYMin meet" xlink:href="../../images/primaryKeys.png"/><text x="317" y="-175.2" font-family="Helvetica,sans-Serif" font-size="11" text-anchor="start">id</text><polygon fill="none" stroke="#000" points="489 -167 489 -189 599 -189 599 -167 489 -167"/><text x="492" y="-175.2" font-family="Helvetica,sans-Serif" font-size="11" text-anchor="start">bigserial[19]</text><polygon fill="#fff" stroke="none" points="297 -145 297 -167 489 -167 489 -145 297 -145"/><polygon fill="none" stroke="#000" points="297 -145 297 -167 489 -167 489 -145 297 -145"/><text x="317" y="-153.2" font-family="Helvetica,sans-Serif" font-size="11" text-anchor="start">decompiler_version</text><polygon fill="none" stroke="#000" points="489 -145 489 -167 599 -167 599 -145 489 -145"/><text x="492" y="-153.2" font-family="Helvetica,sans-Serif" font-size="11" text-anchor="start">varchar[255]</text><polygon fill="none" stroke="#000" points="297 -123 297 -145 489 -145 489 -123 297 -123"/><text x="317" y="-131.2" font-family="Helvetica,sans-Serif" font-size="11" text-anchor="start">decompiled_source_code</text><polygon fill="none" stroke="#000" points="489 -123 489 -145 599 -145 599 -123 489 -123"/><text x="492" y="-131.2" font-family="Helvetica,sans-Serif" font-size="11" text-anchor="start">text[2147483647]</text><polygon fill="#fff" stroke="none" points="297 -101 297 -123 489 -123 489 -101 297 -101"/><polygon fill="none" stroke="#000" points="297 -101 297 -123 489 -123 489 -101 297 -101"/><image width="11" height="12" x="302" y="-118" preserveAspectRatio="xMinYMin meet" xlink:href="../../images/foreignKeys.png"/><text x="317" y="-109.2" font-family="Helvetica,sans-Serif" font-size="11" text-anchor="start">address_hash</text><polygon fill="none" stroke="#000" points="489 -101 489 -123 599 -123 599 -101 489 -101"/><text x="492" y="-109.2" font-family="Helvetica,sans-Serif" font-size="11" text-anchor="start">bytea[2147483647]</text><polygon fill="none" stroke="#000" points="297 -79 297 -101 489 -101 489 -79 297 -79"/><text x="317" y="-87.2" font-family="Helvetica,sans-Serif" font-size="11" text-anchor="start">inserted_at</text><polygon fill="none" stroke="#000" points="489 -79 489 -101 599 -101 599 -79 489 -79"/><text x="492" y="-87.2" font-family="Helvetica,sans-Serif" font-size="11" text-anchor="start">timestamp[29,6]</text><polygon fill="none" stroke="#000" points="297 -57 297 -79 489 -79 489 -57 297 -57"/><text x="317" y="-65.2" font-family="Helvetica,sans-Serif" font-size="11" text-anchor="start">updated_at</text><polygon fill="none" stroke="#000" points="489 -57 489 -79 599 -79 599 -57 489 -57"/><text x="492" y="-65.2" font-family="Helvetica,sans-Serif" font-size="11" text-anchor="start">timestamp[29,6]</text><polygon fill="#fff" stroke="none" points="297 -39 297 -57 383 -57 383 -39 297 -39"/><polygon fill="none" stroke="#000" points="297 -39 297 -57 383 -57 383 -39 297 -39"/><text x="300" y="-45.2" font-family="Helvetica,sans-Serif" font-size="11" text-anchor="start">&lt; 1</text><polygon fill="#fff" stroke="none" points="383 -39 383 -57 489 -57 489 -39 383 -39"/><polygon fill="none" stroke="#000" points="383 -39 383 -57 489 -57 489 -39 383 -39"/><text x="450" y="-45.2" font-family="Helvetica,sans-Serif" font-size="11" text-anchor="start">0 rows</text><polygon fill="#fff" stroke="none" points="489 -39 489 -57 599 -57 599 -39 489 -39"/><polygon fill="none" stroke="#000" points="489 -39 489 -57 599 -57 599 -39 489 -39"/><text x="579" y="-45.2" font-family="Helvetica,sans-Serif" font-size="11" text-anchor="start">0 &gt;</text><polygon fill="none" stroke="#000" stroke-width="2" points="296 -38 296 -212 600 -212 600 -38 296 -38"/></a></g></g><g id="node2" class="node"><title>addresses</title><g id="a_node2"><a target="_top" xlink:href="../../tables/addresses.html" xlink:title="addresses"><polygon fill="#fff" stroke="none" points="8 -43 8 -167 246 -167 246 -43 8 -43"/><polygon fill="#f5f5f5" stroke="none" points="8 -145 8 -167 246 -167 246 -145 8 -145"/><polygon fill="none" stroke="#000" points="8 -145 8 -167 246 -167 246 -145 8 -145"/><text x="13" y="-154.2" font-family="Helvetica,sans-Serif" font-size="11" font-weight="bold" text-anchor="start">addresses</text><text x="207" y="-153.2" font-family="Helvetica,sans-Serif" font-size="11" text-anchor="start">[table]</text><polygon fill="#fff" stroke="none" points="8 -123 8 -145 246 -145 246 -123 8 -123"/><polygon fill="none" stroke="#000" points="8 -123 8 -145 246 -145 246 -123 8 -123"/><text x="28" y="-131.2" font-family="Helvetica,sans-Serif" font-size="11" text-anchor="start">fetched_coin_balance</text><polygon fill="none" stroke="#000" points="8 -101 8 -123 246 -123 246 -101 8 -101"/><image width="11" height="12" x="13" y="-118" preserveAspectRatio="xMinYMin meet" xlink:href="../../images/primaryKeys.png"/><text x="28" y="-109.2" font-family="Helvetica,sans-Serif" font-size="11" text-anchor="start">hash</text><polygon fill="#fff" stroke="none" points="8 -79 8 -101 246 -101 246 -79 8 -79"/><polygon fill="none" stroke="#000" points="8 -79 8 -101 246 -101 246 -79 8 -79"/><text x="28" y="-87.2" font-family="Helvetica,sans-Serif" font-size="11" text-anchor="start">inserted_at</text><polygon fill="none" stroke="#000" points="8 -61 8 -79 246 -79 246 -61 8 -61"/><text x="11" y="-67.2" font-family="Helvetica,sans-Serif" font-size="11" text-anchor="start">...</text><polygon fill="#fff" stroke="none" points="8 -43 8 -61 97 -61 97 -43 8 -43"/><polygon fill="none" stroke="#000" points="8 -43 8 -61 97 -61 97 -43 8 -43"/><polygon fill="#fff" stroke="none" points="97 -43 97 -61 177 -61 177 -43 97 -43"/><polygon fill="none" stroke="#000" points="97 -43 97 -61 177 -61 177 -43 97 -43"/><text x="138" y="-49.2" font-family="Helvetica,sans-Serif" font-size="11" text-anchor="start">2 rows</text><polygon fill="#fff" stroke="none" points="177 -43 177 -61 246 -61 246 -43 177 -43"/><polygon fill="none" stroke="#000" points="177 -43 177 -61 246 -61 246 -43 177 -43"/><text x="219" y="-49.2" font-family="Helvetica,sans-Serif" font-size="11" text-anchor="start">19 &gt;</text></a></g></g><g id="edge1" class="edge"><title>decompiled_smart_contracts:address_hash:w-&gt;addresses:hash:e</title><path fill="none" stroke="#000" d="M281.491,-112C270.177,-112 262.993,-112 247,-112"/><polygon fill="#000" stroke="#000" points="288 -112 296 -115.6 292 -112 296 -112 296 -112 296 -112 292 -112 296 -108.4 288 -112 288 -112"/><ellipse cx="284.8" cy="-112" fill="none" stroke="#000" rx="3.2" ry="3.2"/></g></g></svg>