<svg xmlns="http://www.w3.org/2000/svg" xmlns:xlink="http://www.w3.org/1999/xlink" width="1492" height="935pt" viewBox="0 0 1119 935.46"><g id="graph0" class="graph" transform="scale(1 1) rotate(0) translate(4 931.458)"><title>twoDegreesRelationshipsDiagram</title><polygon fill="#fff" stroke="none" points="-4 4 -4 -931.458 1115 -931.458 1115 4 -4 4"/><text x="74.5" y="-7.2" font-family="Helvetica,sans-Serif" font-size="11" text-anchor="middle">Generated by SchemaSpy</text><g id="node1" class="node"><title>address_coin_balances</title><g id="a_node1"><a target="_top" xlink:href="../../tables/address_coin_balances.html" xlink:title="address_coin_balances"><polygon fill="#fff" stroke="none" points="360 -865.458 360 -923.458 536 -923.458 536 -865.458 360 -865.458"/><polygon fill="#f5f5f5" stroke="none" points="360 -901.458 360 -923.458 536 -923.458 536 -901.458 360 -901.458"/><polygon fill="none" stroke="#000" points="360 -901.458 360 -923.458 536 -923.458 536 -901.458 360 -901.458"/><text x="365" y="-910.658" font-family="Helvetica,sans-Serif" font-size="11" font-weight="bold" text-anchor="start">address_coin_balances</text><text x="497" y="-909.658" font-family="Helvetica,sans-Serif" font-size="11" text-anchor="start">[table]</text><polygon fill="none" stroke="#000" points="360 -883.458 360 -901.458 536 -901.458 536 -883.458 360 -883.458"/><text x="363" y="-889.658" font-family="Helvetica,sans-Serif" font-size="11" text-anchor="start">...</text><polygon fill="#fff" stroke="none" points="360 -865.458 360 -883.458 432 -883.458 432 -865.458 360 -865.458"/><polygon fill="none" stroke="#000" points="360 -865.458 360 -883.458 432 -883.458 432 -865.458 360 -865.458"/><text x="363" y="-871.658" font-family="Helvetica,sans-Serif" font-size="11" text-anchor="start">&lt; 1</text><polygon fill="#fff" stroke="none" points="432 -865.458 432 -883.458 498 -883.458 498 -865.458 432 -865.458"/><polygon fill="none" stroke="#000" points="432 -865.458 432 -883.458 498 -883.458 498 -865.458 432 -865.458"/><text x="459" y="-871.658" font-family="Helvetica,sans-Serif" font-size="11" text-anchor="start">3 rows</text><polygon fill="#fff" stroke="none" points="498 -865.458 498 -883.458 536 -883.458 536 -865.458 498 -865.458"/><polygon fill="none" stroke="#000" points="498 -865.458 498 -883.458 536 -883.458 536 -865.458 498 -865.458"/></a></g></g><g id="node2" class="node"><title>addresses</title><g id="a_node2"><a target="_top" xlink:href="../../tables/addresses.html" xlink:title="addresses"><polygon fill="#fff" stroke="none" points="8 -384.458 8 -508.458 246 -508.458 246 -384.458 8 -384.458"/><polygon fill="#f5f5f5" stroke="none" points="8 -486.458 8 -508.458 246 -508.458 246 -486.458 8 -486.458"/><polygon fill="none" stroke="#000" points="8 -486.458 8 -508.458 246 -508.458 246 -486.458 8 -486.458"/><text x="13" y="-495.658" font-family="Helvetica,sans-Serif" font-size="11" font-weight="bold" text-anchor="start">addresses</text><text x="207" y="-494.658" font-family="Helvetica,sans-Serif" font-size="11" text-anchor="start">[table]</text><polygon fill="#fff" stroke="none" points="8 -464.458 8 -486.458 246 -486.458 246 -464.458 8 -464.458"/><polygon fill="none" stroke="#000" points="8 -464.458 8 -486.458 246 -486.458 246 -464.458 8 -464.458"/><text x="28" y="-472.658" font-family="Helvetica,sans-Serif" font-size="11" text-anchor="start">fetched_coin_balance</text><polygon fill="none" stroke="#000" points="8 -442.458 8 -464.458 246 -464.458 246 -442.458 8 -442.458"/><image width="11" height="12" x="13" y="-459.458" preserveAspectRatio="xMinYMin meet" xlink:href="../../images/primaryKeys.png"/><text x="28" y="-450.658" font-family="Helvetica,sans-Serif" font-size="11" text-anchor="start">hash</text><polygon fill="#fff" stroke="none" points="8 -420.458 8 -442.458 246 -442.458 246 -420.458 8 -420.458"/><polygon fill="none" stroke="#000" points="8 -420.458 8 -442.458 246 -442.458 246 -420.458 8 -420.458"/><text x="28" y="-428.658" font-family="Helvetica,sans-Serif" font-size="11" text-anchor="start">inserted_at</text><polygon fill="none" stroke="#000" points="8 -402.458 8 -420.458 246 -420.458 246 -402.458 8 -402.458"/><text x="11" y="-408.658" font-family="Helvetica,sans-Serif" font-size="11" text-anchor="start">...</text><polygon fill="#fff" stroke="none" points="8 -384.458 8 -402.458 97 -402.458 97 -384.458 8 -384.458"/><polygon fill="none" stroke="#000" points="8 -384.458 8 -402.458 97 -402.458 97 -384.458 8 -384.458"/><polygon fill="#fff" stroke="none" points="97 -384.458 97 -402.458 177 -402.458 177 -384.458 97 -384.458"/><polygon fill="none" stroke="#000" points="97 -384.458 97 -402.458 177 -402.458 177 -384.458 97 -384.458"/><text x="138" y="-390.658" font-family="Helvetica,sans-Serif" font-size="11" text-anchor="start">2 rows</text><polygon fill="#fff" stroke="none" points="177 -384.458 177 -402.458 246 -402.458 246 -384.458 177 -384.458"/><polygon fill="none" stroke="#000" points="177 -384.458 177 -402.458 246 -402.458 246 -384.458 177 -384.458"/><text x="219" y="-390.658" font-family="Helvetica,sans-Serif" font-size="11" text-anchor="start">19 &gt;</text></a></g></g><g id="edge1" class="edge"><title>address_coin_balances:elipses:w-&gt;addresses:hash:e</title><path fill="none" stroke="#000" d="M344.592,-891.957C318.368,-889.89 304.319,-880.901 287,-855.458 236.485,-781.244 336.774,-453.458 247,-453.458"/><polygon fill="#000" stroke="#000" points="351.005 -892.18 358.875 -896.055 355.002 -892.319 359 -892.458 359 -892.458 359 -892.458 355.002 -892.319 359.125 -888.86 351.005 -892.18 351.005 -892.18"/><ellipse cx="347.807" cy="-892.068" fill="none" stroke="#000" rx="3.2" ry="3.2"/></g><g id="node3" class="node"><title>address_coin_balances_daily</title><g id="a_node3"><a target="_top" xlink:href="../../tables/address_coin_balances_daily.html" xlink:title="address_coin_balances_daily"><polygon fill="#fff" stroke="none" points="343.5 -786.458 343.5 -844.458 552.5 -844.458 552.5 -786.458 343.5 -786.458"/><polygon fill="#f5f5f5" stroke="none" points="344 -822.458 344 -844.458 553 -844.458 553 -822.458 344 -822.458"/><polygon fill="none" stroke="#000" points="344 -822.458 344 -844.458 553 -844.458 553 -822.458 344 -822.458"/><text x="349" y="-831.658" font-family="Helvetica,sans-Serif" font-size="11" font-weight="bold" text-anchor="start">address_coin_balances_daily</text><text x="514" y="-830.658" font-family="Helvetica,sans-Serif" font-size="11" text-anchor="start">[table]</text><polygon fill="none" stroke="#000" points="344 -804.458 344 -822.458 553 -822.458 553 -804.458 344 -804.458"/><text x="347" y="-810.658" font-family="Helvetica,sans-Serif" font-size="11" text-anchor="start">...</text><polygon fill="#fff" stroke="none" points="344 -786.458 344 -804.458 432 -804.458 432 -786.458 344 -786.458"/><polygon fill="none" stroke="#000" points="344 -786.458 344 -804.458 432 -804.458 432 -786.458 344 -786.458"/><text x="347" y="-792.658" font-family="Helvetica,sans-Serif" font-size="11" text-anchor="start">&lt; 1</text><polygon fill="#fff" stroke="none" points="432 -786.458 432 -804.458 507 -804.458 507 -786.458 432 -786.458"/><polygon fill="none" stroke="#000" points="432 -786.458 432 -804.458 507 -804.458 507 -786.458 432 -786.458"/><text x="468" y="-792.658" font-family="Helvetica,sans-Serif" font-size="11" text-anchor="start">3 rows</text><polygon fill="#fff" stroke="none" points="507 -786.458 507 -804.458 553 -804.458 553 -786.458 507 -786.458"/><polygon fill="none" stroke="#000" points="507 -786.458 507 -804.458 553 -804.458 553 -786.458 507 -786.458"/></a></g></g><g id="edge2" class="edge"><title>address_coin_balances_daily:elipses:w-&gt;addresses:hash:e</title><path fill="none" stroke="#000" d="M328.562,-812.134C308.62,-808.014 299.892,-794.371 287,-772.458 250.773,-710.88 318.444,-453.458 247,-453.458"/><polygon fill="#000" stroke="#000" points="335.033 -812.727 342.671 -817.043 339.017 -813.092 343 -813.458 343 -813.458 343 -813.458 339.017 -813.092 343.329 -809.873 335.033 -812.727 335.033 -812.727"/><ellipse cx="331.847" cy="-812.435" fill="none" stroke="#000" rx="3.2" ry="3.2"/></g><g id="node4" class="node"><title>address_current_token_balances</title><g id="a_node4"><a target="_top" xlink:href="../../tables/address_current_token_balances.html" xlink:title="address_current_token_balances"><polygon fill="#fff" stroke="none" points="650 -734.458 650 -792.458 883 -792.458 883 -734.458 650 -734.458"/><polygon fill="#f5f5f5" stroke="none" points="650.5 -770.458 650.5 -792.458 883.5 -792.458 883.5 -770.458 650.5 -770.458"/><polygon fill="none" stroke="#000" points="650.5 -770.458 650.5 -792.458 883.5 -792.458 883.5 -770.458 650.5 -770.458"/><text x="655.5" y="-779.658" font-family="Helvetica,sans-Serif" font-size="11" font-weight="bold" text-anchor="start">address_current_token_balances</text><text x="844.5" y="-778.658" font-family="Helvetica,sans-Serif" font-size="11" text-anchor="start">[table]</text><polygon fill="none" stroke="#000" points="650.5 -752.458 650.5 -770.458 883.5 -770.458 883.5 -752.458 650.5 -752.458"/><text x="653.5" y="-758.658" font-family="Helvetica,sans-Serif" font-size="11" text-anchor="start">...</text><polygon fill="#fff" stroke="none" points="650.5 -734.458 650.5 -752.458 750.5 -752.458 750.5 -734.458 650.5 -734.458"/><polygon fill="none" stroke="#000" points="650.5 -734.458 650.5 -752.458 750.5 -752.458 750.5 -734.458 650.5 -734.458"/><text x="653.5" y="-740.658" font-family="Helvetica,sans-Serif" font-size="11" text-anchor="start">&lt; 2</text><polygon fill="#fff" stroke="none" points="750.5 -734.458 750.5 -752.458 831.5 -752.458 831.5 -734.458 750.5 -734.458"/><polygon fill="none" stroke="#000" points="750.5 -734.458 750.5 -752.458 831.5 -752.458 831.5 -734.458 750.5 -734.458"/><text x="792.5" y="-740.658" font-family="Helvetica,sans-Serif" font-size="11" text-anchor="start">0 rows</text><polygon fill="#fff" stroke="none" points="831.5 -734.458 831.5 -752.458 883.5 -752.458 883.5 -734.458 831.5 -734.458"/><polygon fill="none" stroke="#000" points="831.5 -734.458 831.5 -752.458 883.5 -752.458 883.5 -734.458 831.5 -734.458"/></a></g></g><g id="edge3" class="edge"><title>address_current_token_balances:elipses:w-&gt;addresses:hash:e</title><path fill="none" stroke="#000" d="M634.779,-761.729C563.011,-763.639 314.449,-774.259 287,-749.458 237.751,-704.958 313.376,-453.458 247,-453.458"/><polygon fill="#000" stroke="#000" points="641.501 -761.605 649.566 -765.057 645.501 -761.531 649.5 -761.458 649.5 -761.458 649.5 -761.458 645.501 -761.531 649.434 -757.858 641.501 -761.605 641.501 -761.605"/><ellipse cx="638.302" cy="-761.664" fill="none" stroke="#000" rx="3.2" ry="3.2"/></g><g id="node5" class="node"><title>tokens</title><g id="a_node5"><a target="_top" xlink:href="../../tables/tokens.html" xlink:title="tokens"><polygon fill="#fff" stroke="none" points="404 -680.458 404 -738.458 492 -738.458 492 -680.458 404 -680.458"/><polygon fill="#f5f5f5" stroke="none" points="404 -716.458 404 -738.458 492 -738.458 492 -716.458 404 -716.458"/><polygon fill="none" stroke="#000" points="404 -716.458 404 -738.458 492 -738.458 492 -716.458 404 -716.458"/><text x="409" y="-725.658" font-family="Helvetica,sans-Serif" font-size="11" font-weight="bold" text-anchor="start">tokens</text><text x="453" y="-724.658" font-family="Helvetica,sans-Serif" font-size="11" text-anchor="start">[table]</text><polygon fill="none" stroke="#000" points="404 -698.458 404 -716.458 492 -716.458 492 -698.458 404 -698.458"/><text x="407" y="-704.658" font-family="Helvetica,sans-Serif" font-size="11" text-anchor="start">...</text><polygon fill="#fff" stroke="none" points="404 -680.458 404 -698.458 427 -698.458 427 -680.458 404 -680.458"/><polygon fill="none" stroke="#000" points="404 -680.458 404 -698.458 427 -698.458 427 -680.458 404 -680.458"/><text x="407" y="-686.658" font-family="Helvetica,sans-Serif" font-size="11" text-anchor="start">&lt; 1</text><polygon fill="#fff" stroke="none" points="427 -680.458 427 -698.458 469 -698.458 469 -680.458 427 -680.458"/><polygon fill="none" stroke="#000" points="427 -680.458 427 -698.458 469 -698.458 469 -680.458 427 -680.458"/><text x="430" y="-686.658" font-family="Helvetica,sans-Serif" font-size="11" text-anchor="start">0 rows</text><polygon fill="#fff" stroke="none" points="469 -680.458 469 -698.458 492 -698.458 492 -680.458 469 -680.458"/><polygon fill="none" stroke="#000" points="469 -680.458 469 -698.458 492 -698.458 492 -680.458 469 -680.458"/><text x="472" y="-686.658" font-family="Helvetica,sans-Serif" font-size="11" text-anchor="start">3 &gt;</text></a></g></g><g id="edge4" class="edge"><title>address_current_token_balances:elipses:w-&gt;tokens:elipses:e</title><path fill="none" stroke="#000" d="M635.085,-759.472C594.212,-749.729 525.55,-707.458 493,-707.458"/><polygon fill="#000" stroke="#000" points="641.575 -760.366 649.009 -765.024 645.537 -760.912 649.5 -761.458 649.5 -761.458 649.5 -761.458 645.537 -760.912 649.991 -757.891 641.575 -760.366 641.575 -760.366"/><ellipse cx="638.405" cy="-759.929" fill="none" stroke="#000" rx="3.2" ry="3.2"/></g><g id="edge25" class="edge"><title>tokens:elipses:w-&gt;addresses:hash:e</title><path fill="none" stroke="#000" d="M392.478,-707.452C344.856,-707.342 320.212,-705.227 287,-666.458 224.336,-593.307 343.321,-453.458 247,-453.458"/><polygon fill="#000" stroke="#000" points="402.202 -703.457 402.198 -711.457 400.598 -711.456 400.602 -703.456 402.202 -703.457"/><polyline fill="none" stroke="#000" points="403 -707.458 399 -707.455"/><ellipse cx="395.8" cy="-707.454" fill="none" stroke="#000" rx="3.2" ry="3.2"/></g><g id="node6" class="node"><title>address_token_balances</title><g id="a_node6"><a target="_top" xlink:href="../../tables/address_token_balances.html" xlink:title="address_token_balances"><polygon fill="#fff" stroke="none" points="674 -654.458 674 -712.458 859 -712.458 859 -654.458 674 -654.458"/><polygon fill="#f5f5f5" stroke="none" points="674.5 -690.458 674.5 -712.458 859.5 -712.458 859.5 -690.458 674.5 -690.458"/><polygon fill="none" stroke="#000" points="674.5 -690.458 674.5 -712.458 859.5 -712.458 859.5 -690.458 674.5 -690.458"/><text x="679.5" y="-699.658" font-family="Helvetica,sans-Serif" font-size="11" font-weight="bold" text-anchor="start">address_token_balances</text><text x="820.5" y="-698.658" font-family="Helvetica,sans-Serif" font-size="11" text-anchor="start">[table]</text><polygon fill="none" stroke="#000" points="674.5 -672.458 674.5 -690.458 859.5 -690.458 859.5 -672.458 674.5 -672.458"/><text x="677.5" y="-678.658" font-family="Helvetica,sans-Serif" font-size="11" text-anchor="start">...</text><polygon fill="#fff" stroke="none" points="674.5 -654.458 674.5 -672.458 750.5 -672.458 750.5 -654.458 674.5 -654.458"/><polygon fill="none" stroke="#000" points="674.5 -654.458 674.5 -672.458 750.5 -672.458 750.5 -654.458 674.5 -654.458"/><text x="677.5" y="-660.658" font-family="Helvetica,sans-Serif" font-size="11" text-anchor="start">&lt; 2</text><polygon fill="#fff" stroke="none" points="750.5 -654.458 750.5 -672.458 819.5 -672.458 819.5 -654.458 750.5 -654.458"/><polygon fill="none" stroke="#000" points="750.5 -654.458 750.5 -672.458 819.5 -672.458 819.5 -654.458 750.5 -654.458"/><text x="780.5" y="-660.658" font-family="Helvetica,sans-Serif" font-size="11" text-anchor="start">0 rows</text><polygon fill="#fff" stroke="none" points="819.5 -654.458 819.5 -672.458 859.5 -672.458 859.5 -654.458 819.5 -654.458"/><polygon fill="none" stroke="#000" points="819.5 -654.458 819.5 -672.458 859.5 -672.458 859.5 -654.458 819.5 -654.458"/></a></g></g><g id="edge5" class="edge"><title>address_token_balances:elipses:w-&gt;addresses:hash:e</title><path fill="none" stroke="#000" d="M658.959,-680.744C641.081,-678.838 632.308,-673.563 609,-670.458 537.743,-660.964 340.689,-687.261 287,-639.458 223.848,-583.229 331.557,-453.458 247,-453.458"/><polygon fill="#000" stroke="#000" points="665.51 -681.066 673.324 -685.053 669.505 -681.262 673.5 -681.458 673.5 -681.458 673.5 -681.458 669.505 -681.262 673.676 -677.862 665.51 -681.066 665.51 -681.066"/><ellipse cx="662.313" cy="-680.909" fill="none" stroke="#000" rx="3.2" ry="3.2"/></g><g id="edge6" class="edge"><title>address_token_balances:elipses:w-&gt;tokens:elipses:e</title><path fill="none" stroke="#000" d="M659.007,-681.75C589.905,-684.606 568.985,-707.458 493,-707.458"/><polygon fill="#000" stroke="#000" points="665.502 -681.619 673.573 -685.057 669.501 -681.538 673.5 -681.458 673.5 -681.458 673.5 -681.458 669.501 -681.538 673.427 -677.858 665.502 -681.619 665.502 -681.619"/><ellipse cx="662.302" cy="-681.683" fill="none" stroke="#000" rx="3.2" ry="3.2"/></g><g id="node7" class="node"><title>block_rewards</title><g id="a_node7"><a target="_top" xlink:href="../../tables/block_rewards.html" xlink:title="block_rewards"><polygon fill="#fff" stroke="none" points="701.5 -493.458 701.5 -551.458 831.5 -551.458 831.5 -493.458 701.5 -493.458"/><polygon fill="#f5f5f5" stroke="none" points="701.5 -529.458 701.5 -551.458 831.5 -551.458 831.5 -529.458 701.5 -529.458"/><polygon fill="none" stroke="#000" points="701.5 -529.458 701.5 -551.458 831.5 -551.458 831.5 -529.458 701.5 -529.458"/><text x="706.5" y="-538.658" font-family="Helvetica,sans-Serif" font-size="11" font-weight="bold" text-anchor="start">block_rewards</text><text x="792.5" y="-537.658" font-family="Helvetica,sans-Serif" font-size="11" text-anchor="start">[table]</text><polygon fill="none" stroke="#000" points="701.5 -511.458 701.5 -529.458 831.5 -529.458 831.5 -511.458 701.5 -511.458"/><text x="704.5" y="-517.658" font-family="Helvetica,sans-Serif" font-size="11" text-anchor="start">...</text><polygon fill="#fff" stroke="none" points="701.5 -493.458 701.5 -511.458 750.5 -511.458 750.5 -493.458 701.5 -493.458"/><polygon fill="none" stroke="#000" points="701.5 -493.458 701.5 -511.458 750.5 -511.458 750.5 -493.458 701.5 -493.458"/><text x="704.5" y="-499.658" font-family="Helvetica,sans-Serif" font-size="11" text-anchor="start">&lt; 2</text><polygon fill="#fff" stroke="none" points="750.5 -493.458 750.5 -511.458 805.5 -511.458 805.5 -493.458 750.5 -493.458"/><polygon fill="none" stroke="#000" points="750.5 -493.458 750.5 -511.458 805.5 -511.458 805.5 -493.458 750.5 -493.458"/><text x="766.5" y="-499.658" font-family="Helvetica,sans-Serif" font-size="11" text-anchor="start">0 rows</text><polygon fill="#fff" stroke="none" points="805.5 -493.458 805.5 -511.458 831.5 -511.458 831.5 -493.458 805.5 -493.458"/><polygon fill="none" stroke="#000" points="805.5 -493.458 805.5 -511.458 831.5 -511.458 831.5 -493.458 805.5 -493.458"/></a></g></g><g id="edge7" class="edge"><title>block_rewards:elipses:w-&gt;addresses:hash:e</title><path fill="none" stroke="#000" d="M685.789,-521.88C654.07,-528.511 647.795,-556.434 609,-565.458 539.305,-581.669 345.491,-606.677 287,-565.458 243.794,-535.009 299.857,-453.458 247,-453.458"/><polygon fill="#000" stroke="#000" points="692.537 -521.228 700.847 -524.041 696.519 -520.843 700.5 -520.458 700.5 -520.458 700.5 -520.458 696.519 -520.843 700.153 -516.874 692.537 -521.228 692.537 -521.228"/><ellipse cx="689.352" cy="-521.536" fill="none" stroke="#000" rx="3.2" ry="3.2"/></g><g id="node8" class="node"><title>blocks</title><g id="a_node8"><a target="_top" xlink:href="../../tables/blocks.html" xlink:title="blocks"><polygon fill="#fff" stroke="none" points="404 -299.458 404 -357.458 492 -357.458 492 -299.458 404 -299.458"/><polygon fill="#f5f5f5" stroke="none" points="404 -335.458 404 -357.458 492 -357.458 492 -335.458 404 -335.458"/><polygon fill="none" stroke="#000" points="404 -335.458 404 -357.458 492 -357.458 492 -335.458 404 -335.458"/><text x="409" y="-344.658" font-family="Helvetica,sans-Serif" font-size="11" font-weight="bold" text-anchor="start">blocks</text><text x="453" y="-343.658" font-family="Helvetica,sans-Serif" font-size="11" text-anchor="start">[table]</text><polygon fill="none" stroke="#000" points="404 -317.458 404 -335.458 492 -335.458 492 -317.458 404 -317.458"/><text x="407" y="-323.658" font-family="Helvetica,sans-Serif" font-size="11" text-anchor="start">...</text><polygon fill="#fff" stroke="none" points="404 -299.458 404 -317.458 427 -317.458 427 -299.458 404 -299.458"/><polygon fill="none" stroke="#000" points="404 -299.458 404 -317.458 427 -317.458 427 -299.458 404 -299.458"/><text x="407" y="-305.658" font-family="Helvetica,sans-Serif" font-size="11" text-anchor="start">&lt; 1</text><polygon fill="#fff" stroke="none" points="427 -299.458 427 -317.458 469 -317.458 469 -299.458 427 -299.458"/><polygon fill="none" stroke="#000" points="427 -299.458 427 -317.458 469 -317.458 469 -299.458 427 -299.458"/><text x="430" y="-305.658" font-family="Helvetica,sans-Serif" font-size="11" text-anchor="start">3 rows</text><polygon fill="#fff" stroke="none" points="469 -299.458 469 -317.458 492 -317.458 492 -299.458 469 -299.458"/><polygon fill="none" stroke="#000" points="469 -299.458 469 -317.458 492 -317.458 492 -299.458 469 -299.458"/><text x="472" y="-305.658" font-family="Helvetica,sans-Serif" font-size="11" text-anchor="start">8 &gt;</text></a></g></g><g id="edge8" class="edge"><title>block_rewards:elipses:w-&gt;blocks:elipses:e</title><path fill="none" stroke="#000" d="M686.036,-519.078C627.736,-506.765 665.743,-415.114 609,-368.458 566.648,-333.634 547.831,-326.458 493,-326.458"/><polygon fill="#000" stroke="#000" points="692.536 -519.698 700.158 -524.041 696.518 -520.078 700.5 -520.458 700.5 -520.458 700.5 -520.458 696.518 -520.078 700.842 -516.874 692.536 -519.698 692.536 -519.698"/><ellipse cx="689.351" cy="-519.394" fill="none" stroke="#000" rx="3.2" ry="3.2"/></g><g id="edge9" class="edge"><title>blocks:elipses:w-&gt;addresses:hash:e</title><path fill="none" stroke="#000" d="M388.436,-326.613C344.123,-327.687 323.723,-334.982 287,-368.458 256.144,-396.585 288.752,-453.458 247,-453.458"/><polygon fill="#000" stroke="#000" points="395 -326.543 403.038 -330.057 399 -326.5 403 -326.458 403 -326.458 403 -326.458 399 -326.5 402.962 -322.858 395 -326.543 395 -326.543"/><ellipse cx="391.801" cy="-326.577" fill="none" stroke="#000" rx="3.2" ry="3.2"/></g><g id="node9" class="node"><title>decompiled_smart_contracts</title><g id="a_node9"><a target="_top" xlink:href="../../tables/decompiled_smart_contracts.html" xlink:title="decompiled_smart_contracts"><polygon fill="#fff" stroke="none" points="295 -378.458 295 -554.458 601 -554.458 601 -378.458 295 -378.458"/><polygon fill="#f5f5f5" stroke="none" points="297 -530.458 297 -552.458 599 -552.458 599 -530.458 297 -530.458"/><polygon fill="none" stroke="#000" points="297 -530.458 297 -552.458 599 -552.458 599 -530.458 297 -530.458"/><text x="302" y="-539.658" font-family="Helvetica,sans-Serif" font-size="11" font-weight="bold" text-anchor="start">decompiled_smart_contracts</text><text x="560" y="-538.658" font-family="Helvetica,sans-Serif" font-size="11" text-anchor="start">[table]</text><polygon fill="none" stroke="#000" points="297 -508.458 297 -530.458 489 -530.458 489 -508.458 297 -508.458"/><image width="11" height="12" x="302" y="-525.458" preserveAspectRatio="xMinYMin meet" xlink:href="../../images/primaryKeys.png"/><text x="317" y="-516.658" font-family="Helvetica,sans-Serif" font-size="11" text-anchor="start">id</text><polygon fill="none" stroke="#000" points="489 -508.458 489 -530.458 599 -530.458 599 -508.458 489 -508.458"/><text x="492" y="-516.658" font-family="Helvetica,sans-Serif" font-size="11" text-anchor="start">bigserial[19]</text><polygon fill="#fff" stroke="none" points="297 -486.458 297 -508.458 489 -508.458 489 -486.458 297 -486.458"/><polygon fill="none" stroke="#000" points="297 -486.458 297 -508.458 489 -508.458 489 -486.458 297 -486.458"/><text x="317" y="-494.658" font-family="Helvetica,sans-Serif" font-size="11" text-anchor="start">decompiler_version</text><polygon fill="none" stroke="#000" points="489 -486.458 489 -508.458 599 -508.458 599 -486.458 489 -486.458"/><text x="492" y="-494.658" font-family="Helvetica,sans-Serif" font-size="11" text-anchor="start">varchar[255]</text><polygon fill="none" stroke="#000" points="297 -464.458 297 -486.458 489 -486.458 489 -464.458 297 -464.458"/><text x="317" y="-472.658" font-family="Helvetica,sans-Serif" font-size="11" text-anchor="start">decompiled_source_code</text><polygon fill="none" stroke="#000" points="489 -464.458 489 -486.458 599 -486.458 599 -464.458 489 -464.458"/><text x="492" y="-472.658" font-family="Helvetica,sans-Serif" font-size="11" text-anchor="start">text[2147483647]</text><polygon fill="#fff" stroke="none" points="297 -442.458 297 -464.458 489 -464.458 489 -442.458 297 -442.458"/><polygon fill="none" stroke="#000" points="297 -442.458 297 -464.458 489 -464.458 489 -442.458 297 -442.458"/><image width="11" height="12" x="302" y="-459.458" preserveAspectRatio="xMinYMin meet" xlink:href="../../images/foreignKeys.png"/><text x="317" y="-450.658" font-family="Helvetica,sans-Serif" font-size="11" text-anchor="start">address_hash</text><polygon fill="none" stroke="#000" points="489 -442.458 489 -464.458 599 -464.458 599 -442.458 489 -442.458"/><text x="492" y="-450.658" font-family="Helvetica,sans-Serif" font-size="11" text-anchor="start">bytea[2147483647]</text><polygon fill="none" stroke="#000" points="297 -420.458 297 -442.458 489 -442.458 489 -420.458 297 -420.458"/><text x="317" y="-428.658" font-family="Helvetica,sans-Serif" font-size="11" text-anchor="start">inserted_at</text><polygon fill="none" stroke="#000" points="489 -420.458 489 -442.458 599 -442.458 599 -420.458 489 -420.458"/><text x="492" y="-428.658" font-family="Helvetica,sans-Serif" font-size="11" text-anchor="start">timestamp[29,6]</text><polygon fill="none" stroke="#000" points="297 -398.458 297 -420.458 489 -420.458 489 -398.458 297 -398.458"/><text x="317" y="-406.658" font-family="Helvetica,sans-Serif" font-size="11" text-anchor="start">updated_at</text><polygon fill="none" stroke="#000" points="489 -398.458 489 -420.458 599 -420.458 599 -398.458 489 -398.458"/><text x="492" y="-406.658" font-family="Helvetica,sans-Serif" font-size="11" text-anchor="start">timestamp[29,6]</text><polygon fill="#fff" stroke="none" points="297 -380.458 297 -398.458 383 -398.458 383 -380.458 297 -380.458"/><polygon fill="none" stroke="#000" points="297 -380.458 297 -398.458 383 -398.458 383 -380.458 297 -380.458"/><text x="300" y="-386.658" font-family="Helvetica,sans-Serif" font-size="11" text-anchor="start">&lt; 1</text><polygon fill="#fff" stroke="none" points="383 -380.458 383 -398.458 489 -398.458 489 -380.458 383 -380.458"/><polygon fill="none" stroke="#000" points="383 -380.458 383 -398.458 489 -398.458 489 -380.458 383 -380.458"/><text x="450" y="-386.658" font-family="Helvetica,sans-Serif" font-size="11" text-anchor="start">0 rows</text><polygon fill="#fff" stroke="none" points="489 -380.458 489 -398.458 599 -398.458 599 -380.458 489 -380.458"/><polygon fill="none" stroke="#000" points="489 -380.458 489 -398.458 599 -398.458 599 -380.458 489 -380.458"/><text x="579" y="-386.658" font-family="Helvetica,sans-Serif" font-size="11" text-anchor="start">0 &gt;</text><polygon fill="none" stroke="#000" stroke-width="2" points="296 -379.458 296 -553.458 600 -553.458 600 -379.458 296 -379.458"/></a></g></g><g id="edge10" class="edge"><title>decompiled_smart_contracts:address_hash:w-&gt;addresses:hash:e</title><path fill="none" stroke="#000" d="M281.491,-453.458C270.177,-453.458 262.993,-453.458 247,-453.458"/><polygon fill="#000" stroke="#000" points="288 -453.458 296 -457.058 292 -453.458 296 -453.458 296 -453.458 296 -453.458 292 -453.458 296 -449.858 288 -453.458 288 -453.458"/><ellipse cx="284.8" cy="-453.458" fill="none" stroke="#000" rx="3.2" ry="3.2"/></g><g id="node10" class="node"><title>internal_transactions</title><g id="a_node10"><a target="_top" xlink:href="../../tables/internal_transactions.html" xlink:title="internal_transactions"><polygon fill="#fff" stroke="none" points="932 -590.458 932 -648.458 1103 -648.458 1103 -590.458 932 -590.458"/><polygon fill="#f5f5f5" stroke="none" points="932.5 -626.458 932.5 -648.458 1103.5 -648.458 1103.5 -626.458 932.5 -626.458"/><polygon fill="none" stroke="#000" points="932.5 -626.458 932.5 -648.458 1103.5 -648.458 1103.5 -626.458 932.5 -626.458"/><text x="937.5" y="-635.658" font-family="Helvetica,sans-Serif" font-size="11" font-weight="bold" text-anchor="start">internal_transactions</text><text x="1064.5" y="-634.658" font-family="Helvetica,sans-Serif" font-size="11" text-anchor="start">[table]</text><polygon fill="none" stroke="#000" points="932.5 -608.458 932.5 -626.458 1103.5 -626.458 1103.5 -608.458 932.5 -608.458"/><text x="935.5" y="-614.658" font-family="Helvetica,sans-Serif" font-size="11" text-anchor="start">...</text><polygon fill="#fff" stroke="none" points="932.5 -590.458 932.5 -608.458 1004.5 -608.458 1004.5 -590.458 932.5 -590.458"/><polygon fill="none" stroke="#000" points="932.5 -590.458 932.5 -608.458 1004.5 -608.458 1004.5 -590.458 932.5 -590.458"/><text x="935.5" y="-596.658" font-family="Helvetica,sans-Serif" font-size="11" text-anchor="start">&lt; 5</text><polygon fill="#fff" stroke="none" points="1004.5 -590.458 1004.5 -608.458 1065.5 -608.458 1065.5 -590.458 1004.5 -590.458"/><polygon fill="none" stroke="#000" points="1004.5 -590.458 1004.5 -608.458 1065.5 -608.458 1065.5 -590.458 1004.5 -590.458"/><text x="1031.5" y="-596.658" font-family="Helvetica,sans-Serif" font-size="11" text-anchor="start">1 row</text><polygon fill="#fff" stroke="none" points="1065.5 -590.458 1065.5 -608.458 1103.5 -608.458 1103.5 -590.458 1065.5 -590.458"/><polygon fill="none" stroke="#000" points="1065.5 -590.458 1065.5 -608.458 1103.5 -608.458 1103.5 -590.458 1065.5 -590.458"/></a></g></g><g id="edge12" class="edge"><title>internal_transactions:elipses:w-&gt;addresses:hash:e</title><path fill="none" stroke="#000" d="M916.892,-617.629C763.382,-620.999 396.339,-671.905 287,-586.458 238.364,-548.449 308.727,-453.458 247,-453.458"/><polygon fill="#000" stroke="#000" points="923.501 -617.552 931.542 -621.057 927.5 -617.505 931.5 -617.458 931.5 -617.458 931.5 -617.458 927.5 -617.505 931.458 -613.858 923.501 -617.552 923.501 -617.552"/><ellipse cx="920.301" cy="-617.589" fill="none" stroke="#000" rx="3.2" ry="3.2"/></g><g id="edge13" class="edge"><title>internal_transactions:elipses:w-&gt;addresses:hash:e</title><path fill="none" stroke="#000" d="M916.888,-617.055C763.348,-614.739 396.473,-661.804 287,-576.458 239.66,-539.551 307.026,-447.458 247,-453.458"/><polygon fill="#000" stroke="#000" points="923.503 -617.237 931.401 -621.056 927.502 -617.347 931.5 -617.458 931.5 -617.458 931.5 -617.458 927.502 -617.347 931.599 -613.859 923.503 -617.237 923.503 -617.237"/><ellipse cx="920.304" cy="-617.149" fill="none" stroke="#000" rx="3.2" ry="3.2"/></g><g id="edge14" class="edge"><title>internal_transactions:elipses:w-&gt;addresses:hash:e</title><path fill="none" stroke="#000" d="M916.888,-618.272C763.348,-627.739 396.473,-674.804 287,-589.458 239.66,-552.551 307.026,-460.458 247,-453.458"/><polygon fill="#000" stroke="#000" points="923.512 -617.903 931.7 -621.052 927.506 -617.68 931.5 -617.458 931.5 -617.458 931.5 -617.458 927.506 -617.68 931.3 -613.863 923.512 -617.903 923.512 -617.903"/><ellipse cx="920.317" cy="-618.081" fill="none" stroke="#000" rx="3.2" ry="3.2"/></g><g id="edge11" class="edge"><title>internal_transactions:elipses:w-&gt;blocks:elipses:e</title><path fill="none" stroke="#000" d="M917.129,-615.245C880.282,-601.328 928.958,-525.15 891,-483.458 858.996,-448.305 540.539,-326.458 493,-326.458"/><polygon fill="#000" stroke="#000" points="923.593 -616.24 930.952 -621.016 927.547 -616.849 931.5 -617.458 931.5 -617.458 931.5 -617.458 927.547 -616.849 932.048 -613.9 923.593 -616.24 923.593 -616.24"/><ellipse cx="920.43" cy="-615.753" fill="none" stroke="#000" rx="3.2" ry="3.2"/></g><g id="node11" class="node"><title>transactions</title><g id="a_node11"><a target="_top" xlink:href="../../tables/transactions.html" xlink:title="transactions"><polygon fill="#fff" stroke="none" points="706.5 -244.458 706.5 -302.458 826.5 -302.458 826.5 -244.458 706.5 -244.458"/><polygon fill="#f5f5f5" stroke="none" points="706.5 -280.458 706.5 -302.458 826.5 -302.458 826.5 -280.458 706.5 -280.458"/><polygon fill="none" stroke="#000" points="706.5 -280.458 706.5 -302.458 826.5 -302.458 826.5 -280.458 706.5 -280.458"/><text x="711.5" y="-289.658" font-family="Helvetica,sans-Serif" font-size="11" font-weight="bold" text-anchor="start">transactions</text><text x="787.5" y="-288.658" font-family="Helvetica,sans-Serif" font-size="11" text-anchor="start">[table]</text><polygon fill="none" stroke="#000" points="706.5 -262.458 706.5 -280.458 826.5 -280.458 826.5 -262.458 706.5 -262.458"/><text x="709.5" y="-268.658" font-family="Helvetica,sans-Serif" font-size="11" text-anchor="start">...</text><polygon fill="#fff" stroke="none" points="706.5 -244.458 706.5 -262.458 747.5 -262.458 747.5 -244.458 706.5 -244.458"/><polygon fill="none" stroke="#000" points="706.5 -244.458 706.5 -262.458 747.5 -262.458 747.5 -244.458 706.5 -244.458"/><text x="709.5" y="-250.658" font-family="Helvetica,sans-Serif" font-size="11" text-anchor="start">&lt; 4</text><polygon fill="#fff" stroke="none" points="747.5 -244.458 747.5 -262.458 793.5 -262.458 793.5 -244.458 747.5 -244.458"/><polygon fill="none" stroke="#000" points="747.5 -244.458 747.5 -262.458 793.5 -262.458 793.5 -244.458 747.5 -244.458"/><text x="759.5" y="-250.658" font-family="Helvetica,sans-Serif" font-size="11" text-anchor="start">1 row</text><polygon fill="#fff" stroke="none" points="793.5 -244.458 793.5 -262.458 826.5 -262.458 826.5 -244.458 793.5 -244.458"/><polygon fill="none" stroke="#000" points="793.5 -244.458 793.5 -262.458 826.5 -262.458 826.5 -244.458 793.5 -244.458"/><text x="806.5" y="-250.658" font-family="Helvetica,sans-Serif" font-size="11" text-anchor="start">4 &gt;</text></a></g></g><g id="edge15" class="edge"><title>internal_transactions:elipses:w-&gt;transactions:elipses:e</title><path fill="none" stroke="#000" d="M917.879,-611.726C887.229,-581.654 904.783,-441.916 891,-400.458 870.839,-339.818 891.403,-271.458 827.5,-271.458"/><polygon fill="#000" stroke="#000" points="924.126 -614.354 930.104 -620.776 927.813 -615.906 931.5 -617.458 931.5 -617.458 931.5 -617.458 927.813 -615.906 932.896 -614.139 924.126 -614.354 924.126 -614.354"/><ellipse cx="921.177" cy="-613.113" fill="none" stroke="#000" rx="3.2" ry="3.2"/></g><g id="edge27" class="edge"><title>transactions:elipses:w-&gt;addresses:hash:e</title><path fill="none" stroke="#000" d="M691.073,-271.191C588.573,-267.758 355.51,-233.227 287,-289.458 229.007,-337.056 322.026,-453.458 247,-453.458"/><polygon fill="#000" stroke="#000" points="697.501 -271.31 705.433 -275.057 701.501 -271.384 705.5 -271.458 705.5 -271.458 705.5 -271.458 701.501 -271.384 705.567 -267.858 697.501 -271.31 697.501 -271.31"/><ellipse cx="694.302" cy="-271.251" fill="none" stroke="#000" rx="3.2" ry="3.2"/></g><g id="edge28" class="edge"><title>transactions:elipses:w-&gt;addresses:hash:e</title><path fill="none" stroke="#000" d="M691.067,-270.396C588.527,-262.116 355.435,-231.071 287,-287.458 230.429,-334.069 320.3,-447.458 247,-453.458"/><polygon fill="#000" stroke="#000" points="697.522 -270.871 705.236 -275.048 701.511 -271.164 705.5 -271.458 705.5 -271.458 705.5 -271.458 701.511 -271.164 705.764 -267.867 697.522 -270.871 697.522 -270.871"/><ellipse cx="694.33" cy="-270.636" fill="none" stroke="#000" rx="3.2" ry="3.2"/></g><g id="edge29" class="edge"><title>transactions:elipses:w-&gt;addresses:hash:e</title><path fill="none" stroke="#000" d="M691.067,-272.174C588.527,-275.116 355.435,-244.071 287,-300.458 230.429,-347.069 320.3,-460.458 247,-453.458"/><polygon fill="#000" stroke="#000" points="697.51 -271.854 705.679 -275.053 701.505 -271.656 705.5 -271.458 705.5 -271.458 705.5 -271.458 701.505 -271.656 705.321 -267.862 697.51 -271.854 697.51 -271.854"/><ellipse cx="694.314" cy="-272.013" fill="none" stroke="#000" rx="3.2" ry="3.2"/></g><g id="edge26" class="edge"><title>transactions:elipses:w-&gt;blocks:elipses:e</title><path fill="none" stroke="#000" d="M690.974,-271.884C605.929,-277.004 585.507,-326.458 493,-326.458"/><polygon fill="#000" stroke="#000" points="697.503 -271.693 705.606 -275.056 701.502 -271.575 705.5 -271.458 705.5 -271.458 705.5 -271.458 701.502 -271.575 705.394 -267.859 697.503 -271.693 697.503 -271.693"/><ellipse cx="694.305" cy="-271.787" fill="none" stroke="#000" rx="3.2" ry="3.2"/></g><g id="node12" class="node"><title>logs</title><g id="a_node12"><a target="_top" xlink:href="../../tables/logs.html" xlink:title="logs"><polygon fill="#fff" stroke="none" points="978.5 -244.458 978.5 -302.458 1056.5 -302.458 1056.5 -244.458 978.5 -244.458"/><polygon fill="#f5f5f5" stroke="none" points="978.5 -280.458 978.5 -302.458 1056.5 -302.458 1056.5 -280.458 978.5 -280.458"/><polygon fill="none" stroke="#000" points="978.5 -280.458 978.5 -302.458 1056.5 -302.458 1056.5 -280.458 978.5 -280.458"/><text x="983.5" y="-289.658" font-family="Helvetica,sans-Serif" font-size="11" font-weight="bold" text-anchor="start">logs</text><text x="1017.5" y="-288.658" font-family="Helvetica,sans-Serif" font-size="11" text-anchor="start">[table]</text><polygon fill="none" stroke="#000" points="978.5 -262.458 978.5 -280.458 1056.5 -280.458 1056.5 -262.458 978.5 -262.458"/><text x="981.5" y="-268.658" font-family="Helvetica,sans-Serif" font-size="11" text-anchor="start">...</text><polygon fill="#fff" stroke="none" points="978.5 -244.458 978.5 -262.458 1001.5 -262.458 1001.5 -244.458 978.5 -244.458"/><polygon fill="none" stroke="#000" points="978.5 -244.458 978.5 -262.458 1001.5 -262.458 1001.5 -244.458 978.5 -244.458"/><text x="981.5" y="-250.658" font-family="Helvetica,sans-Serif" font-size="11" text-anchor="start">&lt; 3</text><polygon fill="#fff" stroke="none" points="1001.5 -244.458 1001.5 -262.458 1043.5 -262.458 1043.5 -244.458 1001.5 -244.458"/><polygon fill="none" stroke="#000" points="1001.5 -244.458 1001.5 -262.458 1043.5 -262.458 1043.5 -244.458 1001.5 -244.458"/><text x="1004.5" y="-250.658" font-family="Helvetica,sans-Serif" font-size="11" text-anchor="start">0 rows</text><polygon fill="#fff" stroke="none" points="1043.5 -244.458 1043.5 -262.458 1056.5 -262.458 1056.5 -244.458 1043.5 -244.458"/><polygon fill="none" stroke="#000" points="1043.5 -244.458 1043.5 -262.458 1056.5 -262.458 1056.5 -244.458 1043.5 -244.458"/></a></g></g><g id="edge16" class="edge"><title>logs:elipses:w-&gt;addresses:hash:e</title><path fill="none" stroke="#000" d="M963.067,-270.136C934.107,-264.418 926.682,-241.769 891,-234.458 825.211,-220.978 337.657,-212.369 287,-256.458 219.608,-315.112 336.342,-453.458 247,-453.458"/><polygon fill="#000" stroke="#000" points="969.533 -270.728 977.172 -275.043 973.517 -271.093 977.5 -271.458 977.5 -271.458 977.5 -271.458 973.517 -271.093 977.828 -267.873 969.533 -270.728 969.533 -270.728"/><ellipse cx="966.347" cy="-270.436" fill="none" stroke="#000" rx="3.2" ry="3.2"/></g><g id="edge17" class="edge"><title>logs:elipses:w-&gt;blocks:elipses:e</title><path fill="none" stroke="#000" d="M963.129,-273.251C930.365,-282.291 931.447,-322.955 891,-336.458 723.161,-392.49 669.945,-326.458 493,-326.458"/><polygon fill="#000" stroke="#000" points="969.562 -272.448 977.946 -275.03 973.531 -271.953 977.5 -271.458 977.5 -271.458 977.5 -271.458 973.531 -271.953 977.054 -267.885 969.562 -272.448 969.562 -272.448"/><ellipse cx="966.386" cy="-272.845" fill="none" stroke="#000" rx="3.2" ry="3.2"/></g><g id="edge18" class="edge"><title>logs:elipses:w-&gt;transactions:elipses:e</title><path fill="none" stroke="#000" d="M963.092,-271.458C908.004,-271.458 889.089,-271.458 827.5,-271.458"/><polygon fill="#000" stroke="#000" points="969.5 -271.458 977.5 -275.058 973.5 -271.458 977.5 -271.458 977.5 -271.458 977.5 -271.458 973.5 -271.458 977.5 -267.858 969.5 -271.458 969.5 -271.458"/><ellipse cx="966.3" cy="-271.458" fill="none" stroke="#000" rx="3.2" ry="3.2"/></g><g id="node13" class="node"><title>smart_contracts</title><g id="a_node13"><a target="_top" xlink:href="../../tables/smart_contracts.html" xlink:title="smart_contracts"><polygon fill="#fff" stroke="none" points="377.5 -142.458 377.5 -200.458 518.5 -200.458 518.5 -142.458 377.5 -142.458"/><polygon fill="#f5f5f5" stroke="none" points="378 -178.458 378 -200.458 519 -200.458 519 -178.458 378 -178.458"/><polygon fill="none" stroke="#000" points="378 -178.458 378 -200.458 519 -200.458 519 -178.458 378 -178.458"/><text x="383" y="-187.658" font-family="Helvetica,sans-Serif" font-size="11" font-weight="bold" text-anchor="start">smart_contracts</text><text x="480" y="-186.658" font-family="Helvetica,sans-Serif" font-size="11" text-anchor="start">[table]</text><polygon fill="none" stroke="#000" points="378 -160.458 378 -178.458 519 -178.458 519 -160.458 378 -160.458"/><text x="381" y="-166.658" font-family="Helvetica,sans-Serif" font-size="11" text-anchor="start">...</text><polygon fill="#fff" stroke="none" points="378 -142.458 378 -160.458 427 -160.458 427 -142.458 378 -142.458"/><polygon fill="none" stroke="#000" points="378 -142.458 378 -160.458 427 -160.458 427 -142.458 378 -142.458"/><text x="381" y="-148.658" font-family="Helvetica,sans-Serif" font-size="11" text-anchor="start">&lt; 1</text><polygon fill="#fff" stroke="none" points="427 -142.458 427 -160.458 482 -160.458 482 -142.458 427 -142.458"/><polygon fill="none" stroke="#000" points="427 -142.458 427 -160.458 482 -160.458 482 -142.458 427 -142.458"/><text x="443" y="-148.658" font-family="Helvetica,sans-Serif" font-size="11" text-anchor="start">0 rows</text><polygon fill="#fff" stroke="none" points="482 -142.458 482 -160.458 519 -160.458 519 -142.458 482 -142.458"/><polygon fill="none" stroke="#000" points="482 -142.458 482 -160.458 519 -160.458 519 -142.458 482 -142.458"/><text x="499" y="-148.658" font-family="Helvetica,sans-Serif" font-size="11" text-anchor="start">1 &gt;</text></a></g></g><g id="edge19" class="edge"><title>smart_contracts:elipses:w-&gt;addresses:hash:e</title><path fill="none" stroke="#000" d="M366.501,-169.65C329.158,-171.121 311.401,-181.443 287,-214.458 254.993,-257.763 300.85,-453.458 247,-453.458"/><polygon fill="#000" stroke="#000" points="376.127 -165.473 376.273 -173.472 374.674 -173.501 374.527 -165.502 376.127 -165.473"/><polyline fill="none" stroke="#000" points="377 -169.458 373.001 -169.531"/><ellipse cx="369.801" cy="-169.59" fill="none" stroke="#000" rx="3.2" ry="3.2"/></g><g id="node14" class="node"><title>token_transfers</title><g id="a_node14"><a target="_top" xlink:href="../../tables/token_transfers.html" xlink:title="token_transfers"><polygon fill="#fff" stroke="none" points="948.5 -79.458 948.5 -137.458 1086.5 -137.458 1086.5 -79.458 948.5 -79.458"/><polygon fill="#f5f5f5" stroke="none" points="948.5 -115.458 948.5 -137.458 1086.5 -137.458 1086.5 -115.458 948.5 -115.458"/><polygon fill="none" stroke="#000" points="948.5 -115.458 948.5 -137.458 1086.5 -137.458 1086.5 -115.458 948.5 -115.458"/><text x="953.5" y="-124.658" font-family="Helvetica,sans-Serif" font-size="11" font-weight="bold" text-anchor="start">token_transfers</text><text x="1047.5" y="-123.658" font-family="Helvetica,sans-Serif" font-size="11" text-anchor="start">[table]</text><polygon fill="none" stroke="#000" points="948.5 -97.458 948.5 -115.458 1086.5 -115.458 1086.5 -97.458 948.5 -97.458"/><text x="951.5" y="-103.658" font-family="Helvetica,sans-Serif" font-size="11" text-anchor="start">...</text><polygon fill="#fff" stroke="none" points="948.5 -79.458 948.5 -97.458 1001.5 -97.458 1001.5 -79.458 948.5 -79.458"/><polygon fill="none" stroke="#000" points="948.5 -79.458 948.5 -97.458 1001.5 -97.458 1001.5 -79.458 948.5 -79.458"/><text x="951.5" y="-85.658" font-family="Helvetica,sans-Serif" font-size="11" text-anchor="start">&lt; 5</text><polygon fill="#fff" stroke="none" points="1001.5 -79.458 1001.5 -97.458 1058.5 -97.458 1058.5 -79.458 1001.5 -79.458"/><polygon fill="none" stroke="#000" points="1001.5 -79.458 1001.5 -97.458 1058.5 -97.458 1058.5 -79.458 1001.5 -79.458"/><text x="1019.5" y="-85.658" font-family="Helvetica,sans-Serif" font-size="11" text-anchor="start">0 rows</text><polygon fill="#fff" stroke="none" points="1058.5 -79.458 1058.5 -97.458 1086.5 -97.458 1086.5 -79.458 1058.5 -79.458"/><polygon fill="none" stroke="#000" points="1058.5 -79.458 1058.5 -97.458 1086.5 -97.458 1086.5 -79.458 1058.5 -79.458"/></a></g></g><g id="edge21" class="edge"><title>token_transfers:elipses:w-&gt;addresses:hash:e</title><path fill="none" stroke="#000" d="M932.987,-106.317C648.726,-100.795 499.844,63.8734 287,-131.458 233.875,-180.211 319.106,-453.458 247,-453.458"/><polygon fill="#000" stroke="#000" points="939.5 -106.38 947.465 -110.057 943.5 -106.419 947.5 -106.458 947.5 -106.458 947.5 -106.458 943.5 -106.419 947.535 -102.858 939.5 -106.38 939.5 -106.38"/><ellipse cx="936.301" cy="-106.349" fill="none" stroke="#000" rx="3.2" ry="3.2"/></g><g id="edge22" class="edge"><title>token_transfers:elipses:w-&gt;addresses:hash:e</title><path fill="none" stroke="#000" d="M932.983,-106.025C648.643,-94.9094 499.456,66.401 287,-129.458 234.633,-177.733 318.224,-447.458 247,-453.458"/><polygon fill="#000" stroke="#000" points="939.504 -106.22 947.393 -110.056 943.502 -106.339 947.5 -106.458 947.5 -106.458 947.5 -106.458 943.502 -106.339 947.607 -102.859 939.504 -106.22 939.504 -106.22"/><ellipse cx="936.305" cy="-106.124" fill="none" stroke="#000" rx="3.2" ry="3.2"/></g><g id="edge23" class="edge"><title>token_transfers:elipses:w-&gt;addresses:hash:e</title><path fill="none" stroke="#000" d="M932.983,-106.662C648.643,-107.909 499.456,53.401 287,-142.458 234.633,-190.733 318.224,-460.458 247,-453.458"/><polygon fill="#000" stroke="#000" points="939.501 -106.57 947.551 -110.057 943.5 -106.514 947.5 -106.458 947.5 -106.458 947.5 -106.458 943.5 -106.514 947.449 -102.858 939.501 -106.57 939.501 -106.57"/><ellipse cx="936.301" cy="-106.616" fill="none" stroke="#000" rx="3.2" ry="3.2"/></g><g id="edge20" class="edge"><title>token_transfers:elipses:w-&gt;blocks:elipses:e</title><path fill="none" stroke="#000" d="M932.81,-107.933C864.812,-123.484 961.453,-257.813 891,-313.458 856.278,-340.881 537.246,-326.458 493,-326.458"/><polygon fill="#000" stroke="#000" points="939.54 -107.257 947.86 -110.04 943.52 -106.857 947.5 -106.458 947.5 -106.458 947.5 -106.458 943.52 -106.857 947.14 -102.876 939.54 -107.257 939.54 -107.257"/><ellipse cx="936.356" cy="-107.577" fill="none" stroke="#000" rx="3.2" ry="3.2"/></g><g id="edge24" class="edge"><title>token_transfers:elipses:w-&gt;transactions:elipses:e</title><path fill="none" stroke="#000" d="M933.065,-108.091C863.491,-125.227 912.863,-271.458 827.5,-271.458"/><polygon fill="#000" stroke="#000" points="939.551 -107.357 947.905 -110.035 943.525 -106.907 947.5 -106.458 947.5 -106.458 947.5 -106.458 943.525 -106.907 947.095 -102.88 939.551 -107.357 939.551 -107.357"/><ellipse cx="936.371" cy="-107.717" fill="none" stroke="#000" rx="3.2" ry="3.2"/></g></g></svg>