<svg xmlns="http://www.w3.org/2000/svg" xmlns:xlink="http://www.w3.org/1999/xlink" width="994pt" height="682pt" viewBox="0 0 994 682"><g id="graph0" class="graph" transform="scale(1 1) rotate(0) translate(4 678)"><title>oneDegreeRelationshipsDiagram</title><polygon fill="#fff" stroke="none" points="-4 4 -4 -678 990 -678 990 4 -4 4"/><text x="74.5" y="-7.2" font-family="Helvetica,sans-Serif" font-size="11" text-anchor="middle">Generated by SchemaSpy</text><g id="node1" class="node"><title>blocks</title><g id="a_node1"><a target="_top" xlink:href="../../tables/blocks.html" xlink:title="blocks"><polygon fill="#fff" stroke="none" points="295 -179 295 -413 417 -413 417 -179 295 -179"/><polygon fill="#f5f5f5" stroke="none" points="295 -391 295 -413 417 -413 417 -391 295 -391"/><polygon fill="none" stroke="#000" points="295 -391 295 -413 417 -413 417 -391 295 -391"/><text x="300" y="-400.2" font-family="Helvetica,sans-Serif" font-size="11" font-weight="bold" text-anchor="start">blocks</text><text x="378" y="-399.2" font-family="Helvetica,sans-Serif" font-size="11" text-anchor="start">[table]</text><polygon fill="#fff" stroke="none" points="295 -369 295 -391 417 -391 417 -369 295 -369"/><polygon fill="none" stroke="#000" points="295 -369 295 -391 417 -391 417 -369 295 -369"/><text x="315" y="-377.2" font-family="Helvetica,sans-Serif" font-size="11" text-anchor="start">consensus</text><polygon fill="none" stroke="#000" points="295 -347 295 -369 417 -369 417 -347 295 -347"/><image width="11" height="12" x="300" y="-364" preserveAspectRatio="xMinYMin meet" xlink:href="../../images/primaryKeys.png"/><text x="315" y="-355.2" font-family="Helvetica,sans-Serif" font-size="11" text-anchor="start">hash</text><polygon fill="#fff" stroke="none" points="295 -325 295 -347 417 -347 417 -325 295 -325"/><polygon fill="none" stroke="#000" points="295 -325 295 -347 417 -347 417 -325 295 -325"/><image width="11" height="12" x="300" y="-342" preserveAspectRatio="xMinYMin meet" xlink:href="../../images/foreignKeys.png"/><text x="315" y="-333.2" font-family="Helvetica,sans-Serif" font-size="11" text-anchor="start">miner_hash</text><polygon fill="#fff" stroke="none" points="295 -303 295 -325 417 -325 417 -303 295 -303"/><polygon fill="none" stroke="#000" points="295 -303 295 -325 417 -325 417 -303 295 -303"/><text x="315" y="-311.2" font-family="Helvetica,sans-Serif" font-size="11" text-anchor="start">number</text><polygon fill="#fff" stroke="none" points="295 -281 295 -303 417 -303 417 -281 295 -281"/><polygon fill="none" stroke="#000" points="295 -281 295 -303 417 -303 417 -281 295 -281"/><text x="315" y="-289.2" font-family="Helvetica,sans-Serif" font-size="11" text-anchor="start">parent_hash</text><polygon fill="#fff" stroke="none" points="295 -259 295 -281 417 -281 417 -259 295 -259"/><polygon fill="none" stroke="#000" points="295 -259 295 -281 417 -281 417 -259 295 -259"/><text x="315" y="-267.2" font-family="Helvetica,sans-Serif" font-size="11" text-anchor="start">timestamp</text><polygon fill="#fff" stroke="none" points="295 -237 295 -259 417 -259 417 -237 295 -237"/><polygon fill="none" stroke="#000" points="295 -237 295 -259 417 -259 417 -237 295 -237"/><text x="315" y="-245.2" font-family="Helvetica,sans-Serif" font-size="11" text-anchor="start">inserted_at</text><polygon fill="#fff" stroke="none" points="295 -215 295 -237 417 -237 417 -215 295 -215"/><polygon fill="none" stroke="#000" points="295 -215 295 -237 417 -237 417 -215 295 -215"/><text x="315" y="-223.2" font-family="Helvetica,sans-Serif" font-size="11" text-anchor="start">is_empty</text><polygon fill="none" stroke="#000" points="295 -197 295 -215 417 -215 417 -197 295 -197"/><text x="298" y="-203.2" font-family="Helvetica,sans-Serif" font-size="11" text-anchor="start">...</text><polygon fill="#fff" stroke="none" points="295 -179 295 -197 335 -197 335 -179 295 -179"/><polygon fill="none" stroke="#000" points="295 -179 295 -197 335 -197 335 -179 295 -179"/><text x="298" y="-185.2" font-family="Helvetica,sans-Serif" font-size="11" text-anchor="start">&lt; 1</text><polygon fill="#fff" stroke="none" points="335 -179 335 -197 385 -197 385 -179 335 -179"/><polygon fill="none" stroke="#000" points="335 -179 335 -197 385 -197 385 -179 335 -179"/><text x="346" y="-185.2" font-family="Helvetica,sans-Serif" font-size="11" text-anchor="start">3 rows</text><polygon fill="#fff" stroke="none" points="385 -179 385 -197 417 -197 417 -179 385 -179"/><polygon fill="none" stroke="#000" points="385 -179 385 -197 417 -197 417 -179 385 -179"/><text x="397" y="-185.2" font-family="Helvetica,sans-Serif" font-size="11" text-anchor="start">8 &gt;</text></a></g></g><g id="node2" class="node"><title>addresses</title><g id="a_node2"><a target="_top" xlink:href="../../tables/addresses.html" xlink:title="addresses"><polygon fill="#fff" stroke="none" points="8 -86 8 -210 246 -210 246 -86 8 -86"/><polygon fill="#f5f5f5" stroke="none" points="8 -188 8 -210 246 -210 246 -188 8 -188"/><polygon fill="none" stroke="#000" points="8 -188 8 -210 246 -210 246 -188 8 -188"/><text x="13" y="-197.2" font-family="Helvetica,sans-Serif" font-size="11" font-weight="bold" text-anchor="start">addresses</text><text x="207" y="-196.2" font-family="Helvetica,sans-Serif" font-size="11" text-anchor="start">[table]</text><polygon fill="#fff" stroke="none" points="8 -166 8 -188 246 -188 246 -166 8 -166"/><polygon fill="none" stroke="#000" points="8 -166 8 -188 246 -188 246 -166 8 -166"/><text x="28" y="-174.2" font-family="Helvetica,sans-Serif" font-size="11" text-anchor="start">fetched_coin_balance</text><polygon fill="none" stroke="#000" points="8 -144 8 -166 246 -166 246 -144 8 -144"/><image width="11" height="12" x="13" y="-161" preserveAspectRatio="xMinYMin meet" xlink:href="../../images/primaryKeys.png"/><text x="28" y="-152.2" font-family="Helvetica,sans-Serif" font-size="11" text-anchor="start">hash</text><polygon fill="#fff" stroke="none" points="8 -122 8 -144 246 -144 246 -122 8 -122"/><polygon fill="none" stroke="#000" points="8 -122 8 -144 246 -144 246 -122 8 -122"/><text x="28" y="-130.2" font-family="Helvetica,sans-Serif" font-size="11" text-anchor="start">inserted_at</text><polygon fill="none" stroke="#000" points="8 -104 8 -122 246 -122 246 -104 8 -104"/><text x="11" y="-110.2" font-family="Helvetica,sans-Serif" font-size="11" text-anchor="start">...</text><polygon fill="#fff" stroke="none" points="8 -86 8 -104 97 -104 97 -86 8 -86"/><polygon fill="none" stroke="#000" points="8 -86 8 -104 97 -104 97 -86 8 -86"/><polygon fill="#fff" stroke="none" points="97 -86 97 -104 177 -104 177 -86 97 -86"/><polygon fill="none" stroke="#000" points="97 -86 97 -104 177 -104 177 -86 97 -86"/><text x="138" y="-92.2" font-family="Helvetica,sans-Serif" font-size="11" text-anchor="start">2 rows</text><polygon fill="#fff" stroke="none" points="177 -86 177 -104 246 -104 246 -86 177 -86"/><polygon fill="none" stroke="#000" points="177 -86 177 -104 246 -104 246 -86 177 -86"/><text x="219" y="-92.2" font-family="Helvetica,sans-Serif" font-size="11" text-anchor="start">19 &gt;</text></a></g></g><g id="edge1" class="edge"><title>blocks:miner_hash:w-&gt;addresses:hash:e</title><path fill="none" stroke="#000" d="M279.663,-333.578C226.242,-312.1 324.431,-155 247,-155"/><polygon fill="#000" stroke="#000" points="286.112 -334.667 293.4 -339.55 290.056 -335.334 294 -336 294 -336 294 -336 290.056 -335.334 294.6 -332.45 286.112 -334.667 286.112 -334.667"/><ellipse cx="282.956" cy="-334.134" fill="none" stroke="#000" rx="3.2" ry="3.2"/></g><g id="node3" class="node"><title>logs</title><g id="a_node3"><a target="_top" xlink:href="../../tables/logs.html" xlink:title="logs"><polygon fill="#fff" stroke="none" points="740 -340 740 -670 978 -670 978 -340 740 -340"/><polygon fill="#f5f5f5" stroke="none" points="742 -646 742 -668 976 -668 976 -646 742 -646"/><polygon fill="none" stroke="#000" points="742 -646 742 -668 976 -668 976 -646 742 -646"/><text x="747" y="-655.2" font-family="Helvetica,sans-Serif" font-size="11" font-weight="bold" text-anchor="start">logs</text><text x="937" y="-654.2" font-family="Helvetica,sans-Serif" font-size="11" text-anchor="start">[table]</text><polygon fill="none" stroke="#000" points="742 -624 742 -646 866 -646 866 -624 742 -624"/><text x="762" y="-632.2" font-family="Helvetica,sans-Serif" font-size="11" text-anchor="start">data</text><polygon fill="none" stroke="#000" points="866 -624 866 -646 976 -646 976 -624 866 -624"/><text x="869" y="-632.2" font-family="Helvetica,sans-Serif" font-size="11" text-anchor="start">bytea[2147483647]</text><polygon fill="none" stroke="#000" points="742 -602 742 -624 866 -624 866 -602 742 -602"/><image width="11" height="12" x="747" y="-619" preserveAspectRatio="xMinYMin meet" xlink:href="../../images/primaryKeys.png"/><text x="762" y="-610.2" font-family="Helvetica,sans-Serif" font-size="11" text-anchor="start">index</text><polygon fill="none" stroke="#000" points="866 -602 866 -624 976 -624 976 -602 866 -602"/><text x="869" y="-610.2" font-family="Helvetica,sans-Serif" font-size="11" text-anchor="start">int4[10]</text><polygon fill="#fff" stroke="none" points="742 -580 742 -602 866 -602 866 -580 742 -580"/><polygon fill="none" stroke="#000" points="742 -580 742 -602 866 -602 866 -580 742 -580"/><text x="762" y="-588.2" font-family="Helvetica,sans-Serif" font-size="11" text-anchor="start">type</text><polygon fill="none" stroke="#000" points="866 -580 866 -602 976 -602 976 -580 866 -580"/><text x="869" y="-588.2" font-family="Helvetica,sans-Serif" font-size="11" text-anchor="start">varchar[255]</text><polygon fill="#fff" stroke="none" points="742 -558 742 -580 866 -580 866 -558 742 -558"/><polygon fill="none" stroke="#000" points="742 -558 742 -580 866 -580 866 -558 742 -558"/><text x="762" y="-566.2" font-family="Helvetica,sans-Serif" font-size="11" text-anchor="start">first_topic</text><polygon fill="none" stroke="#000" points="866 -558 866 -580 976 -580 976 -558 866 -558"/><text x="869" y="-566.2" font-family="Helvetica,sans-Serif" font-size="11" text-anchor="start">varchar[255]</text><polygon fill="#fff" stroke="none" points="742 -536 742 -558 866 -558 866 -536 742 -536"/><polygon fill="none" stroke="#000" points="742 -536 742 -558 866 -558 866 -536 742 -536"/><text x="762" y="-544.2" font-family="Helvetica,sans-Serif" font-size="11" text-anchor="start">second_topic</text><polygon fill="none" stroke="#000" points="866 -536 866 -558 976 -558 976 -536 866 -536"/><text x="869" y="-544.2" font-family="Helvetica,sans-Serif" font-size="11" text-anchor="start">varchar[255]</text><polygon fill="#fff" stroke="none" points="742 -514 742 -536 866 -536 866 -514 742 -514"/><polygon fill="none" stroke="#000" points="742 -514 742 -536 866 -536 866 -514 742 -514"/><text x="762" y="-522.2" font-family="Helvetica,sans-Serif" font-size="11" text-anchor="start">third_topic</text><polygon fill="none" stroke="#000" points="866 -514 866 -536 976 -536 976 -514 866 -514"/><text x="869" y="-522.2" font-family="Helvetica,sans-Serif" font-size="11" text-anchor="start">varchar[255]</text><polygon fill="#fff" stroke="none" points="742 -492 742 -514 866 -514 866 -492 742 -492"/><polygon fill="none" stroke="#000" points="742 -492 742 -514 866 -514 866 -492 742 -492"/><text x="762" y="-500.2" font-family="Helvetica,sans-Serif" font-size="11" text-anchor="start">fourth_topic</text><polygon fill="none" stroke="#000" points="866 -492 866 -514 976 -514 976 -492 866 -492"/><text x="869" y="-500.2" font-family="Helvetica,sans-Serif" font-size="11" text-anchor="start">varchar[255]</text><polygon fill="none" stroke="#000" points="742 -470 742 -492 866 -492 866 -470 742 -470"/><text x="762" y="-478.2" font-family="Helvetica,sans-Serif" font-size="11" text-anchor="start">inserted_at</text><polygon fill="none" stroke="#000" points="866 -470 866 -492 976 -492 976 -470 866 -470"/><text x="869" y="-478.2" font-family="Helvetica,sans-Serif" font-size="11" text-anchor="start">timestamp[29,6]</text><polygon fill="none" stroke="#000" points="742 -448 742 -470 866 -470 866 -448 742 -448"/><text x="762" y="-456.2" font-family="Helvetica,sans-Serif" font-size="11" text-anchor="start">updated_at</text><polygon fill="none" stroke="#000" points="866 -448 866 -470 976 -470 976 -448 866 -448"/><text x="869" y="-456.2" font-family="Helvetica,sans-Serif" font-size="11" text-anchor="start">timestamp[29,6]</text><polygon fill="#fff" stroke="none" points="742 -426 742 -448 866 -448 866 -426 742 -426"/><polygon fill="none" stroke="#000" points="742 -426 742 -448 866 -448 866 -426 742 -426"/><image width="11" height="12" x="747" y="-443" preserveAspectRatio="xMinYMin meet" xlink:href="../../images/foreignKeys.png"/><text x="762" y="-434.2" font-family="Helvetica,sans-Serif" font-size="11" text-anchor="start">address_hash</text><polygon fill="none" stroke="#000" points="866 -426 866 -448 976 -448 976 -426 866 -426"/><text x="869" y="-434.2" font-family="Helvetica,sans-Serif" font-size="11" text-anchor="start">bytea[2147483647]</text><polygon fill="none" stroke="#000" points="742 -404 742 -426 866 -426 866 -404 742 -404"/><image width="11" height="12" x="747" y="-421" preserveAspectRatio="xMinYMin meet" xlink:href="../../images/primaryKeys.png"/><text x="762" y="-412.2" font-family="Helvetica,sans-Serif" font-size="11" text-anchor="start">transaction_hash</text><polygon fill="none" stroke="#000" points="866 -404 866 -426 976 -426 976 -404 866 -404"/><text x="869" y="-412.2" font-family="Helvetica,sans-Serif" font-size="11" text-anchor="start">bytea[2147483647]</text><polygon fill="none" stroke="#000" points="742 -382 742 -404 866 -404 866 -382 742 -382"/><image width="11" height="12" x="747" y="-399" preserveAspectRatio="xMinYMin meet" xlink:href="../../images/primaryKeys.png"/><text x="762" y="-390.2" font-family="Helvetica,sans-Serif" font-size="11" text-anchor="start">block_hash</text><polygon fill="none" stroke="#000" points="866 -382 866 -404 976 -404 976 -382 866 -382"/><text x="869" y="-390.2" font-family="Helvetica,sans-Serif" font-size="11" text-anchor="start">bytea[2147483647]</text><polygon fill="#fff" stroke="none" points="742 -360 742 -382 866 -382 866 -360 742 -360"/><polygon fill="none" stroke="#000" points="742 -360 742 -382 866 -382 866 -360 742 -360"/><text x="762" y="-368.2" font-family="Helvetica,sans-Serif" font-size="11" text-anchor="start">block_number</text><polygon fill="none" stroke="#000" points="866 -360 866 -382 976 -382 976 -360 866 -360"/><text x="869" y="-368.2" font-family="Helvetica,sans-Serif" font-size="11" text-anchor="start">int4[10]</text><polygon fill="#fff" stroke="none" points="742 -342 742 -360 794 -360 794 -342 742 -342"/><polygon fill="none" stroke="#000" points="742 -342 742 -360 794 -360 794 -342 742 -342"/><text x="745" y="-348.2" font-family="Helvetica,sans-Serif" font-size="11" text-anchor="start">&lt; 3</text><polygon fill="#fff" stroke="none" points="794 -342 794 -360 866 -360 866 -342 794 -342"/><polygon fill="none" stroke="#000" points="794 -342 794 -360 866 -360 866 -342 794 -342"/><text x="827" y="-348.2" font-family="Helvetica,sans-Serif" font-size="11" text-anchor="start">0 rows</text><polygon fill="#fff" stroke="none" points="866 -342 866 -360 976 -360 976 -342 866 -342"/><polygon fill="none" stroke="#000" points="866 -342 866 -360 976 -360 976 -342 866 -342"/><text x="956" y="-348.2" font-family="Helvetica,sans-Serif" font-size="11" text-anchor="start">0 &gt;</text><polygon fill="none" stroke="#000" stroke-width="2" points="741 -341 741 -669 977 -669 977 -341 741 -341"/></a></g></g><g id="edge3" class="edge"><title>logs:block_hash:w-&gt;blocks:hash:e</title><path fill="none" stroke="#000" d="M726.298,-393.189C611.969,-396.144 571.489,-432.225 458,-391 436.338,-383.131 441.047,-358 418,-358"/><polygon fill="#000" stroke="#000" points="733.001 -393.103 741.046 -396.6 737 -393.051 741 -393 741 -393 741 -393 737 -393.051 740.954 -389.4 733.001 -393.103 733.001 -393.103"/><ellipse cx="729.801" cy="-393.144" fill="none" stroke="#000" rx="3.2" ry="3.2"/></g><g id="edge2" class="edge"><title>logs:address_hash:w-&gt;addresses:hash:e</title><path fill="none" stroke="#000" d="M726.392,-437.209C534.153,-442.714 434.187,-553.856 287,-423 241.998,-382.991 307.215,-155 247,-155"/><polygon fill="#000" stroke="#000" points="733.001 -437.115 741.052 -440.6 737 -437.057 741 -437 741 -437 741 -437 737 -437.057 740.948 -433.4 733.001 -437.115 733.001 -437.115"/><ellipse cx="729.801" cy="-437.161" fill="none" stroke="#000" rx="3.2" ry="3.2"/></g><g id="node4" class="node"><title>transactions</title><g id="a_node4"><a target="_top" xlink:href="../../tables/transactions.html" xlink:title="transactions"><polygon fill="#fff" stroke="none" points="466 -37 466 -381 691 -381 691 -37 466 -37"/><polygon fill="#f5f5f5" stroke="none" points="466.5 -359 466.5 -381 691.5 -381 691.5 -359 466.5 -359"/><polygon fill="none" stroke="#000" points="466.5 -359 466.5 -381 691.5 -381 691.5 -359 466.5 -359"/><text x="471.5" y="-368.2" font-family="Helvetica,sans-Serif" font-size="11" font-weight="bold" text-anchor="start">transactions</text><text x="652.5" y="-367.2" font-family="Helvetica,sans-Serif" font-size="11" text-anchor="start">[table]</text><polygon fill="#fff" stroke="none" points="466.5 -337 466.5 -359 691.5 -359 691.5 -337 466.5 -337"/><polygon fill="none" stroke="#000" points="466.5 -337 466.5 -359 691.5 -359 691.5 -337 466.5 -337"/><text x="486.5" y="-345.2" font-family="Helvetica,sans-Serif" font-size="11" text-anchor="start">error</text><polygon fill="none" stroke="#000" points="466.5 -315 466.5 -337 691.5 -337 691.5 -315 466.5 -315"/><image width="11" height="12" x="471.5" y="-332" preserveAspectRatio="xMinYMin meet" xlink:href="../../images/primaryKeys.png"/><text x="486.5" y="-323.2" font-family="Helvetica,sans-Serif" font-size="11" text-anchor="start">hash</text><polygon fill="#fff" stroke="none" points="466.5 -293 466.5 -315 691.5 -315 691.5 -293 466.5 -293"/><polygon fill="none" stroke="#000" points="466.5 -293 466.5 -315 691.5 -315 691.5 -293 466.5 -293"/><text x="486.5" y="-301.2" font-family="Helvetica,sans-Serif" font-size="11" text-anchor="start">index</text><polygon fill="#fff" stroke="none" points="466.5 -271 466.5 -293 691.5 -293 691.5 -271 466.5 -271"/><polygon fill="none" stroke="#000" points="466.5 -271 466.5 -293 691.5 -293 691.5 -271 466.5 -271"/><text x="486.5" y="-279.2" font-family="Helvetica,sans-Serif" font-size="11" text-anchor="start">nonce</text><polygon fill="#fff" stroke="none" points="466.5 -249 466.5 -271 691.5 -271 691.5 -249 466.5 -249"/><polygon fill="none" stroke="#000" points="466.5 -249 466.5 -271 691.5 -271 691.5 -249 466.5 -249"/><text x="486.5" y="-257.2" font-family="Helvetica,sans-Serif" font-size="11" text-anchor="start">status</text><polygon fill="#fff" stroke="none" points="466.5 -227 466.5 -249 691.5 -249 691.5 -227 466.5 -227"/><polygon fill="none" stroke="#000" points="466.5 -227 466.5 -249 691.5 -249 691.5 -227 466.5 -227"/><text x="486.5" y="-235.2" font-family="Helvetica,sans-Serif" font-size="11" text-anchor="start">inserted_at</text><polygon fill="#fff" stroke="none" points="466.5 -205 466.5 -227 691.5 -227 691.5 -205 466.5 -205"/><polygon fill="none" stroke="#000" points="466.5 -205 466.5 -227 691.5 -227 691.5 -205 466.5 -205"/><text x="486.5" y="-213.2" font-family="Helvetica,sans-Serif" font-size="11" text-anchor="start">updated_at</text><polygon fill="#fff" stroke="none" points="466.5 -183 466.5 -205 691.5 -205 691.5 -183 466.5 -183"/><polygon fill="none" stroke="#000" points="466.5 -183 466.5 -205 691.5 -205 691.5 -183 466.5 -183"/><image width="11" height="12" x="471.5" y="-200" preserveAspectRatio="xMinYMin meet" xlink:href="../../images/foreignKeys.png"/><text x="486.5" y="-191.2" font-family="Helvetica,sans-Serif" font-size="11" text-anchor="start">block_hash</text><polygon fill="#fff" stroke="none" points="466.5 -161 466.5 -183 691.5 -183 691.5 -161 466.5 -161"/><polygon fill="none" stroke="#000" points="466.5 -161 466.5 -183 691.5 -183 691.5 -161 466.5 -161"/><text x="486.5" y="-169.2" font-family="Helvetica,sans-Serif" font-size="11" text-anchor="start">block_number</text><polygon fill="#fff" stroke="none" points="466.5 -139 466.5 -161 691.5 -161 691.5 -139 466.5 -139"/><polygon fill="none" stroke="#000" points="466.5 -139 466.5 -161 691.5 -161 691.5 -139 466.5 -139"/><image width="11" height="12" x="471.5" y="-156" preserveAspectRatio="xMinYMin meet" xlink:href="../../images/foreignKeys.png"/><text x="486.5" y="-147.2" font-family="Helvetica,sans-Serif" font-size="11" text-anchor="start">from_address_hash</text><polygon fill="#fff" stroke="none" points="466.5 -117 466.5 -139 691.5 -139 691.5 -117 466.5 -117"/><polygon fill="none" stroke="#000" points="466.5 -117 466.5 -139 691.5 -139 691.5 -117 466.5 -117"/><image width="11" height="12" x="471.5" y="-134" preserveAspectRatio="xMinYMin meet" xlink:href="../../images/foreignKeys.png"/><text x="486.5" y="-125.2" font-family="Helvetica,sans-Serif" font-size="11" text-anchor="start">to_address_hash</text><polygon fill="#fff" stroke="none" points="466.5 -95 466.5 -117 691.5 -117 691.5 -95 466.5 -95"/><polygon fill="none" stroke="#000" points="466.5 -95 466.5 -117 691.5 -117 691.5 -95 466.5 -95"/><image width="11" height="12" x="471.5" y="-112" preserveAspectRatio="xMinYMin meet" xlink:href="../../images/foreignKeys.png"/><text x="486.5" y="-103.2" font-family="Helvetica,sans-Serif" font-size="11" text-anchor="start">created_contract_address_hash</text><polygon fill="#fff" stroke="none" points="466.5 -73 466.5 -95 691.5 -95 691.5 -73 466.5 -73"/><polygon fill="none" stroke="#000" points="466.5 -73 466.5 -95 691.5 -95 691.5 -73 466.5 -73"/><text x="486.5" y="-81.2" font-family="Helvetica,sans-Serif" font-size="11" text-anchor="start">created_contract_code_indexed_at</text><polygon fill="none" stroke="#000" points="466.5 -55 466.5 -73 691.5 -73 691.5 -55 466.5 -55"/><text x="469.5" y="-61.2" font-family="Helvetica,sans-Serif" font-size="11" text-anchor="start">...</text><polygon fill="#fff" stroke="none" points="466.5 -37 466.5 -55 560.5 -55 560.5 -37 466.5 -37"/><polygon fill="none" stroke="#000" points="466.5 -37 466.5 -55 560.5 -55 560.5 -37 466.5 -37"/><text x="469.5" y="-43.2" font-family="Helvetica,sans-Serif" font-size="11" text-anchor="start">&lt; 4</text><polygon fill="#fff" stroke="none" points="560.5 -37 560.5 -55 632.5 -55 632.5 -37 560.5 -37"/><polygon fill="none" stroke="#000" points="560.5 -37 560.5 -55 632.5 -55 632.5 -37 560.5 -37"/><text x="598.5" y="-43.2" font-family="Helvetica,sans-Serif" font-size="11" text-anchor="start">1 row</text><polygon fill="#fff" stroke="none" points="632.5 -37 632.5 -55 691.5 -55 691.5 -37 632.5 -37"/><polygon fill="none" stroke="#000" points="632.5 -37 632.5 -55 691.5 -55 691.5 -37 632.5 -37"/><text x="671.5" y="-43.2" font-family="Helvetica,sans-Serif" font-size="11" text-anchor="start">4 &gt;</text></a></g></g><g id="edge4" class="edge"><title>logs:transaction_hash:w-&gt;transactions:hash:e</title><path fill="none" stroke="#000" d="M727.23,-410.707C705.473,-392.929 731.565,-326 692.5,-326"/><polygon fill="#000" stroke="#000" points="733.363 -412.619 739.929 -418.437 737.181 -413.81 741 -415 741 -415 741 -415 737.181 -413.81 742.071 -411.563 733.363 -412.619 733.363 -412.619"/><ellipse cx="730.308" cy="-411.667" fill="none" stroke="#000" rx="3.2" ry="3.2"/></g><g id="edge5" class="edge"><title>transactions:block_hash:w-&gt;blocks:hash:e</title><path fill="none" stroke="#000" d="M451.136,-196.71C404.455,-218.033 488.104,-358 418,-358"/><polygon fill="#000" stroke="#000" points="457.639 -195.483 466.167 -197.538 461.569 -194.742 465.5 -194 465.5 -194 465.5 -194 461.569 -194.742 464.833 -190.462 457.639 -195.483 457.639 -195.483"/><ellipse cx="454.494" cy="-196.076" fill="none" stroke="#000" rx="3.2" ry="3.2"/></g><g id="edge6" class="edge"><title>transactions:created_contract_address_hash:w-&gt;addresses:hash:e</title><path fill="none" stroke="#000" d="M450.766,-105.776C382.445,-103.703 355.317,-88.5675 287,-118 264.759,-127.582 271.217,-155 247,-155"/><polygon fill="#000" stroke="#000" points="457.501 -105.879 465.445 -109.6 461.5 -105.939 465.5 -106 465.5 -106 465.5 -106 461.5 -105.939 465.555 -102.4 457.501 -105.879 457.501 -105.879"/><ellipse cx="454.301" cy="-105.83" fill="none" stroke="#000" rx="3.2" ry="3.2"/></g><g id="edge7" class="edge"><title>transactions:from_address_hash:w-&gt;addresses:hash:e</title><path fill="none" stroke="#000" d="M450.983,-150.039C365.66,-150.504 339.109,-155 247,-155"/><polygon fill="#000" stroke="#000" points="457.5 -150.021 465.51 -153.6 461.5 -150.011 465.5 -150 465.5 -150 465.5 -150 461.5 -150.011 465.49 -146.4 457.5 -150.021 457.5 -150.021"/><ellipse cx="454.3" cy="-150.03" fill="none" stroke="#000" rx="3.2" ry="3.2"/></g><g id="edge8" class="edge"><title>transactions:to_address_hash:w-&gt;addresses:hash:e</title><path fill="none" stroke="#000" d="M450.782,-128.106C382.891,-129.129 360.928,-137.4 287,-148 269.135,-150.562 265.048,-155 247,-155"/><polygon fill="#000" stroke="#000" points="457.5 -128.058 465.526 -131.6 461.5 -128.029 465.5 -128 465.5 -128 465.5 -128 461.5 -128.029 465.474 -124.4 457.5 -128.058 457.5 -128.058"/><ellipse cx="454.3" cy="-128.081" fill="none" stroke="#000" rx="3.2" ry="3.2"/></g></g></svg>