<svg xmlns="http://www.w3.org/2000/svg" xmlns:xlink="http://www.w3.org/1999/xlink" width="868pt" height="683pt" viewBox="0 0 868 683"><g id="graph0" class="graph" transform="scale(1 1) rotate(0) translate(4 679)"><title>twoDegreesRelationshipsDiagram</title><polygon fill="#fff" stroke="none" points="-4 4 -4 -679 864 -679 864 4 -4 4"/><text x="74.5" y="-7.2" font-family="Helvetica,sans-Serif" font-size="11" text-anchor="middle">Generated by SchemaSpy</text><g id="node1" class="node"><title>block_rewards</title><g id="a_node1"><a target="_top" xlink:href="../../tables/block_rewards.html" xlink:title="block_rewards"><polygon fill="#fff" stroke="none" points="417.5 -519 417.5 -577 547.5 -577 547.5 -519 417.5 -519"/><polygon fill="#f5f5f5" stroke="none" points="417.5 -555 417.5 -577 547.5 -577 547.5 -555 417.5 -555"/><polygon fill="none" stroke="#000" points="417.5 -555 417.5 -577 547.5 -577 547.5 -555 417.5 -555"/><text x="422.5" y="-564.2" font-family="Helvetica,sans-Serif" font-size="11" font-weight="bold" text-anchor="start">block_rewards</text><text x="508.5" y="-563.2" font-family="Helvetica,sans-Serif" font-size="11" text-anchor="start">[table]</text><polygon fill="none" stroke="#000" points="417.5 -537 417.5 -555 547.5 -555 547.5 -537 417.5 -537"/><text x="420.5" y="-543.2" font-family="Helvetica,sans-Serif" font-size="11" text-anchor="start">...</text><polygon fill="#fff" stroke="none" points="417.5 -519 417.5 -537 466.5 -537 466.5 -519 417.5 -519"/><polygon fill="none" stroke="#000" points="417.5 -519 417.5 -537 466.5 -537 466.5 -519 417.5 -519"/><text x="420.5" y="-525.2" font-family="Helvetica,sans-Serif" font-size="11" text-anchor="start">&lt; 2</text><polygon fill="#fff" stroke="none" points="466.5 -519 466.5 -537 521.5 -537 521.5 -519 466.5 -519"/><polygon fill="none" stroke="#000" points="466.5 -519 466.5 -537 521.5 -537 521.5 -519 466.5 -519"/><text x="482.5" y="-525.2" font-family="Helvetica,sans-Serif" font-size="11" text-anchor="start">0 rows</text><polygon fill="#fff" stroke="none" points="521.5 -519 521.5 -537 547.5 -537 547.5 -519 521.5 -519"/><polygon fill="none" stroke="#000" points="521.5 -519 521.5 -537 547.5 -537 547.5 -519 521.5 -519"/></a></g></g><g id="node2" class="node"><title>addresses</title><g id="a_node2"><a target="_top" xlink:href="../../tables/addresses.html" xlink:title="addresses"><polygon fill="#fff" stroke="none" points="8 -223 8 -281 113 -281 113 -223 8 -223"/><polygon fill="#f5f5f5" stroke="none" points="8.5 -259 8.5 -281 113.5 -281 113.5 -259 8.5 -259"/><polygon fill="none" stroke="#000" points="8.5 -259 8.5 -281 113.5 -281 113.5 -259 8.5 -259"/><text x="13.5" y="-268.2" font-family="Helvetica,sans-Serif" font-size="11" font-weight="bold" text-anchor="start">addresses</text><text x="74.5" y="-267.2" font-family="Helvetica,sans-Serif" font-size="11" text-anchor="start">[table]</text><polygon fill="none" stroke="#000" points="8.5 -241 8.5 -259 113.5 -259 113.5 -241 8.5 -241"/><text x="11.5" y="-247.2" font-family="Helvetica,sans-Serif" font-size="11" text-anchor="start">...</text><polygon fill="#fff" stroke="none" points="8.5 -223 8.5 -241 31.5 -241 31.5 -223 8.5 -223"/><polygon fill="none" stroke="#000" points="8.5 -223 8.5 -241 31.5 -241 31.5 -223 8.5 -223"/><polygon fill="#fff" stroke="none" points="31.5 -223 31.5 -241 78.5 -241 78.5 -223 31.5 -223"/><polygon fill="none" stroke="#000" points="31.5 -223 31.5 -241 78.5 -241 78.5 -223 31.5 -223"/><text x="39.5" y="-229.2" font-family="Helvetica,sans-Serif" font-size="11" text-anchor="start">2 rows</text><polygon fill="#fff" stroke="none" points="78.5 -223 78.5 -241 113.5 -241 113.5 -223 78.5 -223"/><polygon fill="none" stroke="#000" points="78.5 -223 78.5 -241 113.5 -241 113.5 -223 78.5 -223"/><text x="86.5" y="-229.2" font-family="Helvetica,sans-Serif" font-size="11" text-anchor="start">19 &gt;</text></a></g></g><g id="edge1" class="edge"><title>block_rewards:elipses:w-&gt;addresses:elipses:e</title><path fill="none" stroke="#000" d="M401.978,-545.935C285.484,-544.828 231.531,-528.834 154,-435 100.447,-370.186 198.576,-250 114.5,-250"/><polygon fill="#000" stroke="#000" points="408.5 -545.964 416.484 -549.6 412.5 -545.982 416.5 -546 416.5 -546 416.5 -546 412.5 -545.982 416.516 -542.4 408.5 -545.964 408.5 -545.964"/><ellipse cx="405.3" cy="-545.95" fill="none" stroke="#000" rx="3.2" ry="3.2"/></g><g id="node3" class="node"><title>blocks</title><g id="a_node3"><a target="_top" xlink:href="../../tables/blocks.html" xlink:title="blocks"><polygon fill="#fff" stroke="none" points="162 -190 162 -424 284 -424 284 -190 162 -190"/><polygon fill="#f5f5f5" stroke="none" points="162 -402 162 -424 284 -424 284 -402 162 -402"/><polygon fill="none" stroke="#000" points="162 -402 162 -424 284 -424 284 -402 162 -402"/><text x="167" y="-411.2" font-family="Helvetica,sans-Serif" font-size="11" font-weight="bold" text-anchor="start">blocks</text><text x="245" y="-410.2" font-family="Helvetica,sans-Serif" font-size="11" text-anchor="start">[table]</text><polygon fill="#fff" stroke="none" points="162 -380 162 -402 284 -402 284 -380 162 -380"/><polygon fill="none" stroke="#000" points="162 -380 162 -402 284 -402 284 -380 162 -380"/><text x="182" y="-388.2" font-family="Helvetica,sans-Serif" font-size="11" text-anchor="start">consensus</text><polygon fill="none" stroke="#000" points="162 -358 162 -380 284 -380 284 -358 162 -358"/><image width="11" height="12" x="167" y="-375" preserveAspectRatio="xMinYMin meet" xlink:href="../../images/primaryKeys.png"/><text x="182" y="-366.2" font-family="Helvetica,sans-Serif" font-size="11" text-anchor="start">hash</text><polygon fill="#fff" stroke="none" points="162 -336 162 -358 284 -358 284 -336 162 -336"/><polygon fill="none" stroke="#000" points="162 -336 162 -358 284 -358 284 -336 162 -336"/><image width="11" height="12" x="167" y="-353" preserveAspectRatio="xMinYMin meet" xlink:href="../../images/foreignKeys.png"/><text x="182" y="-344.2" font-family="Helvetica,sans-Serif" font-size="11" text-anchor="start">miner_hash</text><polygon fill="#fff" stroke="none" points="162 -314 162 -336 284 -336 284 -314 162 -314"/><polygon fill="none" stroke="#000" points="162 -314 162 -336 284 -336 284 -314 162 -314"/><text x="182" y="-322.2" font-family="Helvetica,sans-Serif" font-size="11" text-anchor="start">number</text><polygon fill="#fff" stroke="none" points="162 -292 162 -314 284 -314 284 -292 162 -292"/><polygon fill="none" stroke="#000" points="162 -292 162 -314 284 -314 284 -292 162 -292"/><text x="182" y="-300.2" font-family="Helvetica,sans-Serif" font-size="11" text-anchor="start">parent_hash</text><polygon fill="#fff" stroke="none" points="162 -270 162 -292 284 -292 284 -270 162 -270"/><polygon fill="none" stroke="#000" points="162 -270 162 -292 284 -292 284 -270 162 -270"/><text x="182" y="-278.2" font-family="Helvetica,sans-Serif" font-size="11" text-anchor="start">timestamp</text><polygon fill="#fff" stroke="none" points="162 -248 162 -270 284 -270 284 -248 162 -248"/><polygon fill="none" stroke="#000" points="162 -248 162 -270 284 -270 284 -248 162 -248"/><text x="182" y="-256.2" font-family="Helvetica,sans-Serif" font-size="11" text-anchor="start">inserted_at</text><polygon fill="#fff" stroke="none" points="162 -226 162 -248 284 -248 284 -226 162 -226"/><polygon fill="none" stroke="#000" points="162 -226 162 -248 284 -248 284 -226 162 -226"/><text x="182" y="-234.2" font-family="Helvetica,sans-Serif" font-size="11" text-anchor="start">is_empty</text><polygon fill="none" stroke="#000" points="162 -208 162 -226 284 -226 284 -208 162 -208"/><text x="165" y="-214.2" font-family="Helvetica,sans-Serif" font-size="11" text-anchor="start">...</text><polygon fill="#fff" stroke="none" points="162 -190 162 -208 202 -208 202 -190 162 -190"/><polygon fill="none" stroke="#000" points="162 -190 162 -208 202 -208 202 -190 162 -190"/><text x="165" y="-196.2" font-family="Helvetica,sans-Serif" font-size="11" text-anchor="start">&lt; 1</text><polygon fill="#fff" stroke="none" points="202 -190 202 -208 252 -208 252 -190 202 -190"/><polygon fill="none" stroke="#000" points="202 -190 202 -208 252 -208 252 -190 202 -190"/><text x="213" y="-196.2" font-family="Helvetica,sans-Serif" font-size="11" text-anchor="start">3 rows</text><polygon fill="#fff" stroke="none" points="252 -190 252 -208 284 -208 284 -190 252 -190"/><polygon fill="none" stroke="#000" points="252 -190 252 -208 284 -208 284 -190 252 -190"/><text x="264" y="-196.2" font-family="Helvetica,sans-Serif" font-size="11" text-anchor="start">8 &gt;</text></a></g></g><g id="edge2" class="edge"><title>block_rewards:elipses:w-&gt;blocks:hash:e</title><path fill="none" stroke="#000" d="M401.881,-545.664C367.646,-543.899 350.875,-534.634 325,-505 283.56,-457.541 348.005,-369 285,-369"/><polygon fill="#000" stroke="#000" points="408.502 -545.816 416.417 -549.599 412.501 -545.908 416.5 -546 416.5 -546 416.5 -546 412.501 -545.908 416.583 -542.401 408.502 -545.816 408.502 -545.816"/><ellipse cx="405.303" cy="-545.742" fill="none" stroke="#000" rx="3.2" ry="3.2"/></g><g id="edge4" class="edge"><title>blocks:miner_hash:w-&gt;addresses:elipses:e</title><path fill="none" stroke="#000" d="M146.928,-342.58C124.244,-323.604 156.146,-250 114.5,-250"/><polygon fill="#000" stroke="#000" points="153.368 -344.603 159.921 -350.435 157.184 -345.801 161 -347 161 -347 161 -347 157.184 -345.801 162.079 -343.565 153.368 -344.603 153.368 -344.603"/><ellipse cx="150.315" cy="-343.644" fill="none" stroke="#000" rx="3.2" ry="3.2"/></g><g id="node4" class="node"><title>block_second_degree_relations</title><g id="a_node4"><a target="_top" xlink:href="../../tables/block_second_degree_relations.html" xlink:title="block_second_degree_relations"><polygon fill="#fff" stroke="none" points="371 -413 371 -471 594 -471 594 -413 371 -413"/><polygon fill="#f5f5f5" stroke="none" points="371.5 -449 371.5 -471 594.5 -471 594.5 -449 371.5 -449"/><polygon fill="none" stroke="#000" points="371.5 -449 371.5 -471 594.5 -471 594.5 -449 371.5 -449"/><text x="376.5" y="-458.2" font-family="Helvetica,sans-Serif" font-size="11" font-weight="bold" text-anchor="start">block_second_degree_relations</text><text x="555.5" y="-457.2" font-family="Helvetica,sans-Serif" font-size="11" text-anchor="start">[table]</text><polygon fill="none" stroke="#000" points="371.5 -431 371.5 -449 594.5 -449 594.5 -431 371.5 -431"/><text x="374.5" y="-437.2" font-family="Helvetica,sans-Serif" font-size="11" text-anchor="start">...</text><polygon fill="#fff" stroke="none" points="371.5 -413 371.5 -431 466.5 -431 466.5 -413 371.5 -413"/><polygon fill="none" stroke="#000" points="371.5 -413 371.5 -431 466.5 -431 466.5 -413 371.5 -413"/><text x="374.5" y="-419.2" font-family="Helvetica,sans-Serif" font-size="11" text-anchor="start">&lt; 1</text><polygon fill="#fff" stroke="none" points="466.5 -413 466.5 -431 544.5 -431 544.5 -413 466.5 -413"/><polygon fill="none" stroke="#000" points="466.5 -413 466.5 -431 544.5 -431 544.5 -413 466.5 -413"/><text x="505.5" y="-419.2" font-family="Helvetica,sans-Serif" font-size="11" text-anchor="start">0 rows</text><polygon fill="#fff" stroke="none" points="544.5 -413 544.5 -431 594.5 -431 594.5 -413 544.5 -413"/><polygon fill="none" stroke="#000" points="544.5 -413 544.5 -431 594.5 -431 594.5 -413 544.5 -413"/></a></g></g><g id="edge3" class="edge"><title>block_second_degree_relations:elipses:w-&gt;blocks:hash:e</title><path fill="none" stroke="#000" d="M356.341,-437.148C343.65,-430.974 340.501,-415.888 325,-403 307.059,-388.083 308.332,-369 285,-369"/><polygon fill="#000" stroke="#000" points="362.658 -438.42 369.789 -443.529 366.579 -439.21 370.5 -440 370.5 -440 370.5 -440 366.579 -439.21 371.211 -436.471 362.658 -438.42 362.658 -438.42"/><ellipse cx="359.521" cy="-437.788" fill="none" stroke="#000" rx="3.2" ry="3.2"/></g><g id="node5" class="node"><title>internal_transactions</title><g id="a_node5"><a target="_top" xlink:href="../../tables/internal_transactions.html" xlink:title="internal_transactions"><polygon fill="#fff" stroke="none" points="681 -613 681 -671 852 -671 852 -613 681 -613"/><polygon fill="#f5f5f5" stroke="none" points="681.5 -649 681.5 -671 852.5 -671 852.5 -649 681.5 -649"/><polygon fill="none" stroke="#000" points="681.5 -649 681.5 -671 852.5 -671 852.5 -649 681.5 -649"/><text x="686.5" y="-658.2" font-family="Helvetica,sans-Serif" font-size="11" font-weight="bold" text-anchor="start">internal_transactions</text><text x="813.5" y="-657.2" font-family="Helvetica,sans-Serif" font-size="11" text-anchor="start">[table]</text><polygon fill="none" stroke="#000" points="681.5 -631 681.5 -649 852.5 -649 852.5 -631 681.5 -631"/><text x="684.5" y="-637.2" font-family="Helvetica,sans-Serif" font-size="11" text-anchor="start">...</text><polygon fill="#fff" stroke="none" points="681.5 -613 681.5 -631 753.5 -631 753.5 -613 681.5 -613"/><polygon fill="none" stroke="#000" points="681.5 -613 681.5 -631 753.5 -631 753.5 -613 681.5 -613"/><text x="684.5" y="-619.2" font-family="Helvetica,sans-Serif" font-size="11" text-anchor="start">&lt; 5</text><polygon fill="#fff" stroke="none" points="753.5 -613 753.5 -631 814.5 -631 814.5 -613 753.5 -613"/><polygon fill="none" stroke="#000" points="753.5 -613 753.5 -631 814.5 -631 814.5 -613 753.5 -613"/><text x="780.5" y="-619.2" font-family="Helvetica,sans-Serif" font-size="11" text-anchor="start">1 row</text><polygon fill="#fff" stroke="none" points="814.5 -613 814.5 -631 852.5 -631 852.5 -613 814.5 -613"/><polygon fill="none" stroke="#000" points="814.5 -613 814.5 -631 852.5 -631 852.5 -613 814.5 -613"/></a></g></g><g id="edge6" class="edge"><title>internal_transactions:elipses:w-&gt;addresses:elipses:e</title><path fill="none" stroke="#000" d="M665.998,-640.112C437.045,-643.638 299.535,-727.734 154,-546 112.519,-494.201 180.861,-250 114.5,-250"/><polygon fill="#000" stroke="#000" points="672.5 -640.062 680.528 -643.6 676.5 -640.031 680.5 -640 680.5 -640 680.5 -640 676.5 -640.031 680.472 -636.4 672.5 -640.062 672.5 -640.062"/><ellipse cx="669.3" cy="-640.087" fill="none" stroke="#000" rx="3.2" ry="3.2"/></g><g id="edge7" class="edge"><title>internal_transactions:elipses:w-&gt;addresses:elipses:e</title><path fill="none" stroke="#000" d="M665.977,-639.748C436.677,-637.541 298.027,-719.329 154,-536 113.548,-484.51 179.98,-244 114.5,-250"/><polygon fill="#000" stroke="#000" points="672.501 -639.861 680.437 -643.599 676.501 -639.931 680.5 -640 680.5 -640 680.5 -640 676.501 -639.931 680.563 -636.401 672.501 -639.861 672.501 -639.861"/><ellipse cx="669.302" cy="-639.805" fill="none" stroke="#000" rx="3.2" ry="3.2"/></g><g id="edge8" class="edge"><title>internal_transactions:elipses:w-&gt;addresses:elipses:e</title><path fill="none" stroke="#000" d="M665.977,-640.531C436.677,-650.541 298.027,-732.329 154,-549 113.548,-497.51 179.98,-257 114.5,-250"/><polygon fill="#000" stroke="#000" points="672.505 -640.292 680.632 -643.598 676.503 -640.146 680.5 -640 680.5 -640 680.5 -640 676.503 -640.146 680.368 -636.402 672.505 -640.292 672.505 -640.292"/><ellipse cx="669.307" cy="-640.409" fill="none" stroke="#000" rx="3.2" ry="3.2"/></g><g id="edge5" class="edge"><title>internal_transactions:elipses:w-&gt;blocks:hash:e</title><path fill="none" stroke="#000" d="M666.105,-637.483C631.72,-622.402 682.82,-543.502 640,-509 585.292,-464.92 380.586,-524.967 325,-482 282.849,-449.418 338.276,-369 285,-369"/><polygon fill="#000" stroke="#000" points="672.62 -638.622 679.88 -643.546 676.56 -639.311 680.5 -640 680.5 -640 680.5 -640 676.56 -639.311 681.12 -636.454 672.62 -638.622 672.62 -638.622"/><ellipse cx="669.467" cy="-638.071" fill="none" stroke="#000" rx="3.2" ry="3.2"/></g><g id="node6" class="node"><title>transactions</title><g id="a_node6"><a target="_top" xlink:href="../../tables/transactions.html" xlink:title="transactions"><polygon fill="#fff" stroke="none" points="422.5 -127 422.5 -185 542.5 -185 542.5 -127 422.5 -127"/><polygon fill="#f5f5f5" stroke="none" points="422.5 -163 422.5 -185 542.5 -185 542.5 -163 422.5 -163"/><polygon fill="none" stroke="#000" points="422.5 -163 422.5 -185 542.5 -185 542.5 -163 422.5 -163"/><text x="427.5" y="-172.2" font-family="Helvetica,sans-Serif" font-size="11" font-weight="bold" text-anchor="start">transactions</text><text x="503.5" y="-171.2" font-family="Helvetica,sans-Serif" font-size="11" text-anchor="start">[table]</text><polygon fill="none" stroke="#000" points="422.5 -145 422.5 -163 542.5 -163 542.5 -145 422.5 -145"/><text x="425.5" y="-151.2" font-family="Helvetica,sans-Serif" font-size="11" text-anchor="start">...</text><polygon fill="#fff" stroke="none" points="422.5 -127 422.5 -145 463.5 -145 463.5 -127 422.5 -127"/><polygon fill="none" stroke="#000" points="422.5 -127 422.5 -145 463.5 -145 463.5 -127 422.5 -127"/><text x="425.5" y="-133.2" font-family="Helvetica,sans-Serif" font-size="11" text-anchor="start">&lt; 4</text><polygon fill="#fff" stroke="none" points="463.5 -127 463.5 -145 509.5 -145 509.5 -127 463.5 -127"/><polygon fill="none" stroke="#000" points="463.5 -127 463.5 -145 509.5 -145 509.5 -127 463.5 -127"/><text x="475.5" y="-133.2" font-family="Helvetica,sans-Serif" font-size="11" text-anchor="start">1 row</text><polygon fill="#fff" stroke="none" points="509.5 -127 509.5 -145 542.5 -145 542.5 -127 509.5 -127"/><polygon fill="none" stroke="#000" points="509.5 -127 509.5 -145 542.5 -145 542.5 -127 509.5 -127"/><text x="522.5" y="-133.2" font-family="Helvetica,sans-Serif" font-size="11" text-anchor="start">4 &gt;</text></a></g></g><g id="edge9" class="edge"><title>internal_transactions:elipses:w-&gt;transactions:elipses:e</title><path fill="none" stroke="#000" d="M669.509,-630.583C640.813,-574.475 656.948,-285.471 640,-250 613.918,-195.414 603.997,-154 543.5,-154"/><polygon fill="#000" stroke="#000" points="674.425 -634.795 678.158 -642.734 677.462 -637.397 680.5 -640 680.5 -640 680.5 -640 677.462 -637.397 682.842 -637.266 674.425 -634.795 674.425 -634.795"/><ellipse cx="671.995" cy="-632.713" fill="none" stroke="#000" rx="3.2" ry="3.2"/></g><g id="edge22" class="edge"><title>transactions:elipses:w-&gt;addresses:elipses:e</title><path fill="none" stroke="#000" d="M406.821,-153.803C297.933,-150.895 249.909,-117.578 154,-180 124.06,-199.486 150.223,-250 114.5,-250"/><polygon fill="#000" stroke="#000" points="413.501 -153.893 421.452 -157.6 417.5 -153.946 421.5 -154 421.5 -154 421.5 -154 417.5 -153.946 421.548 -150.4 413.501 -153.893 413.501 -153.893"/><ellipse cx="410.301" cy="-153.85" fill="none" stroke="#000" rx="3.2" ry="3.2"/></g><g id="edge23" class="edge"><title>transactions:elipses:w-&gt;addresses:elipses:e</title><path fill="none" stroke="#000" d="M406.803,-153.102C297.804,-145.26 250.392,-115.999 154,-178 125.249,-196.493 148.685,-244 114.5,-250"/><polygon fill="#000" stroke="#000" points="413.515 -153.512 421.28 -157.593 417.507 -153.756 421.5 -154 421.5 -154 421.5 -154 417.507 -153.756 421.72 -150.407 413.515 -153.512 413.515 -153.512"/><ellipse cx="410.321" cy="-153.317" fill="none" stroke="#000" rx="3.2" ry="3.2"/></g><g id="edge24" class="edge"><title>transactions:elipses:w-&gt;addresses:elipses:e</title><path fill="none" stroke="#000" d="M406.803,-154.672C297.804,-158.26 250.392,-128.999 154,-191 125.249,-209.493 148.685,-257 114.5,-250"/><polygon fill="#000" stroke="#000" points="413.508 -154.365 421.664 -157.596 417.504 -154.183 421.5 -154 421.5 -154 421.5 -154 417.504 -154.183 421.336 -150.404 413.508 -154.365 413.508 -154.365"/><ellipse cx="410.312" cy="-154.511" fill="none" stroke="#000" rx="3.2" ry="3.2"/></g><g id="edge21" class="edge"><title>transactions:elipses:w-&gt;blocks:hash:e</title><path fill="none" stroke="#000" d="M406.927,-154.324C369.825,-156.153 351.592,-166.301 325,-199 276.027,-259.219 362.619,-369 285,-369"/><polygon fill="#000" stroke="#000" points="413.502 -154.178 421.58 -157.599 417.501 -154.089 421.5 -154 421.5 -154 421.5 -154 417.501 -154.089 421.42 -150.401 413.502 -154.178 413.502 -154.178"/><ellipse cx="410.303" cy="-154.249" fill="none" stroke="#000" rx="3.2" ry="3.2"/></g><g id="node7" class="node"><title>logs</title><g id="a_node7"><a target="_top" xlink:href="../../tables/logs.html" xlink:title="logs"><polygon fill="#fff" stroke="none" points="727.5 -209 727.5 -267 805.5 -267 805.5 -209 727.5 -209"/><polygon fill="#f5f5f5" stroke="none" points="727.5 -245 727.5 -267 805.5 -267 805.5 -245 727.5 -245"/><polygon fill="none" stroke="#000" points="727.5 -245 727.5 -267 805.5 -267 805.5 -245 727.5 -245"/><text x="732.5" y="-254.2" font-family="Helvetica,sans-Serif" font-size="11" font-weight="bold" text-anchor="start">logs</text><text x="766.5" y="-253.2" font-family="Helvetica,sans-Serif" font-size="11" text-anchor="start">[table]</text><polygon fill="none" stroke="#000" points="727.5 -227 727.5 -245 805.5 -245 805.5 -227 727.5 -227"/><text x="730.5" y="-233.2" font-family="Helvetica,sans-Serif" font-size="11" text-anchor="start">...</text><polygon fill="#fff" stroke="none" points="727.5 -209 727.5 -227 750.5 -227 750.5 -209 727.5 -209"/><polygon fill="none" stroke="#000" points="727.5 -209 727.5 -227 750.5 -227 750.5 -209 727.5 -209"/><text x="730.5" y="-215.2" font-family="Helvetica,sans-Serif" font-size="11" text-anchor="start">&lt; 3</text><polygon fill="#fff" stroke="none" points="750.5 -209 750.5 -227 792.5 -227 792.5 -209 750.5 -209"/><polygon fill="none" stroke="#000" points="750.5 -209 750.5 -227 792.5 -227 792.5 -209 750.5 -209"/><text x="753.5" y="-215.2" font-family="Helvetica,sans-Serif" font-size="11" text-anchor="start">0 rows</text><polygon fill="#fff" stroke="none" points="792.5 -209 792.5 -227 805.5 -227 805.5 -209 792.5 -209"/><polygon fill="none" stroke="#000" points="792.5 -209 792.5 -227 805.5 -227 805.5 -209 792.5 -209"/></a></g></g><g id="edge10" class="edge"><title>logs:elipses:w-&gt;addresses:elipses:e</title><path fill="none" stroke="#000" d="M712.031,-236.773C578.04,-252.122 762.694,-491.806 640,-588 584.912,-631.19 392.801,-605.407 325,-588 240.998,-566.434 203.99,-564.869 154,-494 122.339,-449.115 169.428,-250 114.5,-250"/><polygon fill="#000" stroke="#000" points="718.511 -236.427 726.692 -239.595 722.506 -236.214 726.5 -236 726.5 -236 726.5 -236 722.506 -236.214 726.308 -232.405 718.511 -236.427 718.511 -236.427"/><ellipse cx="715.316" cy="-236.598" fill="none" stroke="#000" rx="3.2" ry="3.2"/></g><g id="edge11" class="edge"><title>logs:elipses:w-&gt;blocks:hash:e</title><path fill="none" stroke="#000" d="M712.074,-235.723C613.672,-232.309 393.007,-199.293 325,-250 280.269,-283.353 340.797,-369 285,-369"/><polygon fill="#000" stroke="#000" points="718.501 -235.847 726.431 -239.599 722.501 -235.923 726.5 -236 726.5 -236 726.5 -236 722.501 -235.923 726.569 -232.401 718.501 -235.847 718.501 -235.847"/><ellipse cx="715.302" cy="-235.785" fill="none" stroke="#000" rx="3.2" ry="3.2"/></g><g id="edge12" class="edge"><title>logs:elipses:w-&gt;transactions:elipses:e</title><path fill="none" stroke="#000" d="M711.669,-235.188C636.528,-226.672 627.403,-154 543.5,-154"/><polygon fill="#000" stroke="#000" points="718.512 -235.563 726.303 -239.595 722.506 -235.781 726.5 -236 726.5 -236 726.5 -236 722.506 -235.781 726.697 -232.405 718.512 -235.563 718.512 -235.563"/><ellipse cx="715.317" cy="-235.388" fill="none" stroke="#000" rx="3.2" ry="3.2"/></g><g id="node8" class="node"><title>pending_block_operations</title><g id="a_node8"><a target="_top" xlink:href="../../tables/pending_block_operations.html" xlink:title="pending_block_operations"><polygon fill="#fff" stroke="none" points="333 -260 333 -392 632 -392 632 -260 333 -260"/><polygon fill="#f5f5f5" stroke="none" points="335.5 -368 335.5 -390 630.5 -390 630.5 -368 335.5 -368"/><polygon fill="none" stroke="#000" points="335.5 -368 335.5 -390 630.5 -390 630.5 -368 335.5 -368"/><text x="340.5" y="-377.2" font-family="Helvetica,sans-Serif" font-size="11" font-weight="bold" text-anchor="start">pending_block_operations</text><text x="591.5" y="-376.2" font-family="Helvetica,sans-Serif" font-size="11" text-anchor="start">[table]</text><polygon fill="none" stroke="#000" points="335.5 -346 335.5 -368 520.5 -368 520.5 -346 335.5 -346"/><image width="11" height="12" x="340.5" y="-363" preserveAspectRatio="xMinYMin meet" xlink:href="../../images/primaryKeys.png"/><text x="355.5" y="-354.2" font-family="Helvetica,sans-Serif" font-size="11" text-anchor="start">block_hash</text><polygon fill="none" stroke="#000" points="520.5 -346 520.5 -368 630.5 -368 630.5 -346 520.5 -346"/><text x="523.5" y="-354.2" font-family="Helvetica,sans-Serif" font-size="11" text-anchor="start">bytea[2147483647]</text><polygon fill="none" stroke="#000" points="335.5 -324 335.5 -346 520.5 -346 520.5 -324 335.5 -324"/><text x="355.5" y="-332.2" font-family="Helvetica,sans-Serif" font-size="11" text-anchor="start">inserted_at</text><polygon fill="none" stroke="#000" points="520.5 -324 520.5 -346 630.5 -346 630.5 -324 520.5 -324"/><text x="523.5" y="-332.2" font-family="Helvetica,sans-Serif" font-size="11" text-anchor="start">timestamp[29,6]</text><polygon fill="none" stroke="#000" points="335.5 -302 335.5 -324 520.5 -324 520.5 -302 335.5 -302"/><text x="355.5" y="-310.2" font-family="Helvetica,sans-Serif" font-size="11" text-anchor="start">updated_at</text><polygon fill="none" stroke="#000" points="520.5 -302 520.5 -324 630.5 -324 630.5 -302 520.5 -302"/><text x="523.5" y="-310.2" font-family="Helvetica,sans-Serif" font-size="11" text-anchor="start">timestamp[29,6]</text><polygon fill="none" stroke="#000" points="335.5 -280 335.5 -302 520.5 -302 520.5 -280 335.5 -280"/><text x="355.5" y="-288.2" font-family="Helvetica,sans-Serif" font-size="11" text-anchor="start">fetch_internal_transactions</text><polygon fill="none" stroke="#000" points="520.5 -280 520.5 -302 630.5 -302 630.5 -280 520.5 -280"/><text x="523.5" y="-288.2" font-family="Helvetica,sans-Serif" font-size="11" text-anchor="start">bool[1]</text><polygon fill="#fff" stroke="none" points="335.5 -262 335.5 -280 420.5 -280 420.5 -262 335.5 -262"/><polygon fill="none" stroke="#000" points="335.5 -262 335.5 -280 420.5 -280 420.5 -262 335.5 -262"/><text x="338.5" y="-268.2" font-family="Helvetica,sans-Serif" font-size="11" text-anchor="start">&lt; 1</text><polygon fill="#fff" stroke="none" points="420.5 -262 420.5 -280 520.5 -280 520.5 -262 420.5 -262"/><polygon fill="none" stroke="#000" points="420.5 -262 420.5 -280 520.5 -280 520.5 -262 420.5 -262"/><text x="486.5" y="-268.2" font-family="Helvetica,sans-Serif" font-size="11" text-anchor="start">1 row</text><polygon fill="#fff" stroke="none" points="520.5 -262 520.5 -280 630.5 -280 630.5 -262 520.5 -262"/><polygon fill="none" stroke="#000" points="520.5 -262 520.5 -280 630.5 -280 630.5 -262 520.5 -262"/><text x="610.5" y="-268.2" font-family="Helvetica,sans-Serif" font-size="11" text-anchor="start">0 &gt;</text><polygon fill="none" stroke="#000" stroke-width="2" points="334 -261 334 -391 631 -391 631 -261 334 -261"/></a></g></g><g id="edge13" class="edge"><title>pending_block_operations:block_hash:w-&gt;blocks:hash:e</title><path fill="none" stroke="#000" d="M323.867,-358.023C309.75,-360.925 303.57,-369 285,-369"/><polygon fill="#000" stroke="#000" points="333.321 -353.095 334.087 -361.058 332.494 -361.211 331.728 -353.248 333.321 -353.095"/><polyline fill="none" stroke="#000" points="334.5 -357 330.518 -357.383"/><ellipse cx="327.333" cy="-357.69" fill="none" stroke="#000" rx="3.2" ry="3.2"/></g><g id="node9" class="node"><title>token_transfers</title><g id="a_node9"><a target="_top" xlink:href="../../tables/token_transfers.html" xlink:title="token_transfers"><polygon fill="#fff" stroke="none" points="697.5 -37 697.5 -95 835.5 -95 835.5 -37 697.5 -37"/><polygon fill="#f5f5f5" stroke="none" points="697.5 -73 697.5 -95 835.5 -95 835.5 -73 697.5 -73"/><polygon fill="none" stroke="#000" points="697.5 -73 697.5 -95 835.5 -95 835.5 -73 697.5 -73"/><text x="702.5" y="-82.2" font-family="Helvetica,sans-Serif" font-size="11" font-weight="bold" text-anchor="start">token_transfers</text><text x="796.5" y="-81.2" font-family="Helvetica,sans-Serif" font-size="11" text-anchor="start">[table]</text><polygon fill="none" stroke="#000" points="697.5 -55 697.5 -73 835.5 -73 835.5 -55 697.5 -55"/><text x="700.5" y="-61.2" font-family="Helvetica,sans-Serif" font-size="11" text-anchor="start">...</text><polygon fill="#fff" stroke="none" points="697.5 -37 697.5 -55 750.5 -55 750.5 -37 697.5 -37"/><polygon fill="none" stroke="#000" points="697.5 -37 697.5 -55 750.5 -55 750.5 -37 697.5 -37"/><text x="700.5" y="-43.2" font-family="Helvetica,sans-Serif" font-size="11" text-anchor="start">&lt; 5</text><polygon fill="#fff" stroke="none" points="750.5 -37 750.5 -55 807.5 -55 807.5 -37 750.5 -37"/><polygon fill="none" stroke="#000" points="750.5 -37 750.5 -55 807.5 -55 807.5 -37 750.5 -37"/><text x="768.5" y="-43.2" font-family="Helvetica,sans-Serif" font-size="11" text-anchor="start">0 rows</text><polygon fill="#fff" stroke="none" points="807.5 -37 807.5 -55 835.5 -55 835.5 -37 807.5 -37"/><polygon fill="none" stroke="#000" points="807.5 -37 807.5 -55 835.5 -55 835.5 -37 807.5 -37"/></a></g></g><g id="edge15" class="edge"><title>token_transfers:elipses:w-&gt;addresses:elipses:e</title><path fill="none" stroke="#000" d="M682.017,-63.8927C448.018,-60.4381 326.241,24.1903 154,-141 116.811,-176.666 166.027,-250 114.5,-250"/><polygon fill="#000" stroke="#000" points="688.5 -63.941 696.473 -67.6 692.5 -63.97 696.5 -64 696.5 -64 696.5 -64 692.5 -63.97 696.527 -60.4 688.5 -63.941 688.5 -63.941"/><ellipse cx="685.3" cy="-63.917" fill="none" stroke="#000" rx="3.2" ry="3.2"/></g><g id="edge16" class="edge"><title>token_transfers:elipses:w-&gt;addresses:elipses:e</title><path fill="none" stroke="#000" d="M681.812,-63.4353C528.393,-57.2096 482.143,-45.2329 325,-77 245.762,-93.0183 211.505,-82.1801 154,-139 118.533,-174.044 164.36,-244 114.5,-250"/><polygon fill="#000" stroke="#000" points="688.506 -63.693 696.362 -67.597 692.503 -63.846 696.5 -64 696.5 -64 696.5 -64 692.503 -63.846 696.638 -60.403 688.506 -63.693 688.506 -63.693"/><ellipse cx="685.308" cy="-63.57" fill="none" stroke="#000" rx="3.2" ry="3.2"/></g><g id="edge17" class="edge"><title>token_transfers:elipses:w-&gt;addresses:elipses:e</title><path fill="none" stroke="#000" d="M681.812,-64.5805C528.393,-70.2096 482.143,-58.2329 325,-90 245.762,-106.018 211.505,-95.1801 154,-152 118.533,-187.044 164.36,-257 114.5,-250"/><polygon fill="#000" stroke="#000" points="688.506 -64.316 696.642 -67.597 692.503 -64.158 696.5 -64 696.5 -64 696.5 -64 692.503 -64.158 696.358 -60.403 688.506 -64.316 688.506 -64.316"/><ellipse cx="685.309" cy="-64.442" fill="none" stroke="#000" rx="3.2" ry="3.2"/></g><g id="edge14" class="edge"><title>token_transfers:elipses:w-&gt;blocks:hash:e</title><path fill="none" stroke="#000" d="M682.162,-65.8636C667.124,-70.2162 660.68,-81.055 640,-86 571.59,-102.358 376.19,-68.7603 325,-117 283.735,-155.887 341.701,-369 285,-369"/><polygon fill="#000" stroke="#000" points="688.567 -65.031 696.964 -67.57 692.533 -64.516 696.5 -64 696.5 -64 696.5 -64 692.533 -64.516 696.036 -60.43 688.567 -65.031 688.567 -65.031"/><ellipse cx="685.393" cy="-65.444" fill="none" stroke="#000" rx="3.2" ry="3.2"/></g><g id="edge18" class="edge"><title>token_transfers:elipses:w-&gt;transactions:elipses:e</title><path fill="none" stroke="#000" d="M682.123,-66.665C663.972,-74.6119 663.239,-98.4917 640,-113 600.471,-137.678 590.099,-154 543.5,-154"/><polygon fill="#000" stroke="#000" points="688.634 -65.458 697.156 -67.54 692.567 -64.729 696.5 -64 696.5 -64 696.5 -64 692.567 -64.729 695.844 -60.46 688.634 -65.458 688.634 -65.458"/><ellipse cx="685.488" cy="-66.041" fill="none" stroke="#000" rx="3.2" ry="3.2"/></g><g id="node10" class="node"><title>transaction_forks</title><g id="a_node10"><a target="_top" xlink:href="../../tables/transaction_forks.html" xlink:title="transaction_forks"><polygon fill="#fff" stroke="none" points="692.5 -128 692.5 -186 840.5 -186 840.5 -128 692.5 -128"/><polygon fill="#f5f5f5" stroke="none" points="692.5 -164 692.5 -186 840.5 -186 840.5 -164 692.5 -164"/><polygon fill="none" stroke="#000" points="692.5 -164 692.5 -186 840.5 -186 840.5 -164 692.5 -164"/><text x="697.5" y="-173.2" font-family="Helvetica,sans-Serif" font-size="11" font-weight="bold" text-anchor="start">transaction_forks</text><text x="801.5" y="-172.2" font-family="Helvetica,sans-Serif" font-size="11" text-anchor="start">[table]</text><polygon fill="none" stroke="#000" points="692.5 -146 692.5 -164 840.5 -164 840.5 -146 692.5 -146"/><text x="695.5" y="-152.2" font-family="Helvetica,sans-Serif" font-size="11" text-anchor="start">...</text><polygon fill="#fff" stroke="none" points="692.5 -128 692.5 -146 750.5 -146 750.5 -128 692.5 -128"/><polygon fill="none" stroke="#000" points="692.5 -128 692.5 -146 750.5 -146 750.5 -128 692.5 -128"/><text x="695.5" y="-134.2" font-family="Helvetica,sans-Serif" font-size="11" text-anchor="start">&lt; 2</text><polygon fill="#fff" stroke="none" points="750.5 -128 750.5 -146 809.5 -146 809.5 -128 750.5 -128"/><polygon fill="none" stroke="#000" points="750.5 -128 750.5 -146 809.5 -146 809.5 -128 750.5 -128"/><text x="770.5" y="-134.2" font-family="Helvetica,sans-Serif" font-size="11" text-anchor="start">0 rows</text><polygon fill="#fff" stroke="none" points="809.5 -128 809.5 -146 840.5 -146 840.5 -128 809.5 -128"/><polygon fill="none" stroke="#000" points="809.5 -128 809.5 -146 840.5 -146 840.5 -128 809.5 -128"/></a></g></g><g id="edge20" class="edge"><title>transaction_forks:elipses:w-&gt;blocks:hash:e</title><path fill="none" stroke="#000" d="M677.354,-158.333C662.941,-166.503 661.701,-187.478 640,-196 574.655,-221.662 379.042,-175.19 325,-220 272.218,-263.766 353.567,-369 285,-369"/><polygon fill="#000" stroke="#000" points="683.713 -156.835 692.326 -158.504 687.607 -155.917 691.5 -155 691.5 -155 691.5 -155 687.607 -155.917 690.674 -151.496 683.713 -156.835 683.713 -156.835"/><ellipse cx="680.598" cy="-157.568" fill="none" stroke="#000" rx="3.2" ry="3.2"/></g><g id="edge19" class="edge"><title>transaction_forks:elipses:w-&gt;transactions:elipses:e</title><path fill="none" stroke="#000" d="M676.939,-154.983C622.851,-154.85 604.14,-154 543.5,-154"/><polygon fill="#000" stroke="#000" points="683.5 -154.99 691.496 -158.6 687.5 -154.995 691.5 -155 691.5 -155 691.5 -155 687.5 -154.995 691.504 -151.4 683.5 -154.99 683.5 -154.99"/><ellipse cx="680.3" cy="-154.987" fill="none" stroke="#000" rx="3.2" ry="3.2"/></g></g></svg>