<svg xmlns="http://www.w3.org/2000/svg" xmlns:xlink="http://www.w3.org/1999/xlink" width="494pt" height="283pt" viewBox="0 0 494 283"><g id="graph0" class="graph" transform="scale(1 1) rotate(0) translate(4 279)"><title>oneDegreeRelationshipsDiagram</title><polygon fill="#fff" stroke="none" points="-4 4 -4 -279 490 -279 490 4 -4 4"/><text x="74.5" y="-7.2" font-family="Helvetica,sans-Serif" font-size="11" text-anchor="middle">Generated by SchemaSpy</text><g id="node1" class="node"><title>pending_block_operations</title><g id="a_node1"><a target="_top" xlink:href="../../tables/pending_block_operations.html" xlink:title="pending_block_operations"><polygon fill="#fff" stroke="none" points="179 -119 179 -251 478 -251 478 -119 179 -119"/><polygon fill="#f5f5f5" stroke="none" points="181.5 -227 181.5 -249 476.5 -249 476.5 -227 181.5 -227"/><polygon fill="none" stroke="#000" points="181.5 -227 181.5 -249 476.5 -249 476.5 -227 181.5 -227"/><text x="186.5" y="-236.2" font-family="Helvetica,sans-Serif" font-size="11" font-weight="bold" text-anchor="start">pending_block_operations</text><text x="437.5" y="-235.2" font-family="Helvetica,sans-Serif" font-size="11" text-anchor="start">[table]</text><polygon fill="none" stroke="#000" points="181.5 -205 181.5 -227 366.5 -227 366.5 -205 181.5 -205"/><image width="11" height="12" x="186.5" y="-222" preserveAspectRatio="xMinYMin meet" xlink:href="../../images/primaryKeys.png"/><text x="201.5" y="-213.2" font-family="Helvetica,sans-Serif" font-size="11" text-anchor="start">block_hash</text><polygon fill="none" stroke="#000" points="366.5 -205 366.5 -227 476.5 -227 476.5 -205 366.5 -205"/><text x="369.5" y="-213.2" font-family="Helvetica,sans-Serif" font-size="11" text-anchor="start">bytea[2147483647]</text><polygon fill="none" stroke="#000" points="181.5 -183 181.5 -205 366.5 -205 366.5 -183 181.5 -183"/><text x="201.5" y="-191.2" font-family="Helvetica,sans-Serif" font-size="11" text-anchor="start">inserted_at</text><polygon fill="none" stroke="#000" points="366.5 -183 366.5 -205 476.5 -205 476.5 -183 366.5 -183"/><text x="369.5" y="-191.2" font-family="Helvetica,sans-Serif" font-size="11" text-anchor="start">timestamp[29,6]</text><polygon fill="none" stroke="#000" points="181.5 -161 181.5 -183 366.5 -183 366.5 -161 181.5 -161"/><text x="201.5" y="-169.2" font-family="Helvetica,sans-Serif" font-size="11" text-anchor="start">updated_at</text><polygon fill="none" stroke="#000" points="366.5 -161 366.5 -183 476.5 -183 476.5 -161 366.5 -161"/><text x="369.5" y="-169.2" font-family="Helvetica,sans-Serif" font-size="11" text-anchor="start">timestamp[29,6]</text><polygon fill="none" stroke="#000" points="181.5 -139 181.5 -161 366.5 -161 366.5 -139 181.5 -139"/><text x="201.5" y="-147.2" font-family="Helvetica,sans-Serif" font-size="11" text-anchor="start">fetch_internal_transactions</text><polygon fill="none" stroke="#000" points="366.5 -139 366.5 -161 476.5 -161 476.5 -139 366.5 -139"/><text x="369.5" y="-147.2" font-family="Helvetica,sans-Serif" font-size="11" text-anchor="start">bool[1]</text><polygon fill="#fff" stroke="none" points="181.5 -121 181.5 -139 266.5 -139 266.5 -121 181.5 -121"/><polygon fill="none" stroke="#000" points="181.5 -121 181.5 -139 266.5 -139 266.5 -121 181.5 -121"/><text x="184.5" y="-127.2" font-family="Helvetica,sans-Serif" font-size="11" text-anchor="start">&lt; 1</text><polygon fill="#fff" stroke="none" points="266.5 -121 266.5 -139 366.5 -139 366.5 -121 266.5 -121"/><polygon fill="none" stroke="#000" points="266.5 -121 266.5 -139 366.5 -139 366.5 -121 266.5 -121"/><text x="332.5" y="-127.2" font-family="Helvetica,sans-Serif" font-size="11" text-anchor="start">1 row</text><polygon fill="#fff" stroke="none" points="366.5 -121 366.5 -139 476.5 -139 476.5 -121 366.5 -121"/><polygon fill="none" stroke="#000" points="366.5 -121 366.5 -139 476.5 -139 476.5 -121 366.5 -121"/><text x="456.5" y="-127.2" font-family="Helvetica,sans-Serif" font-size="11" text-anchor="start">0 &gt;</text><polygon fill="none" stroke="#000" stroke-width="2" points="180 -120 180 -250 477 -250 477 -120 180 -120"/></a></g></g><g id="node2" class="node"><title>blocks</title><g id="a_node2"><a target="_top" xlink:href="../../tables/blocks.html" xlink:title="blocks"><polygon fill="#fff" stroke="none" points="8 -37 8 -271 130 -271 130 -37 8 -37"/><polygon fill="#f5f5f5" stroke="none" points="8 -249 8 -271 130 -271 130 -249 8 -249"/><polygon fill="none" stroke="#000" points="8 -249 8 -271 130 -271 130 -249 8 -249"/><text x="13" y="-258.2" font-family="Helvetica,sans-Serif" font-size="11" font-weight="bold" text-anchor="start">blocks</text><text x="91" y="-257.2" font-family="Helvetica,sans-Serif" font-size="11" text-anchor="start">[table]</text><polygon fill="#fff" stroke="none" points="8 -227 8 -249 130 -249 130 -227 8 -227"/><polygon fill="none" stroke="#000" points="8 -227 8 -249 130 -249 130 -227 8 -227"/><text x="28" y="-235.2" font-family="Helvetica,sans-Serif" font-size="11" text-anchor="start">consensus</text><polygon fill="none" stroke="#000" points="8 -205 8 -227 130 -227 130 -205 8 -205"/><image width="11" height="12" x="13" y="-222" preserveAspectRatio="xMinYMin meet" xlink:href="../../images/primaryKeys.png"/><text x="28" y="-213.2" font-family="Helvetica,sans-Serif" font-size="11" text-anchor="start">hash</text><polygon fill="#fff" stroke="none" points="8 -183 8 -205 130 -205 130 -183 8 -183"/><polygon fill="none" stroke="#000" points="8 -183 8 -205 130 -205 130 -183 8 -183"/><image width="11" height="12" x="13" y="-200" preserveAspectRatio="xMinYMin meet" xlink:href="../../images/foreignKeys.png"/><text x="28" y="-191.2" font-family="Helvetica,sans-Serif" font-size="11" text-anchor="start">miner_hash</text><polygon fill="#fff" stroke="none" points="8 -161 8 -183 130 -183 130 -161 8 -161"/><polygon fill="none" stroke="#000" points="8 -161 8 -183 130 -183 130 -161 8 -161"/><text x="28" y="-169.2" font-family="Helvetica,sans-Serif" font-size="11" text-anchor="start">number</text><polygon fill="#fff" stroke="none" points="8 -139 8 -161 130 -161 130 -139 8 -139"/><polygon fill="none" stroke="#000" points="8 -139 8 -161 130 -161 130 -139 8 -139"/><text x="28" y="-147.2" font-family="Helvetica,sans-Serif" font-size="11" text-anchor="start">parent_hash</text><polygon fill="#fff" stroke="none" points="8 -117 8 -139 130 -139 130 -117 8 -117"/><polygon fill="none" stroke="#000" points="8 -117 8 -139 130 -139 130 -117 8 -117"/><text x="28" y="-125.2" font-family="Helvetica,sans-Serif" font-size="11" text-anchor="start">timestamp</text><polygon fill="#fff" stroke="none" points="8 -95 8 -117 130 -117 130 -95 8 -95"/><polygon fill="none" stroke="#000" points="8 -95 8 -117 130 -117 130 -95 8 -95"/><text x="28" y="-103.2" font-family="Helvetica,sans-Serif" font-size="11" text-anchor="start">inserted_at</text><polygon fill="#fff" stroke="none" points="8 -73 8 -95 130 -95 130 -73 8 -73"/><polygon fill="none" stroke="#000" points="8 -73 8 -95 130 -95 130 -73 8 -73"/><text x="28" y="-81.2" font-family="Helvetica,sans-Serif" font-size="11" text-anchor="start">is_empty</text><polygon fill="none" stroke="#000" points="8 -55 8 -73 130 -73 130 -55 8 -55"/><text x="11" y="-61.2" font-family="Helvetica,sans-Serif" font-size="11" text-anchor="start">...</text><polygon fill="#fff" stroke="none" points="8 -37 8 -55 48 -55 48 -37 8 -37"/><polygon fill="none" stroke="#000" points="8 -37 8 -55 48 -55 48 -37 8 -37"/><text x="11" y="-43.2" font-family="Helvetica,sans-Serif" font-size="11" text-anchor="start">&lt; 1</text><polygon fill="#fff" stroke="none" points="48 -37 48 -55 98 -55 98 -37 48 -37"/><polygon fill="none" stroke="#000" points="48 -37 48 -55 98 -55 98 -37 48 -37"/><text x="59" y="-43.2" font-family="Helvetica,sans-Serif" font-size="11" text-anchor="start">3 rows</text><polygon fill="#fff" stroke="none" points="98 -37 98 -55 130 -55 130 -37 98 -37"/><polygon fill="none" stroke="#000" points="98 -37 98 -55 130 -55 130 -37 98 -37"/><text x="110" y="-43.2" font-family="Helvetica,sans-Serif" font-size="11" text-anchor="start">8 &gt;</text></a></g></g><g id="edge1" class="edge"><title>pending_block_operations:block_hash:w-&gt;blocks:hash:e</title><path fill="none" stroke="#000" d="M170.047,-216C155.991,-216 149.047,-216 131,-216"/><polygon fill="#000" stroke="#000" points="179.7 -212 179.7 -220 178.1 -220 178.1 -212 179.7 -212"/><polyline fill="none" stroke="#000" points="180.5 -216 176.5 -216"/><ellipse cx="173.3" cy="-216" fill="none" stroke="#000" rx="3.2" ry="3.2"/></g></g></svg>