<svg xmlns="http://www.w3.org/2000/svg" xmlns:xlink="http://www.w3.org/1999/xlink" width="583pt" height="300" viewBox="0 0 583 225"><g id="graph0" class="graph" transform="scale(1 1) rotate(0) translate(4 221)"><title>oneDegreeRelationshipsDiagram</title><polygon fill="#fff" stroke="none" points="-4 4 -4 -221 579 -221 579 4 -4 4"/><text x="74.5" y="-7.2" font-family="Helvetica,sans-Serif" font-size="11" text-anchor="middle">Generated by SchemaSpy</text><g id="node1" class="node"><title>smart_contracts_additional_sources</title><g id="a_node1"><a target="_top" xlink:href="../../tables/smart_contracts_additional_sources.html" xlink:title="smart_contracts_additional_sources"><polygon fill="#fff" stroke="none" points="218 -37 218 -213 567 -213 567 -37 218 -37"/><polygon fill="#f5f5f5" stroke="none" points="220.5 -189 220.5 -211 565.5 -211 565.5 -189 220.5 -189"/><polygon fill="none" stroke="#000" points="220.5 -189 220.5 -211 565.5 -211 565.5 -189 220.5 -189"/><text x="225.5" y="-198.2" font-family="Helvetica,sans-Serif" font-size="11" font-weight="bold" text-anchor="start">smart_contracts_additional_sources</text><text x="526.5" y="-197.2" font-family="Helvetica,sans-Serif" font-size="11" text-anchor="start">[table]</text><polygon fill="none" stroke="#000" points="220.5 -167 220.5 -189 455.5 -189 455.5 -167 220.5 -167"/><image width="11" height="12" x="225.5" y="-184" preserveAspectRatio="xMinYMin meet" xlink:href="../../images/primaryKeys.png"/><text x="240.5" y="-175.2" font-family="Helvetica,sans-Serif" font-size="11" text-anchor="start">id</text><polygon fill="none" stroke="#000" points="455.5 -167 455.5 -189 565.5 -189 565.5 -167 455.5 -167"/><text x="458.5" y="-175.2" font-family="Helvetica,sans-Serif" font-size="11" text-anchor="start">bigserial[19]</text><polygon fill="none" stroke="#000" points="220.5 -145 220.5 -167 455.5 -167 455.5 -145 220.5 -145"/><text x="240.5" y="-153.2" font-family="Helvetica,sans-Serif" font-size="11" text-anchor="start">file_name</text><polygon fill="none" stroke="#000" points="455.5 -145 455.5 -167 565.5 -167 565.5 -145 455.5 -145"/><text x="458.5" y="-153.2" font-family="Helvetica,sans-Serif" font-size="11" text-anchor="start">varchar[255]</text><polygon fill="none" stroke="#000" points="220.5 -123 220.5 -145 455.5 -145 455.5 -123 220.5 -123"/><text x="240.5" y="-131.2" font-family="Helvetica,sans-Serif" font-size="11" text-anchor="start">contract_source_code</text><polygon fill="none" stroke="#000" points="455.5 -123 455.5 -145 565.5 -145 565.5 -123 455.5 -123"/><text x="458.5" y="-131.2" font-family="Helvetica,sans-Serif" font-size="11" text-anchor="start">text[2147483647]</text><polygon fill="#fff" stroke="none" points="220.5 -101 220.5 -123 455.5 -123 455.5 -101 220.5 -101"/><polygon fill="none" stroke="#000" points="220.5 -101 220.5 -123 455.5 -123 455.5 -101 220.5 -101"/><image width="11" height="12" x="225.5" y="-118" preserveAspectRatio="xMinYMin meet" xlink:href="../../images/foreignKeys.png"/><text x="240.5" y="-109.2" font-family="Helvetica,sans-Serif" font-size="11" text-anchor="start">address_hash</text><polygon fill="none" stroke="#000" points="455.5 -101 455.5 -123 565.5 -123 565.5 -101 455.5 -101"/><text x="458.5" y="-109.2" font-family="Helvetica,sans-Serif" font-size="11" text-anchor="start">bytea[2147483647]</text><polygon fill="none" stroke="#000" points="220.5 -79 220.5 -101 455.5 -101 455.5 -79 220.5 -79"/><text x="240.5" y="-87.2" font-family="Helvetica,sans-Serif" font-size="11" text-anchor="start">inserted_at</text><polygon fill="none" stroke="#000" points="455.5 -79 455.5 -101 565.5 -101 565.5 -79 455.5 -79"/><text x="458.5" y="-87.2" font-family="Helvetica,sans-Serif" font-size="11" text-anchor="start">timestamp[29,6]</text><polygon fill="none" stroke="#000" points="220.5 -57 220.5 -79 455.5 -79 455.5 -57 220.5 -57"/><text x="240.5" y="-65.2" font-family="Helvetica,sans-Serif" font-size="11" text-anchor="start">updated_at</text><polygon fill="none" stroke="#000" points="455.5 -57 455.5 -79 565.5 -79 565.5 -57 455.5 -57"/><text x="458.5" y="-65.2" font-family="Helvetica,sans-Serif" font-size="11" text-anchor="start">timestamp[29,6]</text><polygon fill="#fff" stroke="none" points="220.5 -39 220.5 -57 328.5 -57 328.5 -39 220.5 -39"/><polygon fill="none" stroke="#000" points="220.5 -39 220.5 -57 328.5 -57 328.5 -39 220.5 -39"/><text x="223.5" y="-45.2" font-family="Helvetica,sans-Serif" font-size="11" text-anchor="start">&lt; 1</text><polygon fill="#fff" stroke="none" points="328.5 -39 328.5 -57 455.5 -57 455.5 -39 328.5 -39"/><polygon fill="none" stroke="#000" points="328.5 -39 328.5 -57 455.5 -57 455.5 -39 328.5 -39"/><text x="416.5" y="-45.2" font-family="Helvetica,sans-Serif" font-size="11" text-anchor="start">0 rows</text><polygon fill="#fff" stroke="none" points="455.5 -39 455.5 -57 565.5 -57 565.5 -39 455.5 -39"/><polygon fill="none" stroke="#000" points="455.5 -39 455.5 -57 565.5 -57 565.5 -39 455.5 -39"/><text x="545.5" y="-45.2" font-family="Helvetica,sans-Serif" font-size="11" text-anchor="start">0 &gt;</text><polygon fill="none" stroke="#000" stroke-width="2" points="219 -38 219 -212 566 -212 566 -38 219 -38"/></a></g></g><g id="node2" class="node"><title>smart_contracts</title><g id="a_node2"><a target="_top" xlink:href="../../tables/smart_contracts.html" xlink:title="smart_contracts"><polygon fill="#fff" stroke="none" points="8 -43 8 -167 169 -167 169 -43 8 -43"/><polygon fill="#f5f5f5" stroke="none" points="8.5 -145 8.5 -167 169.5 -167 169.5 -145 8.5 -145"/><polygon fill="none" stroke="#000" points="8.5 -145 8.5 -167 169.5 -167 169.5 -145 8.5 -145"/><text x="13.5" y="-154.2" font-family="Helvetica,sans-Serif" font-size="11" font-weight="bold" text-anchor="start">smart_contracts</text><text x="130.5" y="-153.2" font-family="Helvetica,sans-Serif" font-size="11" text-anchor="start">[table]</text><polygon fill="none" stroke="#000" points="8.5 -123 8.5 -145 169.5 -145 169.5 -123 8.5 -123"/><image width="11" height="12" x="13.5" y="-140" preserveAspectRatio="xMinYMin meet" xlink:href="../../images/primaryKeys.png"/><text x="28.5" y="-131.2" font-family="Helvetica,sans-Serif" font-size="11" text-anchor="start">id</text><polygon fill="#fff" stroke="none" points="8.5 -101 8.5 -123 169.5 -123 169.5 -101 8.5 -101"/><polygon fill="none" stroke="#000" points="8.5 -101 8.5 -123 169.5 -123 169.5 -101 8.5 -101"/><image width="11" height="12" x="13.5" y="-118" preserveAspectRatio="xMinYMin meet" xlink:href="../../images/foreignKeys.png"/><text x="28.5" y="-109.2" font-family="Helvetica,sans-Serif" font-size="11" text-anchor="start">address_hash</text><polygon fill="#fff" stroke="none" points="8.5 -79 8.5 -101 169.5 -101 169.5 -79 8.5 -79"/><polygon fill="none" stroke="#000" points="8.5 -79 8.5 -101 169.5 -101 169.5 -79 8.5 -79"/><text x="28.5" y="-87.2" font-family="Helvetica,sans-Serif" font-size="11" text-anchor="start">contract_code_md5</text><polygon fill="none" stroke="#000" points="8.5 -61 8.5 -79 169.5 -79 169.5 -61 8.5 -61"/><text x="11.5" y="-67.2" font-family="Helvetica,sans-Serif" font-size="11" text-anchor="start">...</text><polygon fill="#fff" stroke="none" points="8.5 -43 8.5 -61 67.5 -61 67.5 -43 8.5 -43"/><polygon fill="none" stroke="#000" points="8.5 -43 8.5 -61 67.5 -61 67.5 -43 8.5 -43"/><text x="11.5" y="-49.2" font-family="Helvetica,sans-Serif" font-size="11" text-anchor="start">&lt; 1</text><polygon fill="#fff" stroke="none" points="67.5 -43 67.5 -61 127.5 -61 127.5 -43 67.5 -43"/><polygon fill="none" stroke="#000" points="67.5 -43 67.5 -61 127.5 -61 127.5 -43 67.5 -43"/><text x="88.5" y="-49.2" font-family="Helvetica,sans-Serif" font-size="11" text-anchor="start">0 rows</text><polygon fill="#fff" stroke="none" points="127.5 -43 127.5 -61 169.5 -61 169.5 -43 127.5 -43"/><polygon fill="none" stroke="#000" points="127.5 -43 127.5 -61 169.5 -61 169.5 -43 127.5 -43"/><text x="149.5" y="-49.2" font-family="Helvetica,sans-Serif" font-size="11" text-anchor="start">1 &gt;</text></a></g></g><g id="edge1" class="edge"><title>smart_contracts_additional_sources:address_hash:w-&gt;smart_contracts:address_hash:e</title><path fill="none" stroke="#000" d="M204.991,-112C193.677,-112 186.493,-112 170.5,-112"/><polygon fill="#000" stroke="#000" points="211.5 -112 219.5 -115.6 215.5 -112 219.5 -112 219.5 -112 219.5 -112 215.5 -112 219.5 -108.4 211.5 -112 211.5 -112"/><ellipse cx="208.3" cy="-112" fill="none" stroke="#000" rx="3.2" ry="3.2"/></g></g></svg>