<svg xmlns="http://www.w3.org/2000/svg" xmlns:xlink="http://www.w3.org/1999/xlink" width="892pt" height="740" viewBox="0 0 892 555"><g id="graph0" class="graph" transform="scale(1 1) rotate(0) translate(4 551)"><title>oneDegreeRelationshipsDiagram</title><polygon fill="#fff" stroke="none" points="-4 4 -4 -551 888 -551 888 4 -4 4"/><text x="74.5" y="-7.2" font-family="Helvetica,sans-Serif" font-size="11" text-anchor="middle">Generated by SchemaSpy</text><g id="node1" class="node"><title>smart_contracts</title><g id="a_node1"><a target="_top" xlink:href="../../tables/smart_contracts.html" xlink:title="smart_contracts"><polygon fill="#fff" stroke="none" points="295 -37 295 -543 575 -543 575 -37 295 -37"/><polygon fill="#f5f5f5" stroke="none" points="297 -519 297 -541 573 -541 573 -519 297 -519"/><polygon fill="none" stroke="#000" points="297 -519 297 -541 573 -541 573 -519 297 -519"/><text x="302" y="-528.2" font-family="Helvetica,sans-Serif" font-size="11" font-weight="bold" text-anchor="start">smart_contracts</text><text x="534" y="-527.2" font-family="Helvetica,sans-Serif" font-size="11" text-anchor="start">[table]</text><polygon fill="none" stroke="#000" points="297 -497 297 -519 458 -519 458 -497 297 -497"/><image width="11" height="12" x="302" y="-514" preserveAspectRatio="xMinYMin meet" xlink:href="../../images/primaryKeys.png"/><text x="317" y="-505.2" font-family="Helvetica,sans-Serif" font-size="11" text-anchor="start">id</text><polygon fill="none" stroke="#000" points="458 -497 458 -519 573 -519 573 -497 458 -497"/><text x="461" y="-505.2" font-family="Helvetica,sans-Serif" font-size="11" text-anchor="start">bigserial[19]</text><polygon fill="none" stroke="#000" points="297 -475 297 -497 458 -497 458 -475 297 -475"/><text x="317" y="-483.2" font-family="Helvetica,sans-Serif" font-size="11" text-anchor="start">name</text><polygon fill="none" stroke="#000" points="458 -475 458 -497 573 -497 573 -475 458 -475"/><text x="461" y="-483.2" font-family="Helvetica,sans-Serif" font-size="11" text-anchor="start">varchar[255]</text><polygon fill="none" stroke="#000" points="297 -453 297 -475 458 -475 458 -453 297 -453"/><text x="317" y="-461.2" font-family="Helvetica,sans-Serif" font-size="11" text-anchor="start">compiler_version</text><polygon fill="none" stroke="#000" points="458 -453 458 -475 573 -475 573 -453 458 -453"/><text x="461" y="-461.2" font-family="Helvetica,sans-Serif" font-size="11" text-anchor="start">varchar[255]</text><polygon fill="none" stroke="#000" points="297 -431 297 -453 458 -453 458 -431 297 -431"/><text x="317" y="-439.2" font-family="Helvetica,sans-Serif" font-size="11" text-anchor="start">optimization</text><polygon fill="none" stroke="#000" points="458 -431 458 -453 573 -453 573 -431 458 -431"/><text x="461" y="-439.2" font-family="Helvetica,sans-Serif" font-size="11" text-anchor="start">bool[1]</text><polygon fill="none" stroke="#000" points="297 -409 297 -431 458 -431 458 -409 297 -409"/><text x="317" y="-417.2" font-family="Helvetica,sans-Serif" font-size="11" text-anchor="start">contract_source_code</text><polygon fill="none" stroke="#000" points="458 -409 458 -431 573 -431 573 -409 458 -409"/><text x="461" y="-417.2" font-family="Helvetica,sans-Serif" font-size="11" text-anchor="start">text[2147483647]</text><polygon fill="none" stroke="#000" points="297 -387 297 -409 458 -409 458 -387 297 -387"/><text x="317" y="-395.2" font-family="Helvetica,sans-Serif" font-size="11" text-anchor="start">abi</text><polygon fill="none" stroke="#000" points="458 -387 458 -409 573 -409 573 -387 458 -387"/><text x="461" y="-395.2" font-family="Helvetica,sans-Serif" font-size="11" text-anchor="start">jsonb[2147483647]</text><polygon fill="#fff" stroke="none" points="297 -365 297 -387 458 -387 458 -365 297 -365"/><polygon fill="none" stroke="#000" points="297 -365 297 -387 458 -387 458 -365 297 -365"/><image width="11" height="12" x="302" y="-382" preserveAspectRatio="xMinYMin meet" xlink:href="../../images/foreignKeys.png"/><text x="317" y="-373.2" font-family="Helvetica,sans-Serif" font-size="11" text-anchor="start">address_hash</text><polygon fill="none" stroke="#000" points="458 -365 458 -387 573 -387 573 -365 458 -365"/><text x="461" y="-373.2" font-family="Helvetica,sans-Serif" font-size="11" text-anchor="start">bytea[2147483647]</text><polygon fill="none" stroke="#000" points="297 -343 297 -365 458 -365 458 -343 297 -343"/><text x="317" y="-351.2" font-family="Helvetica,sans-Serif" font-size="11" text-anchor="start">inserted_at</text><polygon fill="none" stroke="#000" points="458 -343 458 -365 573 -365 573 -343 458 -343"/><text x="461" y="-351.2" font-family="Helvetica,sans-Serif" font-size="11" text-anchor="start">timestamp[29,6]</text><polygon fill="none" stroke="#000" points="297 -321 297 -343 458 -343 458 -321 297 -321"/><text x="317" y="-329.2" font-family="Helvetica,sans-Serif" font-size="11" text-anchor="start">updated_at</text><polygon fill="none" stroke="#000" points="458 -321 458 -343 573 -343 573 -321 458 -321"/><text x="461" y="-329.2" font-family="Helvetica,sans-Serif" font-size="11" text-anchor="start">timestamp[29,6]</text><polygon fill="none" stroke="#000" points="297 -299 297 -321 458 -321 458 -299 297 -299"/><text x="317" y="-307.2" font-family="Helvetica,sans-Serif" font-size="11" text-anchor="start">constructor_arguments</text><polygon fill="none" stroke="#000" points="458 -299 458 -321 573 -321 573 -299 458 -299"/><text x="461" y="-307.2" font-family="Helvetica,sans-Serif" font-size="11" text-anchor="start">text[2147483647]</text><polygon fill="none" stroke="#000" points="297 -277 297 -299 458 -299 458 -277 297 -277"/><text x="317" y="-285.2" font-family="Helvetica,sans-Serif" font-size="11" text-anchor="start">optimization_runs</text><polygon fill="none" stroke="#000" points="458 -277 458 -299 573 -299 573 -277 458 -277"/><text x="461" y="-285.2" font-family="Helvetica,sans-Serif" font-size="11" text-anchor="start">int8[19]</text><polygon fill="none" stroke="#000" points="297 -255 297 -277 458 -277 458 -255 297 -255"/><text x="317" y="-263.2" font-family="Helvetica,sans-Serif" font-size="11" text-anchor="start">evm_version</text><polygon fill="none" stroke="#000" points="458 -255 458 -277 573 -277 573 -255 458 -255"/><text x="461" y="-263.2" font-family="Helvetica,sans-Serif" font-size="11" text-anchor="start">varchar[255]</text><polygon fill="none" stroke="#000" points="297 -233 297 -255 458 -255 458 -233 297 -233"/><text x="317" y="-241.2" font-family="Helvetica,sans-Serif" font-size="11" text-anchor="start">external_libraries</text><polygon fill="none" stroke="#000" points="458 -233 458 -255 573 -255 573 -233 458 -233"/><text x="461" y="-241.2" font-family="Helvetica,sans-Serif" font-size="11" text-anchor="start">_jsonb[2147483647]</text><polygon fill="none" stroke="#000" points="297 -211 297 -233 458 -233 458 -211 297 -211"/><text x="317" y="-219.2" font-family="Helvetica,sans-Serif" font-size="11" text-anchor="start">verified_via_sourcify</text><polygon fill="none" stroke="#000" points="458 -211 458 -233 573 -233 573 -211 458 -211"/><text x="461" y="-219.2" font-family="Helvetica,sans-Serif" font-size="11" text-anchor="start">bool[1]</text><polygon fill="none" stroke="#000" points="297 -189 297 -211 458 -211 458 -189 297 -189"/><text x="317" y="-197.2" font-family="Helvetica,sans-Serif" font-size="11" text-anchor="start">is_vyper_contract</text><polygon fill="none" stroke="#000" points="458 -189 458 -211 573 -211 573 -189 458 -189"/><text x="461" y="-197.2" font-family="Helvetica,sans-Serif" font-size="11" text-anchor="start">bool[1]</text><polygon fill="none" stroke="#000" points="297 -167 297 -189 458 -189 458 -167 297 -167"/><text x="317" y="-175.2" font-family="Helvetica,sans-Serif" font-size="11" text-anchor="start">partially_verified</text><polygon fill="none" stroke="#000" points="458 -167 458 -189 573 -189 573 -167 458 -167"/><text x="461" y="-175.2" font-family="Helvetica,sans-Serif" font-size="11" text-anchor="start">bool[1]</text><polygon fill="none" stroke="#000" points="297 -145 297 -167 458 -167 458 -145 297 -145"/><text x="317" y="-153.2" font-family="Helvetica,sans-Serif" font-size="11" text-anchor="start">file_path</text><polygon fill="none" stroke="#000" points="458 -145 458 -167 573 -167 573 -145 458 -145"/><text x="461" y="-153.2" font-family="Helvetica,sans-Serif" font-size="11" text-anchor="start">text[2147483647]</text><polygon fill="none" stroke="#000" points="297 -123 297 -145 458 -145 458 -123 297 -123"/><text x="317" y="-131.2" font-family="Helvetica,sans-Serif" font-size="11" text-anchor="start">is_changed_bytecode</text><polygon fill="none" stroke="#000" points="458 -123 458 -145 573 -145 573 -123 458 -123"/><text x="461" y="-131.2" font-family="Helvetica,sans-Serif" font-size="11" text-anchor="start">bool[1]</text><polygon fill="none" stroke="#000" points="297 -101 297 -123 458 -123 458 -101 297 -101"/><text x="317" y="-109.2" font-family="Helvetica,sans-Serif" font-size="11" text-anchor="start">bytecode_checked_at</text><polygon fill="none" stroke="#000" points="458 -101 458 -123 573 -123 573 -101 458 -101"/><text x="461" y="-109.2" font-family="Helvetica,sans-Serif" font-size="11" text-anchor="start">timestamp[29,6]</text><polygon fill="#fff" stroke="none" points="297 -79 297 -101 458 -101 458 -79 297 -79"/><polygon fill="none" stroke="#000" points="297 -79 297 -101 458 -101 458 -79 297 -79"/><text x="317" y="-87.2" font-family="Helvetica,sans-Serif" font-size="11" text-anchor="start">contract_code_md5</text><polygon fill="none" stroke="#000" points="458 -79 458 -101 573 -101 573 -79 458 -79"/><text x="461" y="-87.2" font-family="Helvetica,sans-Serif" font-size="11" text-anchor="start">varchar[255]</text><polygon fill="none" stroke="#000" points="297 -57 297 -79 458 -79 458 -57 297 -57"/><text x="317" y="-65.2" font-family="Helvetica,sans-Serif" font-size="11" text-anchor="start">implementation_name</text><polygon fill="none" stroke="#000" points="458 -57 458 -79 573 -79 573 -57 458 -57"/><text x="461" y="-65.2" font-family="Helvetica,sans-Serif" font-size="11" text-anchor="start">varchar[255]</text><polygon fill="#fff" stroke="none" points="297 -39 297 -57 368 -57 368 -39 297 -39"/><polygon fill="none" stroke="#000" points="297 -39 297 -57 368 -57 368 -39 297 -39"/><text x="300" y="-45.2" font-family="Helvetica,sans-Serif" font-size="11" text-anchor="start">&lt; 1</text><polygon fill="#fff" stroke="none" points="368 -39 368 -57 458 -57 458 -39 368 -39"/><polygon fill="none" stroke="#000" points="368 -39 368 -57 458 -57 458 -39 368 -39"/><text x="419" y="-45.2" font-family="Helvetica,sans-Serif" font-size="11" text-anchor="start">0 rows</text><polygon fill="#fff" stroke="none" points="458 -39 458 -57 573 -57 573 -39 458 -39"/><polygon fill="none" stroke="#000" points="458 -39 458 -57 573 -57 573 -39 458 -39"/><text x="553" y="-45.2" font-family="Helvetica,sans-Serif" font-size="11" text-anchor="start">1 &gt;</text><polygon fill="none" stroke="#000" stroke-width="2" points="296 -38 296 -542 574 -542 574 -38 296 -38"/></a></g></g><g id="node2" class="node"><title>addresses</title><g id="a_node2"><a target="_top" xlink:href="../../tables/addresses.html" xlink:title="addresses"><polygon fill="#fff" stroke="none" points="8 -307 8 -431 246 -431 246 -307 8 -307"/><polygon fill="#f5f5f5" stroke="none" points="8 -409 8 -431 246 -431 246 -409 8 -409"/><polygon fill="none" stroke="#000" points="8 -409 8 -431 246 -431 246 -409 8 -409"/><text x="13" y="-418.2" font-family="Helvetica,sans-Serif" font-size="11" font-weight="bold" text-anchor="start">addresses</text><text x="207" y="-417.2" font-family="Helvetica,sans-Serif" font-size="11" text-anchor="start">[table]</text><polygon fill="#fff" stroke="none" points="8 -387 8 -409 246 -409 246 -387 8 -387"/><polygon fill="none" stroke="#000" points="8 -387 8 -409 246 -409 246 -387 8 -387"/><text x="28" y="-395.2" font-family="Helvetica,sans-Serif" font-size="11" text-anchor="start">fetched_coin_balance</text><polygon fill="none" stroke="#000" points="8 -365 8 -387 246 -387 246 -365 8 -365"/><image width="11" height="12" x="13" y="-382" preserveAspectRatio="xMinYMin meet" xlink:href="../../images/primaryKeys.png"/><text x="28" y="-373.2" font-family="Helvetica,sans-Serif" font-size="11" text-anchor="start">hash</text><polygon fill="#fff" stroke="none" points="8 -343 8 -365 246 -365 246 -343 8 -343"/><polygon fill="none" stroke="#000" points="8 -343 8 -365 246 -365 246 -343 8 -343"/><text x="28" y="-351.2" font-family="Helvetica,sans-Serif" font-size="11" text-anchor="start">inserted_at</text><polygon fill="none" stroke="#000" points="8 -325 8 -343 246 -343 246 -325 8 -325"/><text x="11" y="-331.2" font-family="Helvetica,sans-Serif" font-size="11" text-anchor="start">...</text><polygon fill="#fff" stroke="none" points="8 -307 8 -325 97 -325 97 -307 8 -307"/><polygon fill="none" stroke="#000" points="8 -307 8 -325 97 -325 97 -307 8 -307"/><polygon fill="#fff" stroke="none" points="97 -307 97 -325 177 -325 177 -307 97 -307"/><polygon fill="none" stroke="#000" points="97 -307 97 -325 177 -325 177 -307 97 -307"/><text x="138" y="-313.2" font-family="Helvetica,sans-Serif" font-size="11" text-anchor="start">2 rows</text><polygon fill="#fff" stroke="none" points="177 -307 177 -325 246 -325 246 -307 177 -307"/><polygon fill="none" stroke="#000" points="177 -307 177 -325 246 -325 246 -307 177 -307"/><text x="219" y="-313.2" font-family="Helvetica,sans-Serif" font-size="11" text-anchor="start">19 &gt;</text></a></g></g><g id="edge1" class="edge"><title>smart_contracts:address_hash:w-&gt;addresses:hash:e</title><path fill="none" stroke="#000" d="M285.257,-376C271.606,-376 264.694,-376 247,-376"/><polygon fill="#000" stroke="#000" points="295.2 -372 295.2 -380 293.6 -380 293.6 -372 295.2 -372"/><polyline fill="none" stroke="#000" points="296 -376 292 -376"/><ellipse cx="288.8" cy="-376" fill="none" stroke="#000" rx="3.2" ry="3.2"/></g><g id="node3" class="node"><title>smart_contracts_additional_sources</title><g id="a_node3"><a target="_top" xlink:href="../../tables/smart_contracts_additional_sources.html" xlink:title="smart_contracts_additional_sources"><polygon fill="#fff" stroke="none" points="624 -329 624 -431 876 -431 876 -329 624 -329"/><polygon fill="#f5f5f5" stroke="none" points="624 -409 624 -431 876 -431 876 -409 624 -409"/><polygon fill="none" stroke="#000" points="624 -409 624 -431 876 -431 876 -409 624 -409"/><text x="629" y="-418.2" font-family="Helvetica,sans-Serif" font-size="11" font-weight="bold" text-anchor="start">smart_contracts_additional_sources</text><text x="837" y="-417.2" font-family="Helvetica,sans-Serif" font-size="11" text-anchor="start">[table]</text><polygon fill="none" stroke="#000" points="624 -387 624 -409 876 -409 876 -387 624 -387"/><image width="11" height="12" x="629" y="-404" preserveAspectRatio="xMinYMin meet" xlink:href="../../images/primaryKeys.png"/><text x="653" y="-395.2" font-family="Helvetica,sans-Serif" font-size="11" text-anchor="start">id</text><polygon fill="#fff" stroke="none" points="624 -365 624 -387 876 -387 876 -365 624 -365"/><polygon fill="none" stroke="#000" points="624 -365 624 -387 876 -387 876 -365 624 -365"/><image width="11" height="12" x="629" y="-382" preserveAspectRatio="xMinYMin meet" xlink:href="../../images/foreignKeys.png"/><text x="653" y="-373.2" font-family="Helvetica,sans-Serif" font-size="11" text-anchor="start">address_hash</text><polygon fill="none" stroke="#000" points="624 -347 624 -365 876 -365 876 -347 624 -347"/><text x="627" y="-353.2" font-family="Helvetica,sans-Serif" font-size="11" text-anchor="start">...</text><polygon fill="#fff" stroke="none" points="624 -329 624 -347 734 -347 734 -329 624 -329"/><polygon fill="none" stroke="#000" points="624 -329 624 -347 734 -347 734 -329 624 -329"/><text x="627" y="-335.2" font-family="Helvetica,sans-Serif" font-size="11" text-anchor="start">&lt; 1</text><polygon fill="#fff" stroke="none" points="734 -329 734 -347 819 -347 819 -329 734 -329"/><polygon fill="none" stroke="#000" points="734 -329 734 -347 819 -347 819 -329 734 -329"/><text x="780" y="-335.2" font-family="Helvetica,sans-Serif" font-size="11" text-anchor="start">0 rows</text><polygon fill="#fff" stroke="none" points="819 -329 819 -347 876 -347 876 -329 819 -329"/><polygon fill="none" stroke="#000" points="819 -329 819 -347 876 -347 876 -329 819 -329"/></a></g></g><g id="edge2" class="edge"><title>smart_contracts_additional_sources:address_hash:w-&gt;smart_contracts:address_hash.type:e</title><path fill="none" stroke="#000" d="M608.491,-376C597.177,-376 589.993,-376 574,-376"/><polygon fill="#000" stroke="#000" points="615 -376 623 -379.6 619 -376 623 -376 623 -376 623 -376 619 -376 623 -372.4 615 -376 615 -376"/><ellipse cx="611.8" cy="-376" fill="none" stroke="#000" rx="3.2" ry="3.2"/></g></g></svg>