<svg xmlns="http://www.w3.org/2000/svg" xmlns:xlink="http://www.w3.org/1999/xlink" width="737pt" height="300" viewBox="0 0 737 225"><g id="graph0" class="graph" transform="scale(1 1) rotate(0) translate(4 221)"><title>twoDegreesRelationshipsDiagram</title><polygon fill="#fff" stroke="none" points="-4 4 -4 -221 733 -221 733 4 -4 4"/><text x="74.5" y="-7.2" font-family="Helvetica,sans-Serif" font-size="11" text-anchor="middle">Generated by SchemaSpy</text><g id="node1" class="node"><title>smart_contracts</title><g id="a_node1"><a target="_top" xlink:href="../../tables/smart_contracts.html" xlink:title="smart_contracts"><polygon fill="#fff" stroke="none" points="162 -43 162 -167 323 -167 323 -43 162 -43"/><polygon fill="#f5f5f5" stroke="none" points="162.5 -145 162.5 -167 323.5 -167 323.5 -145 162.5 -145"/><polygon fill="none" stroke="#000" points="162.5 -145 162.5 -167 323.5 -167 323.5 -145 162.5 -145"/><text x="167.5" y="-154.2" font-family="Helvetica,sans-Serif" font-size="11" font-weight="bold" text-anchor="start">smart_contracts</text><text x="284.5" y="-153.2" font-family="Helvetica,sans-Serif" font-size="11" text-anchor="start">[table]</text><polygon fill="none" stroke="#000" points="162.5 -123 162.5 -145 323.5 -145 323.5 -123 162.5 -123"/><image width="11" height="12" x="167.5" y="-140" preserveAspectRatio="xMinYMin meet" xlink:href="../../images/primaryKeys.png"/><text x="182.5" y="-131.2" font-family="Helvetica,sans-Serif" font-size="11" text-anchor="start">id</text><polygon fill="#fff" stroke="none" points="162.5 -101 162.5 -123 323.5 -123 323.5 -101 162.5 -101"/><polygon fill="none" stroke="#000" points="162.5 -101 162.5 -123 323.5 -123 323.5 -101 162.5 -101"/><image width="11" height="12" x="167.5" y="-118" preserveAspectRatio="xMinYMin meet" xlink:href="../../images/foreignKeys.png"/><text x="182.5" y="-109.2" font-family="Helvetica,sans-Serif" font-size="11" text-anchor="start">address_hash</text><polygon fill="#fff" stroke="none" points="162.5 -79 162.5 -101 323.5 -101 323.5 -79 162.5 -79"/><polygon fill="none" stroke="#000" points="162.5 -79 162.5 -101 323.5 -101 323.5 -79 162.5 -79"/><text x="182.5" y="-87.2" font-family="Helvetica,sans-Serif" font-size="11" text-anchor="start">contract_code_md5</text><polygon fill="none" stroke="#000" points="162.5 -61 162.5 -79 323.5 -79 323.5 -61 162.5 -61"/><text x="165.5" y="-67.2" font-family="Helvetica,sans-Serif" font-size="11" text-anchor="start">...</text><polygon fill="#fff" stroke="none" points="162.5 -43 162.5 -61 221.5 -61 221.5 -43 162.5 -43"/><polygon fill="none" stroke="#000" points="162.5 -43 162.5 -61 221.5 -61 221.5 -43 162.5 -43"/><text x="165.5" y="-49.2" font-family="Helvetica,sans-Serif" font-size="11" text-anchor="start">&lt; 1</text><polygon fill="#fff" stroke="none" points="221.5 -43 221.5 -61 281.5 -61 281.5 -43 221.5 -43"/><polygon fill="none" stroke="#000" points="221.5 -43 221.5 -61 281.5 -61 281.5 -43 221.5 -43"/><text x="242.5" y="-49.2" font-family="Helvetica,sans-Serif" font-size="11" text-anchor="start">0 rows</text><polygon fill="#fff" stroke="none" points="281.5 -43 281.5 -61 323.5 -61 323.5 -43 281.5 -43"/><polygon fill="none" stroke="#000" points="281.5 -43 281.5 -61 323.5 -61 323.5 -43 281.5 -43"/><text x="303.5" y="-49.2" font-family="Helvetica,sans-Serif" font-size="11" text-anchor="start">1 &gt;</text></a></g></g><g id="node2" class="node"><title>addresses</title><g id="a_node2"><a target="_top" xlink:href="../../tables/addresses.html" xlink:title="addresses"><polygon fill="#fff" stroke="none" points="8 -85 8 -143 113 -143 113 -85 8 -85"/><polygon fill="#f5f5f5" stroke="none" points="8.5 -121 8.5 -143 113.5 -143 113.5 -121 8.5 -121"/><polygon fill="none" stroke="#000" points="8.5 -121 8.5 -143 113.5 -143 113.5 -121 8.5 -121"/><text x="13.5" y="-130.2" font-family="Helvetica,sans-Serif" font-size="11" font-weight="bold" text-anchor="start">addresses</text><text x="74.5" y="-129.2" font-family="Helvetica,sans-Serif" font-size="11" text-anchor="start">[table]</text><polygon fill="none" stroke="#000" points="8.5 -103 8.5 -121 113.5 -121 113.5 -103 8.5 -103"/><text x="11.5" y="-109.2" font-family="Helvetica,sans-Serif" font-size="11" text-anchor="start">...</text><polygon fill="#fff" stroke="none" points="8.5 -85 8.5 -103 31.5 -103 31.5 -85 8.5 -85"/><polygon fill="none" stroke="#000" points="8.5 -85 8.5 -103 31.5 -103 31.5 -85 8.5 -85"/><polygon fill="#fff" stroke="none" points="31.5 -85 31.5 -103 78.5 -103 78.5 -85 31.5 -85"/><polygon fill="none" stroke="#000" points="31.5 -85 31.5 -103 78.5 -103 78.5 -85 31.5 -85"/><text x="39.5" y="-91.2" font-family="Helvetica,sans-Serif" font-size="11" text-anchor="start">2 rows</text><polygon fill="#fff" stroke="none" points="78.5 -85 78.5 -103 113.5 -103 113.5 -85 78.5 -85"/><polygon fill="none" stroke="#000" points="78.5 -85 78.5 -103 113.5 -103 113.5 -85 78.5 -85"/><text x="86.5" y="-91.2" font-family="Helvetica,sans-Serif" font-size="11" text-anchor="start">19 &gt;</text></a></g></g><g id="edge1" class="edge"><title>smart_contracts:address_hash:w-&gt;addresses:elipses:e</title><path fill="none" stroke="#000" d="M150.82,-112C137.974,-112 131.309,-112 114.5,-112"/><polygon fill="#000" stroke="#000" points="160.7 -108 160.7 -116 159.1 -116 159.1 -108 160.7 -108"/><polyline fill="none" stroke="#000" points="161.5 -112 157.5 -112"/><ellipse cx="154.3" cy="-112" fill="none" stroke="#000" rx="3.2" ry="3.2"/></g><g id="node3" class="node"><title>smart_contracts_additional_sources</title><g id="a_node3"><a target="_top" xlink:href="../../tables/smart_contracts_additional_sources.html" xlink:title="smart_contracts_additional_sources"><polygon fill="#fff" stroke="none" points="372 -37 372 -213 721 -213 721 -37 372 -37"/><polygon fill="#f5f5f5" stroke="none" points="374.5 -189 374.5 -211 719.5 -211 719.5 -189 374.5 -189"/><polygon fill="none" stroke="#000" points="374.5 -189 374.5 -211 719.5 -211 719.5 -189 374.5 -189"/><text x="379.5" y="-198.2" font-family="Helvetica,sans-Serif" font-size="11" font-weight="bold" text-anchor="start">smart_contracts_additional_sources</text><text x="680.5" y="-197.2" font-family="Helvetica,sans-Serif" font-size="11" text-anchor="start">[table]</text><polygon fill="none" stroke="#000" points="374.5 -167 374.5 -189 609.5 -189 609.5 -167 374.5 -167"/><image width="11" height="12" x="379.5" y="-184" preserveAspectRatio="xMinYMin meet" xlink:href="../../images/primaryKeys.png"/><text x="394.5" y="-175.2" font-family="Helvetica,sans-Serif" font-size="11" text-anchor="start">id</text><polygon fill="none" stroke="#000" points="609.5 -167 609.5 -189 719.5 -189 719.5 -167 609.5 -167"/><text x="612.5" y="-175.2" font-family="Helvetica,sans-Serif" font-size="11" text-anchor="start">bigserial[19]</text><polygon fill="none" stroke="#000" points="374.5 -145 374.5 -167 609.5 -167 609.5 -145 374.5 -145"/><text x="394.5" y="-153.2" font-family="Helvetica,sans-Serif" font-size="11" text-anchor="start">file_name</text><polygon fill="none" stroke="#000" points="609.5 -145 609.5 -167 719.5 -167 719.5 -145 609.5 -145"/><text x="612.5" y="-153.2" font-family="Helvetica,sans-Serif" font-size="11" text-anchor="start">varchar[255]</text><polygon fill="none" stroke="#000" points="374.5 -123 374.5 -145 609.5 -145 609.5 -123 374.5 -123"/><text x="394.5" y="-131.2" font-family="Helvetica,sans-Serif" font-size="11" text-anchor="start">contract_source_code</text><polygon fill="none" stroke="#000" points="609.5 -123 609.5 -145 719.5 -145 719.5 -123 609.5 -123"/><text x="612.5" y="-131.2" font-family="Helvetica,sans-Serif" font-size="11" text-anchor="start">text[2147483647]</text><polygon fill="#fff" stroke="none" points="374.5 -101 374.5 -123 609.5 -123 609.5 -101 374.5 -101"/><polygon fill="none" stroke="#000" points="374.5 -101 374.5 -123 609.5 -123 609.5 -101 374.5 -101"/><image width="11" height="12" x="379.5" y="-118" preserveAspectRatio="xMinYMin meet" xlink:href="../../images/foreignKeys.png"/><text x="394.5" y="-109.2" font-family="Helvetica,sans-Serif" font-size="11" text-anchor="start">address_hash</text><polygon fill="none" stroke="#000" points="609.5 -101 609.5 -123 719.5 -123 719.5 -101 609.5 -101"/><text x="612.5" y="-109.2" font-family="Helvetica,sans-Serif" font-size="11" text-anchor="start">bytea[2147483647]</text><polygon fill="none" stroke="#000" points="374.5 -79 374.5 -101 609.5 -101 609.5 -79 374.5 -79"/><text x="394.5" y="-87.2" font-family="Helvetica,sans-Serif" font-size="11" text-anchor="start">inserted_at</text><polygon fill="none" stroke="#000" points="609.5 -79 609.5 -101 719.5 -101 719.5 -79 609.5 -79"/><text x="612.5" y="-87.2" font-family="Helvetica,sans-Serif" font-size="11" text-anchor="start">timestamp[29,6]</text><polygon fill="none" stroke="#000" points="374.5 -57 374.5 -79 609.5 -79 609.5 -57 374.5 -57"/><text x="394.5" y="-65.2" font-family="Helvetica,sans-Serif" font-size="11" text-anchor="start">updated_at</text><polygon fill="none" stroke="#000" points="609.5 -57 609.5 -79 719.5 -79 719.5 -57 609.5 -57"/><text x="612.5" y="-65.2" font-family="Helvetica,sans-Serif" font-size="11" text-anchor="start">timestamp[29,6]</text><polygon fill="#fff" stroke="none" points="374.5 -39 374.5 -57 482.5 -57 482.5 -39 374.5 -39"/><polygon fill="none" stroke="#000" points="374.5 -39 374.5 -57 482.5 -57 482.5 -39 374.5 -39"/><text x="377.5" y="-45.2" font-family="Helvetica,sans-Serif" font-size="11" text-anchor="start">&lt; 1</text><polygon fill="#fff" stroke="none" points="482.5 -39 482.5 -57 609.5 -57 609.5 -39 482.5 -39"/><polygon fill="none" stroke="#000" points="482.5 -39 482.5 -57 609.5 -57 609.5 -39 482.5 -39"/><text x="570.5" y="-45.2" font-family="Helvetica,sans-Serif" font-size="11" text-anchor="start">0 rows</text><polygon fill="#fff" stroke="none" points="609.5 -39 609.5 -57 719.5 -57 719.5 -39 609.5 -39"/><polygon fill="none" stroke="#000" points="609.5 -39 609.5 -57 719.5 -57 719.5 -39 609.5 -39"/><text x="699.5" y="-45.2" font-family="Helvetica,sans-Serif" font-size="11" text-anchor="start">0 &gt;</text><polygon fill="none" stroke="#000" stroke-width="2" points="373 -38 373 -212 720 -212 720 -38 373 -38"/></a></g></g><g id="edge2" class="edge"><title>smart_contracts_additional_sources:address_hash:w-&gt;smart_contracts:address_hash:e</title><path fill="none" stroke="#000" d="M358.991,-112C347.677,-112 340.493,-112 324.5,-112"/><polygon fill="#000" stroke="#000" points="365.5 -112 373.5 -115.6 369.5 -112 373.5 -112 373.5 -112 373.5 -112 369.5 -112 373.5 -108.4 365.5 -112 365.5 -112"/><ellipse cx="362.3" cy="-112" fill="none" stroke="#000" rx="3.2" ry="3.2"/></g></g></svg>