<svg xmlns="http://www.w3.org/2000/svg" xmlns:xlink="http://www.w3.org/1999/xlink" width="541pt" height="245pt" viewBox="0 0 541 245"><g id="graph0" class="graph" transform="scale(1 1) rotate(0) translate(4 241)"><title>oneDegreeRelationshipsDiagram</title><polygon fill="#fff" stroke="none" points="-4 4 -4 -241 537 -241 537 4 -4 4"/><text x="74.5" y="-7.2" font-family="Helvetica,sans-Serif" font-size="11" text-anchor="middle">Generated by SchemaSpy</text><g id="node1" class="node"><title>token_instances</title><g id="a_node1"><a target="_top" xlink:href="../../tables/token_instances.html" xlink:title="token_instances"><polygon fill="#fff" stroke="none" points="214 -37 214 -213 525 -213 525 -37 214 -37"/><polygon fill="#f5f5f5" stroke="none" points="216.5 -189 216.5 -211 523.5 -211 523.5 -189 216.5 -189"/><polygon fill="none" stroke="#000" points="216.5 -189 216.5 -211 523.5 -211 523.5 -189 216.5 -189"/><text x="221.5" y="-198.2" font-family="Helvetica,sans-Serif" font-size="11" font-weight="bold" text-anchor="start">token_instances</text><text x="484.5" y="-197.2" font-family="Helvetica,sans-Serif" font-size="11" text-anchor="start">[table]</text><polygon fill="none" stroke="#000" points="216.5 -167 216.5 -189 413.5 -189 413.5 -167 216.5 -167"/><image width="11" height="12" x="221.5" y="-184" preserveAspectRatio="xMinYMin meet" xlink:href="../../images/primaryKeys.png"/><text x="236.5" y="-175.2" font-family="Helvetica,sans-Serif" font-size="11" text-anchor="start">token_id</text><polygon fill="none" stroke="#000" points="413.5 -167 413.5 -189 523.5 -189 523.5 -167 413.5 -167"/><text x="416.5" y="-175.2" font-family="Helvetica,sans-Serif" font-size="11" text-anchor="start">numeric[78]</text><polygon fill="none" stroke="#000" points="216.5 -145 216.5 -167 413.5 -167 413.5 -145 216.5 -145"/><image width="11" height="12" x="221.5" y="-162" preserveAspectRatio="xMinYMin meet" xlink:href="../../images/primaryKeys.png"/><text x="236.5" y="-153.2" font-family="Helvetica,sans-Serif" font-size="11" text-anchor="start">token_contract_address_hash</text><polygon fill="none" stroke="#000" points="413.5 -145 413.5 -167 523.5 -167 523.5 -145 413.5 -145"/><text x="416.5" y="-153.2" font-family="Helvetica,sans-Serif" font-size="11" text-anchor="start">bytea[2147483647]</text><polygon fill="none" stroke="#000" points="216.5 -123 216.5 -145 413.5 -145 413.5 -123 216.5 -123"/><text x="236.5" y="-131.2" font-family="Helvetica,sans-Serif" font-size="11" text-anchor="start">metadata</text><polygon fill="none" stroke="#000" points="413.5 -123 413.5 -145 523.5 -145 523.5 -123 413.5 -123"/><text x="416.5" y="-131.2" font-family="Helvetica,sans-Serif" font-size="11" text-anchor="start">jsonb[2147483647]</text><polygon fill="none" stroke="#000" points="216.5 -101 216.5 -123 413.5 -123 413.5 -101 216.5 -101"/><text x="236.5" y="-109.2" font-family="Helvetica,sans-Serif" font-size="11" text-anchor="start">inserted_at</text><polygon fill="none" stroke="#000" points="413.5 -101 413.5 -123 523.5 -123 523.5 -101 413.5 -101"/><text x="416.5" y="-109.2" font-family="Helvetica,sans-Serif" font-size="11" text-anchor="start">timestamp[29,6]</text><polygon fill="none" stroke="#000" points="216.5 -79 216.5 -101 413.5 -101 413.5 -79 216.5 -79"/><text x="236.5" y="-87.2" font-family="Helvetica,sans-Serif" font-size="11" text-anchor="start">updated_at</text><polygon fill="none" stroke="#000" points="413.5 -79 413.5 -101 523.5 -101 523.5 -79 413.5 -79"/><text x="416.5" y="-87.2" font-family="Helvetica,sans-Serif" font-size="11" text-anchor="start">timestamp[29,6]</text><polygon fill="#fff" stroke="none" points="216.5 -57 216.5 -79 413.5 -79 413.5 -57 216.5 -57"/><polygon fill="none" stroke="#000" points="216.5 -57 216.5 -79 413.5 -79 413.5 -57 216.5 -57"/><text x="236.5" y="-65.2" font-family="Helvetica,sans-Serif" font-size="11" text-anchor="start">error</text><polygon fill="none" stroke="#000" points="413.5 -57 413.5 -79 523.5 -79 523.5 -57 413.5 -57"/><text x="416.5" y="-65.2" font-family="Helvetica,sans-Serif" font-size="11" text-anchor="start">varchar[255]</text><polygon fill="#fff" stroke="none" points="216.5 -39 216.5 -57 305.5 -57 305.5 -39 216.5 -39"/><polygon fill="none" stroke="#000" points="216.5 -39 216.5 -57 305.5 -57 305.5 -39 216.5 -39"/><text x="219.5" y="-45.2" font-family="Helvetica,sans-Serif" font-size="11" text-anchor="start">&lt; 1</text><polygon fill="#fff" stroke="none" points="305.5 -39 305.5 -57 413.5 -57 413.5 -39 305.5 -39"/><polygon fill="none" stroke="#000" points="305.5 -39 305.5 -57 413.5 -57 413.5 -39 305.5 -39"/><text x="374.5" y="-45.2" font-family="Helvetica,sans-Serif" font-size="11" text-anchor="start">0 rows</text><polygon fill="#fff" stroke="none" points="413.5 -39 413.5 -57 523.5 -57 523.5 -39 413.5 -39"/><polygon fill="none" stroke="#000" points="413.5 -39 413.5 -57 523.5 -57 523.5 -39 413.5 -39"/><text x="503.5" y="-45.2" font-family="Helvetica,sans-Serif" font-size="11" text-anchor="start">0 &gt;</text><polygon fill="none" stroke="#000" stroke-width="2" points="215 -38 215 -212 524 -212 524 -38 215 -38"/></a></g></g><g id="node2" class="node"><title>tokens</title><g id="a_node2"><a target="_top" xlink:href="../../tables/tokens.html" xlink:title="tokens"><polygon fill="#fff" stroke="none" points="8 -109 8 -233 165 -233 165 -109 8 -109"/><polygon fill="#f5f5f5" stroke="none" points="8.5 -211 8.5 -233 165.5 -233 165.5 -211 8.5 -211"/><polygon fill="none" stroke="#000" points="8.5 -211 8.5 -233 165.5 -233 165.5 -211 8.5 -211"/><text x="13.5" y="-220.2" font-family="Helvetica,sans-Serif" font-size="11" font-weight="bold" text-anchor="start">tokens</text><text x="126.5" y="-219.2" font-family="Helvetica,sans-Serif" font-size="11" text-anchor="start">[table]</text><polygon fill="#fff" stroke="none" points="8.5 -189 8.5 -211 165.5 -211 165.5 -189 8.5 -189"/><polygon fill="none" stroke="#000" points="8.5 -189 8.5 -211 165.5 -211 165.5 -189 8.5 -189"/><text x="28.5" y="-197.2" font-family="Helvetica,sans-Serif" font-size="11" text-anchor="start">symbol</text><polygon fill="#fff" stroke="none" points="8.5 -167 8.5 -189 165.5 -189 165.5 -167 8.5 -167"/><polygon fill="none" stroke="#000" points="8.5 -167 8.5 -189 165.5 -189 165.5 -167 8.5 -167"/><text x="28.5" y="-175.2" font-family="Helvetica,sans-Serif" font-size="11" text-anchor="start">type</text><polygon fill="none" stroke="#000" points="8.5 -145 8.5 -167 165.5 -167 165.5 -145 8.5 -145"/><image width="11" height="12" x="13.5" y="-162" preserveAspectRatio="xMinYMin meet" xlink:href="../../images/primaryKeys.png"/><text x="28.5" y="-153.2" font-family="Helvetica,sans-Serif" font-size="11" text-anchor="start">contract_address_hash</text><polygon fill="none" stroke="#000" points="8.5 -127 8.5 -145 165.5 -145 165.5 -127 8.5 -127"/><text x="11.5" y="-133.2" font-family="Helvetica,sans-Serif" font-size="11" text-anchor="start">...</text><polygon fill="#fff" stroke="none" points="8.5 -109 8.5 -127 65.5 -127 65.5 -109 8.5 -109"/><polygon fill="none" stroke="#000" points="8.5 -109 8.5 -127 65.5 -127 65.5 -109 8.5 -109"/><text x="11.5" y="-115.2" font-family="Helvetica,sans-Serif" font-size="11" text-anchor="start">&lt; 1</text><polygon fill="#fff" stroke="none" points="65.5 -109 65.5 -127 124.5 -127 124.5 -109 65.5 -109"/><polygon fill="none" stroke="#000" points="65.5 -109 65.5 -127 124.5 -127 124.5 -109 65.5 -109"/><text x="85.5" y="-115.2" font-family="Helvetica,sans-Serif" font-size="11" text-anchor="start">0 rows</text><polygon fill="#fff" stroke="none" points="124.5 -109 124.5 -127 165.5 -127 165.5 -109 124.5 -109"/><polygon fill="none" stroke="#000" points="124.5 -109 124.5 -127 165.5 -127 165.5 -109 124.5 -109"/><text x="145.5" y="-115.2" font-family="Helvetica,sans-Serif" font-size="11" text-anchor="start">3 &gt;</text></a></g></g><g id="edge1" class="edge"><title>token_instances:token_contract_address_hash:w-&gt;tokens:contract_address_hash:e</title><path fill="none" stroke="#000" d="M200.991,-156C189.677,-156 182.493,-156 166.5,-156"/><polygon fill="#000" stroke="#000" points="207.5 -156 215.5 -159.6 211.5 -156 215.5 -156 215.5 -156 215.5 -156 211.5 -156 215.5 -152.4 207.5 -156 207.5 -156"/><ellipse cx="204.3" cy="-156" fill="none" stroke="#000" rx="3.2" ry="3.2"/></g></g></svg>