<svg xmlns="http://www.w3.org/2000/svg" xmlns:xlink="http://www.w3.org/1999/xlink" width="1152" height="764" viewBox="0 0 864 573"><g id="graph0" class="graph" transform="scale(1 1) rotate(0) translate(4 569)"><title>oneDegreeRelationshipsDiagram</title><polygon fill="#fff" stroke="none" points="-4 4 -4 -569 860 -569 860 4 -4 4"/><text x="74.5" y="-7.2" font-family="Helvetica,sans-Serif" font-size="11" text-anchor="middle">Generated by SchemaSpy</text><g id="node1" class="node"><title>address_current_token_balances</title><g id="a_node1"><a target="_top" xlink:href="../../tables/address_current_token_balances.html" xlink:title="address_current_token_balances"><polygon fill="#fff" stroke="none" points="615 -371 615 -561 848 -561 848 -371 615 -371"/><polygon fill="#f5f5f5" stroke="none" points="615.5 -539 615.5 -561 848.5 -561 848.5 -539 615.5 -539"/><polygon fill="none" stroke="#000" points="615.5 -539 615.5 -561 848.5 -561 848.5 -539 615.5 -539"/><text x="620.5" y="-548.2" font-family="Helvetica,sans-Serif" font-size="11" font-weight="bold" text-anchor="start">address_current_token_balances</text><text x="809.5" y="-547.2" font-family="Helvetica,sans-Serif" font-size="11" text-anchor="start">[table]</text><polygon fill="none" stroke="#000" points="615.5 -517 615.5 -539 848.5 -539 848.5 -517 615.5 -517"/><image width="11" height="12" x="620.5" y="-534" preserveAspectRatio="xMinYMin meet" xlink:href="../../images/primaryKeys.png"/><text x="644.5" y="-525.2" font-family="Helvetica,sans-Serif" font-size="11" text-anchor="start">id</text><polygon fill="#fff" stroke="none" points="615.5 -495 615.5 -517 848.5 -517 848.5 -495 615.5 -495"/><polygon fill="none" stroke="#000" points="615.5 -495 615.5 -517 848.5 -517 848.5 -495 615.5 -495"/><image width="11" height="12" x="620.5" y="-512" preserveAspectRatio="xMinYMin meet" xlink:href="../../images/foreignKeys.png"/><text x="644.5" y="-503.2" font-family="Helvetica,sans-Serif" font-size="11" text-anchor="start">address_hash</text><polygon fill="#fff" stroke="none" points="615.5 -473 615.5 -495 848.5 -495 848.5 -473 615.5 -473"/><polygon fill="none" stroke="#000" points="615.5 -473 615.5 -495 848.5 -495 848.5 -473 615.5 -473"/><text x="644.5" y="-481.2" font-family="Helvetica,sans-Serif" font-size="11" text-anchor="start">block_number</text><polygon fill="#fff" stroke="none" points="615.5 -451 615.5 -473 848.5 -473 848.5 -451 615.5 -451"/><polygon fill="none" stroke="#000" points="615.5 -451 615.5 -473 848.5 -473 848.5 -451 615.5 -451"/><image width="11" height="12" x="620.5" y="-468" preserveAspectRatio="xMinYMin meet" xlink:href="../../images/foreignKeys.png"/><text x="644.5" y="-459.2" font-family="Helvetica,sans-Serif" font-size="11" text-anchor="start">token_contract_address_hash</text><polygon fill="#fff" stroke="none" points="615.5 -429 615.5 -451 848.5 -451 848.5 -429 615.5 -429"/><polygon fill="none" stroke="#000" points="615.5 -429 615.5 -451 848.5 -451 848.5 -429 615.5 -429"/><text x="644.5" y="-437.2" font-family="Helvetica,sans-Serif" font-size="11" text-anchor="start">value</text><polygon fill="#fff" stroke="none" points="615.5 -407 615.5 -429 848.5 -429 848.5 -407 615.5 -407"/><polygon fill="none" stroke="#000" points="615.5 -407 615.5 -429 848.5 -429 848.5 -407 615.5 -407"/><text x="644.5" y="-415.2" font-family="Helvetica,sans-Serif" font-size="11" text-anchor="start">token_id</text><polygon fill="none" stroke="#000" points="615.5 -389 615.5 -407 848.5 -407 848.5 -389 615.5 -389"/><text x="618.5" y="-395.2" font-family="Helvetica,sans-Serif" font-size="11" text-anchor="start">...</text><polygon fill="#fff" stroke="none" points="615.5 -371 615.5 -389 715.5 -389 715.5 -371 615.5 -371"/><polygon fill="none" stroke="#000" points="615.5 -371 615.5 -389 715.5 -389 715.5 -371 615.5 -371"/><text x="618.5" y="-377.2" font-family="Helvetica,sans-Serif" font-size="11" text-anchor="start">&lt; 2</text><polygon fill="#fff" stroke="none" points="715.5 -371 715.5 -389 796.5 -389 796.5 -371 715.5 -371"/><polygon fill="none" stroke="#000" points="715.5 -371 715.5 -389 796.5 -389 796.5 -371 715.5 -371"/><text x="757.5" y="-377.2" font-family="Helvetica,sans-Serif" font-size="11" text-anchor="start">0 rows</text><polygon fill="#fff" stroke="none" points="796.5 -371 796.5 -389 848.5 -389 848.5 -371 796.5 -371"/><polygon fill="none" stroke="#000" points="796.5 -371 796.5 -389 848.5 -389 848.5 -371 796.5 -371"/></a></g></g><g id="node2" class="node"><title>addresses</title><g id="a_node2"><a target="_top" xlink:href="../../tables/addresses.html" xlink:title="addresses"><polygon fill="#fff" stroke="none" points="8 -226 8 -350 246 -350 246 -226 8 -226"/><polygon fill="#f5f5f5" stroke="none" points="8 -328 8 -350 246 -350 246 -328 8 -328"/><polygon fill="none" stroke="#000" points="8 -328 8 -350 246 -350 246 -328 8 -328"/><text x="13" y="-337.2" font-family="Helvetica,sans-Serif" font-size="11" font-weight="bold" text-anchor="start">addresses</text><text x="207" y="-336.2" font-family="Helvetica,sans-Serif" font-size="11" text-anchor="start">[table]</text><polygon fill="#fff" stroke="none" points="8 -306 8 -328 246 -328 246 -306 8 -306"/><polygon fill="none" stroke="#000" points="8 -306 8 -328 246 -328 246 -306 8 -306"/><text x="28" y="-314.2" font-family="Helvetica,sans-Serif" font-size="11" text-anchor="start">fetched_coin_balance</text><polygon fill="none" stroke="#000" points="8 -284 8 -306 246 -306 246 -284 8 -284"/><image width="11" height="12" x="13" y="-301" preserveAspectRatio="xMinYMin meet" xlink:href="../../images/primaryKeys.png"/><text x="28" y="-292.2" font-family="Helvetica,sans-Serif" font-size="11" text-anchor="start">hash</text><polygon fill="#fff" stroke="none" points="8 -262 8 -284 246 -284 246 -262 8 -262"/><polygon fill="none" stroke="#000" points="8 -262 8 -284 246 -284 246 -262 8 -262"/><text x="28" y="-270.2" font-family="Helvetica,sans-Serif" font-size="11" text-anchor="start">inserted_at</text><polygon fill="none" stroke="#000" points="8 -244 8 -262 246 -262 246 -244 8 -244"/><text x="11" y="-250.2" font-family="Helvetica,sans-Serif" font-size="11" text-anchor="start">...</text><polygon fill="#fff" stroke="none" points="8 -226 8 -244 97 -244 97 -226 8 -226"/><polygon fill="none" stroke="#000" points="8 -226 8 -244 97 -244 97 -226 8 -226"/><polygon fill="#fff" stroke="none" points="97 -226 97 -244 177 -244 177 -226 97 -226"/><polygon fill="none" stroke="#000" points="97 -226 97 -244 177 -244 177 -226 97 -226"/><text x="138" y="-232.2" font-family="Helvetica,sans-Serif" font-size="11" text-anchor="start">2 rows</text><polygon fill="#fff" stroke="none" points="177 -226 177 -244 246 -244 246 -226 177 -226"/><polygon fill="none" stroke="#000" points="177 -226 177 -244 246 -244 246 -226 177 -226"/><text x="219" y="-232.2" font-family="Helvetica,sans-Serif" font-size="11" text-anchor="start">19 &gt;</text></a></g></g><g id="edge1" class="edge"><title>address_current_token_balances:address_hash:w-&gt;addresses:hash:e</title><path fill="none" stroke="#000" d="M599.756,-506.215C463.261,-510.188 392.749,-566.705 287,-473 226.313,-419.225 328.084,-295 247,-295"/><polygon fill="#000" stroke="#000" points="606.501 -506.117 614.553 -509.6 610.5 -506.058 614.5 -506 614.5 -506 614.5 -506 610.5 -506.058 614.447 -502.4 606.501 -506.117 606.501 -506.117"/><ellipse cx="603.301" cy="-506.164" fill="none" stroke="#000" rx="3.2" ry="3.2"/></g><g id="node3" class="node"><title>tokens</title><g id="a_node3"><a target="_top" xlink:href="../../tables/tokens.html" xlink:title="tokens"><polygon fill="#fff" stroke="none" points="295 -176 295 -462 566 -462 566 -176 295 -176"/><polygon fill="#f5f5f5" stroke="none" points="297.5 -438 297.5 -460 564.5 -460 564.5 -438 297.5 -438"/><polygon fill="none" stroke="#000" points="297.5 -438 297.5 -460 564.5 -460 564.5 -438 297.5 -438"/><text x="302.5" y="-447.2" font-family="Helvetica,sans-Serif" font-size="11" font-weight="bold" text-anchor="start">tokens</text><text x="525.5" y="-446.2" font-family="Helvetica,sans-Serif" font-size="11" text-anchor="start">[table]</text><polygon fill="none" stroke="#000" points="297.5 -416 297.5 -438 454.5 -438 454.5 -416 297.5 -416"/><text x="317.5" y="-424.2" font-family="Helvetica,sans-Serif" font-size="11" text-anchor="start">name</text><polygon fill="none" stroke="#000" points="454.5 -416 454.5 -438 564.5 -438 564.5 -416 454.5 -416"/><text x="457.5" y="-424.2" font-family="Helvetica,sans-Serif" font-size="11" text-anchor="start">varchar[255]</text><polygon fill="#fff" stroke="none" points="297.5 -394 297.5 -416 454.5 -416 454.5 -394 297.5 -394"/><polygon fill="none" stroke="#000" points="297.5 -394 297.5 -416 454.5 -416 454.5 -394 297.5 -394"/><text x="317.5" y="-402.2" font-family="Helvetica,sans-Serif" font-size="11" text-anchor="start">symbol</text><polygon fill="none" stroke="#000" points="454.5 -394 454.5 -416 564.5 -416 564.5 -394 454.5 -394"/><text x="457.5" y="-402.2" font-family="Helvetica,sans-Serif" font-size="11" text-anchor="start">varchar[255]</text><polygon fill="none" stroke="#000" points="297.5 -372 297.5 -394 454.5 -394 454.5 -372 297.5 -372"/><text x="317.5" y="-380.2" font-family="Helvetica,sans-Serif" font-size="11" text-anchor="start">total_supply</text><polygon fill="none" stroke="#000" points="454.5 -372 454.5 -394 564.5 -394 564.5 -372 454.5 -372"/><text x="457.5" y="-380.2" font-family="Helvetica,sans-Serif" font-size="11" text-anchor="start">numeric[131089]</text><polygon fill="none" stroke="#000" points="297.5 -350 297.5 -372 454.5 -372 454.5 -350 297.5 -350"/><text x="317.5" y="-358.2" font-family="Helvetica,sans-Serif" font-size="11" text-anchor="start">decimals</text><polygon fill="none" stroke="#000" points="454.5 -350 454.5 -372 564.5 -372 564.5 -350 454.5 -350"/><text x="457.5" y="-358.2" font-family="Helvetica,sans-Serif" font-size="11" text-anchor="start">numeric[131089]</text><polygon fill="#fff" stroke="none" points="297.5 -328 297.5 -350 454.5 -350 454.5 -328 297.5 -328"/><polygon fill="none" stroke="#000" points="297.5 -328 297.5 -350 454.5 -350 454.5 -328 297.5 -328"/><text x="317.5" y="-336.2" font-family="Helvetica,sans-Serif" font-size="11" text-anchor="start">type</text><polygon fill="none" stroke="#000" points="454.5 -328 454.5 -350 564.5 -350 564.5 -328 454.5 -328"/><text x="457.5" y="-336.2" font-family="Helvetica,sans-Serif" font-size="11" text-anchor="start">varchar[255]</text><polygon fill="none" stroke="#000" points="297.5 -306 297.5 -328 454.5 -328 454.5 -306 297.5 -306"/><text x="317.5" y="-314.2" font-family="Helvetica,sans-Serif" font-size="11" text-anchor="start">cataloged</text><polygon fill="none" stroke="#000" points="454.5 -306 454.5 -328 564.5 -328 564.5 -306 454.5 -306"/><text x="457.5" y="-314.2" font-family="Helvetica,sans-Serif" font-size="11" text-anchor="start">bool[1]</text><polygon fill="none" stroke="#000" points="297.5 -284 297.5 -306 454.5 -306 454.5 -284 297.5 -284"/><image width="11" height="12" x="302.5" y="-301" preserveAspectRatio="xMinYMin meet" xlink:href="../../images/primaryKeys.png"/><text x="317.5" y="-292.2" font-family="Helvetica,sans-Serif" font-size="11" text-anchor="start">contract_address_hash</text><polygon fill="none" stroke="#000" points="454.5 -284 454.5 -306 564.5 -306 564.5 -284 454.5 -284"/><text x="457.5" y="-292.2" font-family="Helvetica,sans-Serif" font-size="11" text-anchor="start">bytea[2147483647]</text><polygon fill="none" stroke="#000" points="297.5 -262 297.5 -284 454.5 -284 454.5 -262 297.5 -262"/><text x="317.5" y="-270.2" font-family="Helvetica,sans-Serif" font-size="11" text-anchor="start">inserted_at</text><polygon fill="none" stroke="#000" points="454.5 -262 454.5 -284 564.5 -284 564.5 -262 454.5 -262"/><text x="457.5" y="-270.2" font-family="Helvetica,sans-Serif" font-size="11" text-anchor="start">timestamp[29,6]</text><polygon fill="none" stroke="#000" points="297.5 -240 297.5 -262 454.5 -262 454.5 -240 297.5 -240"/><text x="317.5" y="-248.2" font-family="Helvetica,sans-Serif" font-size="11" text-anchor="start">updated_at</text><polygon fill="none" stroke="#000" points="454.5 -240 454.5 -262 564.5 -262 564.5 -240 454.5 -240"/><text x="457.5" y="-248.2" font-family="Helvetica,sans-Serif" font-size="11" text-anchor="start">timestamp[29,6]</text><polygon fill="none" stroke="#000" points="297.5 -218 297.5 -240 454.5 -240 454.5 -218 297.5 -218"/><text x="317.5" y="-226.2" font-family="Helvetica,sans-Serif" font-size="11" text-anchor="start">holder_count</text><polygon fill="none" stroke="#000" points="454.5 -218 454.5 -240 564.5 -240 564.5 -218 454.5 -218"/><text x="457.5" y="-226.2" font-family="Helvetica,sans-Serif" font-size="11" text-anchor="start">int4[10]</text><polygon fill="none" stroke="#000" points="297.5 -196 297.5 -218 454.5 -218 454.5 -196 297.5 -196"/><text x="317.5" y="-204.2" font-family="Helvetica,sans-Serif" font-size="11" text-anchor="start">skip_metadata</text><polygon fill="none" stroke="#000" points="454.5 -196 454.5 -218 564.5 -218 564.5 -196 454.5 -196"/><text x="457.5" y="-204.2" font-family="Helvetica,sans-Serif" font-size="11" text-anchor="start">bool[1]</text><polygon fill="#fff" stroke="none" points="297.5 -178 297.5 -196 366.5 -196 366.5 -178 297.5 -178"/><polygon fill="none" stroke="#000" points="297.5 -178 297.5 -196 366.5 -196 366.5 -178 297.5 -178"/><text x="300.5" y="-184.2" font-family="Helvetica,sans-Serif" font-size="11" text-anchor="start">&lt; 1</text><polygon fill="#fff" stroke="none" points="366.5 -178 366.5 -196 454.5 -196 454.5 -178 366.5 -178"/><polygon fill="none" stroke="#000" points="366.5 -178 366.5 -196 454.5 -196 454.5 -178 366.5 -178"/><text x="415.5" y="-184.2" font-family="Helvetica,sans-Serif" font-size="11" text-anchor="start">0 rows</text><polygon fill="#fff" stroke="none" points="454.5 -178 454.5 -196 564.5 -196 564.5 -178 454.5 -178"/><polygon fill="none" stroke="#000" points="454.5 -178 454.5 -196 564.5 -196 564.5 -178 454.5 -178"/><text x="544.5" y="-184.2" font-family="Helvetica,sans-Serif" font-size="11" text-anchor="start">3 &gt;</text><polygon fill="none" stroke="#000" stroke-width="2" points="296 -177 296 -461 565 -461 565 -177 296 -177"/></a></g></g><g id="edge2" class="edge"><title>address_current_token_balances:token_contract_address_hash:w-&gt;tokens:contract_address_hash.type:e</title><path fill="none" stroke="#000" d="M600.153,-459.377C551.831,-438.131 637.11,-295 565.5,-295"/><polygon fill="#000" stroke="#000" points="606.63 -460.561 613.853 -465.541 610.565 -461.281 614.5 -462 614.5 -462 614.5 -462 610.565 -461.281 615.147 -458.459 606.63 -460.561 606.63 -460.561"/><ellipse cx="603.483" cy="-459.986" fill="none" stroke="#000" rx="3.2" ry="3.2"/></g><g id="edge6" class="edge"><title>tokens:contract_address_hash:w-&gt;addresses:hash:e</title><path fill="none" stroke="#000" d="M286.047,-295C271.991,-295 265.047,-295 247,-295"/><polygon fill="#000" stroke="#000" points="295.7 -291 295.7 -299 294.1 -299 294.1 -291 295.7 -291"/><polyline fill="none" stroke="#000" points="296.5 -295 292.5 -295"/><ellipse cx="289.3" cy="-295" fill="none" stroke="#000" rx="3.2" ry="3.2"/></g><g id="node4" class="node"><title>address_token_balances</title><g id="a_node4"><a target="_top" xlink:href="../../tables/address_token_balances.html" xlink:title="address_token_balances"><polygon fill="#fff" stroke="none" points="633 -37 633 -205 830 -205 830 -37 633 -37"/><polygon fill="#f5f5f5" stroke="none" points="633.5 -183 633.5 -205 830.5 -205 830.5 -183 633.5 -183"/><polygon fill="none" stroke="#000" points="633.5 -183 633.5 -205 830.5 -205 830.5 -183 633.5 -183"/><text x="638.5" y="-192.2" font-family="Helvetica,sans-Serif" font-size="11" font-weight="bold" text-anchor="start">address_token_balances</text><text x="791.5" y="-191.2" font-family="Helvetica,sans-Serif" font-size="11" text-anchor="start">[table]</text><polygon fill="none" stroke="#000" points="633.5 -161 633.5 -183 830.5 -183 830.5 -161 633.5 -161"/><image width="11" height="12" x="638.5" y="-178" preserveAspectRatio="xMinYMin meet" xlink:href="../../images/primaryKeys.png"/><text x="653.5" y="-169.2" font-family="Helvetica,sans-Serif" font-size="11" text-anchor="start">id</text><polygon fill="#fff" stroke="none" points="633.5 -139 633.5 -161 830.5 -161 830.5 -139 633.5 -139"/><polygon fill="none" stroke="#000" points="633.5 -139 633.5 -161 830.5 -161 830.5 -139 633.5 -139"/><image width="11" height="12" x="638.5" y="-156" preserveAspectRatio="xMinYMin meet" xlink:href="../../images/foreignKeys.png"/><text x="653.5" y="-147.2" font-family="Helvetica,sans-Serif" font-size="11" text-anchor="start">address_hash</text><polygon fill="#fff" stroke="none" points="633.5 -117 633.5 -139 830.5 -139 830.5 -117 633.5 -117"/><polygon fill="none" stroke="#000" points="633.5 -117 633.5 -139 830.5 -139 830.5 -117 633.5 -117"/><text x="653.5" y="-125.2" font-family="Helvetica,sans-Serif" font-size="11" text-anchor="start">block_number</text><polygon fill="#fff" stroke="none" points="633.5 -95 633.5 -117 830.5 -117 830.5 -95 633.5 -95"/><polygon fill="none" stroke="#000" points="633.5 -95 633.5 -117 830.5 -117 830.5 -95 633.5 -95"/><image width="11" height="12" x="638.5" y="-112" preserveAspectRatio="xMinYMin meet" xlink:href="../../images/foreignKeys.png"/><text x="653.5" y="-103.2" font-family="Helvetica,sans-Serif" font-size="11" text-anchor="start">token_contract_address_hash</text><polygon fill="#fff" stroke="none" points="633.5 -73 633.5 -95 830.5 -95 830.5 -73 633.5 -73"/><polygon fill="none" stroke="#000" points="633.5 -73 633.5 -95 830.5 -95 830.5 -73 633.5 -73"/><text x="653.5" y="-81.2" font-family="Helvetica,sans-Serif" font-size="11" text-anchor="start">token_id</text><polygon fill="none" stroke="#000" points="633.5 -55 633.5 -73 830.5 -73 830.5 -55 633.5 -55"/><text x="636.5" y="-61.2" font-family="Helvetica,sans-Serif" font-size="11" text-anchor="start">...</text><polygon fill="#fff" stroke="none" points="633.5 -37 633.5 -55 715.5 -55 715.5 -37 633.5 -37"/><polygon fill="none" stroke="#000" points="633.5 -37 633.5 -55 715.5 -55 715.5 -37 633.5 -37"/><text x="636.5" y="-43.2" font-family="Helvetica,sans-Serif" font-size="11" text-anchor="start">&lt; 2</text><polygon fill="#fff" stroke="none" points="715.5 -37 715.5 -55 787.5 -55 787.5 -37 715.5 -37"/><polygon fill="none" stroke="#000" points="715.5 -37 715.5 -55 787.5 -55 787.5 -37 715.5 -37"/><text x="748.5" y="-43.2" font-family="Helvetica,sans-Serif" font-size="11" text-anchor="start">0 rows</text><polygon fill="#fff" stroke="none" points="787.5 -37 787.5 -55 830.5 -55 830.5 -37 787.5 -37"/><polygon fill="none" stroke="#000" points="787.5 -37 787.5 -55 830.5 -55 830.5 -37 787.5 -37"/></a></g></g><g id="edge3" class="edge"><title>address_token_balances:address_hash:w-&gt;addresses:hash:e</title><path fill="none" stroke="#000" d="M617.894,-149.765C474.204,-145.149 404.688,-75.0008 287,-166 239.513,-202.718 307.026,-295 247,-295"/><polygon fill="#000" stroke="#000" points="624.501 -149.871 632.442 -153.6 628.501 -149.936 632.5 -150 632.5 -150 632.5 -150 628.501 -149.936 632.558 -146.4 624.501 -149.871 624.501 -149.871"/><ellipse cx="621.301" cy="-149.82" fill="none" stroke="#000" rx="3.2" ry="3.2"/></g><g id="edge4" class="edge"><title>address_token_balances:token_contract_address_hash:w-&gt;tokens:contract_address_hash.type:e</title><path fill="none" stroke="#000" d="M618.04,-108.123C556.501,-128.887 649.052,-295 565.5,-295"/><polygon fill="#000" stroke="#000" points="624.585 -107.162 633.023 -109.562 628.542 -106.581 632.5 -106 632.5 -106 632.5 -106 628.542 -106.581 631.977 -102.438 624.585 -107.162 624.585 -107.162"/><ellipse cx="621.419" cy="-107.627" fill="none" stroke="#000" rx="3.2" ry="3.2"/></g><g id="node5" class="node"><title>token_instances</title><g id="a_node5"><a target="_top" xlink:href="../../tables/token_instances.html" xlink:title="token_instances"><polygon fill="#fff" stroke="none" points="633 -226 633 -350 830 -350 830 -226 633 -226"/><polygon fill="#f5f5f5" stroke="none" points="633.5 -328 633.5 -350 830.5 -350 830.5 -328 633.5 -328"/><polygon fill="none" stroke="#000" points="633.5 -328 633.5 -350 830.5 -350 830.5 -328 633.5 -328"/><text x="638.5" y="-337.2" font-family="Helvetica,sans-Serif" font-size="11" font-weight="bold" text-anchor="start">token_instances</text><text x="791.5" y="-336.2" font-family="Helvetica,sans-Serif" font-size="11" text-anchor="start">[table]</text><polygon fill="none" stroke="#000" points="633.5 -306 633.5 -328 830.5 -328 830.5 -306 633.5 -306"/><image width="11" height="12" x="638.5" y="-323" preserveAspectRatio="xMinYMin meet" xlink:href="../../images/primaryKeys.png"/><text x="653.5" y="-314.2" font-family="Helvetica,sans-Serif" font-size="11" text-anchor="start">token_id</text><polygon fill="none" stroke="#000" points="633.5 -284 633.5 -306 830.5 -306 830.5 -284 633.5 -284"/><image width="11" height="12" x="638.5" y="-301" preserveAspectRatio="xMinYMin meet" xlink:href="../../images/primaryKeys.png"/><text x="653.5" y="-292.2" font-family="Helvetica,sans-Serif" font-size="11" text-anchor="start">token_contract_address_hash</text><polygon fill="#fff" stroke="none" points="633.5 -262 633.5 -284 830.5 -284 830.5 -262 633.5 -262"/><polygon fill="none" stroke="#000" points="633.5 -262 633.5 -284 830.5 -284 830.5 -262 633.5 -262"/><text x="653.5" y="-270.2" font-family="Helvetica,sans-Serif" font-size="11" text-anchor="start">error</text><polygon fill="none" stroke="#000" points="633.5 -244 633.5 -262 830.5 -262 830.5 -244 633.5 -244"/><text x="636.5" y="-250.2" font-family="Helvetica,sans-Serif" font-size="11" text-anchor="start">...</text><polygon fill="#fff" stroke="none" points="633.5 -226 633.5 -244 715.5 -244 715.5 -226 633.5 -226"/><polygon fill="none" stroke="#000" points="633.5 -226 633.5 -244 715.5 -244 715.5 -226 633.5 -226"/><text x="636.5" y="-232.2" font-family="Helvetica,sans-Serif" font-size="11" text-anchor="start">&lt; 1</text><polygon fill="#fff" stroke="none" points="715.5 -226 715.5 -244 787.5 -244 787.5 -226 715.5 -226"/><polygon fill="none" stroke="#000" points="715.5 -226 715.5 -244 787.5 -244 787.5 -226 715.5 -226"/><text x="748.5" y="-232.2" font-family="Helvetica,sans-Serif" font-size="11" text-anchor="start">0 rows</text><polygon fill="#fff" stroke="none" points="787.5 -226 787.5 -244 830.5 -244 830.5 -226 787.5 -226"/><polygon fill="none" stroke="#000" points="787.5 -226 787.5 -244 830.5 -244 830.5 -226 787.5 -226"/></a></g></g><g id="edge5" class="edge"><title>token_instances:token_contract_address_hash:w-&gt;tokens:contract_address_hash.type:e</title><path fill="none" stroke="#000" d="M618.081,-295C599.236,-295 589.811,-295 565.5,-295"/><polygon fill="#000" stroke="#000" points="624.5 -295 632.5 -298.6 628.5 -295 632.5 -295 632.5 -295 632.5 -295 628.5 -295 632.5 -291.4 624.5 -295 624.5 -295"/><ellipse cx="621.3" cy="-295" fill="none" stroke="#000" rx="3.2" ry="3.2"/></g></g></svg>