<svg xmlns="http://www.w3.org/2000/svg" xmlns:xlink="http://www.w3.org/1999/xlink" width="1067pt" height="688pt" viewBox="0 0 1067 687.56"><g id="graph0" class="graph" transform="scale(1 1) rotate(0) translate(4 683.559)"><title>oneDegreeRelationshipsDiagram</title><polygon fill="#fff" stroke="none" points="-4 4 -4 -683.559 1063 -683.559 1063 4 -4 4"/><text x="74.5" y="-7.2" font-family="Helvetica,sans-Serif" font-size="11" text-anchor="middle">Generated by SchemaSpy</text><g id="node1" class="node"><title>blocks</title><g id="a_node1"><a target="_top" xlink:href="../../tables/blocks.html" xlink:title="blocks"><polygon fill="#fff" stroke="none" points="295 -387 295 -621 417 -621 417 -387 295 -387"/><polygon fill="#f5f5f5" stroke="none" points="295 -599 295 -621 417 -621 417 -599 295 -599"/><polygon fill="none" stroke="#000" points="295 -599 295 -621 417 -621 417 -599 295 -599"/><text x="300" y="-608.2" font-family="Helvetica,sans-Serif" font-size="11" font-weight="bold" text-anchor="start">blocks</text><text x="378" y="-607.2" font-family="Helvetica,sans-Serif" font-size="11" text-anchor="start">[table]</text><polygon fill="#fff" stroke="none" points="295 -577 295 -599 417 -599 417 -577 295 -577"/><polygon fill="none" stroke="#000" points="295 -577 295 -599 417 -599 417 -577 295 -577"/><text x="315" y="-585.2" font-family="Helvetica,sans-Serif" font-size="11" text-anchor="start">consensus</text><polygon fill="none" stroke="#000" points="295 -555 295 -577 417 -577 417 -555 295 -555"/><image width="11" height="12" x="300" y="-572" preserveAspectRatio="xMinYMin meet" xlink:href="../../images/primaryKeys.png"/><text x="315" y="-563.2" font-family="Helvetica,sans-Serif" font-size="11" text-anchor="start">hash</text><polygon fill="#fff" stroke="none" points="295 -533 295 -555 417 -555 417 -533 295 -533"/><polygon fill="none" stroke="#000" points="295 -533 295 -555 417 -555 417 -533 295 -533"/><image width="11" height="12" x="300" y="-550" preserveAspectRatio="xMinYMin meet" xlink:href="../../images/foreignKeys.png"/><text x="315" y="-541.2" font-family="Helvetica,sans-Serif" font-size="11" text-anchor="start">miner_hash</text><polygon fill="#fff" stroke="none" points="295 -511 295 -533 417 -533 417 -511 295 -511"/><polygon fill="none" stroke="#000" points="295 -511 295 -533 417 -533 417 -511 295 -511"/><text x="315" y="-519.2" font-family="Helvetica,sans-Serif" font-size="11" text-anchor="start">number</text><polygon fill="#fff" stroke="none" points="295 -489 295 -511 417 -511 417 -489 295 -489"/><polygon fill="none" stroke="#000" points="295 -489 295 -511 417 -511 417 -489 295 -489"/><text x="315" y="-497.2" font-family="Helvetica,sans-Serif" font-size="11" text-anchor="start">parent_hash</text><polygon fill="#fff" stroke="none" points="295 -467 295 -489 417 -489 417 -467 295 -467"/><polygon fill="none" stroke="#000" points="295 -467 295 -489 417 -489 417 -467 295 -467"/><text x="315" y="-475.2" font-family="Helvetica,sans-Serif" font-size="11" text-anchor="start">timestamp</text><polygon fill="#fff" stroke="none" points="295 -445 295 -467 417 -467 417 -445 295 -445"/><polygon fill="none" stroke="#000" points="295 -445 295 -467 417 -467 417 -445 295 -445"/><text x="315" y="-453.2" font-family="Helvetica,sans-Serif" font-size="11" text-anchor="start">inserted_at</text><polygon fill="#fff" stroke="none" points="295 -423 295 -445 417 -445 417 -423 295 -423"/><polygon fill="none" stroke="#000" points="295 -423 295 -445 417 -445 417 -423 295 -423"/><text x="315" y="-431.2" font-family="Helvetica,sans-Serif" font-size="11" text-anchor="start">is_empty</text><polygon fill="none" stroke="#000" points="295 -405 295 -423 417 -423 417 -405 295 -405"/><text x="298" y="-411.2" font-family="Helvetica,sans-Serif" font-size="11" text-anchor="start">...</text><polygon fill="#fff" stroke="none" points="295 -387 295 -405 335 -405 335 -387 295 -387"/><polygon fill="none" stroke="#000" points="295 -387 295 -405 335 -405 335 -387 295 -387"/><text x="298" y="-393.2" font-family="Helvetica,sans-Serif" font-size="11" text-anchor="start">&lt; 1</text><polygon fill="#fff" stroke="none" points="335 -387 335 -405 385 -405 385 -387 335 -387"/><polygon fill="none" stroke="#000" points="335 -387 335 -405 385 -405 385 -387 335 -387"/><text x="346" y="-393.2" font-family="Helvetica,sans-Serif" font-size="11" text-anchor="start">3 rows</text><polygon fill="#fff" stroke="none" points="385 -387 385 -405 417 -405 417 -387 385 -387"/><polygon fill="none" stroke="#000" points="385 -387 385 -405 417 -405 417 -387 385 -387"/><text x="397" y="-393.2" font-family="Helvetica,sans-Serif" font-size="11" text-anchor="start">8 &gt;</text></a></g></g><g id="node2" class="node"><title>addresses</title><g id="a_node2"><a target="_top" xlink:href="../../tables/addresses.html" xlink:title="addresses"><polygon fill="#fff" stroke="none" points="8 -240 8 -364 246 -364 246 -240 8 -240"/><polygon fill="#f5f5f5" stroke="none" points="8 -342 8 -364 246 -364 246 -342 8 -342"/><polygon fill="none" stroke="#000" points="8 -342 8 -364 246 -364 246 -342 8 -342"/><text x="13" y="-351.2" font-family="Helvetica,sans-Serif" font-size="11" font-weight="bold" text-anchor="start">addresses</text><text x="207" y="-350.2" font-family="Helvetica,sans-Serif" font-size="11" text-anchor="start">[table]</text><polygon fill="#fff" stroke="none" points="8 -320 8 -342 246 -342 246 -320 8 -320"/><polygon fill="none" stroke="#000" points="8 -320 8 -342 246 -342 246 -320 8 -320"/><text x="28" y="-328.2" font-family="Helvetica,sans-Serif" font-size="11" text-anchor="start">fetched_coin_balance</text><polygon fill="none" stroke="#000" points="8 -298 8 -320 246 -320 246 -298 8 -298"/><image width="11" height="12" x="13" y="-315" preserveAspectRatio="xMinYMin meet" xlink:href="../../images/primaryKeys.png"/><text x="28" y="-306.2" font-family="Helvetica,sans-Serif" font-size="11" text-anchor="start">hash</text><polygon fill="#fff" stroke="none" points="8 -276 8 -298 246 -298 246 -276 8 -276"/><polygon fill="none" stroke="#000" points="8 -276 8 -298 246 -298 246 -276 8 -276"/><text x="28" y="-284.2" font-family="Helvetica,sans-Serif" font-size="11" text-anchor="start">inserted_at</text><polygon fill="none" stroke="#000" points="8 -258 8 -276 246 -276 246 -258 8 -258"/><text x="11" y="-264.2" font-family="Helvetica,sans-Serif" font-size="11" text-anchor="start">...</text><polygon fill="#fff" stroke="none" points="8 -240 8 -258 97 -258 97 -240 8 -240"/><polygon fill="none" stroke="#000" points="8 -240 8 -258 97 -258 97 -240 8 -240"/><polygon fill="#fff" stroke="none" points="97 -240 97 -258 177 -258 177 -240 97 -240"/><polygon fill="none" stroke="#000" points="97 -240 97 -258 177 -258 177 -240 97 -240"/><text x="138" y="-246.2" font-family="Helvetica,sans-Serif" font-size="11" text-anchor="start">2 rows</text><polygon fill="#fff" stroke="none" points="177 -240 177 -258 246 -258 246 -240 177 -240"/><polygon fill="none" stroke="#000" points="177 -240 177 -258 246 -258 246 -240 177 -240"/><text x="219" y="-246.2" font-family="Helvetica,sans-Serif" font-size="11" text-anchor="start">19 &gt;</text></a></g></g><g id="edge1" class="edge"><title>blocks:miner_hash:w-&gt;addresses:hash:e</title><path fill="none" stroke="#000" d="M279.343,-542.108C204.24,-519.868 347.896,-309 247,-309"/><polygon fill="#000" stroke="#000" points="286.066 -542.976 293.539 -547.57 290.033 -543.488 294 -544 294 -544 294 -544 290.033 -543.488 294.461 -540.43 286.066 -542.976 286.066 -542.976"/><ellipse cx="282.892" cy="-542.566" fill="none" stroke="#000" rx="3.2" ry="3.2"/></g><g id="node3" class="node"><title>token_transfers</title><g id="a_node3"><a target="_top" xlink:href="../../tables/token_transfers.html" xlink:title="token_transfers"><polygon fill="#fff" stroke="none" points="740 -37 740 -367 1051 -367 1051 -37 740 -37"/><polygon fill="#f5f5f5" stroke="none" points="742.5 -343 742.5 -365 1049.5 -365 1049.5 -343 742.5 -343"/><polygon fill="none" stroke="#000" points="742.5 -343 742.5 -365 1049.5 -365 1049.5 -343 742.5 -343"/><text x="747.5" y="-352.2" font-family="Helvetica,sans-Serif" font-size="11" font-weight="bold" text-anchor="start">token_transfers</text><text x="1010.5" y="-351.2" font-family="Helvetica,sans-Serif" font-size="11" text-anchor="start">[table]</text><polygon fill="none" stroke="#000" points="742.5 -321 742.5 -343 939.5 -343 939.5 -321 742.5 -321"/><image width="11" height="12" x="747.5" y="-338" preserveAspectRatio="xMinYMin meet" xlink:href="../../images/primaryKeys.png"/><text x="762.5" y="-329.2" font-family="Helvetica,sans-Serif" font-size="11" text-anchor="start">transaction_hash</text><polygon fill="none" stroke="#000" points="939.5 -321 939.5 -343 1049.5 -343 1049.5 -321 939.5 -321"/><text x="942.5" y="-329.2" font-family="Helvetica,sans-Serif" font-size="11" text-anchor="start">bytea[2147483647]</text><polygon fill="none" stroke="#000" points="742.5 -299 742.5 -321 939.5 -321 939.5 -299 742.5 -299"/><image width="11" height="12" x="747.5" y="-316" preserveAspectRatio="xMinYMin meet" xlink:href="../../images/primaryKeys.png"/><text x="762.5" y="-307.2" font-family="Helvetica,sans-Serif" font-size="11" text-anchor="start">log_index</text><polygon fill="none" stroke="#000" points="939.5 -299 939.5 -321 1049.5 -321 1049.5 -299 939.5 -299"/><text x="942.5" y="-307.2" font-family="Helvetica,sans-Serif" font-size="11" text-anchor="start">int4[10]</text><polygon fill="#fff" stroke="none" points="742.5 -277 742.5 -299 939.5 -299 939.5 -277 742.5 -277"/><polygon fill="none" stroke="#000" points="742.5 -277 742.5 -299 939.5 -299 939.5 -277 742.5 -277"/><image width="11" height="12" x="747.5" y="-294" preserveAspectRatio="xMinYMin meet" xlink:href="../../images/foreignKeys.png"/><text x="762.5" y="-285.2" font-family="Helvetica,sans-Serif" font-size="11" text-anchor="start">from_address_hash</text><polygon fill="none" stroke="#000" points="939.5 -277 939.5 -299 1049.5 -299 1049.5 -277 939.5 -277"/><text x="942.5" y="-285.2" font-family="Helvetica,sans-Serif" font-size="11" text-anchor="start">bytea[2147483647]</text><polygon fill="#fff" stroke="none" points="742.5 -255 742.5 -277 939.5 -277 939.5 -255 742.5 -255"/><polygon fill="none" stroke="#000" points="742.5 -255 742.5 -277 939.5 -277 939.5 -255 742.5 -255"/><image width="11" height="12" x="747.5" y="-272" preserveAspectRatio="xMinYMin meet" xlink:href="../../images/foreignKeys.png"/><text x="762.5" y="-263.2" font-family="Helvetica,sans-Serif" font-size="11" text-anchor="start">to_address_hash</text><polygon fill="none" stroke="#000" points="939.5 -255 939.5 -277 1049.5 -277 1049.5 -255 939.5 -255"/><text x="942.5" y="-263.2" font-family="Helvetica,sans-Serif" font-size="11" text-anchor="start">bytea[2147483647]</text><polygon fill="none" stroke="#000" points="742.5 -233 742.5 -255 939.5 -255 939.5 -233 742.5 -233"/><text x="762.5" y="-241.2" font-family="Helvetica,sans-Serif" font-size="11" text-anchor="start">amount</text><polygon fill="none" stroke="#000" points="939.5 -233 939.5 -255 1049.5 -255 1049.5 -233 939.5 -233"/><text x="942.5" y="-241.2" font-family="Helvetica,sans-Serif" font-size="11" text-anchor="start">numeric[131089]</text><polygon fill="#fff" stroke="none" points="742.5 -211 742.5 -233 939.5 -233 939.5 -211 742.5 -211"/><polygon fill="none" stroke="#000" points="742.5 -211 742.5 -233 939.5 -233 939.5 -211 742.5 -211"/><text x="762.5" y="-219.2" font-family="Helvetica,sans-Serif" font-size="11" text-anchor="start">token_id</text><polygon fill="none" stroke="#000" points="939.5 -211 939.5 -233 1049.5 -233 1049.5 -211 939.5 -211"/><text x="942.5" y="-219.2" font-family="Helvetica,sans-Serif" font-size="11" text-anchor="start">numeric[78]</text><polygon fill="#fff" stroke="none" points="742.5 -189 742.5 -211 939.5 -211 939.5 -189 742.5 -189"/><polygon fill="none" stroke="#000" points="742.5 -189 742.5 -211 939.5 -211 939.5 -189 742.5 -189"/><image width="11" height="12" x="747.5" y="-206" preserveAspectRatio="xMinYMin meet" xlink:href="../../images/foreignKeys.png"/><text x="762.5" y="-197.2" font-family="Helvetica,sans-Serif" font-size="11" text-anchor="start">token_contract_address_hash</text><polygon fill="none" stroke="#000" points="939.5 -189 939.5 -211 1049.5 -211 1049.5 -189 939.5 -189"/><text x="942.5" y="-197.2" font-family="Helvetica,sans-Serif" font-size="11" text-anchor="start">bytea[2147483647]</text><polygon fill="none" stroke="#000" points="742.5 -167 742.5 -189 939.5 -189 939.5 -167 742.5 -167"/><text x="762.5" y="-175.2" font-family="Helvetica,sans-Serif" font-size="11" text-anchor="start">inserted_at</text><polygon fill="none" stroke="#000" points="939.5 -167 939.5 -189 1049.5 -189 1049.5 -167 939.5 -167"/><text x="942.5" y="-175.2" font-family="Helvetica,sans-Serif" font-size="11" text-anchor="start">timestamp[29,6]</text><polygon fill="none" stroke="#000" points="742.5 -145 742.5 -167 939.5 -167 939.5 -145 742.5 -145"/><text x="762.5" y="-153.2" font-family="Helvetica,sans-Serif" font-size="11" text-anchor="start">updated_at</text><polygon fill="none" stroke="#000" points="939.5 -145 939.5 -167 1049.5 -167 1049.5 -145 939.5 -145"/><text x="942.5" y="-153.2" font-family="Helvetica,sans-Serif" font-size="11" text-anchor="start">timestamp[29,6]</text><polygon fill="#fff" stroke="none" points="742.5 -123 742.5 -145 939.5 -145 939.5 -123 742.5 -123"/><polygon fill="none" stroke="#000" points="742.5 -123 742.5 -145 939.5 -145 939.5 -123 742.5 -123"/><text x="762.5" y="-131.2" font-family="Helvetica,sans-Serif" font-size="11" text-anchor="start">block_number</text><polygon fill="none" stroke="#000" points="939.5 -123 939.5 -145 1049.5 -145 1049.5 -123 939.5 -123"/><text x="942.5" y="-131.2" font-family="Helvetica,sans-Serif" font-size="11" text-anchor="start">int4[10]</text><polygon fill="none" stroke="#000" points="742.5 -101 742.5 -123 939.5 -123 939.5 -101 742.5 -101"/><image width="11" height="12" x="747.5" y="-118" preserveAspectRatio="xMinYMin meet" xlink:href="../../images/primaryKeys.png"/><text x="762.5" y="-109.2" font-family="Helvetica,sans-Serif" font-size="11" text-anchor="start">block_hash</text><polygon fill="none" stroke="#000" points="939.5 -101 939.5 -123 1049.5 -123 1049.5 -101 939.5 -101"/><text x="942.5" y="-109.2" font-family="Helvetica,sans-Serif" font-size="11" text-anchor="start">bytea[2147483647]</text><polygon fill="none" stroke="#000" points="742.5 -79 742.5 -101 939.5 -101 939.5 -79 742.5 -79"/><text x="762.5" y="-87.2" font-family="Helvetica,sans-Serif" font-size="11" text-anchor="start">amounts</text><polygon fill="none" stroke="#000" points="939.5 -79 939.5 -101 1049.5 -101 1049.5 -79 939.5 -79"/><text x="942.5" y="-87.2" font-family="Helvetica,sans-Serif" font-size="11" text-anchor="start">_numeric[131089]</text><polygon fill="none" stroke="#000" points="742.5 -57 742.5 -79 939.5 -79 939.5 -57 742.5 -57"/><text x="762.5" y="-65.2" font-family="Helvetica,sans-Serif" font-size="11" text-anchor="start">token_ids</text><polygon fill="none" stroke="#000" points="939.5 -57 939.5 -79 1049.5 -79 1049.5 -57 939.5 -57"/><text x="942.5" y="-65.2" font-family="Helvetica,sans-Serif" font-size="11" text-anchor="start">_numeric[78]</text><polygon fill="#fff" stroke="none" points="742.5 -39 742.5 -57 831.5 -57 831.5 -39 742.5 -39"/><polygon fill="none" stroke="#000" points="742.5 -39 742.5 -57 831.5 -57 831.5 -39 742.5 -39"/><text x="745.5" y="-45.2" font-family="Helvetica,sans-Serif" font-size="11" text-anchor="start">&lt; 5</text><polygon fill="#fff" stroke="none" points="831.5 -39 831.5 -57 939.5 -57 939.5 -39 831.5 -39"/><polygon fill="none" stroke="#000" points="831.5 -39 831.5 -57 939.5 -57 939.5 -39 831.5 -39"/><text x="900.5" y="-45.2" font-family="Helvetica,sans-Serif" font-size="11" text-anchor="start">0 rows</text><polygon fill="#fff" stroke="none" points="939.5 -39 939.5 -57 1049.5 -57 1049.5 -39 939.5 -39"/><polygon fill="none" stroke="#000" points="939.5 -39 939.5 -57 1049.5 -57 1049.5 -39 939.5 -39"/><text x="1029.5" y="-45.2" font-family="Helvetica,sans-Serif" font-size="11" text-anchor="start">0 &gt;</text><polygon fill="none" stroke="#000" stroke-width="2" points="741 -38 741 -366 1050 -366 1050 -38 741 -38"/></a></g></g><g id="edge2" class="edge"><title>token_transfers:block_hash:w-&gt;blocks:hash:e</title><path fill="none" stroke="#000" d="M729.695,-120.774C692.189,-186.159 738.215,-595.86 699,-632 620.237,-704.589 551.325,-684.566 458,-632 428.115,-615.167 452.3,-566 418,-566"/><polygon fill="#000" stroke="#000" points="735.079 -116.772 743.648 -114.889 738.29 -114.386 741.5 -112 741.5 -112 741.5 -112 738.29 -114.386 739.352 -109.111 735.079 -116.772 735.079 -116.772"/><ellipse cx="732.511" cy="-118.681" fill="none" stroke="#000" rx="3.2" ry="3.2"/></g><g id="edge3" class="edge"><title>token_transfers:from_address_hash:w-&gt;addresses:hash:e</title><path fill="none" stroke="#000" d="M727.38,-284.764C718.303,-279.98 713.484,-271.238 699,-268 594.469,-244.633 564.618,-257.737 458,-268 410.454,-272.577 294.766,-309 247,-309"/><polygon fill="#000" stroke="#000" points="733.702 -286.213 740.696 -291.509 737.601 -287.106 741.5 -288 741.5 -288 741.5 -288 737.601 -287.106 742.304 -284.491 733.702 -286.213 733.702 -286.213"/><ellipse cx="730.583" cy="-285.498" fill="none" stroke="#000" rx="3.2" ry="3.2"/></g><g id="edge4" class="edge"><title>token_transfers:to_address_hash:w-&gt;addresses:hash:e</title><path fill="none" stroke="#000" d="M727.082,-263.503C718.252,-260.103 712.653,-254.191 699,-252 593.242,-235.03 564.93,-245.768 458,-252 381.612,-256.452 356.506,-240.001 287,-272 265.002,-282.127 271.217,-309 247,-309"/><polygon fill="#000" stroke="#000" points="733.617 -264.635 740.886 -269.547 737.559 -265.317 741.5 -266 741.5 -266 741.5 -266 737.559 -265.317 742.114 -262.453 733.617 -264.635 733.617 -264.635"/><ellipse cx="730.464" cy="-264.089" fill="none" stroke="#000" rx="3.2" ry="3.2"/></g><g id="edge5" class="edge"><title>token_transfers:token_contract_address_hash:w-&gt;addresses:hash:e</title><path fill="none" stroke="#000" d="M726.841,-199.902C534.483,-197.345 456.485,-146.228 287,-249 259.595,-265.618 279.049,-309 247,-309"/><polygon fill="#000" stroke="#000" points="733.5 -199.947 741.476 -203.6 737.5 -199.973 741.5 -200 741.5 -200 741.5 -200 737.5 -199.973 741.524 -196.4 733.5 -199.947 733.5 -199.947"/><ellipse cx="730.3" cy="-199.925" fill="none" stroke="#000" rx="3.2" ry="3.2"/></g><g id="node4" class="node"><title>transactions</title><g id="a_node4"><a target="_top" xlink:href="../../tables/transactions.html" xlink:title="transactions"><polygon fill="#fff" stroke="none" points="466 -278 466 -622 691 -622 691 -278 466 -278"/><polygon fill="#f5f5f5" stroke="none" points="466.5 -600 466.5 -622 691.5 -622 691.5 -600 466.5 -600"/><polygon fill="none" stroke="#000" points="466.5 -600 466.5 -622 691.5 -622 691.5 -600 466.5 -600"/><text x="471.5" y="-609.2" font-family="Helvetica,sans-Serif" font-size="11" font-weight="bold" text-anchor="start">transactions</text><text x="652.5" y="-608.2" font-family="Helvetica,sans-Serif" font-size="11" text-anchor="start">[table]</text><polygon fill="#fff" stroke="none" points="466.5 -578 466.5 -600 691.5 -600 691.5 -578 466.5 -578"/><polygon fill="none" stroke="#000" points="466.5 -578 466.5 -600 691.5 -600 691.5 -578 466.5 -578"/><text x="486.5" y="-586.2" font-family="Helvetica,sans-Serif" font-size="11" text-anchor="start">error</text><polygon fill="none" stroke="#000" points="466.5 -556 466.5 -578 691.5 -578 691.5 -556 466.5 -556"/><image width="11" height="12" x="471.5" y="-573" preserveAspectRatio="xMinYMin meet" xlink:href="../../images/primaryKeys.png"/><text x="486.5" y="-564.2" font-family="Helvetica,sans-Serif" font-size="11" text-anchor="start">hash</text><polygon fill="#fff" stroke="none" points="466.5 -534 466.5 -556 691.5 -556 691.5 -534 466.5 -534"/><polygon fill="none" stroke="#000" points="466.5 -534 466.5 -556 691.5 -556 691.5 -534 466.5 -534"/><text x="486.5" y="-542.2" font-family="Helvetica,sans-Serif" font-size="11" text-anchor="start">index</text><polygon fill="#fff" stroke="none" points="466.5 -512 466.5 -534 691.5 -534 691.5 -512 466.5 -512"/><polygon fill="none" stroke="#000" points="466.5 -512 466.5 -534 691.5 -534 691.5 -512 466.5 -512"/><text x="486.5" y="-520.2" font-family="Helvetica,sans-Serif" font-size="11" text-anchor="start">nonce</text><polygon fill="#fff" stroke="none" points="466.5 -490 466.5 -512 691.5 -512 691.5 -490 466.5 -490"/><polygon fill="none" stroke="#000" points="466.5 -490 466.5 -512 691.5 -512 691.5 -490 466.5 -490"/><text x="486.5" y="-498.2" font-family="Helvetica,sans-Serif" font-size="11" text-anchor="start">status</text><polygon fill="#fff" stroke="none" points="466.5 -468 466.5 -490 691.5 -490 691.5 -468 466.5 -468"/><polygon fill="none" stroke="#000" points="466.5 -468 466.5 -490 691.5 -490 691.5 -468 466.5 -468"/><text x="486.5" y="-476.2" font-family="Helvetica,sans-Serif" font-size="11" text-anchor="start">inserted_at</text><polygon fill="#fff" stroke="none" points="466.5 -446 466.5 -468 691.5 -468 691.5 -446 466.5 -446"/><polygon fill="none" stroke="#000" points="466.5 -446 466.5 -468 691.5 -468 691.5 -446 466.5 -446"/><text x="486.5" y="-454.2" font-family="Helvetica,sans-Serif" font-size="11" text-anchor="start">updated_at</text><polygon fill="#fff" stroke="none" points="466.5 -424 466.5 -446 691.5 -446 691.5 -424 466.5 -424"/><polygon fill="none" stroke="#000" points="466.5 -424 466.5 -446 691.5 -446 691.5 -424 466.5 -424"/><image width="11" height="12" x="471.5" y="-441" preserveAspectRatio="xMinYMin meet" xlink:href="../../images/foreignKeys.png"/><text x="486.5" y="-432.2" font-family="Helvetica,sans-Serif" font-size="11" text-anchor="start">block_hash</text><polygon fill="#fff" stroke="none" points="466.5 -402 466.5 -424 691.5 -424 691.5 -402 466.5 -402"/><polygon fill="none" stroke="#000" points="466.5 -402 466.5 -424 691.5 -424 691.5 -402 466.5 -402"/><text x="486.5" y="-410.2" font-family="Helvetica,sans-Serif" font-size="11" text-anchor="start">block_number</text><polygon fill="#fff" stroke="none" points="466.5 -380 466.5 -402 691.5 -402 691.5 -380 466.5 -380"/><polygon fill="none" stroke="#000" points="466.5 -380 466.5 -402 691.5 -402 691.5 -380 466.5 -380"/><image width="11" height="12" x="471.5" y="-397" preserveAspectRatio="xMinYMin meet" xlink:href="../../images/foreignKeys.png"/><text x="486.5" y="-388.2" font-family="Helvetica,sans-Serif" font-size="11" text-anchor="start">from_address_hash</text><polygon fill="#fff" stroke="none" points="466.5 -358 466.5 -380 691.5 -380 691.5 -358 466.5 -358"/><polygon fill="none" stroke="#000" points="466.5 -358 466.5 -380 691.5 -380 691.5 -358 466.5 -358"/><image width="11" height="12" x="471.5" y="-375" preserveAspectRatio="xMinYMin meet" xlink:href="../../images/foreignKeys.png"/><text x="486.5" y="-366.2" font-family="Helvetica,sans-Serif" font-size="11" text-anchor="start">to_address_hash</text><polygon fill="#fff" stroke="none" points="466.5 -336 466.5 -358 691.5 -358 691.5 -336 466.5 -336"/><polygon fill="none" stroke="#000" points="466.5 -336 466.5 -358 691.5 -358 691.5 -336 466.5 -336"/><image width="11" height="12" x="471.5" y="-353" preserveAspectRatio="xMinYMin meet" xlink:href="../../images/foreignKeys.png"/><text x="486.5" y="-344.2" font-family="Helvetica,sans-Serif" font-size="11" text-anchor="start">created_contract_address_hash</text><polygon fill="#fff" stroke="none" points="466.5 -314 466.5 -336 691.5 -336 691.5 -314 466.5 -314"/><polygon fill="none" stroke="#000" points="466.5 -314 466.5 -336 691.5 -336 691.5 -314 466.5 -314"/><text x="486.5" y="-322.2" font-family="Helvetica,sans-Serif" font-size="11" text-anchor="start">created_contract_code_indexed_at</text><polygon fill="none" stroke="#000" points="466.5 -296 466.5 -314 691.5 -314 691.5 -296 466.5 -296"/><text x="469.5" y="-302.2" font-family="Helvetica,sans-Serif" font-size="11" text-anchor="start">...</text><polygon fill="#fff" stroke="none" points="466.5 -278 466.5 -296 560.5 -296 560.5 -278 466.5 -278"/><polygon fill="none" stroke="#000" points="466.5 -278 466.5 -296 560.5 -296 560.5 -278 466.5 -278"/><text x="469.5" y="-284.2" font-family="Helvetica,sans-Serif" font-size="11" text-anchor="start">&lt; 4</text><polygon fill="#fff" stroke="none" points="560.5 -278 560.5 -296 632.5 -296 632.5 -278 560.5 -278"/><polygon fill="none" stroke="#000" points="560.5 -278 560.5 -296 632.5 -296 632.5 -278 560.5 -278"/><text x="598.5" y="-284.2" font-family="Helvetica,sans-Serif" font-size="11" text-anchor="start">1 row</text><polygon fill="#fff" stroke="none" points="632.5 -278 632.5 -296 691.5 -296 691.5 -278 632.5 -278"/><polygon fill="none" stroke="#000" points="632.5 -278 632.5 -296 691.5 -296 691.5 -278 632.5 -278"/><text x="671.5" y="-284.2" font-family="Helvetica,sans-Serif" font-size="11" text-anchor="start">4 &gt;</text></a></g></g><g id="edge6" class="edge"><title>token_transfers:transaction_hash:w-&gt;transactions:hash:e</title><path fill="none" stroke="#000" d="M726.803,-333.892C651.393,-356.132 793.564,-567 692.5,-567"/><polygon fill="#000" stroke="#000" points="733.565 -333.021 741.96 -335.571 737.533 -332.511 741.5 -332 741.5 -332 741.5 -332 737.533 -332.511 741.04 -328.429 733.565 -333.021 733.565 -333.021"/><ellipse cx="730.392" cy="-333.43" fill="none" stroke="#000" rx="3.2" ry="3.2"/></g><g id="edge7" class="edge"><title>transactions:block_hash:w-&gt;blocks:hash:e</title><path fill="none" stroke="#000" d="M451.055,-438.504C417.164,-459.337 473.883,-566 418,-566"/><polygon fill="#000" stroke="#000" points="457.725 -436.886 466.349 -438.499 461.613 -435.943 465.5 -435 465.5 -435 465.5 -435 461.613 -435.943 464.651 -431.501 457.725 -436.886 457.725 -436.886"/><ellipse cx="454.616" cy="-437.64" fill="none" stroke="#000" rx="3.2" ry="3.2"/></g><g id="edge8" class="edge"><title>transactions:created_contract_address_hash:w-&gt;addresses:hash:e</title><path fill="none" stroke="#000" d="M451.318,-343.45C443.018,-338.583 438.522,-329.988 425,-326 348.775,-303.52 326.471,-309 247,-309"/><polygon fill="#000" stroke="#000" points="457.739 -345.057 464.626 -350.492 461.62 -346.029 465.5 -347 465.5 -347 465.5 -347 461.62 -346.029 466.374 -343.508 457.739 -345.057 457.739 -345.057"/><ellipse cx="454.635" cy="-344.28" fill="none" stroke="#000" rx="3.2" ry="3.2"/></g><g id="edge9" class="edge"><title>transactions:from_address_hash:w-&gt;addresses:hash:e</title><path fill="none" stroke="#000" d="M451.074,-388.7C442.888,-385.735 437.452,-380.539 425,-377 364.533,-359.815 342.65,-375.235 287,-346 265.561,-334.737 271.217,-309 247,-309"/><polygon fill="#000" stroke="#000" points="457.6 -389.74 464.933 -394.555 461.55 -390.37 465.5 -391 465.5 -391 465.5 -391 461.55 -390.37 466.067 -387.445 457.6 -389.74 457.6 -389.74"/><ellipse cx="454.44" cy="-389.237" fill="none" stroke="#000" rx="3.2" ry="3.2"/></g><g id="edge10" class="edge"><title>transactions:to_address_hash:w-&gt;addresses:hash:e</title><path fill="none" stroke="#000" d="M451.497,-365.561C442.992,-360.63 438.636,-351.638 425,-347 366.2,-327.001 346.869,-341.524 287,-325 268.543,-319.906 266.147,-309 247,-309"/><polygon fill="#000" stroke="#000" points="457.731 -367.092 464.641 -372.496 461.615 -368.046 465.5 -369 465.5 -369 465.5 -369 461.615 -368.046 466.359 -365.504 457.731 -367.092 457.731 -367.092"/><ellipse cx="454.623" cy="-366.328" fill="none" stroke="#000" rx="3.2" ry="3.2"/></g></g></svg>