<svg xmlns="http://www.w3.org/2000/svg" xmlns:xlink="http://www.w3.org/1999/xlink" width="695pt" height="383pt" viewBox="0 0 695 383"><g id="graph0" class="graph" transform="scale(1 1) rotate(0) translate(4 379)"><title>twoDegreesRelationshipsDiagram</title><polygon fill="#fff" stroke="none" points="-4 4 -4 -379 691 -379 691 4 -4 4"/><text x="74.5" y="-7.2" font-family="Helvetica,sans-Serif" font-size="11" text-anchor="middle">Generated by SchemaSpy</text><g id="node1" class="node"><title>address_current_token_balances</title><g id="a_node1"><a target="_top" xlink:href="../../tables/address_current_token_balances.html" xlink:title="address_current_token_balances"><polygon fill="#fff" stroke="none" points="407 -313 407 -371 640 -371 640 -313 407 -313"/><polygon fill="#f5f5f5" stroke="none" points="407.5 -349 407.5 -371 640.5 -371 640.5 -349 407.5 -349"/><polygon fill="none" stroke="#000" points="407.5 -349 407.5 -371 640.5 -371 640.5 -349 407.5 -349"/><text x="412.5" y="-358.2" font-family="Helvetica,sans-Serif" font-size="11" font-weight="bold" text-anchor="start">address_current_token_balances</text><text x="601.5" y="-357.2" font-family="Helvetica,sans-Serif" font-size="11" text-anchor="start">[table]</text><polygon fill="none" stroke="#000" points="407.5 -331 407.5 -349 640.5 -349 640.5 -331 407.5 -331"/><text x="410.5" y="-337.2" font-family="Helvetica,sans-Serif" font-size="11" text-anchor="start">...</text><polygon fill="#fff" stroke="none" points="407.5 -313 407.5 -331 507.5 -331 507.5 -313 407.5 -313"/><polygon fill="none" stroke="#000" points="407.5 -313 407.5 -331 507.5 -331 507.5 -313 407.5 -313"/><text x="410.5" y="-319.2" font-family="Helvetica,sans-Serif" font-size="11" text-anchor="start">&lt; 2</text><polygon fill="#fff" stroke="none" points="507.5 -313 507.5 -331 588.5 -331 588.5 -313 507.5 -313"/><polygon fill="none" stroke="#000" points="507.5 -313 507.5 -331 588.5 -331 588.5 -313 507.5 -313"/><text x="549.5" y="-319.2" font-family="Helvetica,sans-Serif" font-size="11" text-anchor="start">0 rows</text><polygon fill="#fff" stroke="none" points="588.5 -313 588.5 -331 640.5 -331 640.5 -313 588.5 -313"/><polygon fill="none" stroke="#000" points="588.5 -313 588.5 -331 640.5 -331 640.5 -313 588.5 -313"/></a></g></g><g id="node2" class="node"><title>addresses</title><g id="a_node2"><a target="_top" xlink:href="../../tables/addresses.html" xlink:title="addresses"><polygon fill="#fff" stroke="none" points="8 -208 8 -266 113 -266 113 -208 8 -208"/><polygon fill="#f5f5f5" stroke="none" points="8.5 -244 8.5 -266 113.5 -266 113.5 -244 8.5 -244"/><polygon fill="none" stroke="#000" points="8.5 -244 8.5 -266 113.5 -266 113.5 -244 8.5 -244"/><text x="13.5" y="-253.2" font-family="Helvetica,sans-Serif" font-size="11" font-weight="bold" text-anchor="start">addresses</text><text x="74.5" y="-252.2" font-family="Helvetica,sans-Serif" font-size="11" text-anchor="start">[table]</text><polygon fill="none" stroke="#000" points="8.5 -226 8.5 -244 113.5 -244 113.5 -226 8.5 -226"/><text x="11.5" y="-232.2" font-family="Helvetica,sans-Serif" font-size="11" text-anchor="start">...</text><polygon fill="#fff" stroke="none" points="8.5 -208 8.5 -226 31.5 -226 31.5 -208 8.5 -208"/><polygon fill="none" stroke="#000" points="8.5 -208 8.5 -226 31.5 -226 31.5 -208 8.5 -208"/><polygon fill="#fff" stroke="none" points="31.5 -208 31.5 -226 78.5 -226 78.5 -208 31.5 -208"/><polygon fill="none" stroke="#000" points="31.5 -208 31.5 -226 78.5 -226 78.5 -208 31.5 -208"/><text x="39.5" y="-214.2" font-family="Helvetica,sans-Serif" font-size="11" text-anchor="start">2 rows</text><polygon fill="#fff" stroke="none" points="78.5 -208 78.5 -226 113.5 -226 113.5 -208 78.5 -208"/><polygon fill="none" stroke="#000" points="78.5 -208 78.5 -226 113.5 -226 113.5 -208 78.5 -208"/><text x="86.5" y="-214.2" font-family="Helvetica,sans-Serif" font-size="11" text-anchor="start">19 &gt;</text></a></g></g><g id="edge1" class="edge"><title>address_current_token_balances:elipses:w-&gt;addresses:elipses:e</title><path fill="none" stroke="#000" d="M392.038,-340.26C289.745,-343.938 242.259,-384.431 154,-323 118.814,-298.509 157.37,-235 114.5,-235"/><polygon fill="#000" stroke="#000" points="398.501 -340.144 406.565 -343.599 402.501 -340.072 406.5 -340 406.5 -340 406.5 -340 402.501 -340.072 406.435 -336.401 398.501 -340.144 398.501 -340.144"/><ellipse cx="395.302" cy="-340.202" fill="none" stroke="#000" rx="3.2" ry="3.2"/></g><g id="node3" class="node"><title>tokens</title><g id="a_node3"><a target="_top" xlink:href="../../tables/tokens.html" xlink:title="tokens"><polygon fill="#fff" stroke="none" points="162 -188 162 -312 319 -312 319 -188 162 -188"/><polygon fill="#f5f5f5" stroke="none" points="162.5 -290 162.5 -312 319.5 -312 319.5 -290 162.5 -290"/><polygon fill="none" stroke="#000" points="162.5 -290 162.5 -312 319.5 -312 319.5 -290 162.5 -290"/><text x="167.5" y="-299.2" font-family="Helvetica,sans-Serif" font-size="11" font-weight="bold" text-anchor="start">tokens</text><text x="280.5" y="-298.2" font-family="Helvetica,sans-Serif" font-size="11" text-anchor="start">[table]</text><polygon fill="#fff" stroke="none" points="162.5 -268 162.5 -290 319.5 -290 319.5 -268 162.5 -268"/><polygon fill="none" stroke="#000" points="162.5 -268 162.5 -290 319.5 -290 319.5 -268 162.5 -268"/><text x="182.5" y="-276.2" font-family="Helvetica,sans-Serif" font-size="11" text-anchor="start">symbol</text><polygon fill="#fff" stroke="none" points="162.5 -246 162.5 -268 319.5 -268 319.5 -246 162.5 -246"/><polygon fill="none" stroke="#000" points="162.5 -246 162.5 -268 319.5 -268 319.5 -246 162.5 -246"/><text x="182.5" y="-254.2" font-family="Helvetica,sans-Serif" font-size="11" text-anchor="start">type</text><polygon fill="none" stroke="#000" points="162.5 -224 162.5 -246 319.5 -246 319.5 -224 162.5 -224"/><image width="11" height="12" x="167.5" y="-241" preserveAspectRatio="xMinYMin meet" xlink:href="../../images/primaryKeys.png"/><text x="182.5" y="-232.2" font-family="Helvetica,sans-Serif" font-size="11" text-anchor="start">contract_address_hash</text><polygon fill="none" stroke="#000" points="162.5 -206 162.5 -224 319.5 -224 319.5 -206 162.5 -206"/><text x="165.5" y="-212.2" font-family="Helvetica,sans-Serif" font-size="11" text-anchor="start">...</text><polygon fill="#fff" stroke="none" points="162.5 -188 162.5 -206 219.5 -206 219.5 -188 162.5 -188"/><polygon fill="none" stroke="#000" points="162.5 -188 162.5 -206 219.5 -206 219.5 -188 162.5 -188"/><text x="165.5" y="-194.2" font-family="Helvetica,sans-Serif" font-size="11" text-anchor="start">&lt; 1</text><polygon fill="#fff" stroke="none" points="219.5 -188 219.5 -206 278.5 -206 278.5 -188 219.5 -188"/><polygon fill="none" stroke="#000" points="219.5 -188 219.5 -206 278.5 -206 278.5 -188 219.5 -188"/><text x="239.5" y="-194.2" font-family="Helvetica,sans-Serif" font-size="11" text-anchor="start">0 rows</text><polygon fill="#fff" stroke="none" points="278.5 -188 278.5 -206 319.5 -206 319.5 -188 278.5 -188"/><polygon fill="none" stroke="#000" points="278.5 -188 278.5 -206 319.5 -206 319.5 -188 278.5 -188"/><text x="299.5" y="-194.2" font-family="Helvetica,sans-Serif" font-size="11" text-anchor="start">3 &gt;</text></a></g></g><g id="edge2" class="edge"><title>address_current_token_balances:elipses:w-&gt;tokens:contract_address_hash:e</title><path fill="none" stroke="#000" d="M392.156,-337.705C378.163,-332.414 373.488,-318.614 360,-303 337.152,-276.551 355.451,-235 320.5,-235"/><polygon fill="#000" stroke="#000" points="398.601 -338.736 405.931 -343.555 402.55 -339.368 406.5 -340 406.5 -340 406.5 -340 402.55 -339.368 407.069 -336.445 398.601 -338.736 398.601 -338.736"/><ellipse cx="395.441" cy="-338.23" fill="none" stroke="#000" rx="3.2" ry="3.2"/></g><g id="edge6" class="edge"><title>tokens:contract_address_hash:w-&gt;addresses:elipses:e</title><path fill="none" stroke="#000" d="M150.82,-235C137.974,-235 131.309,-235 114.5,-235"/><polygon fill="#000" stroke="#000" points="160.7 -231 160.7 -239 159.1 -239 159.1 -231 160.7 -231"/><polyline fill="none" stroke="#000" points="161.5 -235 157.5 -235"/><ellipse cx="154.3" cy="-235" fill="none" stroke="#000" rx="3.2" ry="3.2"/></g><g id="node4" class="node"><title>address_token_balances</title><g id="a_node4"><a target="_top" xlink:href="../../tables/address_token_balances.html" xlink:title="address_token_balances"><polygon fill="#fff" stroke="none" points="431 -37 431 -95 616 -95 616 -37 431 -37"/><polygon fill="#f5f5f5" stroke="none" points="431.5 -73 431.5 -95 616.5 -95 616.5 -73 431.5 -73"/><polygon fill="none" stroke="#000" points="431.5 -73 431.5 -95 616.5 -95 616.5 -73 431.5 -73"/><text x="436.5" y="-82.2" font-family="Helvetica,sans-Serif" font-size="11" font-weight="bold" text-anchor="start">address_token_balances</text><text x="577.5" y="-81.2" font-family="Helvetica,sans-Serif" font-size="11" text-anchor="start">[table]</text><polygon fill="none" stroke="#000" points="431.5 -55 431.5 -73 616.5 -73 616.5 -55 431.5 -55"/><text x="434.5" y="-61.2" font-family="Helvetica,sans-Serif" font-size="11" text-anchor="start">...</text><polygon fill="#fff" stroke="none" points="431.5 -37 431.5 -55 507.5 -55 507.5 -37 431.5 -37"/><polygon fill="none" stroke="#000" points="431.5 -37 431.5 -55 507.5 -55 507.5 -37 431.5 -37"/><text x="434.5" y="-43.2" font-family="Helvetica,sans-Serif" font-size="11" text-anchor="start">&lt; 2</text><polygon fill="#fff" stroke="none" points="507.5 -37 507.5 -55 576.5 -55 576.5 -37 507.5 -37"/><polygon fill="none" stroke="#000" points="507.5 -37 507.5 -55 576.5 -55 576.5 -37 507.5 -37"/><text x="537.5" y="-43.2" font-family="Helvetica,sans-Serif" font-size="11" text-anchor="start">0 rows</text><polygon fill="#fff" stroke="none" points="576.5 -37 576.5 -55 616.5 -55 616.5 -37 576.5 -37"/><polygon fill="none" stroke="#000" points="576.5 -37 576.5 -55 616.5 -55 616.5 -37 576.5 -37"/></a></g></g><g id="edge3" class="edge"><title>address_token_balances:elipses:w-&gt;addresses:elipses:e</title><path fill="none" stroke="#000" d="M416.078,-64.1277C294.516,-66.3461 253.689,-97.7263 154,-178 129.994,-197.331 145.322,-235 114.5,-235"/><polygon fill="#000" stroke="#000" points="422.5 -64.071 430.532 -67.6 426.5 -64.035 430.5 -64 430.5 -64 430.5 -64 426.5 -64.035 430.468 -60.4 422.5 -64.071 422.5 -64.071"/><ellipse cx="419.3" cy="-64.099" fill="none" stroke="#000" rx="3.2" ry="3.2"/></g><g id="edge4" class="edge"><title>address_token_balances:elipses:w-&gt;tokens:contract_address_hash:e</title><path fill="none" stroke="#000" d="M415.862,-64.8421C390.526,-68.0832 379.156,-80.7969 360,-105 322.524,-152.35 380.886,-235 320.5,-235"/><polygon fill="#000" stroke="#000" points="422.513 -64.46 430.707 -67.594 426.507 -64.23 430.5 -64 430.5 -64 430.5 -64 426.507 -64.23 430.293 -60.406 422.513 -64.46 422.513 -64.46"/><ellipse cx="419.318" cy="-64.643" fill="none" stroke="#000" rx="3.2" ry="3.2"/></g><g id="node5" class="node"><title>token_instances</title><g id="a_node5"><a target="_top" xlink:href="../../tables/token_instances.html" xlink:title="token_instances"><polygon fill="#fff" stroke="none" points="368 -116 368 -292 679 -292 679 -116 368 -116"/><polygon fill="#f5f5f5" stroke="none" points="370.5 -268 370.5 -290 677.5 -290 677.5 -268 370.5 -268"/><polygon fill="none" stroke="#000" points="370.5 -268 370.5 -290 677.5 -290 677.5 -268 370.5 -268"/><text x="375.5" y="-277.2" font-family="Helvetica,sans-Serif" font-size="11" font-weight="bold" text-anchor="start">token_instances</text><text x="638.5" y="-276.2" font-family="Helvetica,sans-Serif" font-size="11" text-anchor="start">[table]</text><polygon fill="none" stroke="#000" points="370.5 -246 370.5 -268 567.5 -268 567.5 -246 370.5 -246"/><image width="11" height="12" x="375.5" y="-263" preserveAspectRatio="xMinYMin meet" xlink:href="../../images/primaryKeys.png"/><text x="390.5" y="-254.2" font-family="Helvetica,sans-Serif" font-size="11" text-anchor="start">token_id</text><polygon fill="none" stroke="#000" points="567.5 -246 567.5 -268 677.5 -268 677.5 -246 567.5 -246"/><text x="570.5" y="-254.2" font-family="Helvetica,sans-Serif" font-size="11" text-anchor="start">numeric[78]</text><polygon fill="none" stroke="#000" points="370.5 -224 370.5 -246 567.5 -246 567.5 -224 370.5 -224"/><image width="11" height="12" x="375.5" y="-241" preserveAspectRatio="xMinYMin meet" xlink:href="../../images/primaryKeys.png"/><text x="390.5" y="-232.2" font-family="Helvetica,sans-Serif" font-size="11" text-anchor="start">token_contract_address_hash</text><polygon fill="none" stroke="#000" points="567.5 -224 567.5 -246 677.5 -246 677.5 -224 567.5 -224"/><text x="570.5" y="-232.2" font-family="Helvetica,sans-Serif" font-size="11" text-anchor="start">bytea[2147483647]</text><polygon fill="none" stroke="#000" points="370.5 -202 370.5 -224 567.5 -224 567.5 -202 370.5 -202"/><text x="390.5" y="-210.2" font-family="Helvetica,sans-Serif" font-size="11" text-anchor="start">metadata</text><polygon fill="none" stroke="#000" points="567.5 -202 567.5 -224 677.5 -224 677.5 -202 567.5 -202"/><text x="570.5" y="-210.2" font-family="Helvetica,sans-Serif" font-size="11" text-anchor="start">jsonb[2147483647]</text><polygon fill="none" stroke="#000" points="370.5 -180 370.5 -202 567.5 -202 567.5 -180 370.5 -180"/><text x="390.5" y="-188.2" font-family="Helvetica,sans-Serif" font-size="11" text-anchor="start">inserted_at</text><polygon fill="none" stroke="#000" points="567.5 -180 567.5 -202 677.5 -202 677.5 -180 567.5 -180"/><text x="570.5" y="-188.2" font-family="Helvetica,sans-Serif" font-size="11" text-anchor="start">timestamp[29,6]</text><polygon fill="none" stroke="#000" points="370.5 -158 370.5 -180 567.5 -180 567.5 -158 370.5 -158"/><text x="390.5" y="-166.2" font-family="Helvetica,sans-Serif" font-size="11" text-anchor="start">updated_at</text><polygon fill="none" stroke="#000" points="567.5 -158 567.5 -180 677.5 -180 677.5 -158 567.5 -158"/><text x="570.5" y="-166.2" font-family="Helvetica,sans-Serif" font-size="11" text-anchor="start">timestamp[29,6]</text><polygon fill="#fff" stroke="none" points="370.5 -136 370.5 -158 567.5 -158 567.5 -136 370.5 -136"/><polygon fill="none" stroke="#000" points="370.5 -136 370.5 -158 567.5 -158 567.5 -136 370.5 -136"/><text x="390.5" y="-144.2" font-family="Helvetica,sans-Serif" font-size="11" text-anchor="start">error</text><polygon fill="none" stroke="#000" points="567.5 -136 567.5 -158 677.5 -158 677.5 -136 567.5 -136"/><text x="570.5" y="-144.2" font-family="Helvetica,sans-Serif" font-size="11" text-anchor="start">varchar[255]</text><polygon fill="#fff" stroke="none" points="370.5 -118 370.5 -136 459.5 -136 459.5 -118 370.5 -118"/><polygon fill="none" stroke="#000" points="370.5 -118 370.5 -136 459.5 -136 459.5 -118 370.5 -118"/><text x="373.5" y="-124.2" font-family="Helvetica,sans-Serif" font-size="11" text-anchor="start">&lt; 1</text><polygon fill="#fff" stroke="none" points="459.5 -118 459.5 -136 567.5 -136 567.5 -118 459.5 -118"/><polygon fill="none" stroke="#000" points="459.5 -118 459.5 -136 567.5 -136 567.5 -118 459.5 -118"/><text x="528.5" y="-124.2" font-family="Helvetica,sans-Serif" font-size="11" text-anchor="start">0 rows</text><polygon fill="#fff" stroke="none" points="567.5 -118 567.5 -136 677.5 -136 677.5 -118 567.5 -118"/><polygon fill="none" stroke="#000" points="567.5 -118 567.5 -136 677.5 -136 677.5 -118 567.5 -118"/><text x="657.5" y="-124.2" font-family="Helvetica,sans-Serif" font-size="11" text-anchor="start">0 &gt;</text><polygon fill="none" stroke="#000" stroke-width="2" points="369 -117 369 -291 678 -291 678 -117 369 -117"/></a></g></g><g id="edge5" class="edge"><title>token_instances:token_contract_address_hash:w-&gt;tokens:contract_address_hash:e</title><path fill="none" stroke="#000" d="M354.991,-235C343.677,-235 336.493,-235 320.5,-235"/><polygon fill="#000" stroke="#000" points="361.5 -235 369.5 -238.6 365.5 -235 369.5 -235 369.5 -235 369.5 -235 365.5 -235 369.5 -231.4 361.5 -235 361.5 -235"/><ellipse cx="358.3" cy="-235" fill="none" stroke="#000" rx="3.2" ry="3.2"/></g></g></svg>