<svg xmlns="http://www.w3.org/2000/svg" xmlns:xlink="http://www.w3.org/1999/xlink" width="576" height="424" viewBox="0 0 432 318"><g id="graph0" class="graph" transform="scale(1 1) rotate(0) translate(4 314)"><title>oneDegreeRelationshipsDiagram</title><polygon fill="#fff" stroke="none" points="-4 4 -4 -314 428 -314 428 4 -4 4"/><text x="74.5" y="-7.2" font-family="Helvetica,sans-Serif" font-size="11" text-anchor="middle">Generated by SchemaSpy</text><g id="node1" class="node"><title>administrators</title><g id="a_node1"><a target="_top" xlink:href="../../tables/administrators.html" xlink:title="administrators"><polygon fill="#fff" stroke="none" points="282 -182 282 -306 416 -306 416 -182 282 -182"/><polygon fill="#f5f5f5" stroke="none" points="282 -284 282 -306 416 -306 416 -284 282 -284"/><polygon fill="none" stroke="#000" points="282 -284 282 -306 416 -306 416 -284 282 -284"/><text x="287" y="-293.2" font-family="Helvetica,sans-Serif" font-size="11" font-weight="bold" text-anchor="start">administrators</text><text x="377" y="-292.2" font-family="Helvetica,sans-Serif" font-size="11" text-anchor="start">[table]</text><polygon fill="none" stroke="#000" points="282 -262 282 -284 416 -284 416 -262 282 -262"/><image width="11" height="12" x="287" y="-279" preserveAspectRatio="xMinYMin meet" xlink:href="../../images/primaryKeys.png"/><text x="314" y="-270.2" font-family="Helvetica,sans-Serif" font-size="11" text-anchor="start">id</text><polygon fill="#fff" stroke="none" points="282 -240 282 -262 416 -262 416 -240 282 -240"/><polygon fill="none" stroke="#000" points="282 -240 282 -262 416 -262 416 -240 282 -240"/><text x="314" y="-248.2" font-family="Helvetica,sans-Serif" font-size="11" text-anchor="start">role</text><polygon fill="#fff" stroke="none" points="282 -218 282 -240 416 -240 416 -218 282 -218"/><polygon fill="none" stroke="#000" points="282 -218 282 -240 416 -240 416 -218 282 -218"/><image width="11" height="12" x="287" y="-235" preserveAspectRatio="xMinYMin meet" xlink:href="../../images/foreignKeys.png"/><text x="314" y="-226.2" font-family="Helvetica,sans-Serif" font-size="11" text-anchor="start">user_id</text><polygon fill="none" stroke="#000" points="282 -200 282 -218 416 -218 416 -200 282 -200"/><text x="285" y="-206.2" font-family="Helvetica,sans-Serif" font-size="11" text-anchor="start">...</text><polygon fill="#fff" stroke="none" points="282 -182 282 -200 333 -200 333 -182 282 -182"/><polygon fill="none" stroke="#000" points="282 -182 282 -200 333 -200 333 -182 282 -182"/><text x="285" y="-188.2" font-family="Helvetica,sans-Serif" font-size="11" text-anchor="start">&lt; 1</text><polygon fill="#fff" stroke="none" points="333 -182 333 -200 389 -200 389 -182 333 -182"/><polygon fill="none" stroke="#000" points="333 -182 333 -200 389 -200 389 -182 333 -182"/><text x="350" y="-188.2" font-family="Helvetica,sans-Serif" font-size="11" text-anchor="start">0 rows</text><polygon fill="#fff" stroke="none" points="389 -182 389 -200 416 -200 416 -182 389 -182"/><polygon fill="none" stroke="#000" points="389 -182 389 -200 416 -200 416 -182 389 -182"/></a></g></g><g id="node2" class="node"><title>users</title><g id="a_node2"><a target="_top" xlink:href="../../tables/users.html" xlink:title="users"><polygon fill="#fff" stroke="none" points="8 -37 8 -191 233 -191 233 -37 8 -37"/><polygon fill="#f5f5f5" stroke="none" points="10.5 -167 10.5 -189 231.5 -189 231.5 -167 10.5 -167"/><polygon fill="none" stroke="#000" points="10.5 -167 10.5 -189 231.5 -189 231.5 -167 10.5 -167"/><text x="15.5" y="-176.2" font-family="Helvetica,sans-Serif" font-size="11" font-weight="bold" text-anchor="start">users</text><text x="192.5" y="-175.2" font-family="Helvetica,sans-Serif" font-size="11" text-anchor="start">[table]</text><polygon fill="none" stroke="#000" points="10.5 -145 10.5 -167 122.5 -167 122.5 -145 10.5 -145"/><image width="11" height="12" x="15.5" y="-162" preserveAspectRatio="xMinYMin meet" xlink:href="../../images/primaryKeys.png"/><text x="30.5" y="-153.2" font-family="Helvetica,sans-Serif" font-size="11" text-anchor="start">id</text><polygon fill="none" stroke="#000" points="122.5 -145 122.5 -167 231.5 -167 231.5 -145 122.5 -145"/><text x="125.5" y="-153.2" font-family="Helvetica,sans-Serif" font-size="11" text-anchor="start">bigserial[19]</text><polygon fill="#fff" stroke="none" points="10.5 -123 10.5 -145 122.5 -145 122.5 -123 10.5 -123"/><polygon fill="none" stroke="#000" points="10.5 -123 10.5 -145 122.5 -145 122.5 -123 10.5 -123"/><text x="30.5" y="-131.2" font-family="Helvetica,sans-Serif" font-size="11" text-anchor="start">username</text><polygon fill="none" stroke="#000" points="122.5 -123 122.5 -145 231.5 -145 231.5 -123 122.5 -123"/><text x="125.5" y="-131.2" font-family="Helvetica,sans-Serif" font-size="11" text-anchor="start">citext[2147483647]</text><polygon fill="none" stroke="#000" points="10.5 -101 10.5 -123 122.5 -123 122.5 -101 10.5 -101"/><text x="30.5" y="-109.2" font-family="Helvetica,sans-Serif" font-size="11" text-anchor="start">password_hash</text><polygon fill="none" stroke="#000" points="122.5 -101 122.5 -123 231.5 -123 231.5 -101 122.5 -101"/><text x="125.5" y="-109.2" font-family="Helvetica,sans-Serif" font-size="11" text-anchor="start">varchar[255]</text><polygon fill="none" stroke="#000" points="10.5 -79 10.5 -101 122.5 -101 122.5 -79 10.5 -79"/><text x="30.5" y="-87.2" font-family="Helvetica,sans-Serif" font-size="11" text-anchor="start">inserted_at</text><polygon fill="none" stroke="#000" points="122.5 -79 122.5 -101 231.5 -101 231.5 -79 122.5 -79"/><text x="125.5" y="-87.2" font-family="Helvetica,sans-Serif" font-size="11" text-anchor="start">timestamp[29,6]</text><polygon fill="none" stroke="#000" points="10.5 -57 10.5 -79 122.5 -79 122.5 -57 10.5 -57"/><text x="30.5" y="-65.2" font-family="Helvetica,sans-Serif" font-size="11" text-anchor="start">updated_at</text><polygon fill="none" stroke="#000" points="122.5 -57 122.5 -79 231.5 -79 231.5 -57 122.5 -57"/><text x="125.5" y="-65.2" font-family="Helvetica,sans-Serif" font-size="11" text-anchor="start">timestamp[29,6]</text><polygon fill="#fff" stroke="none" points="10.5 -39 10.5 -57 56.5 -57 56.5 -39 10.5 -39"/><polygon fill="none" stroke="#000" points="10.5 -39 10.5 -57 56.5 -57 56.5 -39 10.5 -39"/><text x="13.5" y="-45.2" font-family="Helvetica,sans-Serif" font-size="11" text-anchor="start">&lt; 0</text><polygon fill="#fff" stroke="none" points="56.5 -39 56.5 -57 122.5 -57 122.5 -39 56.5 -39"/><polygon fill="none" stroke="#000" points="56.5 -39 56.5 -57 122.5 -57 122.5 -39 56.5 -39"/><text x="83.5" y="-45.2" font-family="Helvetica,sans-Serif" font-size="11" text-anchor="start">0 rows</text><polygon fill="#fff" stroke="none" points="122.5 -39 122.5 -57 231.5 -57 231.5 -39 122.5 -39"/><polygon fill="none" stroke="#000" points="122.5 -39 122.5 -57 231.5 -57 231.5 -39 122.5 -39"/><text x="211.5" y="-45.2" font-family="Helvetica,sans-Serif" font-size="11" text-anchor="start">2 &gt;</text><polygon fill="none" stroke="#000" stroke-width="2" points="9 -38 9 -190 232 -190 232 -38 9 -38"/></a></g></g><g id="edge1" class="edge"><title>administrators:user_id:w-&gt;users:id.type:e</title><path fill="none" stroke="#000" d="M270.796,-226.735C247.49,-214.414 267.344,-156 232.5,-156"/><polygon fill="#000" stroke="#000" points="281.086 -224.922 279.352 -232.732 277.79 -232.385 279.524 -224.575 281.086 -224.922"/><polyline fill="none" stroke="#000" points="281 -229 277.095 -228.133"/><ellipse cx="273.971" cy="-227.44" fill="none" stroke="#000" rx="3.2" ry="3.2"/></g><g id="node3" class="node"><title>user_contacts</title><g id="a_node3"><a target="_top" xlink:href="../../tables/user_contacts.html" xlink:title="user_contacts"><polygon fill="#fff" stroke="none" points="285.5 -37 285.5 -161 412.5 -161 412.5 -37 285.5 -37"/><polygon fill="#f5f5f5" stroke="none" points="286 -139 286 -161 413 -161 413 -139 286 -139"/><polygon fill="none" stroke="#000" points="286 -139 286 -161 413 -161 413 -139 286 -139"/><text x="291" y="-148.2" font-family="Helvetica,sans-Serif" font-size="11" font-weight="bold" text-anchor="start">user_contacts</text><text x="374" y="-147.2" font-family="Helvetica,sans-Serif" font-size="11" text-anchor="start">[table]</text><polygon fill="none" stroke="#000" points="286 -117 286 -139 413 -139 413 -117 286 -117"/><image width="11" height="12" x="291" y="-134" preserveAspectRatio="xMinYMin meet" xlink:href="../../images/primaryKeys.png"/><text x="318" y="-125.2" font-family="Helvetica,sans-Serif" font-size="11" text-anchor="start">id</text><polygon fill="#fff" stroke="none" points="286 -95 286 -117 413 -117 413 -95 286 -95"/><polygon fill="none" stroke="#000" points="286 -95 286 -117 413 -117 413 -95 286 -95"/><text x="318" y="-103.2" font-family="Helvetica,sans-Serif" font-size="11" text-anchor="start">email</text><polygon fill="#fff" stroke="none" points="286 -73 286 -95 413 -95 413 -73 286 -73"/><polygon fill="none" stroke="#000" points="286 -73 286 -95 413 -95 413 -73 286 -73"/><image width="11" height="12" x="291" y="-90" preserveAspectRatio="xMinYMin meet" xlink:href="../../images/foreignKeys.png"/><text x="318" y="-81.2" font-family="Helvetica,sans-Serif" font-size="11" text-anchor="start">user_id</text><polygon fill="none" stroke="#000" points="286 -55 286 -73 413 -73 413 -55 286 -55"/><text x="289" y="-61.2" font-family="Helvetica,sans-Serif" font-size="11" text-anchor="start">...</text><polygon fill="#fff" stroke="none" points="286 -37 286 -55 333 -55 333 -37 286 -37"/><polygon fill="none" stroke="#000" points="286 -37 286 -55 333 -55 333 -37 286 -37"/><text x="289" y="-43.2" font-family="Helvetica,sans-Serif" font-size="11" text-anchor="start">&lt; 1</text><polygon fill="#fff" stroke="none" points="333 -37 333 -55 387 -55 387 -37 333 -37"/><polygon fill="none" stroke="#000" points="333 -37 333 -55 387 -55 387 -37 333 -37"/><text x="348" y="-43.2" font-family="Helvetica,sans-Serif" font-size="11" text-anchor="start">0 rows</text><polygon fill="#fff" stroke="none" points="387 -37 387 -55 413 -55 413 -37 387 -37"/><polygon fill="none" stroke="#000" points="387 -37 387 -55 413 -55 413 -37 387 -37"/></a></g></g><g id="edge2" class="edge"><title>user_contacts:user_id:w-&gt;users:id.type:e</title><path fill="none" stroke="#000" d="M274.526,-86.2338C250.292,-98.3866 267.927,-156 232.5,-156"/><polygon fill="#000" stroke="#000" points="283.383 -80.255 285.052 -88.079 283.487 -88.413 281.818 -80.589 283.383 -80.255"/><polyline fill="none" stroke="#000" points="285 -84 281.088 -84.834"/><ellipse cx="277.958" cy="-85.502" fill="none" stroke="#000" rx="3.2" ry="3.2"/></g></g></svg>