<svg xmlns="http://www.w3.org/2000/svg" xmlns:xlink="http://www.w3.org/1999/xlink" width="401pt" height="247pt" viewBox="0 0 401 247"><g id="graph0" class="graph" transform="scale(1 1) rotate(0) translate(4 243)"><title>oneDegreeRelationshipsDiagram</title><polygon fill="#fff" stroke="none" points="-4 4 -4 -243 397 -243 397 4 -4 4"/><text x="74.5" y="-7.2" font-family="Helvetica,sans-Serif" font-size="11" text-anchor="middle">Generated by SchemaSpy</text><g id="node1" class="node"><title>user_contacts</title><g id="a_node1"><a target="_top" xlink:href="../../tables/user_contacts.html" xlink:title="user_contacts"><polygon fill="#fff" stroke="none" points="169 -37 169 -235 385 -235 385 -37 169 -37"/><polygon fill="#f5f5f5" stroke="none" points="171 -211 171 -233 383 -233 383 -211 171 -211"/><polygon fill="none" stroke="#000" points="171 -211 171 -233 383 -233 383 -211 171 -211"/><text x="176" y="-220.2" font-family="Helvetica,sans-Serif" font-size="11" font-weight="bold" text-anchor="start">user_contacts</text><text x="344" y="-219.2" font-family="Helvetica,sans-Serif" font-size="11" text-anchor="start">[table]</text><polygon fill="none" stroke="#000" points="171 -189 171 -211 274 -211 274 -189 171 -189"/><image width="11" height="12" x="176" y="-206" preserveAspectRatio="xMinYMin meet" xlink:href="../../images/primaryKeys.png"/><text x="191" y="-197.2" font-family="Helvetica,sans-Serif" font-size="11" text-anchor="start">id</text><polygon fill="none" stroke="#000" points="274 -189 274 -211 383 -211 383 -189 274 -189"/><text x="277" y="-197.2" font-family="Helvetica,sans-Serif" font-size="11" text-anchor="start">bigserial[19]</text><polygon fill="#fff" stroke="none" points="171 -167 171 -189 274 -189 274 -167 171 -167"/><polygon fill="none" stroke="#000" points="171 -167 171 -189 274 -189 274 -167 171 -167"/><text x="191" y="-175.2" font-family="Helvetica,sans-Serif" font-size="11" text-anchor="start">email</text><polygon fill="none" stroke="#000" points="274 -167 274 -189 383 -189 383 -167 274 -167"/><text x="277" y="-175.2" font-family="Helvetica,sans-Serif" font-size="11" text-anchor="start">citext[2147483647]</text><polygon fill="#fff" stroke="none" points="171 -145 171 -167 274 -167 274 -145 171 -145"/><polygon fill="none" stroke="#000" points="171 -145 171 -167 274 -167 274 -145 171 -145"/><image width="11" height="12" x="176" y="-162" preserveAspectRatio="xMinYMin meet" xlink:href="../../images/foreignKeys.png"/><text x="191" y="-153.2" font-family="Helvetica,sans-Serif" font-size="11" text-anchor="start">user_id</text><polygon fill="none" stroke="#000" points="274 -145 274 -167 383 -167 383 -145 274 -145"/><text x="277" y="-153.2" font-family="Helvetica,sans-Serif" font-size="11" text-anchor="start">int8[19]</text><polygon fill="none" stroke="#000" points="171 -123 171 -145 274 -145 274 -123 171 -123"/><text x="191" y="-131.2" font-family="Helvetica,sans-Serif" font-size="11" text-anchor="start">primary</text><polygon fill="none" stroke="#000" points="274 -123 274 -145 383 -145 383 -123 274 -123"/><text x="277" y="-131.2" font-family="Helvetica,sans-Serif" font-size="11" text-anchor="start">bool[1]</text><polygon fill="none" stroke="#000" points="171 -101 171 -123 274 -123 274 -101 171 -101"/><text x="191" y="-109.2" font-family="Helvetica,sans-Serif" font-size="11" text-anchor="start">verified</text><polygon fill="none" stroke="#000" points="274 -101 274 -123 383 -123 383 -101 274 -101"/><text x="277" y="-109.2" font-family="Helvetica,sans-Serif" font-size="11" text-anchor="start">bool[1]</text><polygon fill="none" stroke="#000" points="171 -79 171 -101 274 -101 274 -79 171 -79"/><text x="191" y="-87.2" font-family="Helvetica,sans-Serif" font-size="11" text-anchor="start">inserted_at</text><polygon fill="none" stroke="#000" points="274 -79 274 -101 383 -101 383 -79 274 -79"/><text x="277" y="-87.2" font-family="Helvetica,sans-Serif" font-size="11" text-anchor="start">timestamp[29,6]</text><polygon fill="none" stroke="#000" points="171 -57 171 -79 274 -79 274 -57 171 -57"/><text x="191" y="-65.2" font-family="Helvetica,sans-Serif" font-size="11" text-anchor="start">updated_at</text><polygon fill="none" stroke="#000" points="274 -57 274 -79 383 -79 383 -57 274 -57"/><text x="277" y="-65.2" font-family="Helvetica,sans-Serif" font-size="11" text-anchor="start">timestamp[29,6]</text><polygon fill="#fff" stroke="none" points="171 -39 171 -57 213 -57 213 -39 171 -39"/><polygon fill="none" stroke="#000" points="171 -39 171 -57 213 -57 213 -39 171 -39"/><text x="174" y="-45.2" font-family="Helvetica,sans-Serif" font-size="11" text-anchor="start">&lt; 1</text><polygon fill="#fff" stroke="none" points="213 -39 213 -57 274 -57 274 -39 213 -39"/><polygon fill="none" stroke="#000" points="213 -39 213 -57 274 -57 274 -39 213 -39"/><text x="235" y="-45.2" font-family="Helvetica,sans-Serif" font-size="11" text-anchor="start">0 rows</text><polygon fill="#fff" stroke="none" points="274 -39 274 -57 383 -57 383 -39 274 -39"/><polygon fill="none" stroke="#000" points="274 -39 274 -57 383 -57 383 -39 274 -39"/><text x="363" y="-45.2" font-family="Helvetica,sans-Serif" font-size="11" text-anchor="start">0 &gt;</text><polygon fill="none" stroke="#000" stroke-width="2" points="170 -38 170 -234 384 -234 384 -38 170 -38"/></a></g></g><g id="node2" class="node"><title>users</title><g id="a_node2"><a target="_top" xlink:href="../../tables/users.html" xlink:title="users"><polygon fill="#fff" stroke="none" points="8 -87 8 -189 120 -189 120 -87 8 -87"/><polygon fill="#f5f5f5" stroke="none" points="8 -167 8 -189 120 -189 120 -167 8 -167"/><polygon fill="none" stroke="#000" points="8 -167 8 -189 120 -189 120 -167 8 -167"/><text x="13" y="-176.2" font-family="Helvetica,sans-Serif" font-size="11" font-weight="bold" text-anchor="start">users</text><text x="81" y="-175.2" font-family="Helvetica,sans-Serif" font-size="11" text-anchor="start">[table]</text><polygon fill="none" stroke="#000" points="8 -145 8 -167 120 -167 120 -145 8 -145"/><image width="11" height="12" x="13" y="-162" preserveAspectRatio="xMinYMin meet" xlink:href="../../images/primaryKeys.png"/><text x="28" y="-153.2" font-family="Helvetica,sans-Serif" font-size="11" text-anchor="start">id</text><polygon fill="#fff" stroke="none" points="8 -123 8 -145 120 -145 120 -123 8 -123"/><polygon fill="none" stroke="#000" points="8 -123 8 -145 120 -145 120 -123 8 -123"/><text x="28" y="-131.2" font-family="Helvetica,sans-Serif" font-size="11" text-anchor="start">username</text><polygon fill="none" stroke="#000" points="8 -105 8 -123 120 -123 120 -105 8 -105"/><text x="11" y="-111.2" font-family="Helvetica,sans-Serif" font-size="11" text-anchor="start">...</text><polygon fill="#fff" stroke="none" points="8 -87 8 -105 38 -105 38 -87 8 -87"/><polygon fill="none" stroke="#000" points="8 -87 8 -105 38 -105 38 -87 8 -87"/><polygon fill="#fff" stroke="none" points="38 -87 38 -105 88 -105 88 -87 38 -87"/><polygon fill="none" stroke="#000" points="38 -87 38 -105 88 -105 88 -87 38 -87"/><text x="49" y="-93.2" font-family="Helvetica,sans-Serif" font-size="11" text-anchor="start">0 rows</text><polygon fill="#fff" stroke="none" points="88 -87 88 -105 120 -105 120 -87 88 -87"/><polygon fill="none" stroke="#000" points="88 -87 88 -105 120 -105 120 -87 88 -87"/><text x="100" y="-93.2" font-family="Helvetica,sans-Serif" font-size="11" text-anchor="start">2 &gt;</text></a></g></g><g id="edge1" class="edge"><title>user_contacts:user_id:w-&gt;users:id:e</title><path fill="none" stroke="#000" d="M159.257,-156C145.606,-156 138.694,-156 121,-156"/><polygon fill="#000" stroke="#000" points="169.2 -152 169.2 -160 167.6 -160 167.6 -152 169.2 -152"/><polyline fill="none" stroke="#000" points="170 -156 166 -156"/><ellipse cx="162.8" cy="-156" fill="none" stroke="#000" rx="3.2" ry="3.2"/></g></g></svg>