<svg xmlns="http://www.w3.org/2000/svg" xmlns:xlink="http://www.w3.org/1999/xlink" width="250pt" height="256" viewBox="0 0 250 192"><g id="graph0" class="graph" transform="scale(1 1) rotate(0) translate(4 188)"><title>address_names</title><polygon fill="#fff" stroke="none" points="-4 4 -4 -188 246 -188 246 4 -4 4"/><g id="node1" class="node"><title>address_names</title><g id="a_node1"><a target="_top" xlink:href="../../tables/address_names.html" xlink:title="address_names"><polygon fill="#fff" stroke="none" points="8 -4 8 -180 234 -180 234 -4 8 -4"/><polygon fill="#f5f5f5" stroke="none" points="10 -156 10 -178 232 -178 232 -156 10 -156"/><polygon fill="none" stroke="#000" points="10 -156 10 -178 232 -178 232 -156 10 -156"/><text x="15" y="-165.2" font-family="Helvetica,sans-Serif" font-size="11" font-weight="bold" text-anchor="start">address_names</text><text x="193" y="-164.2" font-family="Helvetica,sans-Serif" font-size="11" text-anchor="start">[table]</text><polygon fill="#fff" stroke="none" points="10 -134 10 -156 122 -156 122 -134 10 -134"/><polygon fill="none" stroke="#000" points="10 -134 10 -156 122 -156 122 -134 10 -134"/><text x="30" y="-142.2" font-family="Helvetica,sans-Serif" font-size="11" text-anchor="start">address_hash</text><polygon fill="none" stroke="#000" points="122 -134 122 -156 232 -156 232 -134 122 -134"/><text x="125" y="-142.2" font-family="Helvetica,sans-Serif" font-size="11" text-anchor="start">bytea[2147483647]</text><polygon fill="#fff" stroke="none" points="10 -112 10 -134 122 -134 122 -112 10 -112"/><polygon fill="none" stroke="#000" points="10 -112 10 -134 122 -134 122 -112 10 -112"/><text x="30" y="-120.2" font-family="Helvetica,sans-Serif" font-size="11" text-anchor="start">name</text><polygon fill="none" stroke="#000" points="122 -112 122 -134 232 -134 232 -112 122 -112"/><text x="125" y="-120.2" font-family="Helvetica,sans-Serif" font-size="11" text-anchor="start">varchar[255]</text><polygon fill="none" stroke="#000" points="10 -90 10 -112 122 -112 122 -90 10 -90"/><text x="30" y="-98.2" font-family="Helvetica,sans-Serif" font-size="11" text-anchor="start">primary</text><polygon fill="none" stroke="#000" points="122 -90 122 -112 232 -112 232 -90 122 -90"/><text x="125" y="-98.2" font-family="Helvetica,sans-Serif" font-size="11" text-anchor="start">bool[1]</text><polygon fill="none" stroke="#000" points="10 -68 10 -90 122 -90 122 -68 10 -68"/><text x="30" y="-76.2" font-family="Helvetica,sans-Serif" font-size="11" text-anchor="start">inserted_at</text><polygon fill="none" stroke="#000" points="122 -68 122 -90 232 -90 232 -68 122 -68"/><text x="125" y="-76.2" font-family="Helvetica,sans-Serif" font-size="11" text-anchor="start">timestamp[29,6]</text><polygon fill="none" stroke="#000" points="10 -46 10 -68 122 -68 122 -46 10 -46"/><text x="30" y="-54.2" font-family="Helvetica,sans-Serif" font-size="11" text-anchor="start">updated_at</text><polygon fill="none" stroke="#000" points="122 -46 122 -68 232 -68 232 -46 122 -46"/><text x="125" y="-54.2" font-family="Helvetica,sans-Serif" font-size="11" text-anchor="start">timestamp[29,6]</text><polygon fill="none" stroke="#000" points="10 -24 10 -46 122 -46 122 -24 10 -24"/><text x="30" y="-32.2" font-family="Helvetica,sans-Serif" font-size="11" text-anchor="start">metadata</text><polygon fill="none" stroke="#000" points="122 -24 122 -46 232 -46 232 -24 122 -24"/><text x="125" y="-32.2" font-family="Helvetica,sans-Serif" font-size="11" text-anchor="start">jsonb[2147483647]</text><polygon fill="#fff" stroke="none" points="10 -6 10 -24 56 -24 56 -6 10 -6"/><polygon fill="none" stroke="#000" points="10 -6 10 -24 56 -24 56 -6 10 -6"/><text x="13" y="-12.2" font-family="Helvetica,sans-Serif" font-size="11" text-anchor="start">&lt; 0</text><polygon fill="#fff" stroke="none" points="56 -6 56 -24 122 -24 122 -6 56 -6"/><polygon fill="none" stroke="#000" points="56 -6 56 -24 122 -24 122 -6 56 -6"/><text x="83" y="-12.2" font-family="Helvetica,sans-Serif" font-size="11" text-anchor="start">0 rows</text><polygon fill="#fff" stroke="none" points="122 -6 122 -24 232 -24 232 -6 122 -6"/><polygon fill="none" stroke="#000" points="122 -6 122 -24 232 -24 232 -6 122 -6"/><text x="212" y="-12.2" font-family="Helvetica,sans-Serif" font-size="11" text-anchor="start">0 &gt;</text><polygon fill="none" stroke="#000" stroke-width="2" points="9 -5 9 -179 233 -179 233 -5 9 -5"/></a></g></g></g></svg>