<svg xmlns="http://www.w3.org/2000/svg" xmlns:xlink="http://www.w3.org/1999/xlink" width="356" height="256" viewBox="0 0 267 192"><g id="graph0" class="graph" transform="scale(1 1) rotate(0) translate(4 188)"><title>contract_methods</title><polygon fill="#fff" stroke="none" points="-4 4 -4 -188 263 -188 263 4 -4 4"/><g id="node1" class="node"><title>contract_methods</title><g id="a_node1"><a target="_top" xlink:href="../../tables/contract_methods.html" xlink:title="contract_methods"><polygon fill="#fff" stroke="none" points="8 -4 8 -180 251 -180 251 -4 8 -4"/><polygon fill="#f5f5f5" stroke="none" points="10.5 -156 10.5 -178 249.5 -178 249.5 -156 10.5 -156"/><polygon fill="none" stroke="#000" points="10.5 -156 10.5 -178 249.5 -178 249.5 -156 10.5 -156"/><text x="15.5" y="-165.2" font-family="Helvetica,sans-Serif" font-size="11" font-weight="bold" text-anchor="start">contract_methods</text><text x="210.5" y="-164.2" font-family="Helvetica,sans-Serif" font-size="11" text-anchor="start">[table]</text><polygon fill="none" stroke="#000" points="10.5 -134 10.5 -156 139.5 -156 139.5 -134 10.5 -134"/><image width="11" height="12" x="15.5" y="-151" preserveAspectRatio="xMinYMin meet" xlink:href="../../images/primaryKeys.png"/><text x="30.5" y="-142.2" font-family="Helvetica,sans-Serif" font-size="11" text-anchor="start">id</text><polygon fill="none" stroke="#000" points="139.5 -134 139.5 -156 249.5 -156 249.5 -134 139.5 -134"/><text x="142.5" y="-142.2" font-family="Helvetica,sans-Serif" font-size="11" text-anchor="start">bigserial[19]</text><polygon fill="#fff" stroke="none" points="10.5 -112 10.5 -134 139.5 -134 139.5 -112 10.5 -112"/><polygon fill="none" stroke="#000" points="10.5 -112 10.5 -134 139.5 -134 139.5 -112 10.5 -112"/><text x="30.5" y="-120.2" font-family="Helvetica,sans-Serif" font-size="11" text-anchor="start">identifier</text><polygon fill="none" stroke="#000" points="139.5 -112 139.5 -134 249.5 -134 249.5 -112 139.5 -112"/><text x="142.5" y="-120.2" font-family="Helvetica,sans-Serif" font-size="11" text-anchor="start">int4[10]</text><polygon fill="#fff" stroke="none" points="10.5 -90 10.5 -112 139.5 -112 139.5 -90 10.5 -90"/><polygon fill="none" stroke="#000" points="10.5 -90 10.5 -112 139.5 -112 139.5 -90 10.5 -90"/><text x="30.5" y="-98.2" font-family="Helvetica,sans-Serif" font-size="11" text-anchor="start">abi</text><polygon fill="none" stroke="#000" points="139.5 -90 139.5 -112 249.5 -112 249.5 -90 139.5 -90"/><text x="142.5" y="-98.2" font-family="Helvetica,sans-Serif" font-size="11" text-anchor="start">jsonb[2147483647]</text><polygon fill="none" stroke="#000" points="10.5 -68 10.5 -90 139.5 -90 139.5 -68 10.5 -68"/><text x="30.5" y="-76.2" font-family="Helvetica,sans-Serif" font-size="11" text-anchor="start">type</text><polygon fill="none" stroke="#000" points="139.5 -68 139.5 -90 249.5 -90 249.5 -68 139.5 -68"/><text x="142.5" y="-76.2" font-family="Helvetica,sans-Serif" font-size="11" text-anchor="start">varchar[255]</text><polygon fill="none" stroke="#000" points="10.5 -46 10.5 -68 139.5 -68 139.5 -46 10.5 -46"/><text x="30.5" y="-54.2" font-family="Helvetica,sans-Serif" font-size="11" text-anchor="start">inserted_at</text><polygon fill="none" stroke="#000" points="139.5 -46 139.5 -68 249.5 -68 249.5 -46 139.5 -46"/><text x="142.5" y="-54.2" font-family="Helvetica,sans-Serif" font-size="11" text-anchor="start">timestamp[29,6]</text><polygon fill="none" stroke="#000" points="10.5 -24 10.5 -46 139.5 -46 139.5 -24 10.5 -24"/><text x="30.5" y="-32.2" font-family="Helvetica,sans-Serif" font-size="11" text-anchor="start">updated_at</text><polygon fill="none" stroke="#000" points="139.5 -24 139.5 -46 249.5 -46 249.5 -24 139.5 -24"/><text x="142.5" y="-32.2" font-family="Helvetica,sans-Serif" font-size="11" text-anchor="start">timestamp[29,6]</text><polygon fill="#fff" stroke="none" points="10.5 -6 10.5 -24 65.5 -24 65.5 -6 10.5 -6"/><polygon fill="none" stroke="#000" points="10.5 -6 10.5 -24 65.5 -24 65.5 -6 10.5 -6"/><text x="13.5" y="-12.2" font-family="Helvetica,sans-Serif" font-size="11" text-anchor="start">&lt; 0</text><polygon fill="#fff" stroke="none" points="65.5 -6 65.5 -24 139.5 -24 139.5 -6 65.5 -6"/><polygon fill="none" stroke="#000" points="65.5 -6 65.5 -24 139.5 -24 139.5 -6 65.5 -6"/><text x="100.5" y="-12.2" font-family="Helvetica,sans-Serif" font-size="11" text-anchor="start">0 rows</text><polygon fill="#fff" stroke="none" points="139.5 -6 139.5 -24 249.5 -24 249.5 -6 139.5 -6"/><polygon fill="none" stroke="#000" points="139.5 -6 139.5 -24 249.5 -24 249.5 -6 139.5 -6"/><text x="229.5" y="-12.2" font-family="Helvetica,sans-Serif" font-size="11" text-anchor="start">0 &gt;</text><polygon fill="none" stroke="#000" stroke-width="2" points="9 -5 9 -179 250 -179 250 -5 9 -5"/></a></g></g></g></svg>