<svg xmlns="http://www.w3.org/2000/svg" xmlns:xlink="http://www.w3.org/1999/xlink" width="326pt" height="170pt" viewBox="0 0 326 170"><g id="graph0" class="graph" transform="scale(1 1) rotate(0) translate(4 166)"><title>contract_verification_status</title><polygon fill="#fff" stroke="none" points="-4 4 -4 -166 322 -166 322 4 -4 4"/><g id="node1" class="node"><title>contract_verification_status</title><g id="a_node1"><a target="_top" xlink:href="../../tables/contract_verification_status.html" xlink:title="contract_verification_status"><polygon fill="#fff" stroke="none" points="8 -4 8 -158 310 -158 310 -4 8 -4"/><polygon fill="#f5f5f5" stroke="none" points="10 -134 10 -156 308 -156 308 -134 10 -134"/><polygon fill="none" stroke="#000" points="10 -134 10 -156 308 -156 308 -134 10 -134"/><text x="15" y="-143.2" font-family="Helvetica,sans-Serif" font-size="11" font-weight="bold" text-anchor="start">contract_verification_status</text><text x="269" y="-142.2" font-family="Helvetica,sans-Serif" font-size="11" text-anchor="start">[table]</text><polygon fill="none" stroke="#000" points="10 -112 10 -134 198 -134 198 -112 10 -112"/><image width="11" height="12" x="15" y="-129" preserveAspectRatio="xMinYMin meet" xlink:href="../../images/primaryKeys.png"/><text x="30" y="-120.2" font-family="Helvetica,sans-Serif" font-size="11" text-anchor="start">uid</text><polygon fill="none" stroke="#000" points="198 -112 198 -134 308 -134 308 -112 198 -112"/><text x="201" y="-120.2" font-family="Helvetica,sans-Serif" font-size="11" text-anchor="start">varchar[64]</text><polygon fill="none" stroke="#000" points="10 -90 10 -112 198 -112 198 -90 10 -90"/><text x="30" y="-98.2" font-family="Helvetica,sans-Serif" font-size="11" text-anchor="start">status</text><polygon fill="none" stroke="#000" points="198 -90 198 -112 308 -112 308 -90 198 -90"/><text x="201" y="-98.2" font-family="Helvetica,sans-Serif" font-size="11" text-anchor="start">int2[5]</text><polygon fill="none" stroke="#000" points="10 -68 10 -90 198 -90 198 -68 10 -68"/><text x="30" y="-76.2" font-family="Helvetica,sans-Serif" font-size="11" text-anchor="start">address_hash</text><polygon fill="none" stroke="#000" points="198 -68 198 -90 308 -90 308 -68 198 -68"/><text x="201" y="-76.2" font-family="Helvetica,sans-Serif" font-size="11" text-anchor="start">bytea[2147483647]</text><polygon fill="none" stroke="#000" points="10 -46 10 -68 198 -68 198 -46 10 -46"/><text x="30" y="-54.2" font-family="Helvetica,sans-Serif" font-size="11" text-anchor="start">inserted_at</text><polygon fill="none" stroke="#000" points="198 -46 198 -68 308 -68 308 -46 198 -46"/><text x="201" y="-54.2" font-family="Helvetica,sans-Serif" font-size="11" text-anchor="start">timestamp[29,6]</text><polygon fill="none" stroke="#000" points="10 -24 10 -46 198 -46 198 -24 10 -24"/><text x="30" y="-32.2" font-family="Helvetica,sans-Serif" font-size="11" text-anchor="start">updated_at</text><polygon fill="none" stroke="#000" points="198 -24 198 -46 308 -46 308 -24 198 -24"/><text x="201" y="-32.2" font-family="Helvetica,sans-Serif" font-size="11" text-anchor="start">timestamp[29,6]</text><polygon fill="#fff" stroke="none" points="10 -6 10 -24 94 -24 94 -6 10 -6"/><polygon fill="none" stroke="#000" points="10 -6 10 -24 94 -24 94 -6 10 -6"/><text x="13" y="-12.2" font-family="Helvetica,sans-Serif" font-size="11" text-anchor="start">&lt; 0</text><polygon fill="#fff" stroke="none" points="94 -6 94 -24 198 -24 198 -6 94 -6"/><polygon fill="none" stroke="#000" points="94 -6 94 -24 198 -24 198 -6 94 -6"/><text x="159" y="-12.2" font-family="Helvetica,sans-Serif" font-size="11" text-anchor="start">0 rows</text><polygon fill="#fff" stroke="none" points="198 -6 198 -24 308 -24 308 -6 198 -6"/><polygon fill="none" stroke="#000" points="198 -6 198 -24 308 -24 308 -6 198 -6"/><text x="288" y="-12.2" font-family="Helvetica,sans-Serif" font-size="11" text-anchor="start">0 &gt;</text><polygon fill="none" stroke="#000" stroke-width="2" points="9 -5 9 -157 309 -157 309 -5 9 -5"/></a></g></g></g></svg>