<svg xmlns="http://www.w3.org/2000/svg" xmlns:xlink="http://www.w3.org/1999/xlink" width="287pt" height="104pt" viewBox="0 0 287 104"><g id="graph0" class="graph" transform="scale(1 1) rotate(0) translate(4 100)"><title>emission_rewards</title><polygon fill="#fff" stroke="none" points="-4 4 -4 -100 283 -100 283 4 -4 4"/><g id="node1" class="node"><title>emission_rewards</title><g id="a_node1"><a target="_top" xlink:href="../../tables/emission_rewards.html" xlink:title="emission_rewards"><polygon fill="#fff" stroke="none" points="8 -4 8 -92 271 -92 271 -4 8 -4"/><polygon fill="#f5f5f5" stroke="none" points="10.5 -68 10.5 -90 269.5 -90 269.5 -68 10.5 -68"/><polygon fill="none" stroke="#000" points="10.5 -68 10.5 -90 269.5 -90 269.5 -68 10.5 -68"/><text x="15.5" y="-77.2" font-family="Helvetica,sans-Serif" font-size="11" font-weight="bold" text-anchor="start">emission_rewards</text><text x="230.5" y="-76.2" font-family="Helvetica,sans-Serif" font-size="11" text-anchor="start">[table]</text><polygon fill="#fff" stroke="none" points="10.5 -46 10.5 -68 138.5 -68 138.5 -46 10.5 -46"/><polygon fill="none" stroke="#000" points="10.5 -46 10.5 -68 138.5 -68 138.5 -46 10.5 -46"/><text x="30.5" y="-54.2" font-family="Helvetica,sans-Serif" font-size="11" text-anchor="start">block_range</text><polygon fill="none" stroke="#000" points="138.5 -46 138.5 -68 269.5 -68 269.5 -46 138.5 -46"/><text x="141.5" y="-54.2" font-family="Helvetica,sans-Serif" font-size="11" text-anchor="start">int8range[2147483647]</text><polygon fill="none" stroke="#000" points="10.5 -24 10.5 -46 138.5 -46 138.5 -24 10.5 -24"/><text x="30.5" y="-32.2" font-family="Helvetica,sans-Serif" font-size="11" text-anchor="start">reward</text><polygon fill="none" stroke="#000" points="138.5 -24 138.5 -46 269.5 -46 269.5 -24 138.5 -24"/><text x="141.5" y="-32.2" font-family="Helvetica,sans-Serif" font-size="11" text-anchor="start">numeric[131089]</text><polygon fill="#fff" stroke="none" points="10.5 -6 10.5 -24 64.5 -24 64.5 -6 10.5 -6"/><polygon fill="none" stroke="#000" points="10.5 -6 10.5 -24 64.5 -24 64.5 -6 10.5 -6"/><text x="13.5" y="-12.2" font-family="Helvetica,sans-Serif" font-size="11" text-anchor="start">&lt; 0</text><polygon fill="#fff" stroke="none" points="64.5 -6 64.5 -24 138.5 -24 138.5 -6 64.5 -6"/><polygon fill="none" stroke="#000" points="64.5 -6 64.5 -24 138.5 -24 138.5 -6 64.5 -6"/><text x="99.5" y="-12.2" font-family="Helvetica,sans-Serif" font-size="11" text-anchor="start">0 rows</text><polygon fill="#fff" stroke="none" points="138.5 -6 138.5 -24 269.5 -24 269.5 -6 138.5 -6"/><polygon fill="none" stroke="#000" points="138.5 -6 138.5 -24 269.5 -24 269.5 -6 138.5 -6"/><text x="249.5" y="-12.2" font-family="Helvetica,sans-Serif" font-size="11" text-anchor="start">0 &gt;</text><polygon fill="none" stroke="#000" stroke-width="2" points="9 -5 9 -91 270 -91 270 -5 9 -5"/></a></g></g></g></svg>