<svg xmlns="http://www.w3.org/2000/svg" xmlns:xlink="http://www.w3.org/1999/xlink" width="272pt" height="148pt" viewBox="0 0 272 148"><g id="graph0" class="graph" transform="scale(1 1) rotate(0) translate(4 144)"><title>last_fetched_counters</title><polygon fill="#fff" stroke="none" points="-4 4 -4 -144 268 -144 268 4 -4 4"/><g id="node1" class="node"><title>last_fetched_counters</title><g id="a_node1"><a target="_top" xlink:href="../../tables/last_fetched_counters.html" xlink:title="last_fetched_counters"><polygon fill="#fff" stroke="none" points="8 -4 8 -136 256 -136 256 -4 8 -4"/><polygon fill="#f5f5f5" stroke="none" points="10 -112 10 -134 254 -134 254 -112 10 -112"/><polygon fill="none" stroke="#000" points="10 -112 10 -134 254 -134 254 -112 10 -112"/><text x="15" y="-121.2" font-family="Helvetica,sans-Serif" font-size="11" font-weight="bold" text-anchor="start">last_fetched_counters</text><text x="215" y="-120.2" font-family="Helvetica,sans-Serif" font-size="11" text-anchor="start">[table]</text><polygon fill="none" stroke="#000" points="10 -90 10 -112 161 -112 161 -90 10 -90"/><image width="11" height="12" x="15" y="-107" preserveAspectRatio="xMinYMin meet" xlink:href="../../images/primaryKeys.png"/><text x="30" y="-98.2" font-family="Helvetica,sans-Serif" font-size="11" text-anchor="start">counter_type</text><polygon fill="none" stroke="#000" points="161 -90 161 -112 254 -112 254 -90 161 -90"/><text x="164" y="-98.2" font-family="Helvetica,sans-Serif" font-size="11" text-anchor="start">varchar[255]</text><polygon fill="none" stroke="#000" points="10 -68 10 -90 161 -90 161 -68 10 -68"/><text x="30" y="-76.2" font-family="Helvetica,sans-Serif" font-size="11" text-anchor="start">value</text><polygon fill="none" stroke="#000" points="161 -68 161 -90 254 -90 254 -68 161 -68"/><text x="164" y="-76.2" font-family="Helvetica,sans-Serif" font-size="11" text-anchor="start">numeric[100]</text><polygon fill="none" stroke="#000" points="10 -46 10 -68 161 -68 161 -46 10 -46"/><text x="30" y="-54.2" font-family="Helvetica,sans-Serif" font-size="11" text-anchor="start">inserted_at</text><polygon fill="none" stroke="#000" points="161 -46 161 -68 254 -68 254 -46 161 -46"/><text x="164" y="-54.2" font-family="Helvetica,sans-Serif" font-size="11" text-anchor="start">timestamp[29,6]</text><polygon fill="none" stroke="#000" points="10 -24 10 -46 161 -46 161 -24 10 -24"/><text x="30" y="-32.2" font-family="Helvetica,sans-Serif" font-size="11" text-anchor="start">updated_at</text><polygon fill="none" stroke="#000" points="161 -24 161 -46 254 -46 254 -24 161 -24"/><text x="164" y="-32.2" font-family="Helvetica,sans-Serif" font-size="11" text-anchor="start">timestamp[29,6]</text><polygon fill="#fff" stroke="none" points="10 -6 10 -24 78 -24 78 -6 10 -6"/><polygon fill="none" stroke="#000" points="10 -6 10 -24 78 -24 78 -6 10 -6"/><text x="13" y="-12.2" font-family="Helvetica,sans-Serif" font-size="11" text-anchor="start">&lt; 0</text><polygon fill="#fff" stroke="none" points="78 -6 78 -24 161 -24 161 -6 78 -6"/><polygon fill="none" stroke="#000" points="78 -6 78 -24 161 -24 161 -6 78 -6"/><text x="127" y="-12.2" font-family="Helvetica,sans-Serif" font-size="11" text-anchor="start">1 row</text><polygon fill="#fff" stroke="none" points="161 -6 161 -24 254 -24 254 -6 161 -6"/><polygon fill="none" stroke="#000" points="161 -6 161 -24 254 -24 254 -6 161 -6"/><text x="234" y="-12.2" font-family="Helvetica,sans-Serif" font-size="11" text-anchor="start">0 &gt;</text><polygon fill="none" stroke="#000" stroke-width="2" points="9 -5 9 -135 255 -135 255 -5 9 -5"/></a></g></g></g></svg>