<svg xmlns="http://www.w3.org/2000/svg" xmlns:xlink="http://www.w3.org/1999/xlink" width="316" height="148pt" viewBox="0 0 237 148"><g id="graph0" class="graph" transform="scale(1 1) rotate(0) translate(4 144)"><title>market_history</title><polygon fill="#fff" stroke="none" points="-4 4 -4 -144 233 -144 233 4 -4 4"/><g id="node1" class="node"><title>market_history</title><g id="a_node1"><a target="_top" xlink:href="../../tables/market_history.html" xlink:title="market_history"><polygon fill="#fff" stroke="none" points="8 -4 8 -136 221 -136 221 -4 8 -4"/><polygon fill="#f5f5f5" stroke="none" points="10.5 -112 10.5 -134 219.5 -134 219.5 -112 10.5 -112"/><polygon fill="none" stroke="#000" points="10.5 -112 10.5 -134 219.5 -134 219.5 -112 10.5 -112"/><text x="15.5" y="-121.2" font-family="Helvetica,sans-Serif" font-size="11" font-weight="bold" text-anchor="start">market_history</text><text x="180.5" y="-120.2" font-family="Helvetica,sans-Serif" font-size="11" text-anchor="start">[table]</text><polygon fill="none" stroke="#000" points="10.5 -90 10.5 -112 122.5 -112 122.5 -90 10.5 -90"/><image width="11" height="12" x="15.5" y="-107" preserveAspectRatio="xMinYMin meet" xlink:href="../../images/primaryKeys.png"/><text x="30.5" y="-98.2" font-family="Helvetica,sans-Serif" font-size="11" text-anchor="start">id</text><polygon fill="none" stroke="#000" points="122.5 -90 122.5 -112 219.5 -112 219.5 -90 122.5 -90"/><text x="125.5" y="-98.2" font-family="Helvetica,sans-Serif" font-size="11" text-anchor="start">bigserial[19]</text><polygon fill="#fff" stroke="none" points="10.5 -68 10.5 -90 122.5 -90 122.5 -68 10.5 -68"/><polygon fill="none" stroke="#000" points="10.5 -68 10.5 -90 122.5 -90 122.5 -68 10.5 -68"/><text x="30.5" y="-76.2" font-family="Helvetica,sans-Serif" font-size="11" text-anchor="start">date</text><polygon fill="none" stroke="#000" points="122.5 -68 122.5 -90 219.5 -90 219.5 -68 122.5 -68"/><text x="125.5" y="-76.2" font-family="Helvetica,sans-Serif" font-size="11" text-anchor="start">date[13]</text><polygon fill="none" stroke="#000" points="10.5 -46 10.5 -68 122.5 -68 122.5 -46 10.5 -46"/><text x="30.5" y="-54.2" font-family="Helvetica,sans-Serif" font-size="11" text-anchor="start">closing_price</text><polygon fill="none" stroke="#000" points="122.5 -46 122.5 -68 219.5 -68 219.5 -46 122.5 -46"/><text x="125.5" y="-54.2" font-family="Helvetica,sans-Serif" font-size="11" text-anchor="start">numeric[131089]</text><polygon fill="none" stroke="#000" points="10.5 -24 10.5 -46 122.5 -46 122.5 -24 10.5 -24"/><text x="30.5" y="-32.2" font-family="Helvetica,sans-Serif" font-size="11" text-anchor="start">opening_price</text><polygon fill="none" stroke="#000" points="122.5 -24 122.5 -46 219.5 -46 219.5 -24 122.5 -24"/><text x="125.5" y="-32.2" font-family="Helvetica,sans-Serif" font-size="11" text-anchor="start">numeric[131089]</text><polygon fill="#fff" stroke="none" points="10.5 -6 10.5 -24 50.5 -24 50.5 -6 10.5 -6"/><polygon fill="none" stroke="#000" points="10.5 -6 10.5 -24 50.5 -24 50.5 -6 10.5 -6"/><text x="13.5" y="-12.2" font-family="Helvetica,sans-Serif" font-size="11" text-anchor="start">&lt; 0</text><polygon fill="#fff" stroke="none" points="50.5 -6 50.5 -24 122.5 -24 122.5 -6 50.5 -6"/><polygon fill="none" stroke="#000" points="50.5 -6 50.5 -24 122.5 -24 122.5 -6 50.5 -6"/><text x="70.5" y="-12.2" font-family="Helvetica,sans-Serif" font-size="11" text-anchor="start">367 rows</text><polygon fill="#fff" stroke="none" points="122.5 -6 122.5 -24 219.5 -24 219.5 -6 122.5 -6"/><polygon fill="none" stroke="#000" points="122.5 -6 122.5 -24 219.5 -24 219.5 -6 122.5 -6"/><text x="199.5" y="-12.2" font-family="Helvetica,sans-Serif" font-size="11" text-anchor="start">0 &gt;</text><polygon fill="none" stroke="#000" stroke-width="2" points="9 -5 9 -135 220 -135 220 -5 9 -5"/></a></g></g></g></svg>