<svg xmlns="http://www.w3.org/2000/svg" xmlns:xlink="http://www.w3.org/1999/xlink" width="248pt" height="104pt" viewBox="0 0 248 104"><g id="graph0" class="graph" transform="scale(1 1) rotate(0) translate(4 100)"><title>schema_migrations</title><polygon fill="#fff" stroke="none" points="-4 4 -4 -100 244 -100 244 4 -4 4"/><g id="node1" class="node"><title>schema_migrations</title><g id="a_node1"><a target="_top" xlink:href="../../tables/schema_migrations.html" xlink:title="schema_migrations"><polygon fill="#fff" stroke="none" points="8 -4 8 -92 232 -92 232 -4 8 -4"/><polygon fill="#f5f5f5" stroke="none" points="10 -68 10 -90 230 -90 230 -68 10 -68"/><polygon fill="none" stroke="#000" points="10 -68 10 -90 230 -90 230 -68 10 -68"/><text x="15" y="-77.2" font-family="Helvetica,sans-Serif" font-size="11" font-weight="bold" text-anchor="start">schema_migrations</text><text x="191" y="-76.2" font-family="Helvetica,sans-Serif" font-size="11" text-anchor="start">[table]</text><polygon fill="none" stroke="#000" points="10 -46 10 -68 147 -68 147 -46 10 -46"/><image width="11" height="12" x="15" y="-63" preserveAspectRatio="xMinYMin meet" xlink:href="../../images/primaryKeys.png"/><text x="30" y="-54.2" font-family="Helvetica,sans-Serif" font-size="11" text-anchor="start">version</text><polygon fill="none" stroke="#000" points="147 -46 147 -68 230 -68 230 -46 147 -46"/><text x="150" y="-54.2" font-family="Helvetica,sans-Serif" font-size="11" text-anchor="start">int8[19]</text><polygon fill="none" stroke="#000" points="10 -24 10 -46 147 -46 147 -24 10 -24"/><text x="30" y="-32.2" font-family="Helvetica,sans-Serif" font-size="11" text-anchor="start">inserted_at</text><polygon fill="none" stroke="#000" points="147 -24 147 -46 230 -46 230 -24 147 -24"/><text x="150" y="-32.2" font-family="Helvetica,sans-Serif" font-size="11" text-anchor="start">timestamp[22]</text><polygon fill="#fff" stroke="none" points="10 -6 10 -24 62 -24 62 -6 10 -6"/><polygon fill="none" stroke="#000" points="10 -6 10 -24 62 -24 62 -6 10 -6"/><text x="13" y="-12.2" font-family="Helvetica,sans-Serif" font-size="11" text-anchor="start">&lt; 0</text><polygon fill="#fff" stroke="none" points="62 -6 62 -24 147 -24 147 -6 62 -6"/><polygon fill="none" stroke="#000" points="62 -6 62 -24 147 -24 147 -6 62 -6"/><text x="95" y="-12.2" font-family="Helvetica,sans-Serif" font-size="11" text-anchor="start">153 rows</text><polygon fill="#fff" stroke="none" points="147 -6 147 -24 230 -24 230 -6 147 -6"/><polygon fill="none" stroke="#000" points="147 -6 147 -24 230 -24 230 -6 147 -6"/><text x="210" y="-12.2" font-family="Helvetica,sans-Serif" font-size="11" text-anchor="start">0 &gt;</text><polygon fill="none" stroke="#000" stroke-width="2" points="9 -5 9 -91 231 -91 231 -5 9 -5"/></a></g></g></g></svg>