<svg xmlns="http://www.w3.org/2000/svg" xmlns:xlink="http://www.w3.org/1999/xlink" width="360" height="170pt" viewBox="0 0 270 170"><g id="graph0" class="graph" transform="scale(1 1) rotate(0) translate(4 166)"><title>transaction_stats</title><polygon fill="#fff" stroke="none" points="-4 4 -4 -166 266 -166 266 4 -4 4"/><g id="node1" class="node"><title>transaction_stats</title><g id="a_node1"><a target="_top" xlink:href="../../tables/transaction_stats.html" xlink:title="transaction_stats"><polygon fill="#fff" stroke="none" points="8 -4 8 -158 254 -158 254 -4 8 -4"/><polygon fill="#f5f5f5" stroke="none" points="10 -134 10 -156 252 -156 252 -134 10 -134"/><polygon fill="none" stroke="#000" points="10 -134 10 -156 252 -156 252 -134 10 -134"/><text x="15" y="-143.2" font-family="Helvetica,sans-Serif" font-size="11" font-weight="bold" text-anchor="start">transaction_stats</text><text x="213" y="-142.2" font-family="Helvetica,sans-Serif" font-size="11" text-anchor="start">[table]</text><polygon fill="none" stroke="#000" points="10 -112 10 -134 175 -134 175 -112 10 -112"/><image width="11" height="12" x="15" y="-129" preserveAspectRatio="xMinYMin meet" xlink:href="../../images/primaryKeys.png"/><text x="30" y="-120.2" font-family="Helvetica,sans-Serif" font-size="11" text-anchor="start">id</text><polygon fill="none" stroke="#000" points="175 -112 175 -134 252 -134 252 -112 175 -112"/><text x="178" y="-120.2" font-family="Helvetica,sans-Serif" font-size="11" text-anchor="start">bigserial[19]</text><polygon fill="#fff" stroke="none" points="10 -90 10 -112 175 -112 175 -90 10 -90"/><polygon fill="none" stroke="#000" points="10 -90 10 -112 175 -112 175 -90 10 -90"/><text x="30" y="-98.2" font-family="Helvetica,sans-Serif" font-size="11" text-anchor="start">date</text><polygon fill="none" stroke="#000" points="175 -90 175 -112 252 -112 252 -90 175 -90"/><text x="178" y="-98.2" font-family="Helvetica,sans-Serif" font-size="11" text-anchor="start">date[13]</text><polygon fill="none" stroke="#000" points="10 -68 10 -90 175 -90 175 -68 10 -68"/><text x="30" y="-76.2" font-family="Helvetica,sans-Serif" font-size="11" text-anchor="start">number_of_transactions</text><polygon fill="none" stroke="#000" points="175 -68 175 -90 252 -90 252 -68 175 -68"/><text x="178" y="-76.2" font-family="Helvetica,sans-Serif" font-size="11" text-anchor="start">int4[10]</text><polygon fill="none" stroke="#000" points="10 -46 10 -68 175 -68 175 -46 10 -46"/><text x="30" y="-54.2" font-family="Helvetica,sans-Serif" font-size="11" text-anchor="start">gas_used</text><polygon fill="none" stroke="#000" points="175 -46 175 -68 252 -68 252 -46 175 -46"/><text x="178" y="-54.2" font-family="Helvetica,sans-Serif" font-size="11" text-anchor="start">numeric[100]</text><polygon fill="none" stroke="#000" points="10 -24 10 -46 175 -46 175 -24 10 -24"/><text x="30" y="-32.2" font-family="Helvetica,sans-Serif" font-size="11" text-anchor="start">total_fee</text><polygon fill="none" stroke="#000" points="175 -24 175 -46 252 -46 252 -24 175 -24"/><text x="178" y="-32.2" font-family="Helvetica,sans-Serif" font-size="11" text-anchor="start">numeric[100]</text><polygon fill="#fff" stroke="none" points="10 -6 10 -24 79 -24 79 -6 10 -6"/><polygon fill="none" stroke="#000" points="10 -6 10 -24 79 -24 79 -6 10 -6"/><text x="13" y="-12.2" font-family="Helvetica,sans-Serif" font-size="11" text-anchor="start">&lt; 0</text><polygon fill="#fff" stroke="none" points="79 -6 79 -24 175 -24 175 -6 79 -6"/><polygon fill="none" stroke="#000" points="79 -6 79 -24 175 -24 175 -6 79 -6"/><text x="129" y="-12.2" font-family="Helvetica,sans-Serif" font-size="11" text-anchor="start">10 rows</text><polygon fill="#fff" stroke="none" points="175 -6 175 -24 252 -24 252 -6 175 -6"/><polygon fill="none" stroke="#000" points="175 -6 175 -24 252 -24 252 -6 175 -6"/><text x="232" y="-12.2" font-family="Helvetica,sans-Serif" font-size="11" text-anchor="start">0 &gt;</text><polygon fill="none" stroke="#000" stroke-width="2" points="9 -5 9 -157 253 -157 253 -5 9 -5"/></a></g></g></g></svg>